<?xml version="1.0" standalone="no"?>
<!DOCTYPE svg PUBLIC "-//W3C//DTD SVG 1.1//EN" "http://www.w3.org/Graphics/SVG/1.1/DTD/svg11.dtd" >
<svg xmlns="http://www.w3.org/2000/svg">
<metadata>
This is a custom SVG webfont generated by Font Squirrel.
Copyright   : Copyright c ParaType Inc 2004 All rights reserved
Designer    : Fridman Genady
Foundry     : ParaType Inc
Foundry URL : wwwparatypecom
</metadata>
<defs>
<font id="AmoreCTTRegular" horiz-adv-x="1198" >
<font-face units-per-em="2048" ascent="1638" descent="-410" />
<missing-glyph horiz-adv-x="477" />
<glyph unicode=" "  horiz-adv-x="477" />
<glyph unicode="&#x09;" horiz-adv-x="477" />
<glyph unicode="&#xa0;" horiz-adv-x="477" />
<glyph unicode="!" horiz-adv-x="759" d="M160 131q0 59 33.5 103.5t85 72t108.5 40.5t105 13q23 0 51 -15t53 -43t42 -67.5t17 -91.5q0 -45 -24.5 -76.5t-64.5 -52t-89 -30t-100 -9.5q-47 0 -86 15.5t-68.5 38t-46 50t-16.5 52.5zM254 143q6 -37 38 -53t64 -24q-6 27 -9 44t1 33q4 20 22.5 49t47.5 46 q-16 6 -21.5 10t-15.5 6q-20 2 -44 -6t-43.5 -24.5t-31.5 -38.5t-8 -42zM376 582q1 39 4 90t8 108.5t9 112.5q6 76 10.5 139.5t2.5 97.5q-2 53 -7.5 121t-5.5 113q0 23 2 49.5t8.5 49t16.5 36.5t27 12q25 -2 38 -20t20 -46t9 -62.5t6 -71.5q4 -39 8.5 -134.5t4.5 -201.5 q0 -70 -2.5 -140.5t-6.5 -134.5q-4 -57 2.5 -107t1.5 -85q-4 -35 -26.5 -63.5t-56.5 -26.5q-37 2 -52.5 36.5t-19.5 69.5q-2 19 -1 58z" />
<glyph unicode="&#x22;" horiz-adv-x="602" d="M188 987q0 35 4.5 80t8.5 109q2 41 1 80.5t3 70.5q4 33 16 51.5t23 18.5q18 0 30.5 -16.5t18.5 -38t9 -41t3 -23.5t-1 -20.5t-3 -42t-5 -56.5t-5 -61q-6 -70 -17.5 -121t-35.5 -51q-16 0 -33 20.5t-17 40.5zM360 1004q2 14 4.5 43.5l5.5 66.5t7 78t8 78q8 68 16.5 111.5 t24.5 43.5q20 0 44 -31.5t22 -70.5q0 -12 -3.5 -47t-8.5 -79t-12 -93t-15.5 -89t-17.5 -65.5t-17 -23.5q-31 6 -46.5 27.5t-11.5 50.5z" />
<glyph unicode="#" horiz-adv-x="1409" d="M61 778q0 20 25 33.5t62.5 22t81.5 14.5t81 12q68 12 119 22.5t127 22.5q2 37 5 80t3 96q-2 47 19.5 89t58.5 47q35 4 44 -17.5t9 -60.5v-113q0 -47 13 -96q53 0 89 8t66 16q4 37 5 88.5t-1 108.5q0 25 -6 47.5t-6 42.5q2 18 11.5 35.5t29.5 21.5q16 2 31.5 -9t28 -32.5 t20.5 -47t10 -50.5q4 -53 4 -108.5t4 -79.5q20 0 63 4l88 8q46 4 88 9l60 7q27 4 55.5 -10t28.5 -47q0 -27 -19.5 -42t-51.5 -19q-18 -4 -42 0t-48 0q-61 -6 -121 -18.5t-88 -22.5q0 -47 2 -90t2 -70q59 10 128.5 23.5t145.5 13.5q33 0 57.5 -3t34.5 -30q10 -23 5 -48.5 t-27 -29.5q-20 -4 -28.5 -2t-37.5 2q-37 0 -76.5 -5t-76.5 -13t-68 -17.5t-49 -17.5q0 -12 -1 -46t-2 -78l-2 -92q-1 -48 -3 -91v-63q0 -28 -6.5 -47t-23.5 -29.5t-52 -10.5q-33 0 -44.5 31t-8.5 78q2 45 3 93l2 93q1 45 3 82t4 59q-10 -2 -29.5 -5t-42 -6t-47.5 -8l-45 -9 v-48q0 -30 -1 -65l-2 -72q-1 -37 -1 -69q0 -53 -3 -101.5t-12.5 -84t-28 -57t-50.5 -19.5q-25 2 -46.5 23.5t-23.5 70.5q-2 35 3 85t5 103q0 45 -4 101.5t-4 111.5q-10 0 -40 -4l-58 -8q-53 -10 -98.5 -25.5t-73.5 -15.5q-12 0 -29.5 2t-34 11.5t-28 24.5t-11.5 44t16.5 46 t44 26.5t60.5 14.5t68 11q66 12 116 15.5t80 13.5q0 23 -2 53.5t-6 65.5q-51 -10 -94 -16.5t-102 -16.5q-61 -10 -121 -21.5t-92 -11.5q-12 0 -27.5 6.5t-29 18.5t-24 27.5t-10.5 33.5zM713 714q0 -34 4 -63q43 0 92 3t84 14q0 29 -5 71.5t-3 71.5q-41 -2 -89 -9t-83 -16 v-72z" />
<glyph unicode="$" horiz-adv-x="1763" d="M0 356q0 53 50 116t143 124q37 25 81.5 49.5t87.5 43.5l77 34q34 14 50 18q-4 33 1.5 60.5t5.5 58.5q-20 2 -55 9.5t-69 23.5t-59.5 46t-25.5 77t21.5 100t59.5 102.5t88 92.5t105 67q12 57 26.5 103.5t26.5 50.5q8 4 18.5 1t20 -10t15.5 -15.5l10 -14.5q2 -4 -3 -30.5 t-11 -55.5q8 0 16 1t16 1q25 -2 53.5 -2t59.5 -6q2 10 9 27.5t18.5 33t27 24.5t31.5 3t20.5 -14.5t2.5 -24.5q-2 -20 -5.5 -45t-7.5 -37q18 -6 38 -14t37 -17.5t27.5 -21.5t8.5 -29q-2 -16 -9.5 -30.5t-23.5 -18.5t-44 16.5t-62 36.5l-19 -144q-10 -79 -14 -169 q86 10 157.5 17t112.5 5q102 -4 212 -17t199 -47t146.5 -96.5t57.5 -162.5q0 -47 -16.5 -102.5t-46.5 -110.5t-71 -110.5t-88 -102.5q-121 -117 -286.5 -190.5t-376.5 -84.5q4 -16 3 -33.5t-1 -29.5q-2 -55 -35 -57q-18 -2 -31.5 9t-22.5 28.5t-15.5 40t-10.5 40.5 q-4 0 -17.5 3.5t-17.5 3.5q-31 2 -57.5 2t-58.5 4q4 -27 10 -44.5t8 -31.5q4 -33 -9.5 -51.5t-47.5 -14.5q-23 2 -34 23.5t-20 46.5q-6 18 -9 42t-7 52q-39 6 -95.5 26.5t-105.5 47.5q-51 27 -100 58.5t-87 67.5t-60.5 73.5t-22.5 74.5zM90 365q0 -27 19.5 -54.5t52.5 -55.5 t75 -53.5t87 -45.5l70 -32q36 -15 77 -26q-4 41 -5 111t-1 139q2 76 6 151.5t8 139.5q-68 -20 -137.5 -53t-125.5 -71t-91 -76.5t-35 -73.5zM393 1057q0 -59 30 -79t87 -22q10 78 18.5 152t20.5 152q-66 -45 -111 -103.5t-45 -99.5zM565 258q0 -49 2 -90q2 -16 3 -44t1 -50 q43 -8 80 -6t72 0q0 37 -2 74.5t-4 68.5t-3 52.5t-1 25.5q-25 18 -45.5 48t-20.5 52q0 61 53 96q2 25 5.5 73l7.5 106q-14 2 -23.5 1t-23.5 -1q-29 -2 -46.5 -3.5t-39.5 -5.5q-2 -47 -7.5 -125.5t-7.5 -156.5v-115zM582 760q41 4 76.5 7t68.5 1q2 20 4 46t6 56 q-6 0 -23.5 -1t-39 -3t-44 -3t-38.5 -3q-2 -14 -4 -39.5t-6 -60.5zM604 956l70 5q35 2 76 6l22 198q10 94 21 144l-39 7q-16 3 -33 3q-14 0 -33.5 -3t-34.5 -7l-25 -166q-14 -89 -24 -187zM801 504q12 -4 18 -8t8 -17q2 -14 -9 -22t-7 -23q4 -12 13.5 -20t19.5 -8 q8 0 34.5 7t56.5 20t53.5 32.5t23.5 42.5q2 33 -22.5 59.5t-57.5 46t-65.5 30.5t-51.5 15q-4 -14 -4 -26t-2 -29q-4 -29 -6 -48t-2 -52zM816 211q3 -37 5 -66q0 -23 3 -46t3 -40q184 14 320.5 85t253.5 180q39 37 73.5 81t60.5 90t40 91t14 86q0 47 -39 87t-102.5 68.5 t-146 45t-171.5 16.5q-66 0 -142 -4l-150 -8q-2 -20 -7.5 -53t-9.5 -64q63 -8 123 -25.5t106 -46.5t73.5 -67.5t27.5 -88.5q0 -84 -47 -134t-106.5 -76.5t-113 -36t-67.5 -9.5q-4 -28 -1 -65z" />
<glyph unicode="%" horiz-adv-x="1204" d="M45 98q0 20 51 68.5t128 112l168 132.5l169 130l187 140l189 137l153.5 103.5t80.5 41.5q14 0 20.5 -15.5t4.5 -29.5q-2 -20 -63.5 -70.5t-150.5 -114.5l-189 -134l-179 -132l-227 -187.5t-145 -119.5q-2 -16 2 -37t-2 -41q-12 -37 -42 -64.5t-65 -25.5q-23 2 -39 15 t-27.5 31.5t-17.5 35t-6 24.5zM49 795q0 39 22.5 76.5t59.5 67.5t82 46t90 14q12 0 31.5 -2t44 -8t51.5 -21.5t53 -41.5q33 -33 64 -91.5t31 -129.5q0 -39 -30 -61.5t-70 -35t-80 -15.5t-60 -3q-53 0 -105.5 11t-93.5 36t-65.5 64t-24.5 94zM139 782q-2 -31 22.5 -52 t59.5 -33.5t69 -18.5t50 -6q20 0 48 3t52.5 10t42 20.5t17.5 31.5q0 14 -13.5 41t-33 53.5t-42 45t-42.5 18.5q-14 0 -30 -11l-32 -24q-14 -10 -28.5 -25.5t-36.5 -11.5q-16 2 -25 13q-10 10 -7 19t7 30q-27 -4 -50.5 -35t-27.5 -68zM578 184q-2 25 10 52.5t33.5 54t49 51.5 t58.5 43q18 10 40 15l38 10q31 14 52.5 21t41.5 7q45 0 91 -12t83 -34.5t59.5 -55.5t20.5 -74q-2 -72 -28.5 -122t-64.5 -81.5t-84 -47t-89 -15.5q-33 0 -84 9t-100.5 30.5t-86 58.5t-40.5 90zM680 188q4 -41 56 -65.5t124 -28.5q29 -2 63.5 5t64.5 25.5t50.5 48.5t22.5 73 q0 23 -21.5 43t-54.5 34.5t-72 21.5t-69 3q-4 -4 -9.5 -14t-12.5 -21.5t-16 -21.5t-20 -12q-10 -4 -20 2t-25 2q-33 -6 -49 -34t-12 -61z" />
<glyph unicode="&#x26;" horiz-adv-x="1353" d="M25 336q0 94 46 183t106.5 164t118.5 131t85 87q-2 29 -9 72t-3 100q6 80 40.5 135.5t85 90t107.5 50t111 15.5q27 0 56.5 -16.5t52 -42t36.5 -59.5t14 -66q-2 -66 -22.5 -113t-51 -79t-68.5 -53.5t-71 -37.5q-59 -29 -100 -55.5t-72 -50.5q6 -37 34 -92.5t102 -141.5 q41 -47 94 -99l119 -118l44 40q28 26 54.5 59.5t45.5 73.5t19 85q0 27 -8 55.5t-22.5 53t-36 40t-47.5 15.5q-16 0 -36 -8.5t-35 -21.5t-25.5 -31.5t-10.5 -36.5q0 -16 14.5 -28.5t30.5 -12.5t23.5 7t11.5 16t8 16.5t15 5.5q45 -6 45 -58q0 -47 -36 -76.5t-83 -29.5 q-29 0 -52.5 18.5t-42 43t-27.5 49t-9 36.5q2 35 18.5 78t44 82t63.5 64.5t79 25.5q31 0 69.5 -18.5t72.5 -55t57.5 -90t25.5 -123.5q2 -61 -14.5 -111t-41 -90t-51 -70l-45.5 -52q8 -14 27.5 -37t49.5 -44.5t66 -39.5t79 -23q18 -2 29.5 9.5t22.5 25t22.5 22.5t27.5 5 q27 -6 45 -23.5t16 -46.5q0 -20 -16 -42.5t-41 -42t-57.5 -33t-65.5 -13.5q-47 0 -93 19.5t-87 46t-75 55.5l-56 47l-72 -55q-41 -33 -96 -63.5t-126 -52t-161 -21.5q-98 0 -167.5 25.5t-114.5 71.5t-65.5 111.5t-20.5 143.5zM123 336q0 -43 18.5 -84t55 -73t89 -50 t120.5 -18q55 0 108 17t99 44t85 56.5t68 54.5q-33 33 -93.5 88t-123.5 129q-57 68 -102.5 135t-61.5 102l-61 -54q-43 -38 -88.5 -92t-79 -119.5t-33.5 -135.5zM455 1061q-4 -29 3 -57.5t13 -45.5l74 43q45 27 88 58t73.5 65.5t30.5 67.5q0 27 -23.5 46t-49.5 19 q-35 0 -69 -16t-63.5 -43t-50 -62.5t-26.5 -74.5z" />
<glyph unicode="'" horiz-adv-x="483" d="M213 1016q0 8 3 30l7 52q4 31 11 67l16 76q8 39 10 69.5t6 65.5q4 41 18.5 67.5t47.5 22.5q29 -4 43 -23.5t14 -49.5q0 -12 -5 -41l-11 -62q-6 -33 -13.5 -66.5t-11.5 -56.5l-12 -80q-6 -39 -15.5 -69.5t-24.5 -49t-42 -14.5q-20 4 -30.5 9.5t-10.5 52.5z" />
<glyph unicode="(" horiz-adv-x="772" d="M57 676q0 176 59.5 328.5t170.5 281.5q27 33 73 74t92 75.5t84.5 58.5t53.5 22q18 -4 31.5 -19.5t11.5 -32.5q0 -10 -32 -38l-75 -65q-43 -38 -90 -85t-80 -96q-27 -41 -44 -76t-28.5 -78t-16.5 -100.5t-5 -139.5q0 -102 13.5 -182t36 -144.5t53 -115.5t65.5 -94 q41 -51 83 -85l76 -62q34 -28 54.5 -51t20.5 -52q0 -33 -12.5 -60.5t-31 -46t-39 -28.5t-36.5 -8q-29 4 -97.5 57t-152.5 152q-43 51 -86 115.5t-77 140t-54.5 165t-20.5 189.5z" />
<glyph unicode=")" horiz-adv-x="761" d="M111 1315q0 14 12 38.5t28.5 48t38 40t39.5 16.5q8 0 33 -13t58.5 -38t74.5 -60.5t84 -80.5q47 -51 90 -112.5t75 -138.5t51.5 -172t19.5 -212q0 -57 -10.5 -134t-39 -163t-81 -176t-138.5 -174q-25 -25 -62.5 -55.5t-77.5 -58.5t-73.5 -47.5t-48.5 -19.5 q-16 0 -28.5 14.5t-12.5 30.5q0 10 24 31l61 52q38 32 84 76t89 104q57 74 94 182t37 256q0 172 -47 297t-112 207q-45 57 -92 96l-85 69q-38 30 -62.5 52t-22.5 45z" />
<glyph unicode="*" horiz-adv-x="929" d="M174 1008q4 29 40 39t77 20q31 6 53.5 9t46.5 14q-8 14 -13 22l-10.5 17.5t-12.5 19.5l-19 27l-21 21l-23 26q-11 12 -19.5 24.5t-8.5 18.5q2 18 14.5 34.5t28.5 14.5t44 -28.5t44 -45.5q20 -18 46 -45t38 -41q31 37 53 80q16 31 38 61.5t40 28.5q10 -2 18.5 -11t8.5 -20 q0 -10 -17.5 -45t-27.5 -57q-6 -14 -11 -23l-10 -14q-4 -6 -7 -13l-9 -20q4 -4 12 -9t19 -15q12 0 30.5 1t40 2t40 3t30.5 2q8 0 23.5 -1t30 -6t23.5 -13.5t7 -22.5q-4 -23 -23.5 -30t-37.5 -7q-29 2 -71 -1t-73 -5q16 -25 25.5 -43.5t25.5 -40.5q16 -25 28.5 -47.5 t12.5 -32.5q0 -23 -18 -40t-41 -17q-14 0 -32 26l-36 56q-16 29 -37.5 57.5t-37.5 44.5q-16 -16 -33 -43t-49 -68q-8 -10 -19.5 -28.5t-24 -35.5t-23.5 -30.5t-19 -13.5q-16 0 -32.5 16.5t-12.5 32.5q2 8 23 44l42 71q16 29 27.5 46t30.5 50q-16 -2 -42 -9t-55 -14 q-29 -6 -51 -16t-45 -6q-12 2 -26.5 8.5t-12.5 20.5z" />
<glyph unicode="+" horiz-adv-x="1392" d="M115 528q2 16 40 33t97 29t133 21.5t147 11.5q45 2 88.5 6t75.5 -6q-2 29 -6 79t-6 109v45q0 25 3 45.5t10.5 35.5t23.5 21q27 10 44 -5t27.5 -43.5t14.5 -63.5t8 -64q4 -41 13 -82l16 -69q47 -6 116.5 -2t145.5 -6q16 -2 51 -5.5t70 -9.5t61.5 -18t26.5 -33 q2 -35 -24.5 -60.5t-61.5 -21.5q-23 4 -31 15.5t-31 33.5q-29 4 -60.5 7.5t-86.5 5.5q-31 0 -68 2t-88 2q0 -23 2 -63t5 -84l7 -87q3 -43 3 -69v-64q0 -33 -6.5 -59.5t-21.5 -44t-46 -17.5q-76 0 -82 82v37v54v58v44q0 72 -8 117l-17 92q-29 2 -61.5 3t-60.5 1 q-33 0 -111 -8.5t-156 -20.5q-59 -10 -104 -23.5t-55 -9.5q-18 4 -29.5 17.5t-7.5 31.5z" />
<glyph unicode="," horiz-adv-x="614" d="M184 -250q0 8 11.5 30.5l27.5 51.5l36 63l36 64q18 37 34 81l29 82q14 38 31 62.5t37 24.5q33 -2 56.5 -20.5t13.5 -65.5q-4 -14 -14.5 -41t-26 -59.5t-35 -68.5t-39.5 -69q-18 -29 -43 -61l-47 -61q-23 -28 -42.5 -45t-27.5 -17q-25 2 -31 14t-6 35z" />
<glyph unicode="-" d="M164 463q-2 33 24.5 37t73.5 12q59 10 151 13l218 7q72 4 155.5 6.5t180.5 2.5q43 0 61.5 -18.5t18.5 -35.5q0 -35 -25 -52t-55 -17l-125 -4q-53 -2 -114.5 -3t-113.5 -1q-57 0 -115.5 -2t-110.5 -3.5t-95 -1.5t-68 3q-57 4 -61 57z" />
<glyph unicode="." horiz-adv-x="552" d="M260 74q0 8 5 26.5t17.5 37t33 32.5t51.5 14q18 0 38.5 -6t37 -17t26.5 -28.5t8 -38.5q-4 -47 -47 -74.5t-92 -27.5q-10 0 -23.5 7t-26 19.5t-20.5 27t-8 28.5z" />
<glyph unicode="/" horiz-adv-x="829" d="M12 102q0 16 82 200.5t266 504.5l66 114l82 138l88 143q45 72 85 129.5t70.5 92t47.5 34.5q23 0 32 -24.5t9 -36.5q0 -8 -19.5 -44t-52.5 -90l-75 -122l-86 -143l-87 -151q-43 -77 -78 -147l-108 -221q-57 -119 -88 -229q-12 -41 -19.5 -84t-17.5 -76q-16 -57 -36.5 -88 t-66.5 -31q-39 0 -66.5 37t-27.5 94z" />
<glyph unicode="0" horiz-adv-x="1273" d="M8 606q0 45 13.5 107.5t38 133.5t61.5 145.5t84 146.5q25 37 63.5 79t78.5 77.5t74 60t50 24.5q14 0 21.5 -15t7.5 -26q0 -6 -22.5 -22.5t-57.5 -48t-80 -80.5t-90 -123q-27 -45 -54.5 -100.5t-49 -117t-35 -123.5t-13.5 -122q0 -72 18.5 -144.5t59.5 -133.5 q59 -88 148.5 -142.5t179.5 -54.5q123 0 233.5 71.5t204.5 178.5q51 57 94 123.5t75 133t50.5 130t18.5 117.5q0 61 -18.5 136t-55.5 140.5t-93.5 109.5t-131.5 44q-59 0 -131 -32t-136.5 -95.5t-107.5 -157.5t-43 -219q0 -59 16.5 -91t69.5 -32q57 0 105 22.5t81 52 t49.5 59.5t14.5 46q-2 12 -7.5 27.5t-17.5 15.5q-27 0 -49 -22q-14 -12 -25.5 -25.5t-21.5 -13.5q-35 0 -35 55q0 16 9.5 36.5t24.5 39t36.5 31t44.5 12.5q25 0 52.5 -9.5t50 -27.5t37.5 -48t15 -71q0 -43 -25.5 -95t-74.5 -99t-119.5 -79t-158.5 -32q-53 0 -87 17.5 t-53.5 48t-27 71.5t-7.5 90q0 125 44.5 239t116 201t160.5 139t179 52q53 0 124 -32.5t134.5 -99t107.5 -169t44 -244.5q0 -84 -19.5 -162.5t-53.5 -152.5t-77 -141.5t-92 -124.5q-121 -139 -258 -219t-254 -76q-131 6 -243.5 82t-182.5 196q-41 72 -61.5 158t-20.5 174z " />
<glyph unicode="1" horiz-adv-x="1222" d="M2 29q0 27 5 54.5t30 27.5h44h69q39 0 81.5 1t83.5 1q106 2 196.5 3t168.5 11q6 25 14 96.5t16 168.5l15 207q8 110 14 210q6 102 8.5 188t2.5 148q-49 -29 -108.5 -72t-106.5 -67l-65 -31q-40 -18 -82 -33.5t-80 -26t-58 -10.5q-43 4 -51 41q-4 20 24.5 32.5t74.5 26 t104.5 33t115.5 54.5q53 33 125 93t125 144q10 16 19.5 39t21.5 42.5t27.5 34.5t40.5 15q18 0 38.5 -5t20.5 -21q0 -39 -2 -114t-5 -170t-6 -201.5t-3 -207.5q-2 -86 -5.5 -172t-4.5 -163.5t0 -142t5 -107.5q27 -14 79.5 -30.5l95.5 -29.5q25 -8 47 -14t40.5 -16.5t30 -25.5 t11.5 -40q0 -59 -46.5 -88t-99.5 -29q-12 0 -60 18.5t-112 35.5q-57 12 -118.5 19t-118.5 17q-102 18 -187.5 22.5t-169.5 10.5q-39 2 -93 0t-103 0q-45 2 -77 6.5t-32 16.5z" />
<glyph unicode="2" horiz-adv-x="1245" d="M37 12q0 29 18.5 54.5t43 47t48 37t33.5 23.5q37 29 120 88l179 131l194 147q97 75 165 134q121 106 192.5 211.5t71.5 216.5q0 63 -48 110.5t-111.5 76t-128 43t-97.5 14.5q-25 0 -60.5 -2.5t-78.5 -8.5t-90.5 -18t-92.5 -33q-39 -16 -73.5 -39.5t-61.5 -50.5t-42 -56.5 t-15 -60.5q0 -14 21.5 -30.5t52 -29.5t62.5 -21.5t50 -6.5q68 4 112 24.5t40 47.5q-2 25 -12.5 35t-14.5 30q0 14 11.5 29.5t31.5 15.5q10 0 30.5 -4t42 -13t39 -26.5t17.5 -42.5t-14.5 -59.5t-50 -66t-95 -55t-149.5 -23.5q-29 0 -77 13t-96 37.5t-83 61.5t-35 86 q0 25 28.5 86.5t103.5 124t207 111.5t341 49q61 0 143 -21.5t155 -64.5t124 -108.5t51 -153.5q0 -63 -27.5 -134t-73.5 -140.5t-108.5 -136t-130.5 -124.5l-140 -112l-143 -113l-131 -105q-61 -50 -106 -94q41 0 119 7l169 13q91 7 184 12t165 5q63 0 104 -15t41 -67 q0 -78 -39 -111.5t-94 -33.5q-41 0 -65.5 10t-44 22.5t-38 22.5t-44.5 10q-49 0 -109.5 -1t-121 -3t-114 -5t-90.5 -7q-78 -10 -128 -21.5t-80.5 -22.5t-48 -18.5t-29.5 -7.5q-78 0 -78 80z" />
<glyph unicode="3" horiz-adv-x="1437" d="M20 233q-2 43 13.5 95.5t50.5 108t91 108.5t136 98t182.5 70.5t237.5 25.5q27 0 57.5 -7t57 -20.5t45 -36t18.5 -52.5q0 -49 -27.5 -100.5t-67.5 -93.5t-83 -65.5t-72 -15.5q-35 10 -62.5 36t-25.5 65q2 31 19.5 57t40.5 29q31 0 46 -8.5l28 -16.5q29 12 62.5 31.5 t33.5 60.5q0 23 -29 28t-88 5q-29 0 -71 -3t-90 -12.5t-99 -27t-98 -45.5q-86 -53 -147.5 -130t-61.5 -169q0 -27 21.5 -55.5t60.5 -53t91 -40t113 -15.5q31 0 94.5 9t143.5 29.5t168 53.5t168 80q57 35 111.5 78t95.5 94t65.5 107.5t24.5 117.5q0 86 -47 156t-116 117 t-148.5 72.5t-143.5 25.5q-23 0 -80 -12.5t-125 -32.5q-41 -12 -88 -30.5t-80 -20.5q-16 0 -27 13t-11 30q0 23 19 48t49 51t66 52.5t70 48.5l101.5 78t74.5 68q-49 10 -118.5 10t-147.5 -2q-88 -2 -167 -12t-138 -8q-29 2 -56.5 25.5t-27.5 45.5q0 23 42 34t104.5 16.5 t134 6.5t133.5 5q94 4 180 -2t141 -6q51 0 89 13t63 13q20 0 40.5 -21.5t20.5 -50.5q0 -33 -10 -53t-27.5 -34.5t-40 -23.5t-47.5 -22q-35 -16 -75.5 -38.5t-65.5 -57.5q111 0 219.5 -35t194.5 -99.5t139 -154.5t53 -200q0 -55 -17.5 -121t-58 -133.5t-109.5 -135 t-171 -129.5q-57 -35 -130 -67.5t-157 -58t-176 -42t-184 -16.5q-80 0 -150.5 20.5t-124 56.5t-87.5 85t-36 108z" />
<glyph unicode="4" horiz-adv-x="1355" d="M8 408q0 25 11.5 59.5t26.5 75.5l33 86q17 45 30 92q16 68 29.5 139.5t22.5 137t14 116.5t5 80q4 111 -9 175.5t-15 98.5q0 23 12 37.5t31 14.5q43 0 64.5 -31t30.5 -79t8 -104.5t-1 -107.5q-2 -76 -14.5 -167t-27.5 -177t-29.5 -156.5t-20.5 -105.5q20 8 52 23.5t68 31 t68.5 27.5t55.5 18q41 10 87 17.5t62 11.5q-4 29 -2 103.5t-6 181.5l-5 68l-6 83q-3 43 -7.5 87t-6.5 79q-2 23 4.5 46.5t14.5 43t17 31.5t16 12q33 0 59.5 -19.5t26.5 -68.5q0 -47 6 -108l12 -121l12 -121q6 -61 12.5 -115.5t9.5 -97.5t3 -64q18 2 57 9l87 14q48 8 102 15 l99 14q46 6 80 10t46 4q47 0 89 -18.5t42 -51.5q0 -45 -36 -83t-93 -33q-18 2 -29.5 8t-20.5 12t-19.5 11t-26.5 5l-87 -4q-42 -2 -81 -8q-150 -18 -209 -43q-4 -29 -7 -68l-6 -80l-5.5 -73t-2.5 -45q-4 -55 -5 -96t-2 -74t-2 -59.5t-3 -55.5q-4 -63 -19.5 -87.5 t-56.5 -24.5q-47 0 -63.5 31.5t-16.5 72.5t3.5 76t7.5 68l8 70q4 36 6 79q2 33 3 69.5t1 69.5t1 58.5t3 35.5q-18 0 -43.5 -3t-53.5 -9l-53 -12q-26 -6 -44 -13q-74 -27 -128.5 -63.5t-93.5 -71.5l-66 -60q-28 -26 -48 -26q-18 0 -30.5 9.5t-21 24.5t-12.5 32t-4 31z" />
<glyph unicode="5" horiz-adv-x="1513" d="M8 260q0 20 13.5 57t44 79t81 86t125.5 79q35 16 83 30.5t101.5 25t104.5 15.5t92 5q31 0 81 -5t98.5 -19.5t82 -41t33.5 -69.5q0 -51 -27.5 -99.5t-68.5 -85t-91 -59t-95 -22.5q-33 0 -57.5 13t-42 32.5t-27 41t-9.5 37.5q0 27 11.5 48.5t36.5 23.5q16 2 27 -5l26 -17 q6 -4 8 -11.5t4 -13.5t7 -11t20 -5q10 0 33.5 6t47 18.5t41 29.5t15.5 42t-15.5 38t-34 19t-46 8t-49.5 2h-69q-44 0 -95.5 -5t-105.5 -17t-99 -33q-78 -35 -135.5 -90t-57.5 -127t41 -109.5t105.5 -54t141.5 -18.5t151 -2q57 0 128.5 5t146.5 17.5t149.5 35t136.5 59.5 q96 53 150.5 145t49.5 215q-2 61 -39.5 120.5t-108.5 107.5t-169 77t-221 29q-121 0 -202 -23.5t-138 -52.5q-72 -39 -111 -71.5t-61 -32.5q-23 0 -42.5 16t-19.5 63l17 56l18 50q10 28 23 50q4 41 12 100l18 129l17 99q8 47 19.5 84t23.5 60.5t29 25.5q10 2 15 -1t9 -7.5 t12.5 -10.5t24.5 -12q23 4 82 16.5t135 10.5q39 0 93.5 -3t108.5 -5.5l101 -4.5t74 -2q20 0 33.5 9.5t33.5 5.5q35 -4 51.5 -24.5t16.5 -68.5q0 -35 -25.5 -45t-54.5 -10q-20 0 -56 5t-81 12.5t-95 13.5t-100 6q-47 0 -95 -2t-91 -5t-79 -7t-60 -6l-20 -80q-11 -45 -21 -92 q-10 -59 -16.5 -109.5t-4.5 -73.5q23 4 49.5 16.5t69.5 27t107.5 24.5t160.5 10q113 0 238 -25.5t230.5 -82t175 -144.5t69.5 -211q0 -174 -84 -299t-227 -198q-123 -61 -275.5 -87t-312.5 -30q-61 0 -123.5 1t-123 11t-115 30.5t-99.5 57.5q-27 23 -44 43.5t-26.5 44 t-13.5 52t-4 69.5z" />
<glyph unicode="6" horiz-adv-x="1212" d="M14 485q0 111 42 231t112 233.5t160 215t186 177t192.5 120.5t178.5 45q23 0 34 -20.5t11 -42.5q0 -23 -18.5 -32t-51.5 -17.5t-80 -22.5t-106.5 -48t-129 -95.5t-145.5 -163.5q-66 -86 -112.5 -154.5t-76.5 -133t-44 -130t-14 -147.5q0 -31 16 -94.5t60 -126t125 -110.5 t210 -48q106 0 198.5 43t162 112.5t109.5 153.5t44 168q0 25 -17.5 56.5t-55 59t-97 46t-143.5 18.5q-53 0 -111.5 -26.5t-107.5 -68.5t-83 -92t-36 -97q-4 -51 38 -72t95 -21q37 0 72 9.5t60.5 25t39.5 34.5t12 40q-2 14 -12 29.5t-24 15.5q-6 0 -13.5 -7t-15.5 -16.5 t-18.5 -15.5t-20.5 -2q-43 14 -37 59q4 29 28.5 55.5t63.5 26.5q80 0 113 -36.5t33 -104.5q0 -47 -28 -87t-71 -68.5t-96 -45t-106 -16.5q-72 0 -115 20.5t-65.5 53t-28.5 69.5t-6 72q0 49 38.5 115.5t103 128t146.5 102.5t168 37t160 -30.5t129 -69.5t87 -101.5t32 -124.5 q2 -37 -9.5 -97t-40 -128t-76.5 -135.5t-120 -121.5t-170 -89t-227 -35q-106 0 -202.5 42t-169.5 112.5t-116 166t-43 201.5z" />
<glyph unicode="7" horiz-adv-x="1265" d="M2 725q0 18 25.5 33.5t61.5 27t72 19.5t56 12q90 20 191.5 38.5t226.5 27.5q47 4 91 4h69q16 25 47.5 88t72.5 137l61 106q30 50 44 80q-35 0 -106.5 -3t-180.5 -7q-29 0 -76 -1t-100 -2t-106.5 -1t-96.5 3t-69.5 9.5t-26.5 18.5q0 23 13.5 46t35.5 25q55 4 172 3.5 t303 9.5q74 4 143.5 11t124 14.5t88 12.5t38.5 5q37 0 56 -4t28.5 -14.5t10.5 -27t1 -40.5q0 -20 -17.5 -43t-43.5 -49l-57 -59q-32 -32 -58 -68q-25 -33 -44 -68l-36 -67l-29 -57l-18 -40q39 -4 66.5 -5t62.5 -1q27 0 54.5 -1t50 -6t35.5 -17.5t13 -34.5q0 -14 -9 -31.5 t-23.5 -33t-33 -25t-38.5 -7.5q-12 2 -17.5 8.5t-10.5 14.5t-15 15t-31 12q-10 2 -30.5 3t-45.5 2l-47 2q-23 1 -35 1q-23 -39 -47 -90l-49 -106q-25 -54 -47 -109l-41 -101q-41 -109 -69.5 -192.5t-36.5 -141.5q-4 -20 6 -42.5t10 -38.5q0 -31 -23.5 -60t-68.5 -29 q-20 0 -37.5 11.5t-30 27t-19.5 33t-7 29.5q0 33 11 81t30.5 105.5t44.5 121.5l51 128l46 112l41 101l34 84q14 37 24 57q-29 10 -58.5 12.5t-76.5 2.5q-92 0 -186 -17.5t-170 -40.5q-29 -8 -61 -18l-61 -20l-53 -16q-24 -7 -34 -7q-18 0 -26.5 15.5t-8.5 31.5z" />
<glyph unicode="8" horiz-adv-x="1437" d="M0 365q0 131 45 229t111.5 167.5t143.5 114t140 66.5q-18 39 -32 65l-24 43q-9 17 -14 30.5t-5 31.5q0 61 22.5 126t68.5 122t118.5 99t173.5 57q16 4 39.5 -1.5t39.5 -5.5q8 23 36 79l57 114q18 39 43.5 73.5t57.5 60.5t68.5 39t77.5 7q55 -8 85 -57t24 -107 q-4 -47 -29.5 -86t-64.5 -41q-23 -2 -36 14.5t-18 39.5q-4 12 1.5 21t11.5 17.5t11 17.5t3 21q-4 16 -9 28.5t-22 18.5q-33 12 -62.5 -24.5t-62.5 -91.5q-29 -49 -51 -104.5t-33 -92.5q8 -8 43 -25.5t73 -48t68.5 -80t33.5 -122.5q0 -47 -12.5 -83t-33 -64.5t-46.5 -52.5 l-50 -46q18 -10 49 -24l67 -29q36 -16 75 -37t73 -45q70 -51 116 -126t46 -196q0 -29 -16.5 -79t-54 -108.5t-100 -117.5t-154.5 -109q-98 -51 -231.5 -81.5t-323.5 -30.5q-98 0 -194.5 26.5t-172.5 79t-123 130.5t-47 178zM121 385q0 -86 44 -146.5t114.5 -98.5t157.5 -55 t173 -17q141 0 243.5 24.5t174.5 71.5q53 35 101.5 70.5t84 78.5t57 93.5t21.5 115.5q0 57 -29.5 112.5t-82.5 96.5q-45 33 -99.5 58.5t-103.5 44t-87 28.5l-52 15q-23 -6 -60 -24.5t-72.5 -45.5t-61.5 -56.5t-26 -56.5q0 -29 10.5 -48t65.5 -13q2 4 10.5 24.5t23.5 44 t37.5 43t53.5 21.5q14 0 32.5 -4t34 -15.5t27 -29t11.5 -43.5q0 -39 -27 -69t-68 -50t-88 -30.5t-88 -10.5q-68 0 -109.5 34t-41.5 101q0 35 8 63.5t19.5 54.5t22.5 48.5t17 46.5q-88 -16 -169 -53t-143 -95.5t-99 -140.5t-37 -188zM477 1151q0 -31 19.5 -58.5t51.5 -49 t74 -34t89 -14.5q39 -2 92 8.5t101 33t82 61.5t34 94q0 41 -37 76t-84 61.5t-89 40.5t-52 14q-6 -8 -21.5 -31.5t-46.5 -23.5q-14 0 -40.5 7t-55.5 3q-25 -2 -45.5 -19t-36.5 -44t-25.5 -59.5t-9.5 -65.5z" />
<glyph unicode="9" horiz-adv-x="1234" d="M8 958q0 25 10.5 68t33 95.5t60.5 108.5t93 109q70 66 169 116t236 50q86 0 152.5 -10t123 -28.5t109.5 -44.5l115 -54q10 4 23.5 13.5t29.5 7.5q20 -2 33.5 -16.5t22 -34t11.5 -40t3 -32.5q-2 -43 -21.5 -118t-50.5 -168t-69 -197l-76 -201q-37 -96 -74 -209t-72.5 -209 t-71.5 -160.5t-73 -64.5q-27 0 -52.5 19t-25.5 58q0 2 54.5 119t150.5 377q12 37 32 86l39 100q19 51 35.5 101.5t24.5 89.5q-33 -23 -93.5 -69t-142 -93t-182 -82t-213.5 -37q-76 0 -138 29t-108.5 78t-72 112t-25.5 131zM119 971q-2 -59 23.5 -103.5t63.5 -74t81 -45 t78 -15.5q82 0 166.5 31t163.5 79t148.5 107.5t119.5 118.5q45 53 62 107.5t28 101.5q-53 47 -170 83t-289 36q-29 0 -70 -6.5t-87 -21.5t-91 -38.5t-84 -56.5q-66 -55 -103.5 -137t-39.5 -166z" />
<glyph unicode=":" horiz-adv-x="718" d="M256 203q0 18 15.5 42.5t41 46t56 36t61.5 14.5q39 0 62.5 -41t23.5 -84q0 -6 -11 -23.5t-30.5 -36t-48.5 -33.5t-61 -18q-6 0 -23.5 4.5t-37 15.5t-34 29.5t-14.5 47.5zM340 836q0 53 28.5 94t82.5 41q49 0 83.5 -31t34.5 -80q0 -63 -45 -101t-106 -38q-25 0 -40.5 14.5 t-23.5 32.5t-11 38t-3 30z" />
<glyph unicode=";" horiz-adv-x="622" d="M229 -311q0 14 31 42.5t68 72.5t67.5 106.5t30.5 146.5q0 51 -9 83t-21.5 54.5l-21.5 38t-9 33.5q0 20 12 39t33 19q27 0 53 -20.5t47.5 -56.5t34 -81t12.5 -94q0 -84 -34 -163t-80 -140.5t-94 -98.5t-79 -35q-18 2 -29.5 21t-11.5 33zM313 602q0 18 17.5 37.5t39 36 t43 27t27.5 10.5q53 0 85 -35t32 -84q0 -23 -8 -47.5t-24.5 -44t-40 -31.5t-52.5 -12q-23 0 -44 16.5t-37.5 39t-27 47t-10.5 40.5z" />
<glyph unicode="&#x3c;" horiz-adv-x="1099" d="M104 610q0 18 32 40t84 49l120 61l139 71q45 25 103 61l111 71l98 60q43 26 61 30q23 4 39 -12.5t14 -36.5q-2 -16 -28.5 -40t-69.5 -51.5t-95 -57.5l-106 -60q-76 -45 -143.5 -91.5t-108.5 -70.5q45 -45 122 -98l163 -109q59 -39 117.5 -82t104.5 -83t74 -71.5t26 -50.5 q-4 -45 -37 -59t-60 -14q-12 0 -21 8l-43 39q-34 31 -109 91t-220 167q-74 55 -140 84l-117 50q-50 22 -80 44t-30 61z" />
<glyph unicode="=" horiz-adv-x="1177" d="M139 344q0 18 45 29.5t111.5 17.5t143.5 10.5l143 8.5q59 4 120.5 5t116.5 0t99.5 -3t68.5 -2q29 -2 46.5 -23.5t19.5 -50.5q2 -35 -27 -55.5t-63 -22.5q-18 0 -58 4l-90 9l-109.5 10.5t-115.5 5.5q-43 0 -102.5 -3t-118.5 -9l-108 -9q-48 -4 -68 -4q-35 0 -45.5 26.5 t-8.5 55.5zM197 598q-2 33 24.5 37t73.5 12q59 10 150 13l219 8q72 4 155.5 6t179.5 2q43 0 61.5 -18.5t18.5 -34.5q0 -35 -24.5 -52.5t-55.5 -17.5l-125 -4q-53 -2 -114.5 -3t-112.5 -1q-57 0 -115.5 -2t-110.5 -3t-95 -1t-68 2q-57 4 -61 57z" />
<glyph unicode="&#x3e;" horiz-adv-x="1222" d="M188 168q0 27 32 55.5t87 59t130 67.5t161 84l136 75q71 40 143 93q-25 18 -75 47t-114 51q-53 18 -109.5 35l-102.5 32t-74.5 31.5t-28.5 37.5q0 16 11 33.5t30 15.5q18 0 57 -10.5l90 -25.5t107.5 -36.5t107.5 -44.5l107 -48q57 -26 104 -51.5t79 -48t32 -38.5 q0 -29 -28 -48.5t-81 -44.5l-130 -59q-77 -35 -175 -90q-106 -59 -174 -101t-109 -75q-39 -31 -58 -52l-31 -34l-17 -18.5t-21 -6.5q-6 0 -20 7.5t-28.5 21.5t-26 35.5t-11.5 50.5z" />
<glyph unicode="?" horiz-adv-x="1193" d="M92 618q0 92 40 160t104.5 120t144.5 90l160 73l134 57q65 27 114 56.5t78.5 62.5t29.5 74q0 37 -26.5 64.5t-64.5 46t-80 27.5t-71 9q-43 0 -77.5 -11t-59 -29.5t-39 -40t-16.5 -42.5q-4 -18 -8 -39.5t-12.5 -40t-17.5 -33t-22 -16.5q-27 -4 -39 14.5t-12 49.5 q0 20 19.5 68t60.5 98.5t102.5 89.5t145.5 39q35 0 91 -17.5t110.5 -48.5t92.5 -74t38 -94q-2 -92 -54.5 -152.5t-132.5 -105.5t-177 -80t-185 -75q-59 -27 -108.5 -58t-85.5 -67.5t-56 -82.5t-20 -104q0 -12 18 -52t66.5 -82t131.5 -74.5t209 -32.5q57 0 134 14t146 48 t116 88t47 132q0 33 -26.5 65.5t-67.5 59.5t-89.5 43t-91.5 16q-23 0 -57.5 -8t-67 -24.5t-56 -42t-23.5 -60.5q0 -16 5 -34.5t17 -35t30.5 -26.5t45.5 -10q53 0 74.5 12t36.5 37q12 27 28.5 50.5t36.5 23.5q33 0 47.5 -17.5t14.5 -40.5q0 -39 -19.5 -69.5t-52.5 -51 t-74 -31.5t-86 -11q-43 0 -83 14t-69.5 38.5t-47 60.5t-17.5 79q0 33 22.5 79t65.5 86t107.5 68.5t150.5 28.5q76 0 144.5 -31.5t118.5 -81t79 -109.5t27 -118q-2 -45 -34 -107.5t-102.5 -118.5t-184 -95t-277.5 -39q-90 0 -178.5 29.5t-159 80t-113.5 117.5t-43 145z M496 53q0 39 29.5 64.5t68.5 21.5q33 -2 56.5 -22.5t27.5 -53.5q4 -41 -28 -70.5t-72 -25.5q-35 4 -58.5 27.5t-23.5 58.5z" />
<glyph unicode="@" horiz-adv-x="1716" d="M20 332q0 61 19.5 147t57.5 180.5t94.5 186.5t130.5 168q127 127 264 204.5t264 90.5q80 8 149.5 8t134 -12.5t128 -40t129.5 -72.5q76 -53 133 -118.5t96 -138.5t58.5 -146.5t19.5 -143.5q-4 -287 -74 -430l-57 -107q-29 -52 -60.5 -91.5t-69.5 -63t-83 -21.5 q-53 2 -92 32t-67 74t-46.5 96t-28.5 99l-26 112q-14 60 -25 126l-82 15q-39 7 -78 12.5t-80 8.5t-88 5q-45 2 -114.5 -17.5t-136 -55.5t-112.5 -87t-46 -114q0 -25 10 -52.5t34.5 -52t67.5 -40t109 -15.5q45 0 96 15.5t94 38t72 48t29 43.5q0 23 -15.5 35t-37 18.5t-45 7.5 t-41.5 3q-4 -10 4 -20.5t4 -24.5q-4 -16 -14.5 -26.5t-30.5 -6.5q-63 10 -76.5 26.5t-13.5 38.5q0 29 30.5 55.5t87.5 26.5q45 0 89 -8t78 -24.5t54.5 -40t20.5 -54.5q0 -35 -29.5 -75.5t-84 -76.5t-128 -60.5t-159.5 -24.5q-109 0 -169.5 25.5t-90 59.5t-37 69.5t-7.5 54.5 q0 98 55.5 173t135.5 125t171 77.5t163 29.5q72 4 146.5 -10t131.5 -27q-6 31 -18 79t-43 93q-18 27 -29.5 51.5t-28 43t-42 30t-68.5 11.5q-59 0 -93 -15.5t-59 -38.5q-14 -12 -24 -30l-20 -36q-9 -17 -17 -27.5t-21 -8.5q-14 4 -24 13t-8 24q2 23 17 59.5t52 67.5 q41 35 99.5 55.5t99.5 20.5q121 0 182.5 -51.5t98.5 -127.5q35 -72 57 -147.5t37 -114.5q6 -10 23 -16l36 -14q18 -7 31.5 -15t11.5 -20q-2 -25 -24 -41q-16 -10 -24.5 -9t-37.5 5q0 -10 3 -31t9.5 -46.5t14.5 -53l16 -52.5t16.5 -55.5t21.5 -58t31.5 -45t47.5 -13.5 q18 2 40.5 21.5t48.5 52.5t50.5 77t44.5 95q18 45 27.5 91t12.5 90t4 82t5 69q4 45 -11 107.5t-50 129t-86 130t-117 106.5q-55 37 -107.5 57.5t-105.5 28.5t-110.5 7t-124.5 -7q-119 -12 -248 -84t-244 -193q-61 -66 -108.5 -151.5t-78 -169.5t-45 -158t-14.5 -117 q0 -35 6.5 -79.5t21.5 -97t44 -112t76 -122.5q23 -31 69 -68t96 -68.5t95 -52t65 -20.5q39 0 78 6t72 13.5t57.5 14.5t38.5 9q25 6 39 -6t17 -31q2 -25 -30 -45t-80 -36.5t-101.5 -26t-96.5 -9.5q-41 0 -105.5 29t-132 73t-126 96t-84.5 97q-49 86 -78 144.5t-42 106.5 t-17.5 93.5t-4.5 104.5z" />
<glyph unicode="A" horiz-adv-x="1437" d="M-2 750q0 27 24.5 42t59.5 24t76 13.5t71 6.5q35 4 78 6t58 2q12 18 29 48l39 66l44 76l43 76l62 105l51 85q4 16 5 36t3 42q2 18 11.5 38t29.5 20q25 -2 49.5 -28t47 -65.5t45 -90t40.5 -99.5l29 -71l34 -80l34 -74q16 -35 28 -56q23 0 41.5 2.5t43 4.5t62.5 4t97 2 q27 0 75 -2t97 -7.5t87 -15.5t42 -26q1 -7 1 -14q0 -19 -9 -33q-12 -17 -39 -21q-9 -1 -20 -1q-30 0 -70 8q-55 11 -109 13q-53 3 -103 3q-25 0 -49 -1q-73 -2 -120 -10q2 -10 12 -42l24 -74l29 -94l33 -101q18 -59 41 -120.5t41 -117t30.5 -100.5t12.5 -72q0 -29 -27.5 -51 t-56.5 -22t-53.5 37.5t-48 96t-44.5 129.5l-42 138q-37 127 -79 232.5t-69 164.5q-30 5 -57 6q-14 0 -27 -2q-39 -4 -80 -4q-25 0 -52 -4l-54 -8q-27 -4 -51.5 -7t-40.5 -1l-30 -57l-39 -78l-44 -91q-23 -48 -43 -98l-65 -159q-33 -82 -66 -149t-63.5 -110t-57.5 -43 q-14 0 -29.5 15.5t-19.5 36.5q0 12 3 22t11.5 23.5t22.5 33t33 52.5q23 41 55 112l74 158q29 61 65 151l72 169q-27 0 -48.5 1t-49.5 -1q-59 -4 -111 -19q-45 -13 -77 -12h-9q-16 2 -29.5 7.5t-13.5 23.5zM492 860q15 -2 30 -2l39 3q35 5 78 7t70.5 2t74.5 4l-30 118 q-12 48 -22.5 83t-21 61.5t-24.5 55.5q-14 -31 -38 -70l-50 -84l-54 -90z" />
<glyph unicode="B" horiz-adv-x="1742" d="M0 1126q6 45 83 84t212 84q57 20 130 39t149.5 34t152.5 24.5t141 9.5q96 0 174 -13.5t133.5 -44t85 -78.5t29.5 -118q0 -33 -7 -58.5t-17.5 -47t-20.5 -39t-16 -35.5q25 -6 71 -15.5t100 -27t111.5 -47t105.5 -77.5t80 -118t36 -166v-11q0 -72 -26 -131 q-28 -65 -78 -119t-116.5 -95t-140.5 -70q-76 -29 -159 -46t-167.5 -27.5t-168.5 -13.5t-160 -3q-10 0 -55 -1h-14q-41 0 -95 5q-63 6 -140 20.5t-151 45.5q-43 18 -87 43.5t-80 56.5t-57.5 67.5t-21.5 77.5q0 55 25 102.5t69 85.5t103 65.5t127 41.5q29 6 63.5 11.5 t68.5 8.5t65.5 5t56.5 0q-4 43 -8 79t-4 72q0 25 12 91q2 63 5 115t11 118l10 82l7 74q-25 -2 -62 -7.5t-76.5 -12.5t-77.5 -15l-67 -14q-53 -14 -114.5 -36t-106.5 -46q-35 -20 -57.5 -47t-32.5 -23q-16 8 -27 26q-7 12 -7 25q0 5 1 10zM106 328q0 -33 19.5 -62.5 t53.5 -54.5t76 -45.5t89 -34.5q90 -29 169 -31t126 -2q184 0 360.5 16.5t311.5 69.5q129 49 205.5 135.5t76.5 196.5q0 78 -40 136.5t-107 92.5q-66 33 -145.5 46.5t-157.5 23.5q-18 -2 -50 -5t-70 -7t-77 -9.5t-74 -11.5q-55 -10 -91 -23.5t-68 -21.5q0 -16 2 -50t10 -48 q20 -6 75.5 -12t112 -26.5t99.5 -62.5q41 -40 41 -109q0 -74 -31 -104q-29 -28 -57 -28q-45 0 -50.5 22.5t-1.5 49.5q4 23 6.5 32t-1.5 29q-4 27 -31 35t-56 18q-33 12 -57 12.5t-57 4.5q-2 -10 -1 -32t2 -51l2 -63q1 -33 1 -63q-2 -66 -17.5 -109t-56.5 -43 q-20 0 -30.5 20.5t-15.5 47t-6 52.5t-1 36q0 23 1 52l2 62l2 61q1 30 3 54q-6 0 -28.5 2t-45.5 2q-14 0 -37.5 -1t-49 -4t-51 -7t-46.5 -8q-68 -14 -114 -36.5t-73.5 -49.5t-39 -51.5t-11.5 -42.5zM709 1014q0 -43 8 -96q7 0 15 -1q39 0 95 9q68 10 123 20q43 8 82 29.5 t68.5 50.5t47.5 60q20 36 20 69q0 22 -10 38q-11 19 -31.5 33.5t-46 25t-52.5 16.5q-63 14 -143 14q-53 0 -78 -1t-36 -4t-17 -7t-25 -8q-10 -37 -12 -71t-4 -77q-4 -57 -4 -100z" />
<glyph unicode="C" horiz-adv-x="1347" d="M-6 614q0 61 21.5 139t64.5 159t107.5 157t152.5 135q96 63 223 111.5t285 48.5q33 0 75 -7t85 -17.5l81 -20.5l62 -16q4 18 2 40.5t2 49.5q2 16 14.5 28.5t30.5 16.5q6 1 11 1q21 0 35 -21q17 -26 22 -54q1 -9 1 -22q0 -19 -2 -46l-6.5 -96t-4.5 -101v-14q0 -41 6 -73 q2 -14 8 -24l11 -16q5 -7 9 -16.5t4 -21.5t-13 -25.5t-28.5 -25t-31 -18.5t-19.5 -7q-29 0 -46 13.5t-26.5 36t-12.5 52t-3 60.5v20q0 50 8.5 84t8.5 62q0 5 -1 10q-18 8 -53 20.5t-81 22.5t-98 18.5t-103 8.5q-37 0 -88.5 -9.5t-108.5 -28t-116.5 -48t-112.5 -70.5 q-59 -45 -107.5 -101.5t-84.5 -117t-55.5 -121.5t-19.5 -119q0 -31 7.5 -82t29 -109.5t61.5 -117.5t104.5 -107.5t157.5 -78t222 -29.5q147 0 242.5 37t156 82t95 83t59.5 40q10 0 24.5 -8.5t26.5 -21.5t21.5 -29.5t9.5 -30.5q0 -16 -49 -64.5t-138.5 -98.5t-211 -90 t-269.5 -42q-45 0 -110.5 9t-139 35.5t-146.5 71.5t-131 116t-94 168t-36 230z" />
<glyph unicode="D" horiz-adv-x="1802" d="M-207 1053q-2 4 -2 9q0 16 19 44q25 37 64.5 78t87.5 76.5t89 50.5q90 35 200.5 48t250.5 13q145 0 323.5 -30.5t352.5 -96.5q119 -45 229.5 -103.5t187.5 -137.5q74 -76 121 -179.5t47 -214.5q0 -174 -73.5 -294.5t-196.5 -192.5q-68 -41 -147.5 -68.5t-166.5 -44 t-178.5 -23.5t-183.5 -7q-100 0 -238.5 16t-269.5 53q-61 18 -116.5 39t-98.5 46.5t-67.5 56t-24.5 67.5q0 33 22.5 73t58.5 81t81 77.5t88 63.5q74 47 126 66.5t83 27.5q-2 70 -4 154q-1 21 -1 43q0 66 5 139q2 43 7 87l10 84l9 73q4 33 7 51q-10 4 -27.5 6t-34.5 2 q-98 0 -196.5 -11t-192.5 -58q-41 -20 -84 -56.5t-72 -75.5q-23 -33 -31 -57t-16 -20q-16 10 -26.5 19.5t-20.5 25.5zM88 262q0 -16 18.5 -32.5t48 -32t66.5 -30.5t76 -28q59 -20 113 -36q47 -14 70 -13h5q0 35 -2 101.5t-6 139t-7 138.5t-5 100q-57 -16 -112.5 -41.5 t-88.5 -48.5q-70 -49 -123 -102.5t-53 -114.5zM608 946q0 -68 3 -135.5t10 -146.5q29 0 95 -1t158 -24q47 -12 96.5 -30.5t88.5 -41t62.5 -50.5t23.5 -58q0 -20 -17.5 -42t-40 -40.5t-44 -29.5t-33.5 -11q-8 0 -24.5 2t-16.5 18q0 20 7 36t16 26l18 19q8 9 8 22 q0 10 -15.5 22.5t-38 24.5t-50 22.5l-52.5 20.5q-33 12 -68.5 18t-68.5 9.5t-60.5 3.5t-43.5 -2v-135q0 -62 1 -124l2 -124q1 -63 5 -134q51 -8 102 -8t103 4q74 6 153.5 15.5t157.5 25t150.5 38t131.5 57.5q102 59 154 153q47 87 47 208v19q-4 133 -40 223.5t-103 153.5 q-74 70 -178 119l-215 102q-63 31 -139 51.5t-145 33t-120 16.5q-34 3 -51 3q-8 0 -12 -1q-4 -31 -7.5 -71t-5.5 -85t-3 -89t-1 -83z" />
<glyph unicode="E" horiz-adv-x="1409" d="M-43 1363q18 17 51 13q45 -4 79 -14t85 -10q2 18 2 48t6 58q6 35 20.5 59.5t37.5 26.5h6q32 0 47 -18q16 -20 20 -51q3 -20 3 -43q0 -11 -1 -22q-2 -34 -2 -58q29 0 79 4t110 4q26 1 53 1q41 0 86 -2q74 -3 147 -7q113 -8 211.5 -19.5t165.5 -21.5q59 -8 99.5 -22.5 t40.5 -63.5q0 -29 -32 -43.5t-63 -14.5q-23 0 -74 25t-122 37q-47 8 -107.5 13t-126 8t-130 5t-116.5 2q-15 0 -29 1q-57 0 -102 -7l-94 -14q4 -29 8 -70t4 -90v-75q0 -24 9 -52q45 -4 130 -9q61 -4 121 -4q24 0 48 1h124q62 0 114.5 -8t85 -28.5t32.5 -57.5 q0 -41 -40 -63.5t-83 -22.5q-16 0 -59 19.5t-96 25.5q-61 8 -149 8h-208q-6 -55 -9 -131t-3 -135q0 -92 2 -159t5 -115t6 -80.5t7 -59.5q44 -13 135 -13h13h42q89 0 212 -3q76 -2 160 -4l165 -5q82 -2 157 -6t131 -10t90 -17.5t34 -27.5t-10 -28.5t-24.5 -20.5t-29 -12 t-22.5 -4q-12 0 -37 5l-56 11q-32 6 -68 11t-72 5q-41 0 -82 1t-90.5 3t-107.5 3t-134 1q-66 0 -133.5 1.5t-134.5 1.5h-130q-62 0 -118 -3q-35 -2 -74 -4t-74 -12q-29 -6 -49 -16q-17 -9 -31 -9q-3 0 -6 1q-18 2 -23 16t-5 41q0 16 20.5 32.5t51 30t65.5 24.5t63 19 q0 33 1 80l2 96q1 49 1 94v70q0 43 -2 88l-4 86q-2 41 -4 75t-2 54q-27 18 -51.5 31.5t-26.5 46.5t22.5 49.5t55.5 32.5q0 23 -1 64t-3 85t-3 85t-1 61q-16 4 -56 9t-80 12.5t-70 19.5q-28 11 -28 30q0 30 23 51z" />
<glyph unicode="F" horiz-adv-x="1439" d="M2 1270q-3 9 -3 17q0 11 5 22q8 18 25 30q20 16 37.5 7t44.5 -7q82 4 141 13l88 12q10 27 25.5 44t44.5 22q8 1 15 1t12 -1q11 -2 20.5 -10.5t20.5 -22t30 -29.5q32 -2 88 -2q42 0 97 1q130 3 341 3q188 0 305 -7t182.5 -19.5t89 -31t23.5 -38.5q0 -23 -15 -43.5 t-37.5 -35.5t-49.5 -22.5t-49 -5.5q-16 2 -26.5 11.5t-20 21.5l-19.5 23.5t-24 17.5q-18 6 -60.5 12.5t-95.5 11.5t-110.5 7t-106.5 2q-66 -2 -137.5 -3t-140 -3t-129 -4t-101.5 -7q-4 -66 -10 -144.5t-10 -170.5q-2 -59 -6 -115q-1 -24 -1 -43q0 -27 2 -47q29 -4 115 -4 t209 -4q33 0 88 -2t108.5 -7t91.5 -17.5t36 -34.5q-4 -43 -43 -75t-88 -32q-12 0 -17.5 6t-10.5 14.5t-13.5 17.5t-28.5 15q-23 6 -59.5 9.5t-83.5 3.5q-109 0 -186 -12q-65 -10 -107 -9h-15q-6 -47 -10 -137t-6 -195q0 -37 8 -60.5t8 -66.5q0 -6 -8 -33.5t-22.5 -59 t-33 -56.5t-38.5 -25q-35 0 -54.5 13.5t-29.5 37t-12 56.5t-2 72q0 29 2 92t4 134l4 135q2 65 2 93q-25 3 -54 3h-15h-25q-26 0 -54 1h-34q-16 0 -28.5 4t-20 17.5t-7.5 40.5q0 37 30 47t73 10q39 0 75.5 2t55.5 6q6 51 11 140.5t9 171.5q4 70 4 121t4 79q-18 0 -53 -4 l-72 -8q-38 -4 -72 -8t-48 -4q-25 0 -45.5 11t-26.5 34z" />
<glyph unicode="G" horiz-adv-x="1673" d="M27 580q0 96 23.5 181t63.5 159.5t90 138t103 117.5q55 53 132 99t161 80t169 52t157 18q86 0 174 -13t159.5 -49t117.5 -99.5t48 -165.5q0 -14 -2 -31.5t-9 -33t-18.5 -26t-29.5 -12.5t-28.5 16.5t-18.5 49.5t-19.5 67.5t-33.5 71.5q-37 59 -117 101t-219 42 q-158 0 -296 -57t-241 -160q-57 -59 -101 -126.5t-74 -133t-45 -125t-15 -100.5q0 -129 56 -235.5t142 -180.5q78 -68 168 -101.5t176 -33.5q94 0 175 19.5t144.5 47t109 58.5t67.5 51q2 37 -12 96q-13 52 -13 109v16q2 41 14.5 98.5t22.5 98.5q-49 0 -94 4t-102 4 q-74 -2 -127.5 -6t-126.5 -14q-35 -4 -69 -12.5t-54 -8.5q-23 0 -37 17.5t-14 33.5q0 53 202 72q82 8 195 12.5t256 4.5q274 0 399 -11.5t125 -46.5t-21.5 -68.5t-47.5 -33.5q-16 0 -35 15.5t-47 25.5q-41 12 -101.5 14t-140.5 2q-14 -29 -21 -90q-5 -39 -5 -83q0 -25 1 -52 q2 -16 8 -54l12 -88q7 -50 16.5 -104.5t16.5 -101.5l12 -81q5 -34 5 -42q0 -47 -14.5 -75t-50.5 -36q-4 -1 -8 -1q-13 0 -29 10q-20 13 -38 34t-31 45.5t-17 42.5t-11.5 46t-13.5 65l-72 -36q-43 -22 -105 -42t-144 -34.5t-187 -14.5q-76 0 -136 6t-111.5 19.5t-95.5 34 t-83 50.5q-109 78 -174 204.5t-65 269.5z" />
<glyph unicode="H" horiz-adv-x="1318" d="M-115 881q0 25 26 42t65.5 29.5t86.5 21.5l89 17q47 10 83.5 10t79.5 3v34q0 23 1 49l2 53q1 26 1 48q0 27 5.5 63.5t14.5 70.5t21.5 57.5t28.5 21.5q20 -2 36.5 -13.5t20.5 -31.5q5 -25 6 -49q0 -15 -2 -28q-5 -36 -8 -108q-1 -14 0 -28q0 -41 4 -76l9 -63q23 -4 58 -5 q18 0 39 1q62 3 140 4q59 0 92 -2h6q30 0 66 10q4 25 6 77q1 17 1 35q0 36 -3 76q-4 47 -8 87t-4 81q0 23 13 48.5t36 25.5q27 0 45.5 -20.5t29.5 -52.5t17 -73t10 -84q8 -72 9 -132v-76q10 -4 30.5 -5.5t46.5 -2.5l56 -2q29 -1 55 -3q43 -4 83 -25q36 -20 36 -57 q0 -35 -25 -64q-20 -24 -53 -22q-16 0 -26.5 4t-18.5 10l-16 10q-8 5 -21 9q-34 9 -65 9q-6 0 -13 -1q-18 -1 -34.5 -1t-30.5 1q-2 -29 -3 -72.5t-1 -98t1 -114t3 -116.5q2 -55 5 -116.5t6 -116t6 -94.5q3 -44 3 -64q0 -29 -10 -55q-12 -30 -59 -29q-55 0 -67.5 36.5 t-14.5 81.5q0 27 -1 68t-2 91l-2 105q-1 54 -4 109q-4 115 -7 217l-5 172q-31 4 -87 6.5t-119 2.5h-117h-82q0 -23 -1 -60l-2 -77q-1 -40 -1 -74v-52q2 -66 4 -148.5t3 -159.5t2 -136t3 -76q2 -25 -20.5 -38t-47.5 -13q-27 0 -48 13.5t-23 37.5q-2 20 -2 71.5t1 117t1 139.5 v143q-2 90 -3.5 164t-3.5 139q-41 8 -80.5 8.5t-89.5 -4.5q-33 -2 -65.5 -9t-61.5 -14l-53 -13q-25 -6 -43 -7q-16 0 -27.5 21t-11.5 31z" />
<glyph unicode="I" horiz-adv-x="909" d="M-10 25q0 41 39 52t92 13q61 0 125.5 9.5t99.5 19.5q10 78 20.5 229.5t16.5 339.5q5 134 5 255q0 40 -1 79q-2 156 -2 268q-37 6 -86 7q-10 0 -19 1q-37 0 -65 -4q-29 -4 -54.5 11.5t-23.5 37.5q2 18 19.5 29.5t33.5 11.5h38q17 0 50 1t88.5 4.5t151.5 7.5q27 2 67 4 l82 4q42 2 84 3t74 1q49 0 75 -10q24 -9 24 -35q0 -39 -23 -64q-20 -23 -55 -26q-16 -2 -37 7t-41 9q-30 1 -60.5 1t-62.5 -1q-63 -2 -106 -4v-61q0 -37 1 -81l2 -92q1 -48 3 -94q2 -109 6 -229v-87v-112q0 -59 -2 -120.5t-2 -116.5t-1 -99q0 -15 -1 -27q0 -25 2 -40 q53 -10 110 -15l107 -10q47 -4 78.5 -19t31.5 -63q0 -35 -21.5 -54t-57.5 -19q-4 0 -36 21.5t-97 35.5q-39 9 -90 9q-10 0 -21 -1q-32 -1 -69 -1t-79 1q-37 0 -91 -4t-107 -10t-97.5 -10t-60.5 -4q-29 2 -43 10t-14 31z" />
<glyph unicode="J" horiz-adv-x="1226" d="M0 397q0 16 16.5 48t51 69t87 76t124.5 69q66 29 145.5 47.5t177.5 18.5q61 0 113.5 -14.5t92.5 -39t62.5 -58t22.5 -72.5q0 -59 -26.5 -98.5t-63.5 -62t-73 -31.5t-54 -9q-29 0 -55.5 2t-46 10t-31 24.5t-11.5 45.5q0 49 18.5 66.5t43.5 19.5q18 0 36.5 -5t35 -11.5 t28 -11.5t15.5 -5q27 0 48 13.5t21 39.5q0 23 -21.5 45.5t-52 40t-65.5 27.5t-61 10q-59 0 -126 -15t-133 -42q-47 -20 -90 -45t-74.5 -51.5t-50 -54t-18.5 -54.5q0 -78 53.5 -138.5t125 -100t147 -60t120.5 -20.5q98 0 177 32.5t140.5 90t105.5 134t73 165.5q29 86 39 177 t10 183q0 111 -11 199t-26 141q-12 55 -26.5 77.5l-30.5 45.5q-59 23 -143 24.5l-201 3.5q-41 0 -80 -10q-22 -6 -39 -5q-14 0 -24 3q-18 6 -25.5 20.5t-11.5 32.5q-2 16 5 24.5t27.5 12.5t57.5 6.5l94 6.5q35 2 96.5 4t124 3t116.5 1h77q31 0 54.5 -28t27.5 -42 q4 -10 0 -19.5t-9 -17.5q4 -14 14.5 -37.5t21 -71.5t18.5 -128t8 -205q0 -141 -17.5 -259t-52.5 -216q-74 -215 -215 -331t-325 -116q-51 0 -115 13.5t-128.5 39t-124.5 62.5t-108.5 84t-77 104t-28.5 123z" />
<glyph unicode="K" horiz-adv-x="1392" d="M-16 700q0 25 18 43.5t43 31.5t51.5 22.5t42.5 13.5q4 12 0 42t4 60q10 33 24.5 63t29.5 52q9 43 9 78q0 13 -0.5 45t-0.5 53q0 41 -4 77q-2 18 -2 34.5t2 32.5q4 18 14 35.5t27 17.5q29 0 47 -20.5t28.5 -53.5t15.5 -74t7 -82q1 -16 0 -33q0 -50 -4.5 -102t-4.5 -88 q0 -12 1 -22q16 -12 20 -18.5t21 -14.5l71 46l79 48l101 60l134 79l95 60l110 67l94 58q41 25 49 24q18 2 32.5 -18.5t12.5 -30.5t-28.5 -30.5t-70.5 -50t-102 -64.5l-119 -72l-104 -63l-103 -66l-98 -63l-84 -54q14 -10 52 -32l89 -57l115 -78l133 -95l174 -136l158 -134 l81 -70q38 -33 66.5 -61.5t45 -49t16.5 -32.5q0 -29 -16.5 -61.5t-44.5 -32.5q-18 0 -36 12t-41 36l-58 58l-86 82q-61 55 -155.5 129t-229.5 166l-163 107l-198 122q-2 -14 -4 -52t-4 -88t-2 -105.5t2 -102.5t3 -81t1 -59v-44v-37q0 -23 -5 -47.5t-17.5 -45t-31 -33.5 t-44.5 -13q-25 0 -41.5 21.5t-26.5 56t-14 77.5t-4 86v246q0 45 -6.5 72.5t-10.5 54.5q-16 6 -41.5 8t-51.5 9.5t-44 24.5t-18 56z" />
<glyph unicode="L" horiz-adv-x="1204" d="M-20 61q0 25 34.5 46.5t71.5 31.5l75 18.5t89 22.5v87v137q0 77 1 164t3 169l4 184l4 174q2 83 4 151.5t4 113.5q2 41 12.5 79t49.5 52q5 2 10 1q14 0 24 -13q13 -18 22 -58.5t12 -98.5q2 -35 2 -75q0 -27 -1 -55q0 -49 -2 -104.5t-3 -111.5l-2 -110q-1 -53 -1 -96 q0 -84 1 -174t2 -170t1 -144v-98q31 -2 87.5 -3t128 -2t154.5 -4t167 -7q66 -4 129 -11t114.5 -21.5t82 -36t30.5 -54.5q0 -45 -36.5 -67.5t-82.5 -22.5q-27 0 -59.5 20.5t-91.5 32.5q-61 12 -133 17l-137 8q-72 5 -140 4h-44q-87 -2 -140 -4q-27 -20 -46.5 -39t-51.5 -19 q-35 0 -57.5 20.5t-41.5 45.5q-53 -8 -103 -28.5t-77 -20.5q-29 0 -49 22t-20 47z" />
<glyph unicode="M" horiz-adv-x="1273" d="M37 115v91q0 67 1 156t2 190t1 193v582q0 29 16.5 54.5t44.5 27.5q20 2 36 -9t29 -33l30 -49q16 -28 41 -61q41 -53 91 -106t97 -119l125 -168l84 -114l52 56l70 74l79 86l82 95q53 63 116.5 131t112.5 127q20 25 34.5 45t23.5 34.5t17.5 23t18.5 8.5q16 0 30 -12 q12 -10 11 -25q0 -8 -7 -44q-5 -26 -13.5 -60t-15.5 -70.5t-13 -71.5q-14 -86 -20.5 -159t-9.5 -141.5t-3 -138.5v-151v-45q0 -101 7 -189q9 -108 10 -200q0 -37 2 -68.5t-1.5 -54.5t-12.5 -36t-29 -13h-8q-23 0 -45 11q-26 13 -25 38q0 20 5 45q4 18 4 50q0 13 -1 28 q-4 106 -14.5 206.5t-10.5 227.5q0 82 2 166t6.5 159.5t11.5 138t17 105.5q-55 -41 -95 -84l-85 -96q-29 -35 -47 -55l-41 -44l-58 -60l-100 -103q-2 -8 3 -33.5t1 -52.5q-4 -20 -29.5 -34.5t-39.5 -14.5h-7q-78 0 -100 49q-9 18 -9 46q0 9 1 20q-31 45 -54.5 75.5 l-44.5 55.5l-43 50l-51 60l-53 64l-53 65l-57 72q-2 -35 -4 -85t-3.5 -105.5t-1.5 -111.5v-104q0 -197 2.5 -324.5t6.5 -174.5q2 -18 4 -41t-1 -41.5t-11.5 -32.5t-28.5 -16q-29 -4 -54.5 6t-27.5 39z" />
<glyph unicode="N" horiz-adv-x="1142" d="M4 86q-1 7 -1 19q0 24 5 68q8 67 17.5 155t17.5 184q7 77 7 144q0 17 -1 32v52q0 42 1 101.5t5 130t11 138.5q6 55 13 104.5t18.5 86t25.5 55.5q11 14 24 14q4 0 9 -2q41 -14 41 -53q0 -25 -4.5 -48.5t-8.5 -66.5q12 -33 48 -87t120 -155q66 -78 156 -158.5t192 -189.5 l56 -61l49 -60q25 -31 53.5 -62.5t67.5 -70.5q4 33 14 151l23 284q6 82 12 181t15 185t24 142q13 53 32 53h3q23 -4 38 -17.5t15 -36.5q0 -29 -3 -88t-6 -131l-7 -148q-3 -77 -5 -140q-4 -129 -6 -257t-6 -272l29 -84q13 -36 12 -82v-14q-4 -55 -39 -74.5t-72 -19.5 q-25 0 -57.5 30.5t-89.5 104.5q-29 41 -72 96l-96 125q-12 14 -78 84l-164 174l-66 73l-77 85l-73 80q-34 37 -54 57q-5 -51 -5 -110v-20v-29q0 -59 -3 -128q-2 -53 -3 -113.5t-3 -113.5l-4 -125q0 -6 -1 -12q0 -41 13 -76q14 -41 14 -88q0 -43 -23 -73q-21 -26 -60 -26 q-5 0 -11 1q-51 4 -64.5 35.5t-17.5 66.5z" />
<glyph unicode="O" horiz-adv-x="1259" d="M0 559q0 104 28.5 200.5t75 178.5t106.5 148.5t122 113.5q49 37 98 58.5t90 35.5q20 18 53 36t66 33t62.5 24.5t48.5 9.5q82 0 169 -45t158.5 -121t117.5 -173t46 -202q0 -80 -16.5 -159t-46 -152.5t-69.5 -140t-85 -121.5q-117 -141 -253 -216t-247 -75q-109 0 -204 47 t-165.5 126t-112.5 181t-42 213zM96 580q0 -25 6.5 -61t19.5 -78t34.5 -85t52.5 -82q53 -66 130 -108.5t173 -42.5q39 0 90 14.5t107.5 45t115 75.5t109.5 107q82 94 138 217q54 119 54 271v11q-2 98 -38.5 176t-92 131.5t-121 82t-124.5 28.5q-66 0 -130.5 -41t-111.5 -106 q-23 -31 -37 -72t-23.5 -86t-13.5 -89t-4 -81q0 -16 5 -36.5t18.5 -39t35 -30t52.5 -9.5q45 2 85 25.5t67.5 54.5t39.5 59.5t4 45.5l-32.5 -35t-32.5 -15q-41 0 -65.5 21.5t-24.5 69.5q0 25 15 45t37.5 35.5t47.5 24.5t43 9q78 0 103 -36q28 -39 28 -104q0 -59 -26 -112 q-28 -57 -75.5 -101t-109 -69.5t-127.5 -25.5q-78 0 -130 52t-52 167q0 33 2 75t9 87t20.5 88t33.5 77q-25 -10 -54.5 -35.5t-59 -59.5t-58 -74.5t-53.5 -83.5q-39 -74 -59.5 -154t-20.5 -143z" />
<glyph unicode="P" horiz-adv-x="1531" d="M-78 1135q0 29 60.5 72.5t160.5 78.5q57 20 126 37.5t139.5 30t140.5 18.5q52 5 100 5q16 0 31 -1q88 -2 202.5 -10t280.5 -51q72 -18 140.5 -47t122 -66t86 -83t32.5 -99q0 -61 -27.5 -118.5t-75.5 -108t-113.5 -93.5t-139.5 -77q-109 -49 -227.5 -78t-227.5 -33 q-47 -2 -78 -5q-13 -1 -29 -1q-22 0 -48 2q-2 -16 -4.5 -45t-4.5 -63l-4 -69q-2 -36 -4 -65q-2 -39 -6 -84t-14.5 -85t-27.5 -68.5t-46 -32.5q-5 -1 -9 -1q-18 0 -35 13q-22 16 -26 41q-2 12 -1 31q0 28 3 68q6 69 7 139q0 59 1 104v13q0 40 -6 88q-29 2 -74.5 9t-89.5 25.5 t-77 52t-33 93.5q0 53 29.5 90t71.5 62.5t85 41t72 27.5q4 31 9 90t7 119v56q0 28 -2 48q-2 23 -2 45l-116 -12q-57 -6 -134 -43q-29 -14 -56.5 -35.5t-50.5 -42.5l-41 -35q-17 -14 -24 -14q-25 0 -39 19.5t-14 46.5zM213 662q0 -10 5 -18q7 -9 19.5 -14t27 -9.5t26.5 -10.5 q29 -10 49 -12t49 0q4 29 4 62q0 17 -1 34q-3 53 -7 92q-68 -4 -118 -38q-54 -38 -54 -86zM537 922q70 -16 94 -49t28 -62q4 -33 -11 -45t-38 -16q-20 -4 -36 8l-25 20q0 -16 2 -40.5t5 -50t5 -48.5t4 -33q27 -8 56.5 -9t54.5 -3q9 -1 20 -1q27 0 63 4q50 5 107.5 17.5 t120 32t119.5 45.5q68 31 128 69t106 78t74 76.5t28 63.5q0 45 -28 82t-72 67.5t-101 53t-115 39.5q-66 18 -131 29.5t-121.5 18.5t-99.5 10t-61 3q-63 0 -98 -6t-70 -14q-2 -31 -2 -64q0 -29 -1 -59.5t-1 -57.5q-2 -23 -2 -50v-52q0 -28 -2 -57z" />
<glyph unicode="Q" horiz-adv-x="1335" d="M18 639q0 76 14.5 149.5t37 139t47 124t47.5 103.5q23 47 56.5 97.5t73.5 92t82 69.5t83 32h11q30 0 64 -9q40 -11 60 -20q53 8 114.5 21.5t127.5 15.5h5q80 0 170 -61q93 -63 165 -181q53 -86 82.5 -193.5t31.5 -232.5v-14q0 -119 -30 -226q-33 -114 -83.5 -208 t-113 -165t-121.5 -112q20 -25 37.5 -43t40.5 -38q31 -25 64 -35l63 -19l87 -22q40 -10 40 -39q0 -23 -11.5 -48.5t-45.5 -25.5q-68 0 -130.5 16.5t-107.5 49.5q-47 35 -89 81t-71 74q-29 -10 -75 -21t-97 -11q-102 0 -187 25.5t-153 64.5q-152 86 -220.5 236.5t-68.5 332.5 zM123 684q-4 -35 -5 -68q0 -57 14 -108q22 -80 66 -143.5t104 -110.5t124 -78q47 -23 94 -36t88 -20t74 -8q7 0 13 -1q24 0 38 4l-37 57q-20 31 -36.5 60.5t-29 56t-12.5 43.5q0 14 19.5 23.5t38.5 9.5q23 -2 44 -33l50 -70q23 -29 47 -54l43 -44q45 25 103.5 77t110.5 132 t88 187q34 102 34 228v15q-2 98 -23.5 178t-50.5 137q-37 74 -86 120t-95 70.5t-83 34t-51 9.5h-17q-109 0 -180 -48q-76 -52 -118 -128q-37 -66 -51.5 -135.5t-14.5 -110.5q0 -29 7 -60.5t20.5 -59.5t34 -46.5t49.5 -18.5t61.5 35t48.5 76q4 10 -5 21.5t-19 7.5 q-20 -4 -30.5 -14.5t-27.5 -6.5q-16 4 -24.5 12.5t-8.5 28.5q0 14 5.5 31.5t15.5 32t24.5 25t32.5 10.5q70 0 100.5 -35t30.5 -99q0 -55 -26.5 -99t-62.5 -75.5t-69.5 -48t-45.5 -16.5q-53 0 -93.5 18.5t-68 49t-42 70.5t-14.5 83q0 57 8.5 121.5t41.5 144.5 q10 25 25.5 55.5t32.5 59.5t34.5 52.5t34.5 37.5l-25 12q-12 6 -29 4q-20 -2 -52 -33.5t-65.5 -76.5t-64.5 -94.5t-47 -85.5q-51 -113 -67 -211z" />
<glyph unicode="R" horiz-adv-x="1751" d="M-106 1159q0 18 7 43t30.5 49.5t65.5 49t114 42.5q74 20 181 35t236 23q51 4 121 4t137.5 -1t126 -4t91.5 -7q66 -6 147.5 -15.5t164.5 -29t161.5 -49t140 -74.5t98.5 -107.5t37 -146.5q0 -96 -51 -175t-135 -137.5t-191.5 -94.5t-220.5 -44q-25 -2 -44 -2t-37.5 -1 t-39 -3t-49.5 -4q25 -16 54 -40l61 -49l60 -50l52 -43l140.5 -118t86 -83t45 -61.5t15.5 -53.5q1 -5 1 -10q0 -30 -20 -54q-17 -20 -39 -20q-8 0 -16 2q-23 6 -23.5 31t-17.5 47q-20 27 -55 64l-76 76q-41 40 -82 76t-73 59l-90 66l-65 50l-52 42l-55 42q-18 8 -46 13.5 t-56.5 6.5t-54.5 1h-40q-5 -32 -5 -85v-19v-14q0 -60 -7 -124q-4 -29 -7.5 -66.5t-10.5 -74.5t-20.5 -63.5t-35.5 -28.5q-23 -4 -37 12t-20.5 40.5t-8.5 53.5t0 53q2 31 6.5 76t6.5 92t2 90t-6 70q-25 4 -78 9t-111 16q-66 10 -116 31.5t-52 64.5q0 20 13.5 36.5t36 29 t53 19.5t61.5 11q33 3 64 3q15 0 30 -0.5t28 -0.5q25 0 42 2q0 80 1 138.5t2 99.5t2 70.5t-1 52.5q-2 35 -2 68q0 25 1 47q3 54 9 90q-18 -2 -64 -6.5t-98 -10.5l-98 -12q-47 -6 -72 -12l-70 -22q-36 -11 -65 -36q-16 -14 -29 -32l-24 -31q-10 -14 -19.5 -23.5t-17.5 -9.5 q-28 2 -28 51zM395 611q27 -1 56 3q-16 12 -35 23.5t-35 9.5q-17 0 -17 -14q0 -21 31 -22zM557 1311q6 -25 12 -62l14 -80q7 -43 12 -87t7 -78q8 -100 8 -169t8 -106q35 -23 62 -31t61 -26q37 -20 62 -37l57 -37q29 0 118 2t198 18q86 12 168.5 37t150.5 66 q70 41 101.5 111.5t33.5 142.5q0 33 -15.5 67.5t-42 66.5t-63 58.5t-79.5 44.5q-115 49 -232 70t-264 33q-65 6 -126 6q-43 0 -83 -3q-98 -7 -168 -7z" />
<glyph unicode="S" horiz-adv-x="1763" d="M0 356q0 59 51 131t145.5 133.5t227.5 103.5t297 42q74 0 150.5 -14.5t138 -43t101.5 -72.5t40 -104q0 -84 -49 -136t-111.5 -80.5t-122 -39t-77.5 -10.5q-29 0 -54.5 12.5t-46 31t-32 40t-11.5 39.5q0 27 13.5 48.5t33 38t43 25.5t41.5 11q16 2 30.5 -7t18.5 -26 q2 -14 -9 -22t-7 -23q4 -12 13.5 -20t19.5 -8q8 0 35.5 7t56.5 20t52.5 32.5t23.5 42.5q0 14 -13.5 39.5t-50.5 51.5t-103.5 45.5t-172.5 19.5q-104 0 -208 -30t-186.5 -74t-135 -97t-52.5 -98q0 -27 19.5 -54.5t52.5 -55.5t75 -53.5t87 -45.5q53 -25 115.5 -42.5t124 -27.5 t118.5 -14q38 -3 72 -3q17 0 32 1q195 10 344.5 75.5t270.5 178.5q39 37 73.5 81t60.5 90t40 91t14 86q0 47 -39 87t-102.5 68.5t-146 45t-171.5 16.5q-80 0 -175 -5t-183 -12l-160 -11q-72 -5 -104 -5q-33 0 -71 7t-71.5 25.5t-56 49.5t-22.5 78q0 61 36.5 131t96 129 t132.5 97q69 36 137 36h7q45 -2 103.5 -12.5t105.5 -28.5q18 -6 38 -14t37 -17.5t27.5 -21.5t8.5 -29q-2 -16 -9.5 -30.5t-23.5 -18.5q-18 -4 -51 16.5t-84 36.5l-65.5 19.5t-61.5 9.5q-59 0 -118.5 -28.5t-105.5 -69.5t-75 -86t-29 -78q0 -35 11.5 -54.5t31 -29.5t48 -12.5 t65.5 -2.5q63 0 145 7.5l162 15.5t149 14q51 5 87 5q12 0 22 -1q102 -4 212 -17t199 -47t146.5 -96.5t57.5 -162.5q0 -47 -16.5 -102.5t-46.5 -110.5t-71 -110.5t-88 -102.5q-129 -127 -312 -201t-417 -74q-51 0 -113.5 5.5t-130 17.5t-135 32.5t-129.5 51.5 q-51 27 -100 58.5t-87 67.5t-60.5 73.5t-22.5 74.5z" />
<glyph unicode="T" horiz-adv-x="1331" d="M-6 1285q57 11 158 34q25 6 77 13t119.5 14.5t146 12.5t156.5 5q168 4 320.5 4t257.5 12q80 10 126 17.5t70 7.5q23 0 46.5 -13.5t23.5 -45.5q0 -35 -10 -57.5t-25.5 -35t-37 -17.5t-42.5 -7q-39 -4 -61.5 4t-52.5 8q-35 0 -110 -1t-159 -3l-160 -4q-77 -2 -116 -4 q-12 -102 -13 -262q0 -53 -1 -109q0 -110 2 -227q0 -78 4 -168t7 -169t6 -134.5t3 -65.5q0 -53 -28.5 -88t-63.5 -35q-29 0 -54.5 28t-25.5 62q0 31 1 96.5t2 151.5t2 183.5t3 187.5q2 160 3 285t1 260h-96q-57 0 -117.5 -2t-117 -5.5t-95.5 -9.5q-61 -10 -100 -19 q-27 -6 -54 -7l-24 2q-18 2 -25 20q-6 14 -6 29q0 40 60 52z" />
<glyph unicode="U" horiz-adv-x="1175" d="M16 655q-1 30 -1 55t1 46q2 41 10.5 82t23.5 92l40 131q12 41 30.5 93t38 98t37 78t27.5 32q16 0 30.5 -7t16.5 -24q2 -14 -8 -39l-25 -60l-35 -83q-19 -47 -38 -105q-25 -78 -41.5 -159.5t-16.5 -155.5q0 -29 5.5 -79t20.5 -111.5t44 -127t78 -120.5q57 -66 144 -108 t212 -44q115 0 204 42t150.5 114t94.5 165t33 195q0 63 -7.5 130t-18.5 130.5t-26.5 122t-31.5 105.5q-18 51 -36 90t-33 68.5t-24.5 53t-9.5 46.5q0 16 11 34q13 20 31 19q17 0 64 -80q48 -82 95 -223q29 -88 51.5 -204t26.5 -218v-13q0 -111 -33 -235 q-35 -131 -117 -240.5t-214 -181t-322 -71.5q-37 0 -80 10t-89 34.5t-91 65.5t-86 103q-53 78 -92.5 196.5t-43.5 257.5z" />
<glyph unicode="V" horiz-adv-x="1093" d="M-55 1348q0 29 20.5 46t48.5 19q12 0 29.5 -22.5t36 -61.5l39.5 -87l43 -99l68 -159l67 -153l68 -161l66 -154l57 -128l42 -89q18 29 36 68l43 95l61 133l86 183l120 243q67 132 146 265q14 23 33.5 50.5t40 51t39 39t30.5 15.5q23 0 38.5 -15.5t15.5 -37.5 q0 -6 -14.5 -26t-35.5 -44l-43 -53q-23 -29 -39 -54q-49 -78 -81.5 -135t-57 -109.5t-47 -106.5t-55.5 -124l-74 -165l-67 -161q-31 -77 -52.5 -137.5t-23.5 -89.5q-4 -31 -1 -52t-7 -54q-16 -53 -47 -73.5t-80 -20.5q-20 0 -47 59t-68 162l-45 111l-49 121l-49 119l-46 108 l-84 205l-78 208q-36 98 -59.5 172t-23.5 99z" />
<glyph unicode="W" horiz-adv-x="1527" d="M-16 1364q0 25 11 45.5t38 20.5q20 0 44.5 -44.5t51.5 -116t54 -164.5l59 -192l23 -75q15 -49 43 -125t71 -179.5t104 -234.5q16 27 40 81l48 116l49 117l39 92l-37 66l-53 92q-27 48 -46 92t-19 69q0 2 4 11t12 19.5t17.5 18.5t19.5 8q27 0 48.5 -20.5t42 -51t42 -67.5 t51.5 -70q14 18 41 61l56 84q29 42 54.5 73.5t37.5 31.5q16 -2 27.5 -17t13.5 -32q2 -10 -16.5 -44t-45.5 -77l-54 -89q-28 -46 -44 -81q31 -72 76 -135t96 -147l75 -121l68 -109q27 88 70 213t98 262l58 137l62 144l63 136q31 65 57.5 115t45.5 79.5t30 32.5q18 2 34 -16 q12 -14 12 -29q0 -24 -33 -96l-68 -143l-85 -184q-45 -101 -81 -208l-46 -122l-43 -123l-37.5 -116.5t-29.5 -101.5q-6 -27 -7 -55q0 -17 3 -34q5 -35 4 -66v-21q0 -41 -19.5 -67.5t-72.5 -26.5q-14 0 -37 30.5t-51 78.5l-63 109l-68 121q-27 47 -57 94l-56 85l-47 69 q-20 31 -29 47q-8 -12 -18 -36l-23 -57l-25 -65q-13 -34 -28 -63q-27 -59 -46.5 -109.5t-19.5 -119.5q0 -12 -12 -37t-32.5 -47.5t-45 -36.5t-49.5 -10t-38 26.5t-24.5 57.5t-23.5 82t-33 100l-40 104l-42 110l-38 102l-31 85q-41 117 -75 225.5t-57.5 197.5t-35.5 152.5 t-12 88.5z" />
<glyph unicode="X" horiz-adv-x="1056" d="M-8 74q0 12 20.5 49t54 88t76.5 110.5t90 116.5l76 99l68 92l53 76q23 33 33 49l-35 51l-50 75l-59 90l-61 95l-43 65l-47 73q-23 36 -38 65.5t-15 42.5q0 12 6 25.5t15 25.5t22.5 20.5t29.5 6.5q10 0 31 -26t47 -65l56 -83l55 -80q51 -72 94 -139.5t78 -106.5l67 100 l64 92l65 90q31 39 65 87l64 90q31 41 57 66q24 24 38 24h2q45 -10 45 -58q0 -12 -21.5 -41.5t-53.5 -68.5l-69 -83q-37 -44 -65 -85l-62 -88l-58 -86l-50 -76q-23 -35 -35 -57q10 -23 36 -67l59 -100l73 -119l78 -120l59 -92q29 -45 51.5 -84t36.5 -70q17 -36 17 -58 q0 -36 -29 -53q-33 -19 -74 -20q-12 0 -29.5 29t-40.5 73l-52 99l-58 111q-59 102 -111.5 180l-85.5 131q-12 -18 -42 -54l-66 -81l-75 -92q-38 -47 -66 -89q-45 -63 -79 -121l-59 -105l-41 -73.5t-26 -27.5q-8 0 -22.5 4t-29 13t-24.5 25.5t-10 39.5z" />
<glyph unicode="Y" horiz-adv-x="1136" d="M-13 -18q38 57 97 105t132 79t140 31q92 0 136.5 -42t44.5 -106q0 -49 -27 -88t-64.5 -65.5t-78.5 -41t-68 -14.5q-41 0 -67.5 39t-26.5 76q0 29 24 56q20 23 46 23q6 0 12 -1q16 -4 29.5 -8.5t15.5 -20.5q2 -10 -6.5 -16t-6.5 -17q4 -20 25 -24q12 -2 29.5 5t34 21.5 t27.5 32t11 35.5q0 20 -12 34.5t-28.5 21.5t-34 10.5t-27.5 3.5q-37 0 -89 -21.5t-98 -55.5t-79 -75t-33 -82q0 -14 20.5 -38.5t58.5 -49.5t90 -42t114 -17q63 0 128.5 20.5t125 53t109.5 71.5t83 76q43 49 77 109.5t55.5 121t30.5 112.5q6 36 6 64q0 12 -1 23 q-29 -12 -65.5 -31.5t-85 -38t-106.5 -30.5q-50 -11 -108 -11h-20q-45 0 -94 15.5t-97.5 40t-91.5 55.5t-73 61q-45 45 -73 94.5t-43 104.5t-21.5 117.5t-6.5 130.5v58q0 24 2 49.5t8.5 60.5t18.5 94q10 49 25.5 101.5t34 95.5t40.5 69q21 25 44 25h3q14 -2 23.5 -14.5 t9.5 -22.5q0 -12 -7 -35.5t-18 -53.5l-23 -63q-11 -33 -17 -65q-20 -98 -22.5 -179t-6.5 -157v-25q0 -87 26 -156q30 -79 93 -151q66 -76 146.5 -111.5t148.5 -35.5q70 0 127 15t102 36.5t80 44.5l59 39q0 25 2 57.5t3 68.5l3 72q1 36 1 64q-2 78 -6.5 148.5t-14.5 134.5 q-16 117 -20 190.5t-4 95.5q0 20 18 45t35 25q33 0 50 -82t40 -246q12 -86 20.5 -194.5t8.5 -206.5q0 -283 -70 -493t-201 -339q-98 -96 -234 -152t-290 -56q-51 0 -112.5 19t-114 52t-87.5 75q-34 40 -34 82q0 53 40 114z" />
<glyph unicode="Z" horiz-adv-x="1505" d="M-14 33q0 25 34.5 74t89 110.5l119.5 128.5l129 129q66 63 116 117.5t73 83.5q-78 -6 -119 -10t-61 2q-23 8 -32 27.5t-5 41.5q2 12 20.5 20.5t44 13.5t52 7t42.5 4q41 4 85 7.5t88 13.5q41 39 92 94l104 116l106 122l95 110q-25 0 -59.5 -2t-75.5 -5t-85 -5l-87 -4 q-45 -2 -97.5 -2t-98.5 5t-78 16.5t-34 33.5q-4 23 9.5 38t35.5 19q10 1 25 1q23 0 57 -2q16 -1 36 0q53 0 136 5q63 4 127 9.5l118 10.5t96 6h26q24 0 39 -1q27 -4 58.5 -5t58 -6t45 -18.5t18.5 -40.5q0 -39 -12 -59t-33.5 -32.5t-50.5 -21.5t-59 -26q-41 -35 -85.5 -79 t-84.5 -90l-77 -88l-61 -71h71q38 0 74 1.5t64.5 2.5t44.5 1q27 2 52.5 -14.5t25.5 -45.5q0 -45 -19.5 -58t-41.5 -13q-29 0 -80 8t-109 8q-43 0 -99 -4l-110 -8q-49 -43 -112 -109l-142 -149l-134 -146l-144 -162q49 2 142 2t255 -6l226 -10q132 -6 282 -14q45 -2 93 -5.5 l91 -6.5t78 -4t53 -1q27 2 51.5 -7t24.5 -44q0 -29 -26.5 -54.5t-61.5 -29.5q-9 -1 -19 -1q-15 0 -31 2q-28 3 -66.5 9.5t-90 13.5t-121.5 13q-111 10 -244.5 15t-271.5 5q-98 0 -208.5 -2t-188.5 -14q-53 -8 -72.5 -24.5t-42.5 -16.5q-29 0 -51 20.5t-22 49.5z" />
<glyph unicode="[" horiz-adv-x="589" d="M64.5 935q-3.5 136 1.5 255q0 35 10 59.5t38.5 40t83 22.5t142.5 7q43 0 81 1t64.5 -2t42 -15.5t15.5 -38.5q0 -41 -27 -50.5t-70 -13.5q-29 -2 -71.5 3t-120.5 1q-31 -2 -36 -28.5t-7 -40.5q-2 -23 -3 -79.5t-3 -129t-3 -149.5t-1 -140q-4 -59 -2 -138t5 -161t8 -158 t11 -129q0 -10 8.5 -20.5t20.5 -19.5t26.5 -14t26.5 -3q39 2 91.5 3t90.5 1q51 -2 75 -13.5t26 -50.5q0 -31 -33 -49t-61 -20q-41 -2 -86.5 -2t-88.5 2t-79.5 3t-59.5 1q-35 0 -68.5 40t-35.5 87q-2 68 -4 159t-3 183t-1 173v126q0 162 -3.5 298z" />
<glyph unicode="\" horiz-adv-x="829" d="M-2 1319q12 18 37.5 12t36.5 -14q6 -4 24.5 -41t43.5 -94l58 -131l67 -153l74 -158q38 -79 77 -148l56 -105q30 -55 63 -110l66 -108q34 -52 71 -95q27 -35 57.5 -65.5t50.5 -57.5q39 -45 52.5 -79.5t-13.5 -71.5q-20 -33 -69 -33q-47 0 -93 31q-12 10 -116.5 182 t-259.5 508l-56 118l-66 145l-67 155q-33 78 -56.5 143t-34.5 111.5t-3 58.5z" />
<glyph unicode="]" horiz-adv-x="589" d="M2 -66q0 39 24.5 50.5t75.5 13.5q37 0 90.5 -1t90.5 -3q12 -2 26.5 3t26.5 14t21.5 19.5t9.5 20.5q4 53 9 129t9 158t5 161t-1 138q0 63 -2 140t-3 149.5t-3 129t-4 79.5q-2 14 -7 40.5t-36 28.5q-78 4 -120 -1t-71 -3q-45 4 -70.5 13.5t-25.5 50.5q0 27 15.5 39t42 15 t63.5 2t82 -1q88 0 141 -7t83 -22.5t40 -40t10 -59.5q4 -119 2 -255t-2 -298q0 -45 -1 -126t-3 -173t-3 -183.5t-3 -158.5q0 -23 -10 -45.5t-25.5 -41t-34 -29.5t-36.5 -11q-23 0 -60 -1t-80 -3t-88 -2t-86 2q-29 2 -60.5 20t-31.5 49z" />
<glyph unicode="^" horiz-adv-x="897" d="M147 913q2 12 18.5 32t39.5 42l48 47l50 47q25 23 47.5 49.5t45 49t42 38t37.5 15.5t37.5 -14.5t41 -38t46.5 -54t55 -61.5l93 -85q43 -38 43 -54q0 -39 -23 -64.5t-47 -21.5q-8 2 -26.5 16t-40 33.5t-42.5 42.5l-34 39q-35 43 -60 67l-59 60l-64 -51l-67 -56 q-23 -18 -43 -40l-39 -40q-18 -18 -33.5 -30.5t-28.5 -12.5q-16 0 -28.5 14.5t-8.5 30.5z" />
<glyph unicode="_" horiz-adv-x="1228" d="M6 -209q0 20 26.5 33.5t74 22t112 14.5t139.5 12q74 8 180.5 13t216 8.5t208 5.5t153.5 2q33 0 65.5 -12.5t32.5 -49.5q0 -45 -30.5 -71.5t-71.5 -30.5q-18 -2 -26.5 2t-17.5 10t-24.5 12.5t-50.5 8.5q-33 2 -116 2h-184q-99 0 -198.5 -2t-164.5 -4q-31 0 -72 -4l-81 -6 q-40 -3 -72.5 -5t-49.5 -2q-10 0 -29.5 6t-19.5 35z" />
<glyph unicode="`" horiz-adv-x="784" d="M184 1225q0 23 15.5 44t38.5 21t69.5 -49t114.5 -106q72 -59 124 -91t52 -53q0 -29 -15.5 -49t-45.5 -20q-20 0 -46 12t-52.5 30.5t-53.5 40.5l-49 39q-23 18 -48.5 43t-49 50.5t-39 48.5t-15.5 39z" />
<glyph unicode="a" horiz-adv-x="1091" d="M4 176q0 98 55.5 173t135 125t171 78t162.5 30q16 1 32 1q56 0 115 -12q75 -14 132 -26q-6 31 -18.5 79t-43.5 93q-18 27 -29 51.5t-27.5 42.5t-42 29.5t-68.5 11.5q-59 0 -93 -15.5t-59 -37.5q-14 -12 -25 -31l-19 -36q-9 -17 -17.5 -27.5t-20.5 -8.5q-14 4 -24.5 13.5 t-8.5 23.5q2 23 17.5 59.5t52.5 67.5q41 35 99.5 55.5t99.5 20.5q121 0 182 -51t98 -127q35 -72 57.5 -147.5t36.5 -114.5q6 -10 24 -17l36 -13q18 -7 32 -15q12 -7 11 -18q0 -26 -25 -44q-16 -10 -24.5 -9t-36.5 5q0 -27 12 -75l27 -100l26.5 -102.5t12.5 -78.5 q0 -23 -19.5 -40.5t-42.5 -17.5q-33 0 -56.5 65.5t-45.5 168.5l-23 114q-12 61 -22 127l-82 16q-39 7 -78 12t-80 8t-88 5q-4 0 -9 1q-43 0 -106 -18q-70 -19 -136 -55t-112.5 -87.5t-46.5 -114.5q0 -25 10.5 -52.5t35 -52t67.5 -40t109 -15.5q45 0 96 15.5t94 38t71.5 48 t28.5 44.5q0 23 -15 35t-36.5 18t-45 7t-42.5 3q-4 -10 4 -20.5t4 -24.5q-4 -16 -14 -26.5t-31 -6.5q-63 10 -76.5 26.5t-13.5 39.5q0 29 31 55.5t88 26.5q45 0 89 -8.5t78 -24.5t54.5 -39.5t20.5 -54.5q0 -35 -30 -76t-84 -77t-128 -60.5t-160 -24.5q-109 0 -169 25.5 t-90 59.5t-37 70t-7 54z" />
<glyph unicode="b" horiz-adv-x="1277" d="M-61 336q0 14 17 40.5t45 57.5t61.5 63.5t68.5 59.5q-4 41 -5 97.5t-5 133.5q0 27 -3 62t-6 74t-4.5 77.5t-1.5 71.5q0 49 8.5 76t45.5 27q31 0 46 -20.5t21 -56.5t6 -84v-102q0 -66 2.5 -132t6.5 -113q18 12 49 29l68 38l79 40t82 32q102 31 211 50.5t191 19.5 q20 0 73.5 -19.5t108.5 -58.5t98 -98.5t43 -139.5q0 -53 -21.5 -110.5t-58.5 -112.5t-88 -107.5t-110 -95.5q-98 -74 -206 -119t-200 -45q-72 0 -110.5 18.5t-57 47.5t-22.5 64q-6 56 -7 81q0 42 16 79q17 42 51 75t81 51.5t102 18.5q16 0 33 -10.5t30 -26t21.5 -34 t6.5 -32.5q-2 -20 -10.5 -37.5t-26.5 -15.5q-14 2 -18.5 12t-14.5 21q-16 12 -23.5 26.5t-33.5 9.5q-16 -2 -42 -11t-49.5 -27.5t-40.5 -44.5q-13 -21 -13 -50q0 -7 1 -14q4 -37 24.5 -73t73.5 -36q33 0 80 10.5t100.5 30t110 50t107.5 71.5q39 31 73.5 65t62.5 71.5 t43 80.5q14 38 14 83q0 6 -1 12q-2 51 -26.5 97t-60.5 78.5t-79 51t-79 18.5q-14 0 -45 -2t-72 -8t-90 -17.5t-101 -29.5q-55 -18 -106 -42t-92 -48.5t-72 -46t-45 -35.5q-2 -31 -3 -72t-1 -85v-90v-85q2 -61 4 -115q1 -18 1 -33q0 -32 -3 -59q-4 -39 -17.5 -60.5 t-41.5 -21.5q-23 0 -46.5 6.5t-25.5 28.5q-2 15 -2 33q0 27 4 62q6 58 8 122q1 25 1 48q0 47 -3 88.5t-3 80.5q0 19 1 37q-25 -27 -38 -38l-40 -35q-14 -12 -23.5 -27.5t-18.5 -28t-18 -19.5t-22 -3q-16 4 -22 18.5t-6 30.5z" />
<glyph unicode="c" horiz-adv-x="997" d="M2 381q0 94 23.5 179t101.5 177q31 37 72 76t87 73t96 55.5t97 21.5q51 0 108.5 -9.5t105.5 -25t80 -39t32 -49.5q0 -27 -10.5 -44.5t-36.5 -17.5q-27 0 -46.5 20.5t-43.5 37.5q-20 14 -58.5 23t-109.5 9q-29 0 -69 -18.5t-82 -48t-83 -67.5t-73 -79q-47 -61 -67 -118.5 t-20 -122.5q0 -76 32 -137.5t84 -104.5t122 -66.5t148 -23.5q141 0 220 24.5t128 77.5q18 20 30 45l24 46q11 22 23.5 36.5t28.5 12.5q33 -4 33 -37q0 -43 -18.5 -81t-42.5 -71q-57 -78 -170 -116.5t-273 -38.5q-164 0 -258 46t-142 110.5t-60.5 132t-12.5 112.5z" />
<glyph unicode="d" horiz-adv-x="1091" d="M0 258q0 102 30.5 190.5t82 158t117 122.5t133 90t133 55.5t118.5 18.5q23 0 50.5 -3t56.5 -8l55 -11q27 -5 47 -7v40q0 13 1 31.5t2 48.5t5 89q2 25 4.5 78t7.5 107.5t15 95.5q10 39 27 39h2q39 -4 55 -29t16 -86q0 -37 -3 -80t-5 -96q-2 -43 -2 -86v-82q0 -39 1 -69.5 t1 -49.5l40 -22q22 -12 41.5 -27.5t33.5 -34.5q17 -22 17 -48q0 -11 -8 -20q-9 -11 -25 -16q-18 -4 -25.5 11.5t-24.5 25.5q-12 8 -20 14.5t-21 6.5q4 -41 4.5 -96.5t4.5 -108.5q4 -55 5 -87t2 -55.5t2 -44t3 -51.5q4 -39 6 -97.5t2 -90.5q0 -29 -17.5 -59.5t-47.5 -26.5 q-51 6 -58 65q-2 25 -3 67t-2 89t-1 94t-2 86q-2 31 -3 53.5t-3 44t-3 44t-3 51.5q-4 49 -4 91t-4 77q-33 23 -80 40t-129 17q-115 0 -211.5 -50t-166 -125t-108.5 -162t-39 -159q0 -78 21.5 -132t58.5 -88t87 -48t108 -14q27 0 74 9t93 30.5t80.5 56.5t34.5 84 q0 27 -15 53.5t-37.5 46t-49.5 31.5t-49 12q-14 0 -25.5 -7t-21.5 -16.5t-19.5 -15.5t-19.5 -2q-16 4 -28.5 17.5t-12.5 31.5q0 10 12.5 21.5t30.5 22t37.5 16.5t34.5 6q53 0 99 -21.5t80 -52t52 -65.5t18 -62q0 -72 -34.5 -126t-91 -91t-127 -55.5t-140.5 -18.5 q-96 0 -162.5 25t-108.5 69t-61.5 103t-19.5 127z" />
<glyph unicode="e" horiz-adv-x="1001" d="M-4 -8q0 20 2 20q1 1 0.5 3t-1.5 7.5t-1 9.5q0 8 8 20q10 15 26 35l33 41l35 40q-8 12 -22.5 45t-28.5 72t-24.5 76.5t-10.5 60.5q0 61 19.5 120.5t54.5 113t81 97.5t99 78q76 49 157 69t134 22h30q58 0 99 -7q51 -8 85 -22t53.5 -30.5t31.5 -31.5q12 6 24.5 5.5 t22.5 1.5q12 2 21 -12q10 -17 10 -25q0 -15 -36 -50q-38 -38 -94 -87l-120 -103l-115 -98q-102 -90 -168.5 -158.5t-134.5 -124.5q59 -45 154 -74q82 -25 216 -25q19 0 40 1q59 2 110.5 16.5t92.5 30.5t68.5 29.5t39.5 13.5q14 0 25 -9q9 -8 8 -19q0 -19 -29 -47 q-27 -26 -73 -49t-109.5 -39.5t-136.5 -16.5q-123 0 -208 12t-142.5 29.5t-93 35l-58.5 29.5q-33 -41 -58.5 -77.5t-66.5 -36.5q-16 0 -24.5 4t-24.5 4zM123 430q0 -8 7 -30.5t18.5 -49t25.5 -53.5t27 -43q16 12 47 38l70 59l86 74l92 83l176 162q72 63 119 116l-28.5 19.5 t-36 16.5t-53.5 11.5t-79 4.5q-86 0 -156.5 -21.5t-126.5 -58.5q-94 -61 -141 -152.5t-47 -175.5z" />
<glyph unicode="f" horiz-adv-x="731" d="M-475 1096q2 10 45 15t107.5 8t138 5t137.5 2h81q34 0 67.5 -2t73.5 -5t97 -5q4 33 19.5 92.5t46.5 117.5t81 100t124 42q43 0 77.5 -22.5t59.5 -56t38 -72.5t13 -74q0 -20 -9 -37.5t-32 -23.5q-16 -4 -23.5 5t-12.5 25.5t-7 35t-6 32.5q-10 39 -30.5 68.5t-55.5 29.5 q-63 0 -107.5 -48t-44.5 -111q0 -10 -1 -43t1 -60q24 -6 62 -6q14 0 30 1q19 1 40 1q42 0 90 -4q27 -2 72.5 -6t89.5 -12.5t76 -21.5t32 -34q0 -20 -12.5 -32.5t-28.5 -19.5t-32.5 -10t-24.5 -3q-12 0 -20.5 17t-33.5 28q-35 16 -139 16h-106q-45 0 -90 -4q-5 -43 -5 -107 v-45l5 -196q4 -123 13 -229q8 -86 7 -158v-31v-86q0 -47 -5 -88t-18.5 -68.5t-42.5 -27.5q-31 0 -51 26.5t-18 55.5q2 16 2 42v52q0 27 -1 52.5t-1 41.5q-4 113 -11.5 201t-9.5 164q-2 73 -1 132q0 74 2 128q4 69 4 109q0 16 -1 28q-57 10 -138 14l-206 10q-57 2 -113.5 2.5 t-107.5 -2t-92 -3.5h-16q-30 0 -52 3q-16 2 -23 19q-5 10 -5 21z" />
<glyph unicode="g" horiz-adv-x="1114" d="M-475 -508q2 41 22.5 85t54 87t79 80t98.5 63q41 20 78 36t74.5 27t80.5 18.5t99 13.5q111 10 174 11t92 5q0 18 -1 45t-1 56.5t-1 58t-1 49.5q-35 8 -95.5 29.5t-120 64.5t-102.5 112.5t-43 178.5q0 25 19.5 63.5t56.5 81.5t90 86t121 76q63 31 131 45.5t168 20.5h9 q26 0 59 -9q39 -11 67 -24q23 23 54.5 58.5t69.5 69.5t80 58.5t87 26.5h9q37 0 60 -15q26 -17 41 -42t20 -53.5t5 -49.5q0 -33 -12 -61.5t-29.5 -51t-38 -35t-39.5 -12.5q-23 2 -35 26t-12 38q0 18 10.5 29.5t23.5 20.5t23.5 20.5t10.5 29.5q0 20 -14.5 32.5t-34.5 12.5 q-18 0 -44 -17t-52.5 -43t-50 -55.5t-38.5 -52.5q20 -35 45 -108.5t25 -185.5q0 -98 -46 -166t-107.5 -110t-125 -62.5t-98.5 -26.5q-16 -35 -20 -67.5t-4 -67.5q0 -78 7 -144.5t13 -101.5q35 -8 102.5 -21.5t139.5 -43.5q80 -35 142.5 -94.5t70.5 -151.5q1 -8 0 -16 q0 -76 -53 -132q-59 -61 -162 -99t-235 -55.5t-267 -17.5q-123 0 -254 16.5t-238.5 58.5t-175.5 115q-62 67 -62 168q0 9 1 19zM-321.5 -608q30.5 -45 78.5 -78t109.5 -53.5t122 -32.5t116 -17.5t92.5 -5.5q184 0 313 26t211 60.5t119 70.5t37 56q0 57 -57.5 103.5 t-139.5 77.5q-76 29 -156 43t-131 14q-29 0 -67.5 -4t-72.5 -13.5t-57.5 -24.5t-21.5 -40q2 -33 41 -50.5t87 -25.5t91 -9t53 -1q16 0 26 9l20 20q10 10 24 19t41 9q31 0 55.5 -17t22.5 -48t-40 -57.5t-108 -26.5q-227 0 -342.5 48t-115.5 130q0 20 13 39.5t35.5 38t51.5 34 t59 27.5q61 23 104.5 29t80.5 12q2 12 1 20.5t-5 20.5q-41 9 -95 10q-5 0 -11 -1q-60 -1 -128 -1q-31 0 -71.5 -6t-83.5 -15t-85 -23.5t-75 -28.5q-90 -43 -132 -103q-40 -57 -40 -124q0 -66 30.5 -111zM131 513q0 -56 31 -106q33 -54 82 -94.5t103 -64t95 -23.5 q51 0 113.5 21.5t116 57.5t90.5 80t37 87q0 80 -18.5 138.5t-47 98.5t-62.5 59t-65 19q-68 0 -136.5 -14t-125.5 -43q-47 -23 -86 -51.5t-66.5 -58t-44 -55.5t-16.5 -51z" />
<glyph unicode="h" horiz-adv-x="1122" d="M-45 500q0 14 28.5 44.5t65.5 66.5l74 72q37 36 57 58q2 55 4 135t4 173q0 29 1 61.5t7.5 60t17.5 47t32 19.5q25 0 38 -15.5t17 -41t5 -60.5t1 -71l5 -100q3 -58 3 -118q16 12 53.5 32t84.5 38.5t103 31.5t112 13q207 0 312 -104.5t105 -272.5q0 -76 -17 -148l-44 -183 q-10 -41 -18.5 -87.5t-20.5 -85t-30.5 -64.5t-45.5 -26q-29 0 -44 26t-13 56q4 37 18 90l31 115q23 78 38 157t15 120q0 88 -24.5 149.5t-67.5 99t-99 54.5q-50 15 -106 14h-14q-59 -2 -109.5 -14.5t-90.5 -29.5t-71.5 -36.5t-56.5 -38.5q-10 -61 -11 -153v-37q0 -73 3 -141 q2 -49 5 -102.5t6.5 -101.5t4.5 -88t1 -61q-2 -23 -23.5 -42t-38.5 -19q-20 0 -34.5 35.5t-23.5 92t-15.5 126t-8.5 135.5q-4 68 -6 122t-6 120q-14 -12 -41 -39t-55.5 -52.5t-54 -45t-37.5 -15.5q-10 4 -17.5 11.5t-7.5 17.5z" />
<glyph unicode="i" horiz-adv-x="643" d="M-131 1020q0 2 15.5 22.5t38 45t49 49t48.5 39.5l-76 62q-38 31 -39 77q0 32 29 60q33 32 74 42q23 4 46.5 -5t44 -21.5t34.5 -24.5t19 -14q12 31 23 77t27.5 89t40 73.5t60.5 30.5q35 0 61.5 -14.5t45 -36t26.5 -47t6 -49.5q-2 -23 -6 -42.5t-10 -39.5q25 2 52.5 1 t45.5 -5q33 -8 61 -27q23 -15 22 -38q0 -5 -1 -11q-4 -14 -21.5 -27.5t-41.5 -28.5l-50 -29q-26 -15 -44 -34q18 -29 34.5 -48.5t27.5 -35.5t18.5 -33.5t7.5 -44.5q0 -41 -22.5 -73.5t-72.5 -32.5q-31 0 -59.5 16t-56 40t-54 50.5t-53.5 48.5l-52 -46q-26 -24 -54.5 -42 t-64.5 -30.5t-81 -12.5q-66 0 -82 25t-16 45zM-12 1315q0 -14 16 -27.5t39 -25t45.5 -19.5t34.5 -14q14 12 21.5 22.5t2.5 26.5l-79 41q-36 17 -59 17q-5 0 -9 -1q-12 -2 -12 -20zM-9 1039q0 -2 5 -4q6 -1 12 -3q10 -2 27.5 3t35 15.5t33 23.5t23.5 28q-12 6 -21.5 13 t-23.5 11q-4 -4 -19 -15l-29 -24q-15 -12 -28 -25q-15 -16 -15 -23zM131 365q0 39 2 95t7 117.5t12.5 122t16.5 109.5t20.5 79t23.5 30q43 0 53 -29q6 -18 7 -54q0 -21 -3 -49q-2 -29 -5 -83t-6 -119.5t-4 -133t-1 -118.5q0 -55 9 -108.5t29.5 -95.5t51.5 -68.5t74 -26.5 q29 0 52.5 17.5t41.5 38l32.5 37.5t24.5 17q14 2 25.5 -14t11.5 -27q0 -33 -16.5 -63.5t-44 -54t-61 -37t-66.5 -13.5q-90 2 -145.5 38t-87 96.5t-43 137.5t-11.5 159zM238 1343l53 -8q23 27 46 62t23 90q0 20 -14 38.5t-35 18.5q-14 0 -25.5 -22.5t-20.5 -54t-15 -66.5 t-12 -58zM295 1139q10 -14 27.5 -35t38 -41.5t40 -36.5t33.5 -18q2 0 4 -1l17 7q9 7 8 15q0 16 -21 48q-14 23 -31.5 42.5t-37 32.5t-33.5 19q-10 -8 -22.5 -15t-22.5 -17zM393 1303q-2 -6 -2 -11q0 -12 10 -22q12 4 35 5t23 19q0 8 -8.5 11.5t-19.5 3.5t-21.5 -2t-16.5 -4z " />
<glyph unicode="j" horiz-adv-x="552" d="M-324 -418q10 193 108.5 307.5t268.5 118.5q8 0 34 -9t52.5 -28.5t46.5 -49.5q19 -27 19 -65q0 -84 -31 -138q-24 -42 -95 -42h-13q-49 2 -74 25t-36 53.5t-13 63t-4 51.5q-29 2 -56.5 -22.5t-48 -61.5t-34.5 -78q-13 -41 -13 -80q0 -48 20 -88q23 -43 55 -73.5t67.5 -47 t62.5 -16.5q94 0 145 50t88 130q29 61 41.5 149.5t12.5 166.5q0 111 -2.5 227.5t-14.5 214.5q-4 37 -9 79t-9 83t-6 75.5t0 57.5q2 29 5 57.5t11 52t22.5 36t38.5 5.5q27 -6 33 -65q4 -23 3 -49.5t1 -57.5l9 -94q5 -51 12 -106l20 -206q9 -83 9 -138q0 -11 -1 -21 q-4 -129 -18 -268t-68 -260q-20 -45 -49.5 -86t-68.5 -72t-90.5 -49.5t-114.5 -18.5q-82 0 -142.5 37t-98.5 85t-56.5 95t-18.5 70zM12 967q0 51 14.5 82.5t35 51t44 31t41.5 23.5l-59 76q-31 41 -35 74q-2 18 12.5 30.5t32.5 16.5q8 2 25.5 0t37.5 -6l39 -9q19 -4 33 -6 q10 20 19.5 51t24 58.5t36 48t56.5 22.5q3 0 5 1q28 0 53 -20q28 -22 32 -50q2 -14 2 -30q0 -29 -7 -66q-11 -57 -12 -125q16 -4 42 -1t53 1q14 0 29.5 -4.5t27.5 -14.5t20.5 -30.5t8.5 -57.5q0 -33 -13.5 -53.5t-35 -33.5t-47 -21.5t-52.5 -18.5q8 -14 20.5 -29.5t24.5 -33 t20.5 -37t8.5 -39.5q0 -37 -30 -63.5t-64 -26.5q-10 0 -23.5 12t-31 30.5t-34.5 40.5l-34 40l-32.5 38t-33.5 48q-45 -35 -94 -52.5t-90 -17.5q-18 0 -44 21.5t-26 48.5zM31 -144q-2 -6 -2 -13q0 -9 4 -19q4 -14 12 -27q7 -11 20 -10h5q16 2 20 19.5t0 33.5q-4 18 -14 24.5 t-37 14.5q-4 -8 -8 -23zM86 1004q0 -6 5 -13.5t11 -7.5h15q32 0 55 7q29 9 70 59q-10 8 -26.5 26.5t-27.5 22.5l-72 -50q-30 -21 -30 -44zM193 1237q14 -33 40 -45q4 2 9 6q4 4 6 7t6 7q-12 14 -24 21.5t-37 3.5zM299 1286q12 -35 25.5 -51t40.5 -27q2 27 6 56.5t8 54.5 l7 44q3 19 3 30q-2 14 -14.5 22t-28.5 8q-6 0 -14 -18.5t-15.5 -42t-12.5 -46t-5 -30.5zM352 975q4 -12 17.5 -30.5t29 -36l29.5 -32t23 -16.5q3 -2 5.5 -2t5.5 2q5 4 5 8q2 10 -7 26.5t-22.5 34t-29 33t-23.5 25.5q-17 -8 -33 -12zM417 1119q3 -22 17 -34q8 -2 24.5 -2 t32 3.5t26.5 11.5t11 20q0 16 -14 22.5t-33 8.5q-9 1 -18 1l-19 -1q-18 -2 -26 -2q-2 -4 -3 -12q1 -7 2 -16z" />
<glyph unicode="k" horiz-adv-x="1011" d="M-53 354q0 10 25.5 37t60.5 47q23 14 43 24.5t35 16.5q-8 12 -24 26l-30 26q-14 13 -24 25.5t-8 21.5q4 16 21 25t36 11q18 2 33.5 -8t31.5 -12q-2 51 -8 144t-8 192q0 55 -1 110.5t-1 105.5t1 91t5 66q4 18 17.5 39.5t31.5 21.5q14 0 28.5 -26.5t16.5 -71.5 q2 -47 2 -128t2 -167q2 -51 3.5 -104.5t3.5 -100.5t3 -84t3 -55q16 -16 24.5 -23.5t24.5 -17.5q10 6 38 21l66 37l83 47l87 50l82 47l79 45l61.5 31.5t31.5 12.5q18 0 27.5 -17.5t9.5 -28.5q0 -14 -26.5 -33.5t-66.5 -42.5l-87 -49l-90 -51l-143 -84q-71 -41 -123 -75 q37 -33 119.5 -92.5t174.5 -133.5l140 -114l131 -107l75 -58q36 -28 62.5 -50.5t42.5 -41t16 -30.5q0 -37 -26.5 -49.5t-46.5 -16.5h-2q-13 0 -57 37l-110 95l-138 121q-74 65 -144 116l-83 60l-81 56l-69 46l-49 31q-2 -29 -3 -69v-78q0 -38 1.5 -67.5t1.5 -39.5 q0 -55 -23 -76t-51 -21q-41 0 -46 29q-4 20 -4 61q0 16 1 35q0 29 -1 65t-1 74v72q0 35 2 64q-12 0 -41 -17l-58 -32q-23 -14 -42 -35t-35 -19q-14 2 -23.5 14.5t-9.5 28.5z" />
<glyph unicode="l" horiz-adv-x="436" d="M59 588v123q0 61 2 112q2 68 3.5 136.5t1.5 131.5v114v85q0 16 4 34.5t12 33t20 23.5q10 8 23 8h6q25 -4 32 -75t9 -175q0 -88 -2 -187.5t-2 -189.5v-147q0 -77 3 -149.5t7 -132t10 -95.5q4 -25 11.5 -51.5t18.5 -49t29.5 -37t43.5 -14.5q16 0 29.5 10t23.5 22.5t20.5 23 t20.5 10.5q29 0 35 -15.5t6 -50.5q0 -31 -15.5 -51.5t-38 -32.5t-49 -17t-49.5 -5q-3 0 -6 -1q-61 0 -101 37q-42 39 -65 107q-12 33 -19 67.5t-12 68.5t-7.5 62.5t-2.5 47.5q0 43 -1 100.5t-1 118.5z" />
<glyph unicode="m" horiz-adv-x="1470" d="M-39 418q0 14 14.5 34.5t36.5 45.5l47 49q25 25 45 47q4 25 5.5 60.5t7.5 86.5q2 18 5 50t8 63t14.5 53.5t25.5 22.5q23 0 42 -11.5t24 -33.5q2 -12 1 -33t-4 -45l-4 -49q-2 -25 -2 -45l48 26q34 18 75 37t84 33t80 14q11 0 21 1q41 0 72 -7q38 -8 63.5 -20.5t43 -25.5 t34.5 -21q39 14 78.5 37.5t82.5 45t89 37t98 15.5q96 0 160.5 -39t102.5 -107.5t53 -161t15 -196.5q0 -37 -7 -102.5t-23.5 -129t-44 -111.5t-68.5 -50q-4 -1 -8 -1q-10 0 -22 4q-15 5 -15 21q0 2 12.5 34t27.5 78t28.5 102.5t13.5 109.5q0 76 -8 157.5t-36 149.5t-78 112 t-132 44q-41 0 -80 -19.5t-74.5 -46t-67.5 -56.5t-57 -50q4 -55 10 -105q4 -35 3 -77v-35q-2 -61 -5 -132t-12.5 -132.5t-26 -102.5t-46.5 -43q-25 -2 -45.5 12.5t-24.5 36.5q-2 18 5 60.5t17.5 96.5t19.5 112.5t9 109.5q0 37 -6 90t-27.5 103.5t-63.5 84.5q-40 32 -106 31 h-8q-33 -2 -68.5 -21.5t-69.5 -47t-62.5 -57t-44.5 -50.5q2 -12 6 -25.5t9 -36t9 -57t8 -90.5q2 -25 4 -57l4 -69q2 -36 3.5 -72.5t1.5 -67.5q0 -39 -25 -58.5t-53 -23.5q-25 -4 -43.5 16.5t-18.5 53.5q0 41 5 120q2 26 2 53q0 54 -7 109q-4 29 -5 52.5t-11 46.5 q-14 -6 -31 -22l-34 -31q-17 -15 -34.5 -26t-29.5 -9q-18 4 -25.5 19.5t-9.5 31.5z" />
<glyph unicode="n" horiz-adv-x="966" d="M-25 516q0 53 40 102.5t83 81.5q-10 57 -19 102q-6 30 -7 58q0 12 2 25q6 49 57 65q4 1 9 2q13 0 22 -15q12 -19 21.5 -48t15.5 -59.5t14 -51.5q18 8 50 27.5t73 38t93 33t112 16.5h14q103 0 174 -28q76 -30 120 -79t62.5 -108.5t18.5 -116.5q0 -104 -24.5 -212.5 t-65.5 -221.5q-41 -111 -74 -179.5t-68 -72.5q-5 -1 -10 -1q-23 0 -41 15q-23 18 -20 50q2 23 29.5 77t56.5 127l32 89l36 104.5t28 108t10 96.5q0 49 -22.5 99t-59.5 90t-86 64q-39 19 -83 18q-12 0 -23 -1q-33 -4 -75 -16.5t-85 -32t-85 -45t-75 -53.5q4 -35 14.5 -98.5 t18.5 -127.5q8 -72 12 -152.5t4 -138.5q0 -8 -2 -25.5t-8 -35.5t-17 -31.5t-30 -13.5q-31 0 -43 28.5t-22 57.5q-12 41 -12.5 88t-4.5 109q-4 66 -10 136t-14 109q-12 -12 -23.5 -27.5t-24 -28.5t-24.5 -23.5t-27 -10.5q-14 0 -25.5 10.5t-11.5 26.5z" />
<glyph unicode="o" horiz-adv-x="1236" d="M16 291q0 113 52.5 217t124.5 184q47 51 97 91t96 67t84 41t60 14q41 0 66 -26.5t47 -47.5q47 16 90 22.5t98 6.5q51 0 115 -18.5t120 -60.5t95 -108.5t39 -160.5q0 -76 -61.5 -167t-165 -171t-240.5 -134t-291 -56q-78 0 -138 14t-120 51q-35 20 -65.5 51t-53 64 t-36 65.5t-13.5 61.5zM127 340q0 -55 30.5 -105.5t80.5 -78.5q31 -18 63.5 -28.5t65 -16t61.5 -7.5t47 -2q37 0 86 12.5t103.5 34t108.5 51t99 62.5q98 74 149 136q48 60 48 133q0 66 -32 112q-30 43 -72.5 69.5t-90 38t-83.5 11.5q-74 0 -140.5 -33t-117 -74t-79 -78.5 t-28.5 -48.5q4 -55 36 -80.5t66 -25.5q16 0 40 2t45.5 7t36 14.5t14.5 21.5q0 18 -8.5 27.5t-17.5 15.5l-18 12q-9 6 -10 19q0 10 9.5 18t24.5 14.5t33.5 9.5t35.5 3q66 0 96.5 -24.5t30.5 -65.5q0 -43 -37 -75t-87 -53.5t-104.5 -31.5t-87.5 -12q-4 0 -9 -1q-44 0 -76 19 q-36 20 -59.5 50t-33.5 63.5t-10 56.5q2 39 26.5 81t56.5 79t64.5 65.5t48.5 40.5q-10 10 -15 16.5t-17 8.5h-4q-14 0 -40 -13q-30 -15 -66 -41t-75 -60t-69 -71q-57 -66 -88 -137t-31 -141z" />
<glyph unicode="p" horiz-adv-x="1241" d="M-78 455q2 51 32 93t67.5 74.5t74.5 54t51 32.5q0 25 4.5 68.5t12.5 86.5t22.5 75t38.5 32q45 0 67.5 -20.5t18.5 -57.5q-4 -23 -5 -46.5t1 -47.5l65 22q40 14 92 28.5t116.5 25t136.5 10.5q90 0 180 -18.5t163 -58.5t119 -102.5t46 -152.5q0 -78 -56.5 -174t-151.5 -181 t-221 -143.5t-264 -58.5q-20 0 -49.5 10t-58.5 30.5t-50.5 52.5t-21.5 75q0 53 31 111.5t78 107.5t99 81t95 32q53 0 87 -28q29 -23 29 -64q0 -7 -1 -15q-2 -20 -13.5 -41.5t-26.5 -39t-34.5 -29t-38.5 -9.5q-12 2 -16 16.5t-6 28.5q-2 10 4 20.5t13 20t10.5 17.5t-3.5 16 q-12 16 -28 17q-25 0 -57.5 -28t-61.5 -67t-49.5 -75.5t-20.5 -55.5q0 -47 29 -72.5t74 -25.5q47 0 106.5 15.5t121 44t119.5 69.5t104 91t74 109.5t28 125.5q0 86 -49.5 139t-118 81.5t-141 39t-117.5 10.5q-12 0 -52 -6t-93.5 -20.5t-111 -38t-100.5 -58.5q-2 -61 -3 -107 l-2 -89q-1 -42 -1 -84t-2 -97q-4 -121 -7 -254t-6 -249.5t-5 -203.5t-2 -120q-2 -35 -29 -64.5t-49 -29.5q-51 0 -63 62q-8 46 -8 123q0 28 1 60q0 47 1 106.5t1 120t1 118t1 102.5q0 41 1 77l2 69q1 34 1 70v79q0 68 -2 136.5t-2 96.5q-16 -10 -49 -34.5t-57 -55.5 q-31 -35 -48.5 -66.5t-29.5 -31.5t-24.5 13.5t-12.5 23.5z" />
<glyph unicode="q" horiz-adv-x="1116" d="M-8 342q0 92 40 168t95 133t115.5 96t101.5 60q31 16 71 27.5t78.5 18.5t73.5 12t60 7t52.5 -1t54 -8t49 -11t36.5 -8q8 12 14.5 28.5t14.5 30.5t19.5 24.5t29.5 14.5q6 1 11 1q19 0 30 -11q14 -14 22.5 -39t10.5 -54.5l4 -56.5q14 -16 39 -34l47 -34q23 -17 40 -35 t17 -32q0 -12 -3 -27.5t-13 -13.5q-20 2 -51 13.5t-72 31.5q-2 -51 -4 -168q-1 -58 -1 -132t1 -163v-111q0 -65 -1 -136l-2 -143q-1 -73 -1 -134q2 -74 7 -127q9 -97 9 -108q0 -37 -25 -62q-28 -27 -49 -27q-33 0 -52 37t-28.5 93.5t-12.5 122t-5 120.5q-1 38 -1 84v48 q1 75 2 161l2 180q1 94 1 191q0 51 -1 112.5t-1 114.5q-2 63 -2 125q-29 18 -50.5 26.5t-40.5 11.5t-41 3h-48q-25 0 -58.5 -2t-71.5 -9.5t-80 -19.5t-81 -31q-49 -25 -92 -58.5t-75 -74.5t-51.5 -89t-19.5 -101t17.5 -101.5t51.5 -85t86 -58t122 -21.5q18 0 59 14t83 36.5 t75 49.5t35 51q1 6 0 11q0 34 -23 48q-27 15 -59 19q-29 4 -55.5 13t-26.5 44q0 53 32 69.5t70 20.5q16 2 46 -10t59 -39.5t51.5 -73t24.5 -110.5q0 -43 -29 -87t-83 -80t-129 -58.5t-165 -22.5q-37 0 -97.5 12.5t-117.5 48t-99 101t-42 174.5z" />
<glyph unicode="r" horiz-adv-x="1056" d="M-43 508q0 25 19.5 58.5t46 68.5t56.5 66.5t50 56.5v151q2 57 15.5 92t58.5 35q27 0 39 -21.5t17 -51t5 -60.5v-51q18 6 65.5 23.5t110 36t132 32.5t135.5 14t133 -13t122.5 -42t90 -75t34.5 -111q0 -47 -34.5 -108.5t-100 -117t-158 -93.5t-206.5 -38q-53 0 -88 15.5 t-57.5 39t-32 52.5t-9.5 57q0 51 29 85t68 55.5t78.5 31t64.5 9.5q12 0 39 -4.5t52.5 -14.5t45 -26.5t19.5 -41.5q0 -35 -20.5 -46t-45.5 -15q-10 -2 -19.5 8l-21.5 22.5t-29.5 24t-44.5 11.5q-14 0 -37.5 -9.5t-45 -24t-37 -31.5t-15.5 -34q0 -18 10.5 -33.5t24.5 -26.5 t28.5 -16.5t22.5 -5.5q68 0 135.5 19.5t121 56.5t87 89t33.5 118q0 39 -29.5 66.5t-70.5 43t-84 22.5t-70 7q-57 0 -120.5 -14t-122 -34.5t-104.5 -43t-71 -39.5v-373q0 -115 2 -186.5t2 -103.5q0 -33 -25.5 -61.5t-45.5 -28.5q-35 0 -53.5 28.5t-26.5 77.5t-10 113.5 t-2 136.5q1 24 0 47q0 36 -1 72q-3 59 -3 118q-20 0 -35 -16t-27 -36.5t-23.5 -37t-25.5 -16.5q-16 0 -28.5 14.5t-12.5 26.5z" />
<glyph unicode="s" horiz-adv-x="1136" d="M-8 170q0 33 30.5 72t80 72.5t113 56t128.5 22.5q43 0 99.5 -4t105.5 -14t84 -30.5t35 -53.5q0 -37 -23.5 -65.5t-55.5 -49t-63.5 -30t-50.5 -7.5q-16 2 -32.5 14.5t-16.5 30.5q0 12 10 20.5t23 14.5l23 12q11 6 14 15q2 12 -14.5 24.5t-39 21.5t-48 14t-42.5 5 q-27 0 -70.5 -8t-86.5 -26.5t-74 -46t-31 -66.5q0 -25 23.5 -43.5t60.5 -30.5t85 -18t97 -6q33 0 93.5 7t130 21.5t141.5 38t130 57t94 77.5q34 42 34 95q0 51 -34 83q-32 30 -73 46.5t-79.5 22.5t-55.5 6q-10 0 -44 -3t-82 -8t-103 -10t-106.5 -11.5t-94.5 -10.5l-65 -6 q-11 -1 -22 -1q-22 0 -46 5q-35 8 -64.5 24.5t-48 38t-18.5 46.5t20.5 56.5t54.5 65t80 67.5t97 63q53 29 109.5 51t103.5 22q20 0 43.5 -8t42 -22.5t30 -33t7.5 -38.5q-6 -29 -45 -37q-10 -2 -21 7l-22 20q-12 10 -25.5 18t-30.5 4q-23 -4 -68.5 -23.5t-86.5 -41.5 q-66 -35 -114 -74t-50 -70q-2 -29 18.5 -37t63.5 -8q16 0 86 9l153 20l162 19q78 9 111 10q61 0 126.5 -16.5t120 -49.5t90.5 -79t36 -105q0 -80 -58.5 -153t-163 -127t-250 -87t-319.5 -33q-68 0 -131 11.5t-112.5 35t-79 60.5t-29.5 90z" />
<glyph unicode="t" horiz-adv-x="806" d="M-130 1005q11 17 32 19q25 2 46 3t56 1q37 0 74 2t61 2q2 29 6.5 79t6.5 93q0 20 3 45t9 46.5t18.5 34.5t30.5 13q20 0 31.5 -12t15.5 -31.5t5 -43t1 -48.5q0 -41 -2 -94t-2 -78q20 -2 50 -2t68 2q77 4 161 4q61 -2 108 -4t84 -3t66.5 -3t56.5 -2q16 0 24.5 -12t12.5 -29 q2 -7 2 -14q0 -9 -3 -17q-5 -14 -15.5 -26t-24.5 -20.5t-29 -8.5q-12 0 -21 15.5t-32 17.5q-35 2 -106.5 5t-155.5 7q-25 1 -49 1l-74 -2q-61 -3 -135 -3q-5 -58 -5 -135v-26q1 -93 1 -203q0 -49 6 -134.5t21.5 -166t41 -140t66.5 -59.5t81 38t58 81q8 18 15.5 41.5t16.5 45 t19.5 36t26.5 12.5q20 -2 34.5 -20.5t14.5 -32.5q0 -35 -12 -70t-29 -66q-20 -39 -51 -68.5t-64.5 -51t-66.5 -32.5t-59 -11q-78 0 -124 57t-70 141t-31 178.5t-9 167.5q0 39 -2 92.5t-3 111.5q-1 29 -1 57.5t1 56.5q1 55 5 96q-29 -4 -68.5 -6t-82.5 -2q-49 0 -88 6 q-36 6 -35 32q0 16 13 37z" />
<glyph unicode="u" horiz-adv-x="876" d="M16 475q0 70 9.5 133.5t25 112.5t32.5 79.5t36 35.5q20 4 35.5 -12.5t13.5 -37.5q-2 -18 -9 -36.5t-16.5 -50t-16.5 -83t-7 -133.5q0 -76 20.5 -143.5t60.5 -119.5t97 -83t133 -31q55 0 107.5 29t93.5 80t66.5 123t27.5 160v16q0 38 -7 79q-9 50 -21.5 93t-22.5 74 t-10 35q0 20 13 40.5t52 20.5q14 0 32.5 -19.5t34 -62.5t25.5 -110.5t10 -163.5t-27.5 -187.5t-79.5 -163t-129 -114.5t-173 -43q-117 0 -194.5 41t-125 108.5t-67 154.5t-19.5 179z" />
<glyph unicode="v" horiz-adv-x="866" d="M-18 823q0 16 22.5 32.5t38.5 12.5q8 -2 31.5 -37.5t54.5 -89.5l66 -114l65 -115l46 -87l45 -87l37 -71q15 -30 24 -38q35 39 78 132l98 200l61.5 115.5t69.5 116t63 88.5q27 33 42 33q1 0 1 -1q16 -2 24.5 -20.5t8.5 -28.5t-20 -46l-51 -86l-62 -107q-33 -57 -59 -109 q-25 -47 -49 -97l-43 -95l-35 -82l-25 -58q-10 -29 -10 -52t-6 -42q-25 -68 -49.5 -87t-59.5 -19t-54.5 48t-41.5 120q-20 59 -48 118l-61 131q-29 61 -63 122l-66 115q-31 54 -52 101t-21 84z" />
<glyph unicode="w" horiz-adv-x="1245" d="M-20 786q0 23 19 48.5t54 25.5q14 0 32.5 -32.5t43.5 -88.5l57 -129q33 -74 76 -155l38 -74l44 -86q23 -43 46.5 -81t43.5 -58l28 52l36 73l38 78l33 71l-35 51l-44 61q-22 30 -37 55.5t-15 37.5q0 29 16.5 44t37.5 13q16 -2 33.5 -18.5t33.5 -40t31.5 -49t32.5 -43.5 l66 84q34 41 52 43t32.5 -14.5t12.5 -35.5q-2 -25 -32.5 -59.5t-55.5 -75.5q8 -25 17.5 -44t22 -41.5l28.5 -49.5l41 -65q18 -31 44 -62t58 -78q35 53 75 147.5t106 229.5l46 100l56 113q29 55 54.5 91t39.5 36h5q12 0 22 -9q15 -13 14 -31q0 -15 -15 -46q-17 -35 -46 -82 q-33 -59 -60.5 -128.5t-50.5 -117.5l-91 -194q-38 -78 -73 -141l-49 -92q-23 -42 -61 -48h-2q-10 0 -28 20q-19 22 -42 53l-47 70l-45 70q-29 41 -45.5 76t-44.5 72q-10 -14 -23.5 -38l-28.5 -52l-27 -58l-24 -53l-44 -105q-15 -38 -62 -38q-14 0 -43 36.5t-66 98.5l-80 139 l-86 160l-59 114l-52 104q-24 48 -38 85.5t-14 60.5z" />
<glyph unicode="x" horiz-adv-x="913" d="M4 725q0 33 20.5 55.5t41.5 22.5q10 0 29.5 -13.5t46 -34l56.5 -45.5l60 -51l55 -45l41 -34l37 -32q18 -15 47 -36q35 39 97.5 96.5t128.5 124.5l50 53l54 55q27 26 48 42q19 15 29 14h3q12 -2 17 -11t7 -22q2 -14 -12 -33.5t-37.5 -43t-50.5 -47t-51 -48.5l-66 -67 l-71 -74l-80 -84q12 -14 37 -36l55 -49l64 -59l69 -65l62 -62q31 -32 54 -58.5t37.5 -47t14.5 -33.5q0 -41 -24.5 -59t-41.5 -18q-12 0 -36.5 20t-54.5 51l-62 66l-60 63q-25 25 -56.5 52.5l-62.5 52.5l-59 45q-27 20 -39 30q-29 -23 -77 -69l-103 -98q-29 -29 -57 -62 l-53 -60q-25 -28 -44.5 -45.5t-29.5 -17.5q-10 2 -20.5 8.5t-8.5 16.5q2 12 23.5 41.5t50.5 63.5l58 67q30 33 48 49q53 53 87 93t65 71l-73 58q-38 32 -107 85l-52 41q-28 23 -50.5 44.5t-38 42t-15.5 36.5z" />
<glyph unicode="y" horiz-adv-x="935" d="M-178 -455q0 49 28.5 116t86 127t141.5 103t194 48q12 0 50 -14.5t78 -39t71 -56.5t31 -67q0 -59 -24.5 -103t-66.5 -73.5t-95.5 -45t-108.5 -15.5q-61 0 -86 23.5t-25 70.5q0 20 10.5 42t25.5 37t32.5 23.5t34.5 4.5q31 -6 32 -33q2 -14 -12 -20.5t-10 -20.5 q6 -27 35 -27q16 0 41.5 8.5t49 22.5t40 30.5t16.5 34.5q0 37 -20.5 61.5t-48 40t-57 23t-50.5 7.5q-29 0 -81 -23t-103 -63.5t-89 -99t-38 -130.5q0 -53 32.5 -87t79.5 -54.5t98.5 -28.5t88.5 -10h11q31 0 72 9q48 11 101 35t106.5 59.5t98.5 84.5q86 92 117.5 202 t33.5 241q0 27 1 43t-5 47q-41 -10 -104.5 -39t-149.5 -31h-9q-75 0 -153 32q-83 34 -150 96.5t-108.5 150.5t-41.5 196q0 66 9 136.5t26.5 128t40 95.5t46.5 38q16 0 28.5 -11.5t12.5 -33.5q0 -27 -7 -58l-15 -68q-8 -38 -15.5 -87.5t-7.5 -114.5q0 -63 29 -132t77 -125 t109.5 -92t128.5 -36q70 0 136.5 32.5t117.5 98.5q-8 41 -18 110.5t-23 139.5q-16 98 -30.5 160.5t-14.5 97.5q0 39 14.5 72.5t43.5 37.5q16 4 30.5 -3t18.5 -21l30 -154q15 -80 39 -190q12 -53 22.5 -106.5t18 -102.5t12.5 -93t5 -75q0 -125 -15.5 -225.5t-41 -179 t-61.5 -140t-79 -106.5q-57 -63 -123.5 -104.5t-132 -65t-124.5 -32.5q-48 -8 -84 -8q-8 0 -15 1q-78 2 -147.5 21.5t-124 54t-86 84.5t-31.5 118z" />
<glyph unicode="z" horiz-adv-x="954" d="M-51 4q0 35 35.5 82t96 103.5t138.5 119.5l164 133l154 128q78 67 157 147q-20 4 -52 7t-67 5q-15 1 -33 1q-28 0 -64 -2q-60 -3 -120 -3q-25 0 -54.5 1t-56 3t-46 8t-21.5 19q-4 27 2 53.5t33 30.5q47 8 130 10t173 2q78 0 136 2h17q51 0 109 -10q49 -10 82 -30.5 t31 -49.5q-2 -31 -13.5 -47.5t-32 -28.5t-46 -23.5t-53.5 -33.5q-70 -53 -148 -120l-143 -122l-215 -177q-84 -67 -109 -101q18 4 93 11t173 9q84 0 184 3q43 1 82 1q53 0 102 -2q85 -4 142 -17q60 -14 60 -54q0 -19 -8 -32q-10 -15 -25.5 -23.5t-35 -11.5t-34.5 -3h-7 q-34 0 -58 16q-27 18 -49 17q-30 -2 -66 -2q-45 0 -98 3q-44 2 -90 2q-56 0 -115 -3q-41 -2 -75 -4.5t-65.5 -5.5t-65.5 -8l-73 -11q-35 -6 -60.5 -15.5t-53.5 -9.5q-14 0 -27.5 8.5t-13.5 24.5z" />
<glyph unicode="{" horiz-adv-x="598" d="M66 664q-2 33 9 48t25.5 25.5t28.5 23.5t18 42q14 66 12.5 156t-1.5 174q0 53 4 96t18 67q29 55 80 71.5t111 21.5q68 2 97.5 -11.5t25.5 -50.5q-4 -23 -26 -35t-46 -14q-25 -2 -37 1t-20.5 2t-17.5 -11t-28 -37q-10 -14 -15 -48t-1 -71q0 -45 3 -97t4 -102.5t-2 -94.5 t-15 -70q-14 -29 -37 -43.5t-51 -42.5l43 -32q20 -15 28 -34q12 -33 13.5 -84t1.5 -108q-2 -63 -6 -131t-4 -119q0 -39 4 -62.5t10 -36.5q8 -12 28.5 -20t47 -11t55.5 -3t55 2q27 0 43.5 -14.5t16.5 -41.5q-2 -29 -21.5 -56.5t-48.5 -29.5q-41 0 -110.5 -1t-137.5 5 q-29 4 -45 32t-26 52q-10 18 -11 53v76q2 70 7.5 155t7.5 159q0 31 -1 58.5t-8 49.5q-4 23 -17 36l-27 28q-13 14 -24 31.5t-13 46.5z" />
<glyph unicode="|" horiz-adv-x="516" d="M189.5 136q-3.5 202 27.5 571q4 53 11.5 129.5l16.5 160.5t19 168t22.5 152.5t26 114t27.5 51.5q8 4 18.5 1t19.5 -10.5t15 -15.5t10 -14q4 -8 1 -49t-10 -104l-16 -141q-9 -79 -17.5 -165t-15.5 -174t-9 -166q-4 -115 -4 -247t16 -244q8 -43 19.5 -85t15.5 -77 q10 -57 4 -94t-47 -56q-35 -16 -76 5.5t-63 72.5q-8 14 -11.5 216z" />
<glyph unicode="}" horiz-adv-x="598" d="M68 -31q0 27 16 41.5t43 14.5q27 -2 55.5 -2t55 3t46 11t29.5 20q16 27 17 99q0 51 -5.5 118.5t-7.5 131.5q0 57 1 108t14 84q8 18 28 34l43 32q-29 29 -51 43t-37 43q-12 27 -15 70.5t-2 94t4 102.5t3 97q4 37 -1 71t-15 48q-18 27 -27.5 37t-17.5 11t-20.5 -2t-37.5 -1 t-46 14.5t-25 34.5q-4 37 25.5 50.5t97.5 11.5q61 -4 111 -20.5t81 -72.5q14 -25 18.5 -67.5t4.5 -95.5q0 -84 -3.5 -174.5t11.5 -155.5q4 -29 18.5 -42t28.5 -23.5t25.5 -26t9.5 -47.5q0 -29 -11.5 -46.5t-25.5 -31.5l-28 -28q-13 -13 -17 -36q-6 -23 -7 -50.5t-1 -57.5 q2 -74 7 -159t7 -155v-76q0 -34 -10 -53q-10 -25 -26.5 -52.5t-45.5 -31.5q-68 -6 -137.5 -5t-110.5 1q-29 2 -48 29.5t-21 56.5z" />
<glyph unicode="~" horiz-adv-x="1296" d="M217 401q2 10 24.5 34t56.5 47.5t73 41t75 17.5q31 0 86 -20l115 -42l116 -42q56 -19 89 -19q43 0 73.5 16.5t53 34.5t40 34.5t38.5 16.5q23 0 44 -16.5t21 -44.5q0 -27 -35.5 -52.5t-79.5 -47t-85 -35t-54 -13.5q-61 0 -128.5 19.5t-129.5 44.5l-107 44q-46 19 -61 19 q-29 0 -57.5 -13t-52.5 -30l-44 -28q-19 -12 -30 -13q-18 2 -31.5 15.5t-9.5 31.5z" />
<glyph horiz-adv-x="1284" d="M25 528q0 10 29.5 17.5t76.5 11.5q27 2 55.5 5t53 5t41 4t18.5 2q0 10 -1 29t-3 38t-3 36.5t-1 28.5q-29 0 -50.5 -5.5t-62.5 -5.5q-16 -2 -42.5 -3t-49.5 1q-23 0 -39 5t-14 28q2 27 15 50.5t36 25.5q31 2 92.5 8t124.5 10q4 111 53 227.5t154 215.5q88 82 179 123.5 t194 46.5q39 2 85 -8.5t86 -27t68.5 -36t30.5 -35.5q2 -14 -9.5 -22.5t-23.5 -10.5q-10 0 -29 6l-48 16q-28 9 -63.5 17t-76.5 10q-63 4 -148 -34.5t-159 -104.5q-47 -41 -81 -93t-56.5 -104.5t-34.5 -102.5t-16 -89q25 -2 72 -2h104q55 0 107 1t83 1q43 0 81 -7t38 -50 q0 -12 -12.5 -21.5t-32 -15.5t-42 -8t-42.5 -2q-29 0 -78 1t-102 -1t-96.5 -6.5t-84.5 -2.5q2 -16 1 -51t4 -63q2 0 22.5 1t53 2t73.5 4t84 5q78 4 148.5 8t97.5 0q10 -2 16 -12t9 -21.5l5.5 -20.5t2.5 -11q2 -4 -16.5 -10.5t-51.5 -12.5t-77 -12t-89 -10l-161.5 -17.5 t-88.5 -11.5q8 -51 21.5 -101.5t44.5 -86.5q29 -35 62.5 -66t67.5 -54.5t66.5 -38t61.5 -14.5q80 0 157.5 27t137.5 70q20 14 45 45l48 59l44 51.5t35 22.5q29 0 36 -18.5t5 -45.5q-2 -29 -34 -80t-73 -96q-45 -49 -105.5 -80.5t-121 -50t-114.5 -24.5t-89 -2 q-82 8 -175 73.5t-165 169.5q-12 16 -21.5 44t-18.5 61t-17 66l-17 65q-18 0 -50 -3l-65 -6q-34 -3 -66 -4t-48 1t-27.5 13t-18.5 24.5t-11 24.5t-4 15z" />
<glyph unicode="&#x20ac;" horiz-adv-x="1284" d="M25 528q0 10 29.5 17.5t76.5 11.5q27 2 55.5 5t53 5t41 4t18.5 2q0 10 -1 29t-3 38t-3 36.5t-1 28.5q-29 0 -50.5 -5.5t-62.5 -5.5q-16 -2 -42.5 -3t-49.5 1q-23 0 -39 5t-14 28q2 27 15 50.5t36 25.5q31 2 92.5 8t124.5 10q4 111 53 227.5t154 215.5q88 82 179 123.5 t194 46.5q39 2 85 -8.5t86 -27t68.5 -36t30.5 -35.5q2 -14 -9.5 -22.5t-23.5 -10.5q-10 0 -29 6l-48 16q-28 9 -63.5 17t-76.5 10q-63 4 -148 -34.5t-159 -104.5q-47 -41 -81 -93t-56.5 -104.5t-34.5 -102.5t-16 -89q25 -2 72 -2h104q55 0 107 1t83 1q43 0 81 -7t38 -50 q0 -12 -12.5 -21.5t-32 -15.5t-42 -8t-42.5 -2q-29 0 -78 1t-102 -1t-96.5 -6.5t-84.5 -2.5q2 -16 1 -51t4 -63q2 0 22.5 1t53 2t73.5 4t84 5q78 4 148.5 8t97.5 0q10 -2 16 -12t9 -21.5l5.5 -20.5t2.5 -11q2 -4 -16.5 -10.5t-51.5 -12.5t-77 -12t-89 -10l-161.5 -17.5 t-88.5 -11.5q8 -51 21.5 -101.5t44.5 -86.5q29 -35 62.5 -66t67.5 -54.5t66.5 -38t61.5 -14.5q80 0 157.5 27t137.5 70q20 14 45 45l48 59l44 51.5t35 22.5q29 0 36 -18.5t5 -45.5q-2 -29 -34 -80t-73 -96q-45 -49 -105.5 -80.5t-121 -50t-114.5 -24.5t-89 -2 q-82 8 -175 73.5t-165 169.5q-12 16 -21.5 44t-18.5 61t-17 66l-17 65q-18 0 -50 -3l-65 -6q-34 -3 -66 -4t-48 1t-27.5 13t-18.5 24.5t-11 24.5t-4 15z" />
<glyph unicode="&#x2c6;" horiz-adv-x="1284" d="M25 528q0 10 29.5 17.5t76.5 11.5q27 2 55.5 5t53 5t41 4t18.5 2q0 10 -1 29t-3 38t-3 36.5t-1 28.5q-29 0 -50.5 -5.5t-62.5 -5.5q-16 -2 -42.5 -3t-49.5 1q-23 0 -39 5t-14 28q2 27 15 50.5t36 25.5q31 2 92.5 8t124.5 10q4 111 53 227.5t154 215.5q88 82 179 123.5 t194 46.5q39 2 85 -8.5t86 -27t68.5 -36t30.5 -35.5q2 -14 -9.5 -22.5t-23.5 -10.5q-10 0 -29 6l-48 16q-28 9 -63.5 17t-76.5 10q-63 4 -148 -34.5t-159 -104.5q-47 -41 -81 -93t-56.5 -104.5t-34.5 -102.5t-16 -89q25 -2 72 -2h104q55 0 107 1t83 1q43 0 81 -7t38 -50 q0 -12 -12.5 -21.5t-32 -15.5t-42 -8t-42.5 -2q-29 0 -78 1t-102 -1t-96.5 -6.5t-84.5 -2.5q2 -16 1 -51t4 -63q2 0 22.5 1t53 2t73.5 4t84 5q78 4 148.5 8t97.5 0q10 -2 16 -12t9 -21.5l5.5 -20.5t2.5 -11q2 -4 -16.5 -10.5t-51.5 -12.5t-77 -12t-89 -10l-161.5 -17.5 t-88.5 -11.5q8 -51 21.5 -101.5t44.5 -86.5q29 -35 62.5 -66t67.5 -54.5t66.5 -38t61.5 -14.5q80 0 157.5 27t137.5 70q20 14 45 45l48 59l44 51.5t35 22.5q29 0 36 -18.5t5 -45.5q-2 -29 -34 -80t-73 -96q-45 -49 -105.5 -80.5t-121 -50t-114.5 -24.5t-89 -2 q-82 8 -175 73.5t-165 169.5q-12 16 -21.5 44t-18.5 61t-17 66l-17 65q-18 0 -50 -3l-65 -6q-34 -3 -66 -4t-48 1t-27.5 13t-18.5 24.5t-11 24.5t-4 15z" />
<glyph unicode="&#xa2;" horiz-adv-x="935" d="M-178 -455q0 49 28.5 116t86 127t141.5 103t194 48q12 0 50 -14.5t78 -39t71 -56.5t31 -67q0 -59 -24.5 -103t-66.5 -73.5t-95.5 -45t-108.5 -15.5q-61 0 -86 23.5t-25 70.5q0 20 10.5 42t25.5 37t32.5 23.5t34.5 4.5q31 -6 32 -33q2 -14 -12 -20.5t-10 -20.5 q6 -27 35 -27q16 0 41.5 8.5t49 22.5t40 30.5t16.5 34.5q0 37 -20.5 61.5t-48 40t-57 23t-50.5 7.5q-29 0 -81 -23t-103 -63.5t-89 -99t-38 -130.5q0 -53 32.5 -87t79.5 -54.5t98.5 -28.5t88.5 -10q35 -2 83 9t101 35t106.5 59.5t98.5 84.5q86 92 117.5 202t33.5 241 q0 27 1 43t-5 47q-41 -10 -104.5 -39t-149.5 -31q-80 -2 -162.5 32t-149.5 96.5t-108.5 150.5t-41.5 196q0 66 9 136.5t26.5 128t40 95.5t46.5 38q16 0 28.5 -11.5t12.5 -33.5q0 -27 -7 -58l-15 -68q-8 -38 -15.5 -87.5t-7.5 -114.5q0 -63 29 -132t77 -125t109.5 -92 t128.5 -36q70 0 136.5 32.5t117.5 98.5q-8 41 -18 110.5t-23 139.5q-16 98 -30.5 160.5t-14.5 97.5q0 39 14.5 72.5t43.5 37.5q16 4 30.5 -3t18.5 -21l30 -154q15 -80 39 -190q12 -53 22.5 -106.5t18 -102.5t12.5 -93t5 -75q0 -125 -15.5 -225.5t-41 -179t-61.5 -140 t-79 -106.5q-57 -63 -123.5 -104.5t-132 -65t-124 -32.5t-99.5 -7q-78 2 -147.5 21.5t-124 54t-86 84.5t-31.5 118zM127 1190q0 27 19.5 45.5t37.5 16.5q8 0 23.5 -11.5l34.5 -26.5l38 -33l35 -32q25 -23 65 -49t75 -28q20 0 37.5 -1t34 1t33 9t34.5 23q20 18 41 40l39 40 q18 18 34.5 30.5t28.5 12.5q16 0 28.5 -14t8.5 -31q-6 -27 -23.5 -62.5t-58.5 -72.5q-49 -45 -110.5 -69.5t-139.5 -16.5q-68 8 -112.5 39t-91.5 72l-81 74q-30 28 -30 44z" />
<glyph unicode="&#x45e;" horiz-adv-x="935" d="M-178 -455q0 49 28.5 116t86 127t141.5 103t194 48q12 0 50 -14.5t78 -39t71 -56.5t31 -67q0 -59 -24.5 -103t-66.5 -73.5t-95.5 -45t-108.5 -15.5q-61 0 -86 23.5t-25 70.5q0 20 10.5 42t25.5 37t32.5 23.5t34.5 4.5q31 -6 32 -33q2 -14 -12 -20.5t-10 -20.5 q6 -27 35 -27q16 0 41.5 8.5t49 22.5t40 30.5t16.5 34.5q0 37 -20.5 61.5t-48 40t-57 23t-50.5 7.5q-29 0 -81 -23t-103 -63.5t-89 -99t-38 -130.5q0 -53 32.5 -87t79.5 -54.5t98.5 -28.5t88.5 -10q35 -2 83 9t101 35t106.5 59.5t98.5 84.5q86 92 117.5 202t33.5 241 q0 27 1 43t-5 47q-41 -10 -104.5 -39t-149.5 -31q-80 -2 -162.5 32t-149.5 96.5t-108.5 150.5t-41.5 196q0 66 9 136.5t26.5 128t40 95.5t46.5 38q16 0 28.5 -11.5t12.5 -33.5q0 -27 -7 -58l-15 -68q-8 -38 -15.5 -87.5t-7.5 -114.5q0 -63 29 -132t77 -125t109.5 -92 t128.5 -36q70 0 136.5 32.5t117.5 98.5q-8 41 -18 110.5t-23 139.5q-16 98 -30.5 160.5t-14.5 97.5q0 39 14.5 72.5t43.5 37.5q16 4 30.5 -3t18.5 -21l30 -154q15 -80 39 -190q12 -53 22.5 -106.5t18 -102.5t12.5 -93t5 -75q0 -125 -15.5 -225.5t-41 -179t-61.5 -140 t-79 -106.5q-57 -63 -123.5 -104.5t-132 -65t-124 -32.5t-99.5 -7q-78 2 -147.5 21.5t-124 54t-86 84.5t-31.5 118zM127 1190q0 27 19.5 45.5t37.5 16.5q8 0 23.5 -11.5l34.5 -26.5l38 -33l35 -32q25 -23 65 -49t75 -28q20 0 37.5 -1t34 1t33 9t34.5 23q20 18 41 40l39 40 q18 18 34.5 30.5t28.5 12.5q16 0 28.5 -14t8.5 -31q-6 -27 -23.5 -62.5t-58.5 -72.5q-49 -45 -110.5 -69.5t-139.5 -16.5q-68 8 -112.5 39t-91.5 72l-81 74q-30 28 -30 44z" />
<glyph unicode="&#xa3;" horiz-adv-x="1226" d="M0 397q0 16 16.5 48t51 69t87 76t124.5 69q66 29 145.5 47.5t177.5 18.5q61 0 113.5 -14.5t92.5 -39t62.5 -58t22.5 -72.5q0 -59 -26.5 -98.5t-63.5 -62t-73 -31.5t-54 -9q-29 0 -55.5 2t-46 10t-31 24.5t-11.5 45.5q0 49 18.5 66.5t43.5 19.5q18 0 36.5 -5t35 -11.5 t28 -11.5t15.5 -5q27 0 48 13.5t21 39.5q0 23 -21.5 45.5t-52 40t-65.5 27.5t-61 10q-59 0 -126 -15t-133 -42q-47 -20 -90 -45t-74.5 -51.5t-50 -54t-18.5 -54.5q0 -78 53.5 -138.5t125 -100t147 -60t120.5 -20.5q98 0 177 32.5t140.5 90t105.5 134t73 165.5q29 86 39 177 t10 183q0 111 -11 199t-26 141q-12 55 -26.5 77.5l-30.5 45.5q-59 23 -143 24.5l-201 3.5q-41 0 -80 -10t-63 -2q-18 6 -25.5 20.5t-11.5 32.5q-2 16 5 24.5t27.5 12.5t57.5 6.5l94 6.5q35 2 96.5 4t124 3t116.5 1h77q31 0 54.5 -28t27.5 -42q4 -10 0 -19.5t-9 -17.5 q4 -14 14.5 -37.5t21 -71.5t18.5 -128t8 -205q0 -141 -17.5 -259t-52.5 -216q-74 -215 -215 -331t-325 -116q-51 0 -115 13.5t-128.5 39t-124.5 62.5t-108.5 84t-77 104t-28.5 123z" />
<glyph unicode="&#x408;" horiz-adv-x="1226" d="M0 397q0 16 16.5 48t51 69t87 76t124.5 69q66 29 145.5 47.5t177.5 18.5q61 0 113.5 -14.5t92.5 -39t62.5 -58t22.5 -72.5q0 -59 -26.5 -98.5t-63.5 -62t-73 -31.5t-54 -9q-29 0 -55.5 2t-46 10t-31 24.5t-11.5 45.5q0 49 18.5 66.5t43.5 19.5q18 0 36.5 -5t35 -11.5 t28 -11.5t15.5 -5q27 0 48 13.5t21 39.5q0 23 -21.5 45.5t-52 40t-65.5 27.5t-61 10q-59 0 -126 -15t-133 -42q-47 -20 -90 -45t-74.5 -51.5t-50 -54t-18.5 -54.5q0 -78 53.5 -138.5t125 -100t147 -60t120.5 -20.5q98 0 177 32.5t140.5 90t105.5 134t73 165.5q29 86 39 177 t10 183q0 111 -11 199t-26 141q-12 55 -26.5 77.5l-30.5 45.5q-59 23 -143 24.5l-201 3.5q-41 0 -80 -10t-63 -2q-18 6 -25.5 20.5t-11.5 32.5q-2 16 5 24.5t27.5 12.5t57.5 6.5l94 6.5q35 2 96.5 4t124 3t116.5 1h77q31 0 54.5 -28t27.5 -42q4 -10 0 -19.5t-9 -17.5 q4 -14 14.5 -37.5t21 -71.5t18.5 -128t8 -205q0 -141 -17.5 -259t-52.5 -216q-74 -215 -215 -331t-325 -116q-51 0 -115 13.5t-128.5 39t-124.5 62.5t-108.5 84t-77 104t-28.5 123z" />
<glyph unicode="&#xa5;" horiz-adv-x="1099" d="M-42 1307.5q7 19.5 24 29.5q20 16 37.5 9t43.5 -5q82 6 141.5 17.5t88.5 15.5q18 57 65 68q35 8 48.5 -16.5t23.5 -53.5q29 -2 71 0t92 6t105.5 9.5t110.5 7.5q47 2 102.5 6t111.5 7t107.5 5t92.5 0q18 16 38 44l38 53q19 26 36 45.5t29 17.5q27 -4 31 -9t6 -22 q2 -14 -13.5 -47t-38 -66.5t-46 -62.5t-37.5 -33q-16 -6 -26.5 -7t-19.5 -1h-20q-10 0 -26 -2q-18 -2 -59.5 -2t-92.5 -1t-110 -3l-113 -4q-106 -4 -197.5 -8.5t-173.5 -14.5q-4 -66 -7 -150.5t-3 -183.5v-89v-79q0 -39 1 -78.5t1 -88.5v-87q0 -38 -1 -76l-2 -78 q-1 -40 1 -91q0 -37 8 -59.5t10 -65.5q0 -6 -1 -35t-6 -60.5t-16.5 -57t-31.5 -25.5q-35 -2 -55.5 11t-30.5 35.5t-13 55.5t-3 72q-2 29 -3.5 78t-2.5 110.5t-1 130.5v137v117q0 53 1 104.5t1 103.5v118q0 63 -1 125.5t1 89.5q-18 0 -53 -5l-73 -11q-38 -5 -70.5 -10 t-46.5 -5q-25 -2 -45.5 1t-26.5 26q-8 18 -1 37.5z" />
<glyph unicode="&#x490;" horiz-adv-x="1099" d="M-42 1307.5q7 19.5 24 29.5q20 16 37.5 9t43.5 -5q82 6 141.5 17.5t88.5 15.5q18 57 65 68q35 8 48.5 -16.5t23.5 -53.5q29 -2 71 0t92 6t105.5 9.5t110.5 7.5q47 2 102.5 6t111.5 7t107.5 5t92.5 0q18 16 38 44l38 53q19 26 36 45.5t29 17.5q27 -4 31 -9t6 -22 q2 -14 -13.5 -47t-38 -66.5t-46 -62.5t-37.5 -33q-16 -6 -26.5 -7t-19.5 -1h-20q-10 0 -26 -2q-18 -2 -59.5 -2t-92.5 -1t-110 -3l-113 -4q-106 -4 -197.5 -8.5t-173.5 -14.5q-4 -66 -7 -150.5t-3 -183.5v-89v-79q0 -39 1 -78.5t1 -88.5v-87q0 -38 -1 -76l-2 -78 q-1 -40 1 -91q0 -37 8 -59.5t10 -65.5q0 -6 -1 -35t-6 -60.5t-16.5 -57t-31.5 -25.5q-35 -2 -55.5 11t-30.5 35.5t-13 55.5t-3 72q-2 29 -3.5 78t-2.5 110.5t-1 130.5v137v117q0 53 1 104.5t1 103.5v118q0 63 -1 125.5t1 89.5q-18 0 -53 -5l-73 -11q-38 -5 -70.5 -10 t-46.5 -5q-25 -2 -45.5 1t-26.5 26q-8 18 -1 37.5z" />
<glyph unicode="&#xa8;" horiz-adv-x="1409" d="M-66 1315q4 31 22.5 48t51.5 13q45 -4 79 -14t85 -10q2 18 2 48t6 58q6 35 20.5 59.5t37.5 26.5q37 2 53 -18.5t20 -51t2 -64.5t-2 -58q29 0 79 4t110 4q66 2 139.5 -1t146.5 -7q113 -8 211.5 -19.5t165.5 -21.5q59 -8 99.5 -22.5t40.5 -63.5q0 -29 -32 -43.5t-63 -14.5 q-23 0 -74 25t-122 37q-47 8 -107.5 13t-126 8t-130 5t-116.5 2q-76 2 -131 -6l-94 -14q4 -29 8 -70t4 -90v-75q0 -24 9 -52q45 -4 130 -9t169 -3h124q62 0 114.5 -8t85 -28.5t32.5 -57.5q0 -41 -40 -63.5t-83 -22.5q-16 0 -59 19.5t-96 25.5q-61 8 -149 8h-208 q-6 -55 -9 -131t-3 -135q0 -92 2 -159t5 -115t6 -80.5t7 -59.5q47 -14 147.5 -13t254.5 -3q76 -2 160 -4l165 -5q82 -2 157 -6t131 -10t90 -17.5t34 -27.5t-10 -28.5t-24.5 -20.5t-29 -12t-22.5 -4q-12 0 -37 5l-56 11q-32 6 -68 11t-72 5q-41 0 -82 1t-90.5 3t-107.5 3 t-134 1q-66 0 -133.5 1.5t-134.5 1.5h-130q-62 0 -118 -3q-35 -2 -74 -4t-74 -12q-29 -6 -49 -16.5t-37 -7.5q-18 2 -23 16t-5 41q0 16 20.5 32.5t51 30t65.5 24.5t63 19q0 33 1 80l2 96q1 49 1 94v70q0 43 -2 88l-4 86q-2 41 -4 75t-2 54q-27 18 -51.5 31.5t-26.5 46.5 t22.5 49.5t55.5 32.5q0 23 -1 64t-3 85t-3 85t-1 61q-16 4 -56 9t-80 12.5t-70 20t-28 32.5zM499 1593q0 10 7.5 27.5t19.5 35t29.5 29t38.5 7.5q29 -4 47 -23.5t18 -46.5q0 -18 -8 -36.5t-21.5 -34t-31 -24.5t-33.5 -9t-41 19t-25 56zM770 1597q0 25 11 42.5t28.5 27.5 t36 15.5t30.5 5.5q23 0 36 -21.5t13 -44.5q0 -47 -27.5 -74.5t-62.5 -27.5q-29 0 -47 27t-18 50z" />
<glyph unicode="&#x401;" horiz-adv-x="1409" d="M-66 1315q4 31 22.5 48t51.5 13q45 -4 79 -14t85 -10q2 18 2 48t6 58q6 35 20.5 59.5t37.5 26.5q37 2 53 -18.5t20 -51t2 -64.5t-2 -58q29 0 79 4t110 4q66 2 139.5 -1t146.5 -7q113 -8 211.5 -19.5t165.5 -21.5q59 -8 99.5 -22.5t40.5 -63.5q0 -29 -32 -43.5t-63 -14.5 q-23 0 -74 25t-122 37q-47 8 -107.5 13t-126 8t-130 5t-116.5 2q-76 2 -131 -6l-94 -14q4 -29 8 -70t4 -90v-75q0 -24 9 -52q45 -4 130 -9t169 -3h124q62 0 114.5 -8t85 -28.5t32.5 -57.5q0 -41 -40 -63.5t-83 -22.5q-16 0 -59 19.5t-96 25.5q-61 8 -149 8h-208 q-6 -55 -9 -131t-3 -135q0 -92 2 -159t5 -115t6 -80.5t7 -59.5q47 -14 147.5 -13t254.5 -3q76 -2 160 -4l165 -5q82 -2 157 -6t131 -10t90 -17.5t34 -27.5t-10 -28.5t-24.5 -20.5t-29 -12t-22.5 -4q-12 0 -37 5l-56 11q-32 6 -68 11t-72 5q-41 0 -82 1t-90.5 3t-107.5 3 t-134 1q-66 0 -133.5 1.5t-134.5 1.5h-130q-62 0 -118 -3q-35 -2 -74 -4t-74 -12q-29 -6 -49 -16.5t-37 -7.5q-18 2 -23 16t-5 41q0 16 20.5 32.5t51 30t65.5 24.5t63 19q0 33 1 80l2 96q1 49 1 94v70q0 43 -2 88l-4 86q-2 41 -4 75t-2 54q-27 18 -51.5 31.5t-26.5 46.5 t22.5 49.5t55.5 32.5q0 23 -1 64t-3 85t-3 85t-1 61q-16 4 -56 9t-80 12.5t-70 20t-28 32.5zM499 1593q0 10 7.5 27.5t19.5 35t29.5 29t38.5 7.5q29 -4 47 -23.5t18 -46.5q0 -18 -8 -36.5t-21.5 -34t-31 -24.5t-33.5 -9t-41 19t-25 56zM770 1597q0 25 11 42.5t28.5 27.5 t36 15.5t30.5 5.5q23 0 36 -21.5t13 -44.5q0 -47 -27.5 -74.5t-62.5 -27.5q-29 0 -47 27t-18 50z" />
<glyph unicode="&#xa9;" horiz-adv-x="1376" d="M-6 643q0 129 50 253t149 222q98 98 220 146.5t251 48.5t252.5 -50.5t222.5 -148.5q98 -98 146 -220t48 -251t-50 -253t-148 -222t-220 -146.5t-251 -48.5t-253 50.5t-223 148.5q-98 98 -146 220t-48 251zM127 647q0 -104 40 -201.5t120 -175.5q76 -74 171 -110.5 t193 -36.5q104 0 201.5 40t175.5 120q74 76 111 171t37 193q0 104 -40 201.5t-120 175.5q-76 74 -171 110.5t-194 36.5q-104 0 -201.5 -39.5t-175.5 -119.5q-74 -76 -110.5 -171.5t-36.5 -193.5zM291 575q0 74 19.5 140.5t78.5 138.5q23 27 54.5 58.5t68.5 57t76 43t76 17.5 q39 0 84 -8t83.5 -21.5t63.5 -33t25 -39.5q0 -57 -43 -58q-23 0 -37.5 16.5t-36.5 31.5q-16 10 -43 16t-80 6q-23 0 -52.5 -13.5t-61 -36t-61.5 -51t-54 -59.5q-35 -47 -49.5 -88t-14.5 -92q0 -55 23.5 -100t62.5 -78t91 -50.5t110 -17.5q106 0 165.5 18.5t94.5 59.5 q14 16 24 36l20 36q9 16 19.5 27.5t24.5 9.5q33 -4 33 -37q0 -35 -14.5 -65.5t-34.5 -55.5q-43 -61 -131.5 -92t-212.5 -31q-129 0 -203 36t-112 87t-47 104t-9 88z" />
<glyph unicode="&#xab;" horiz-adv-x="1687" d="M104 549q0 18 32 39.5t84 49.5l120 60q68 33 139 72l103 60l111 71l98 61q43 26 61 29q23 4 39 -12t14 -37q-2 -16 -28.5 -39.5t-69.5 -51.5t-95 -57l-106 -61q-76 -45 -143.5 -91t-108.5 -71q45 -45 122 -98l163 -108q59 -39 117.5 -82t104.5 -83t74 -72t26 -50 q-4 -45 -37 -59.5t-60 -14.5q-12 0 -21 8l-43 39q-34 31 -109 91.5t-220 166.5q-74 55 -140 84l-117 50q-50 22 -80 44.5t-30 61.5zM598 578q0 25 36 50t96.5 52t137 54.5t156.5 51.5q45 14 90 32l82 32l64 24q27 10 34 11q18 0 31.5 -18.5t13.5 -35.5q0 -20 -20.5 -36.5 t-54 -30.5t-77.5 -28l-89 -27q-78 -23 -156 -57t-127 -58q41 -27 124 -75t191 -101q70 -35 140.5 -75t128 -76t93.5 -64.5t36 -40.5q0 -20 -9.5 -38t-23.5 -31t-28.5 -20t-24.5 -7q-14 0 -45 20l-84 57l-132 89q-79 52 -190 116q-102 57 -176 87l-122 50q-48 20 -71.5 39 t-23.5 54z" />
<glyph unicode="&#xad;" d="M164 463q-2 33 24.5 37t73.5 12q59 10 151 13l218 7q72 4 155.5 6.5t180.5 2.5q43 0 61.5 -18.5t18.5 -35.5q0 -35 -25 -52t-55 -17l-125 -4q-53 -2 -114.5 -3t-113.5 -1q-57 0 -115.5 -2t-110.5 -3.5t-95 -1.5t-68 3q-57 4 -61 57z" />
<glyph unicode="&#xae;" horiz-adv-x="1376" d="M-6 643q0 129 50 253t149 222q98 98 220 146.5t251 48.5t252.5 -50.5t222.5 -148.5q98 -98 146 -220t48 -251t-50 -253t-148 -222t-220 -146.5t-251 -48.5t-253 50.5t-223 148.5q-98 98 -146 220t-48 251zM127 647q0 -104 40 -201.5t120 -175.5q76 -74 171 -110.5 t193 -36.5q104 0 201.5 40t175.5 120q74 76 111 171t37 193q0 104 -40 201.5t-120 175.5q-76 74 -171 110.5t-194 36.5q-104 0 -201.5 -39.5t-175.5 -119.5q-74 -76 -110.5 -171.5t-36.5 -193.5zM252 639q0 18 13.5 42t31.5 49.5t39 48.5l37 42v103q2 47 14 73.5t47 26.5 q18 0 29.5 -14.5t16.5 -34t6 -42t1 -38.5q18 6 52 18.5t76 24.5t89.5 20.5t90.5 8.5q49 0 98 -10.5t89 -32t65.5 -55t25.5 -81.5q0 -35 -26.5 -79.5t-74.5 -83.5t-116 -66t-151 -27q-78 0 -108 38t-30 79q0 39 21.5 65.5t50.5 42t59.5 22.5t49.5 7q8 0 28.5 -4t40 -12 t34.5 -21.5t15 -31.5q0 -29 -16 -38t-39 -13q-8 0 -14 6l-14.5 15t-20.5 16.5t-33 7.5q-10 0 -25.5 -5.5t-28.5 -14.5t-23.5 -20.5t-10.5 -21.5q0 -25 21.5 -37t31.5 -12q47 0 93.5 13.5t83 38t60 60.5t23.5 81q0 27 -20.5 45t-48 28.5t-56 14.5t-47.5 4q-39 0 -82 -10.5 t-82.5 -23.5t-72.5 -28.5t-51 -27.5v-263q0 -80 1 -131t1 -73q0 -29 -21.5 -52.5t-38.5 -23.5q-25 0 -39 21.5t-22 57.5t-10.5 84t-2.5 101q2 39 0 80t-2 78q-12 -4 -21 -15.5t-17.5 -24.5t-16.5 -23.5t-16 -10.5q-14 0 -25.5 13.5t-11.5 25.5z" />
<glyph unicode="&#xb0;" horiz-adv-x="798" d="M201 983q2 55 22.5 107.5t56 92.5t83 63.5t100.5 23.5q41 0 75.5 -14.5t67.5 -38.5q51 -8 93 -50.5t42 -136.5q0 -41 -20.5 -82t-59 -72.5t-96 -52t-133.5 -20.5q-18 0 -57 9t-78 29.5t-68.5 55.5t-27.5 86zM307 1016q2 -43 41 -75t94 -32q29 0 58.5 6.5t54.5 23.5t40 46 t15 72q0 18 -12 35.5t-31.5 33t-44 24.5t-47.5 9q-31 0 -61.5 -14.5t-54 -36t-38 -45.5t-14.5 -47z" />
<glyph unicode="&#xb4;" horiz-adv-x="1015" d="M-31 553q0 25 17.5 51.5t42 52t52.5 51t48 50.5v151q2 57 15.5 92t58.5 35q27 0 39 -21.5t17 -51t5 -60.5v-51l64 21q45 15 102 32t115.5 29t101.5 12q53 0 117.5 10.5t107.5 1.5q10 8 20.5 24.5t20 37t19.5 39t20 28.5t28.5 7.5t20.5 -7.5q2 -6 2.5 -22t-4 -38.5 t-11.5 -45.5t-17 -41q-23 -39 -47.5 -58.5t-85.5 -15.5h-28h-31q-19 0 -50 -2t-82 -4q-59 -2 -116.5 -16.5t-106.5 -33.5t-88 -39.5t-64 -37.5v-373q0 -115 2 -186.5t2 -103.5q0 -33 -25.5 -61.5t-45.5 -28.5q-35 0 -53.5 28.5t-26.5 77.5t-10 113.5t-2 136.5q2 59 0 124.5 t-2 125.5q-16 -4 -29 -17l-24 -24q-11 -12 -22 -22.5t-26 -10.5q-16 0 -28.5 14.5t-12.5 26.5z" />
<glyph unicode="&#x491;" horiz-adv-x="1015" d="M-31 553q0 25 17.5 51.5t42 52t52.5 51t48 50.5v151q2 57 15.5 92t58.5 35q27 0 39 -21.5t17 -51t5 -60.5v-51l64 21q45 15 102 32t115.5 29t101.5 12q53 0 117.5 10.5t107.5 1.5q10 8 20.5 24.5t20 37t19.5 39t20 28.5t28.5 7.5t20.5 -7.5q2 -6 2.5 -22t-4 -38.5 t-11.5 -45.5t-17 -41q-23 -39 -47.5 -58.5t-85.5 -15.5h-28h-31q-19 0 -50 -2t-82 -4q-59 -2 -116.5 -16.5t-106.5 -33.5t-88 -39.5t-64 -37.5v-373q0 -115 2 -186.5t2 -103.5q0 -33 -25.5 -61.5t-45.5 -28.5q-35 0 -53.5 28.5t-26.5 77.5t-10 113.5t-2 136.5q2 59 0 124.5 t-2 125.5q-16 -4 -29 -17l-24 -24q-11 -12 -22 -22.5t-26 -10.5q-16 0 -28.5 14.5t-12.5 26.5z" />
<glyph unicode="&#xb8;" horiz-adv-x="1001" d="M-4 -8q0 20 2 20t-2 17q-2 8 8 23.5t26 34.5l33 41l35 40q-8 12 -22.5 45t-28.5 72t-24.5 76.5t-10.5 60.5q0 61 19.5 120.5t54.5 113t81 97.5t99 78q76 49 157 69t134 22q78 2 129 -6.5t85 -22.5t53.5 -30.5t31.5 -31.5q12 6 24.5 5.5t22.5 1.5q12 2 20.5 -11.5 t10.5 -23.5q2 -14 -36 -52t-94 -87l-120 -103l-115 -98q-102 -90 -168.5 -158.5t-134.5 -124.5q59 -45 153.5 -73.5t256.5 -24.5q59 2 110.5 16.5t92.5 30.5t68.5 29.5t39.5 13.5q14 0 24.5 -9t8.5 -24q-2 -16 -28.5 -41.5t-73 -49t-110 -40t-136.5 -16.5q-123 0 -208 12 t-142.5 29.5t-93 35l-58.5 29.5q-33 -41 -58.5 -77.5t-66.5 -36.5q-16 0 -24.5 4t-24.5 4zM123 430q0 -8 7 -30.5t18.5 -49t25.5 -53.5t27 -43q16 12 47 38l70 59l86 74l92 83l176 162q72 63 119 116l-28.5 19.5t-36 16.5t-53.5 11.5t-79 4.5q-86 0 -156.5 -21.5 t-126.5 -58.5q-94 -61 -141 -152.5t-47 -175.5zM381 1137q0 10 7 27.5t19.5 35t29.5 28.5t38 7q29 -4 47.5 -23.5t18.5 -46.5q0 -18 -8.5 -36.5t-22 -34t-30.5 -24.5t-34 -9q-16 0 -40.5 19.5t-24.5 56.5zM651 1141q0 25 11.5 42t28.5 27.5t35.5 15.5t31.5 5q23 0 36 -21.5 t13 -44.5q0 -47 -28 -74.5t-62 -27.5q-29 0 -47.5 27.5t-18.5 50.5z" />
<glyph unicode="&#x451;" horiz-adv-x="1001" d="M-4 -8q0 20 2 20t-2 17q-2 8 8 23.5t26 34.5l33 41l35 40q-8 12 -22.5 45t-28.5 72t-24.5 76.5t-10.5 60.5q0 61 19.5 120.5t54.5 113t81 97.5t99 78q76 49 157 69t134 22q78 2 129 -6.5t85 -22.5t53.5 -30.5t31.5 -31.5q12 6 24.5 5.5t22.5 1.5q12 2 20.5 -11.5 t10.5 -23.5q2 -14 -36 -52t-94 -87l-120 -103l-115 -98q-102 -90 -168.5 -158.5t-134.5 -124.5q59 -45 153.5 -73.5t256.5 -24.5q59 2 110.5 16.5t92.5 30.5t68.5 29.5t39.5 13.5q14 0 24.5 -9t8.5 -24q-2 -16 -28.5 -41.5t-73 -49t-110 -40t-136.5 -16.5q-123 0 -208 12 t-142.5 29.5t-93 35l-58.5 29.5q-33 -41 -58.5 -77.5t-66.5 -36.5q-16 0 -24.5 4t-24.5 4zM123 430q0 -8 7 -30.5t18.5 -49t25.5 -53.5t27 -43q16 12 47 38l70 59l86 74l92 83l176 162q72 63 119 116l-28.5 19.5t-36 16.5t-53.5 11.5t-79 4.5q-86 0 -156.5 -21.5 t-126.5 -58.5q-94 -61 -141 -152.5t-47 -175.5zM381 1137q0 10 7 27.5t19.5 35t29.5 28.5t38 7q29 -4 47.5 -23.5t18.5 -46.5q0 -18 -8.5 -36.5t-22 -34t-30.5 -24.5t-34 -9q-16 0 -40.5 19.5t-24.5 56.5zM651 1141q0 25 11.5 42t28.5 27.5t35.5 15.5t31.5 5q23 0 36 -21.5 t13 -44.5q0 -47 -28 -74.5t-62 -27.5q-29 0 -47.5 27.5t-18.5 50.5z" />
<glyph unicode="&#xbb;" horiz-adv-x="1648" d="M188 106q0 27 32 55.5t87 59.5t130 68t161 84l136 74q71 40 143 94q-25 18 -75 46.5t-114 51.5q-53 18 -109.5 34.5t-102.5 32t-74.5 32t-28.5 36.5q0 16 11 33.5t30 15.5q18 0 57 -10t90 -25.5t107.5 -37t107.5 -43.5l107 -49q57 -26 104 -51t79 -47.5t32 -39.5 q0 -29 -28 -48t-81 -44l-130 -59q-77 -35 -175 -90q-106 -59 -174 -101.5t-109 -75.5q-39 -31 -58 -52l-31 -34q-11 -12 -17 -18t-21 -6q-6 0 -20 7t-28.5 21.5t-26 35.5t-11.5 50zM725 27q0 23 33 56.5t82 72.5t107 77l110 74l96 63l69 46l56 40q27 19 61 48q-27 27 -51 47 t-52 40.5t-60 41.5l-74 47l-102 59l-101 60q-47 29 -77.5 54.5t-30.5 43.5t17 31.5t28 13.5q37 0 372 -209q102 -66 171 -103l110 -62q41 -24 57.5 -40t16.5 -39q0 -27 -28 -50t-77 -51t-116.5 -62.5t-145.5 -83.5q-35 -23 -89 -68l-112 -92q-57 -47 -109 -82t-79 -35 q-35 0 -58.5 16.5t-23.5 45.5z" />
<glyph unicode="&#xc0;" horiz-adv-x="1437" d="M-2 750q0 27 24.5 42t59.5 24t76 13.5t71 6.5q35 4 78 6t58 2q12 18 29 48l39 66l44 76l43 76l62 105l51 85q4 16 5 36t3 42q2 18 11.5 38t29.5 20q25 -2 49.5 -28t47 -65.5t45 -90t40.5 -99.5l29 -71l34 -80l34 -74q16 -35 28 -56q23 0 41.5 2.5t43 4.5t62.5 4t97 2 q27 0 75 -2t97 -7.5t87 -15.5t42 -26q4 -29 -8.5 -46.5t-38.5 -21.5q-35 -4 -90.5 7t-108.5 13q-80 4 -152.5 2t-119.5 -10q2 -10 12 -42l24 -74l29 -94l33 -101q18 -59 41 -120.5t41 -117t30.5 -100.5t12.5 -72q0 -29 -27.5 -51t-56.5 -22t-53.5 37.5t-48 96t-44.5 129.5 l-42 138q-37 127 -79 232.5t-69 164.5q-45 8 -84 4t-80 -4q-25 0 -52 -4l-54 -8q-27 -4 -51.5 -7t-40.5 -1l-30 -57l-39 -78l-44 -91q-23 -48 -43 -98l-65 -159q-33 -82 -66 -149t-63.5 -110t-57.5 -43q-14 0 -29.5 15.5t-19.5 36.5q0 12 3 22t11.5 23.5t22.5 33t33 52.5 q23 41 55 112l74 158q29 61 65 151l72 169q-27 0 -48.5 1t-49.5 -1q-59 -4 -110.5 -18.5t-86.5 -12.5q-16 2 -29.5 7.5t-13.5 23.5zM492 860q35 -4 69.5 1t77.5 7t70.5 2t74.5 4l-30 118q-12 48 -22.5 83t-21 61.5t-24.5 55.5q-14 -31 -38 -70l-50 -84l-54 -90z" />
<glyph unicode="&#x410;" horiz-adv-x="1437" d="M-2 750q0 27 24.5 42t59.5 24t76 13.5t71 6.5q35 4 78 6t58 2q12 18 29 48l39 66l44 76l43 76l62 105l51 85q4 16 5 36t3 42q2 18 11.5 38t29.5 20q25 -2 49.5 -28t47 -65.5t45 -90t40.5 -99.5l29 -71l34 -80l34 -74q16 -35 28 -56q23 0 41.5 2.5t43 4.5t62.5 4t97 2 q27 0 75 -2t97 -7.5t87 -15.5t42 -26q4 -29 -8.5 -46.5t-38.5 -21.5q-35 -4 -90.5 7t-108.5 13q-80 4 -152.5 2t-119.5 -10q2 -10 12 -42l24 -74l29 -94l33 -101q18 -59 41 -120.5t41 -117t30.5 -100.5t12.5 -72q0 -29 -27.5 -51t-56.5 -22t-53.5 37.5t-48 96t-44.5 129.5 l-42 138q-37 127 -79 232.5t-69 164.5q-45 8 -84 4t-80 -4q-25 0 -52 -4l-54 -8q-27 -4 -51.5 -7t-40.5 -1l-30 -57l-39 -78l-44 -91q-23 -48 -43 -98l-65 -159q-33 -82 -66 -149t-63.5 -110t-57.5 -43q-14 0 -29.5 15.5t-19.5 36.5q0 12 3 22t11.5 23.5t22.5 33t33 52.5 q23 41 55 112l74 158q29 61 65 151l72 169q-27 0 -48.5 1t-49.5 -1q-59 -4 -110.5 -18.5t-86.5 -12.5q-16 2 -29.5 7.5t-13.5 23.5zM492 860q35 -4 69.5 1t77.5 7t70.5 2t74.5 4l-30 118q-12 48 -22.5 83t-21 61.5t-24.5 55.5q-14 -31 -38 -70l-50 -84l-54 -90z" />
<glyph unicode="&#xc1;" horiz-adv-x="1632" d="M-37 233q0 27 14.5 46.5t38.5 19.5q6 0 24 -14l41 -35l51.5 -42t55.5 -36q76 -37 134 -43l116 -12q0 23 2 45q2 20 2 47v57q-2 59 -7 118.5t-9 90.5q-29 12 -72 27.5t-85 41t-71.5 62.5t-29.5 90q0 59 32.5 93t77 52.5t90.5 24.5l74 11q6 55 5 100t-1 104q0 53 -4 108.5 t-6 94.5q-23 -4 -63.5 -12t-81.5 -23q-29 -10 -54.5 -25.5l-48 -30.5t-44 -25.5t-40.5 -8.5q-18 2 -25 20.5t-5 37.5q0 16 21.5 35.5t54 40t72.5 38t77 29.5q47 14 112.5 27.5t140.5 22.5t154.5 14.5t157.5 5.5q168 4 320.5 4t257.5 12q80 10 126 17t70 7q23 0 46.5 -13 t23.5 -46q0 -35 -10 -57.5t-25.5 -34.5t-37 -17.5t-42.5 -7.5q-39 -4 -59.5 2.5t-54.5 10.5q-98 12 -247 10t-314 -6l-183 -7q-82 -3 -160 -10q14 -41 18.5 -98t0.5 -102q-2 -29 -1 -64l2 -67q1 -33 3 -61t4 -42q47 4 86 1t86 -5q109 -4 227.5 -32.5t227.5 -78.5 q74 -35 139.5 -77.5t113.5 -93t75.5 -107.5t27.5 -119q0 -53 -32.5 -99t-86 -83t-122 -65.5t-140.5 -47.5q-166 -43 -280.5 -51t-202.5 -10q-61 -2 -131 4t-140.5 18.5t-139 28.5t-126.5 39q-100 35 -160.5 78.5t-60.5 72.5zM254 700q4 -45 54 -79.5t118 -38.5q4 39 7 92 t-3 96q-29 2 -49.5 0t-48.5 -12q-12 -6 -26.5 -10.5t-27 -9.5t-19.5 -14.5t-5 -23.5zM578 446q2 -29 2 -57v-52q0 -28 2 -50q0 -27 1 -57.5t1 -59.5q0 -33 2 -64q35 -8 69.5 -14t98.5 -6q18 0 61 3t99.5 10t122 18.5t130.5 29.5q57 16 114.5 39t101.5 53.5t72 67.5t28 82 q0 27 -28 63.5t-74 76.5t-106.5 78t-127.5 69q-57 27 -119.5 45t-120 30.5t-107.5 18.5t-83 4q-25 -2 -60.5 -1t-62.5 -7q0 -12 -1 -34.5t-1 -49.5t-1 -51.5t-1 -40.5l25 20q15 12 36 8q23 -4 38.5 -16t10.5 -45q-4 -29 -28 -62t-94 -49z" />
<glyph unicode="&#x411;" horiz-adv-x="1632" d="M-37 233q0 27 14.5 46.5t38.5 19.5q6 0 24 -14l41 -35l51.5 -42t55.5 -36q76 -37 134 -43l116 -12q0 23 2 45q2 20 2 47v57q-2 59 -7 118.5t-9 90.5q-29 12 -72 27.5t-85 41t-71.5 62.5t-29.5 90q0 59 32.5 93t77 52.5t90.5 24.5l74 11q6 55 5 100t-1 104q0 53 -4 108.5 t-6 94.5q-23 -4 -63.5 -12t-81.5 -23q-29 -10 -54.5 -25.5l-48 -30.5t-44 -25.5t-40.5 -8.5q-18 2 -25 20.5t-5 37.5q0 16 21.5 35.5t54 40t72.5 38t77 29.5q47 14 112.5 27.5t140.5 22.5t154.5 14.5t157.5 5.5q168 4 320.5 4t257.5 12q80 10 126 17t70 7q23 0 46.5 -13 t23.5 -46q0 -35 -10 -57.5t-25.5 -34.5t-37 -17.5t-42.5 -7.5q-39 -4 -59.5 2.5t-54.5 10.5q-98 12 -247 10t-314 -6l-183 -7q-82 -3 -160 -10q14 -41 18.5 -98t0.5 -102q-2 -29 -1 -64l2 -67q1 -33 3 -61t4 -42q47 4 86 1t86 -5q109 -4 227.5 -32.5t227.5 -78.5 q74 -35 139.5 -77.5t113.5 -93t75.5 -107.5t27.5 -119q0 -53 -32.5 -99t-86 -83t-122 -65.5t-140.5 -47.5q-166 -43 -280.5 -51t-202.5 -10q-61 -2 -131 4t-140.5 18.5t-139 28.5t-126.5 39q-100 35 -160.5 78.5t-60.5 72.5zM254 700q4 -45 54 -79.5t118 -38.5q4 39 7 92 t-3 96q-29 2 -49.5 0t-48.5 -12q-12 -6 -26.5 -10.5t-27 -9.5t-19.5 -14.5t-5 -23.5zM578 446q2 -29 2 -57v-52q0 -28 2 -50q0 -27 1 -57.5t1 -59.5q0 -33 2 -64q35 -8 69.5 -14t98.5 -6q18 0 61 3t99.5 10t122 18.5t130.5 29.5q57 16 114.5 39t101.5 53.5t72 67.5t28 82 q0 27 -28 63.5t-74 76.5t-106.5 78t-127.5 69q-57 27 -119.5 45t-120 30.5t-107.5 18.5t-83 4q-25 -2 -60.5 -1t-62.5 -7q0 -12 -1 -34.5t-1 -49.5t-1 -51.5t-1 -40.5l25 20q15 12 36 8q23 -4 38.5 -16t10.5 -45q-4 -29 -28 -62t-94 -49z" />
<glyph unicode="&#xc2;" horiz-adv-x="1742" d="M0 1126q6 45 83 84t212 84q57 20 130 39t149.5 34t152.5 24.5t141 9.5q96 0 174 -13.5t133.5 -44t85 -78.5t29.5 -118q0 -33 -7 -58.5t-17.5 -47t-20.5 -39t-16 -35.5q25 -6 71 -15.5t100 -27t111.5 -47t105.5 -77.5t80 -118t36 -166q2 -78 -26 -142.5t-78 -118.5 t-116.5 -95t-140.5 -70q-76 -29 -159 -46t-167.5 -27.5t-168.5 -13.5t-160 -3q-10 0 -55.5 -1t-109 5t-140 20.5t-150.5 45.5q-43 18 -87 43.5t-80 56.5t-57.5 67.5t-21.5 77.5q0 55 25 102.5t69 85.5t103 65.5t127 41.5q29 6 63.5 11.5t68.5 8.5t65.5 5t56.5 0q-4 43 -8 79 t-4 72q0 25 12 91q2 63 5 115t11 118l10 82l7 74q-25 -2 -62 -7.5t-76.5 -12.5t-77.5 -15l-67 -14q-53 -14 -114.5 -36t-106.5 -46q-35 -20 -57.5 -47t-32.5 -23q-16 8 -26.5 25.5t-6.5 35.5zM106 328q0 -33 19.5 -62.5t53.5 -54.5t76 -45.5t89 -34.5q90 -29 169 -31t126 -2 q184 0 360.5 16.5t311.5 69.5q129 49 205.5 135.5t76.5 196.5q0 78 -40 136.5t-107 92.5q-66 33 -145.5 46.5t-157.5 23.5q-18 -2 -50 -5t-70 -7t-77 -9.5t-74 -11.5q-55 -10 -91 -23.5t-68 -21.5q0 -16 2 -50t10 -48q20 -6 75.5 -12t112 -26.5t99.5 -62.5t41 -116 q-2 -70 -31 -97.5t-57 -27.5q-45 0 -50.5 22.5t-1.5 49.5q4 23 6.5 32t-1.5 29q-4 27 -31 35t-56 18q-33 12 -57 12.5t-57 4.5q-2 -10 -1 -32t2 -51l2 -63q1 -33 1 -63q-2 -66 -17.5 -109t-56.5 -43q-20 0 -30.5 20.5t-15.5 47t-6 52.5t-1 36q0 23 1 52l2 62l2 61q1 30 3 54 q-6 0 -28.5 2t-45.5 2q-14 0 -37.5 -1t-49 -4t-51 -7t-46.5 -8q-68 -14 -114 -36.5t-73.5 -49.5t-39 -51.5t-11.5 -42.5zM709 1014q0 -43 8 -96q43 -2 110.5 8t122.5 20q43 8 82 29.5t68.5 50.5t47 60.5t19.5 60.5q2 27 -9 46t-31.5 33.5t-46 25t-52.5 16.5q-63 14 -143 14 q-53 0 -78 -1t-36 -4t-17 -7t-25 -8q-10 -37 -12 -71t-4 -77q-4 -57 -4 -100z" />
<glyph unicode="&#x412;" horiz-adv-x="1742" d="M0 1126q6 45 83 84t212 84q57 20 130 39t149.5 34t152.5 24.5t141 9.5q96 0 174 -13.5t133.5 -44t85 -78.5t29.5 -118q0 -33 -7 -58.5t-17.5 -47t-20.5 -39t-16 -35.5q25 -6 71 -15.5t100 -27t111.5 -47t105.5 -77.5t80 -118t36 -166q2 -78 -26 -142.5t-78 -118.5 t-116.5 -95t-140.5 -70q-76 -29 -159 -46t-167.5 -27.5t-168.5 -13.5t-160 -3q-10 0 -55.5 -1t-109 5t-140 20.5t-150.5 45.5q-43 18 -87 43.5t-80 56.5t-57.5 67.5t-21.5 77.5q0 55 25 102.5t69 85.5t103 65.5t127 41.5q29 6 63.5 11.5t68.5 8.5t65.5 5t56.5 0q-4 43 -8 79 t-4 72q0 25 12 91q2 63 5 115t11 118l10 82l7 74q-25 -2 -62 -7.5t-76.5 -12.5t-77.5 -15l-67 -14q-53 -14 -114.5 -36t-106.5 -46q-35 -20 -57.5 -47t-32.5 -23q-16 8 -26.5 25.5t-6.5 35.5zM106 328q0 -33 19.5 -62.5t53.5 -54.5t76 -45.5t89 -34.5q90 -29 169 -31t126 -2 q184 0 360.5 16.5t311.5 69.5q129 49 205.5 135.5t76.5 196.5q0 78 -40 136.5t-107 92.5q-66 33 -145.5 46.5t-157.5 23.5q-18 -2 -50 -5t-70 -7t-77 -9.5t-74 -11.5q-55 -10 -91 -23.5t-68 -21.5q0 -16 2 -50t10 -48q20 -6 75.5 -12t112 -26.5t99.5 -62.5t41 -116 q-2 -70 -31 -97.5t-57 -27.5q-45 0 -50.5 22.5t-1.5 49.5q4 23 6.5 32t-1.5 29q-4 27 -31 35t-56 18q-33 12 -57 12.5t-57 4.5q-2 -10 -1 -32t2 -51l2 -63q1 -33 1 -63q-2 -66 -17.5 -109t-56.5 -43q-20 0 -30.5 20.5t-15.5 47t-6 52.5t-1 36q0 23 1 52l2 62l2 61q1 30 3 54 q-6 0 -28.5 2t-45.5 2q-14 0 -37.5 -1t-49 -4t-51 -7t-46.5 -8q-68 -14 -114 -36.5t-73.5 -49.5t-39 -51.5t-11.5 -42.5zM709 1014q0 -43 8 -96q43 -2 110.5 8t122.5 20q43 8 82 29.5t68.5 50.5t47 60.5t19.5 60.5q2 27 -9 46t-31.5 33.5t-46 25t-52.5 16.5q-63 14 -143 14 q-53 0 -78 -1t-36 -4t-17 -7t-25 -8q-10 -37 -12 -71t-4 -77q-4 -57 -4 -100z" />
<glyph unicode="&#xc3;" horiz-adv-x="1099" d="M-42 1307.5q7 19.5 24 29.5q20 16 37.5 9t43.5 -5q82 6 141.5 17.5t88.5 15.5q18 57 65 68q35 8 48.5 -16.5t23.5 -53.5q29 -2 71 0t92 6t105.5 9.5t110.5 7.5q100 4 203.5 6t186.5 -1t135 -14.5t52 -31.5q2 -23 -11 -39.5t-33.5 -26.5t-43 -13t-38.5 -1q-16 0 -25.5 9 t-18 18.5t-17.5 16.5t-25 5q-18 -2 -59.5 -2t-92.5 -1t-110 -3l-113 -4q-106 -4 -197.5 -8.5t-173.5 -14.5q-4 -66 -7 -150.5t-3 -183.5v-89v-79q0 -39 1 -78.5t1 -88.5v-87q0 -38 -1 -76l-2 -78q-1 -40 1 -91q0 -37 8 -59.5t10 -65.5q0 -6 -1 -35t-6 -60.5t-16.5 -57 t-31.5 -25.5q-35 -2 -55.5 11t-30.5 35.5t-13 55.5t-3 72q-2 29 -3.5 78t-2.5 110.5t-1 130.5v137v117q0 53 1 104.5t1 103.5v118q0 63 -1 125.5t1 89.5q-18 0 -53 -5l-73 -11q-38 -5 -70.5 -10t-46.5 -5q-25 -2 -45.5 1t-26.5 26q-8 18 -1 37.5z" />
<glyph unicode="&#x413;" horiz-adv-x="1099" d="M-42 1307.5q7 19.5 24 29.5q20 16 37.5 9t43.5 -5q82 6 141.5 17.5t88.5 15.5q18 57 65 68q35 8 48.5 -16.5t23.5 -53.5q29 -2 71 0t92 6t105.5 9.5t110.5 7.5q100 4 203.5 6t186.5 -1t135 -14.5t52 -31.5q2 -23 -11 -39.5t-33.5 -26.5t-43 -13t-38.5 -1q-16 0 -25.5 9 t-18 18.5t-17.5 16.5t-25 5q-18 -2 -59.5 -2t-92.5 -1t-110 -3l-113 -4q-106 -4 -197.5 -8.5t-173.5 -14.5q-4 -66 -7 -150.5t-3 -183.5v-89v-79q0 -39 1 -78.5t1 -88.5v-87q0 -38 -1 -76l-2 -78q-1 -40 1 -91q0 -37 8 -59.5t10 -65.5q0 -6 -1 -35t-6 -60.5t-16.5 -57 t-31.5 -25.5q-35 -2 -55.5 11t-30.5 35.5t-13 55.5t-3 72q-2 29 -3.5 78t-2.5 110.5t-1 130.5v137v117q0 53 1 104.5t1 103.5v118q0 63 -1 125.5t1 89.5q-18 0 -53 -5l-73 -11q-38 -5 -70.5 -10t-46.5 -5q-25 -2 -45.5 1t-26.5 26q-8 18 -1 37.5z" />
<glyph unicode="&#xc4;" horiz-adv-x="1802" d="M-207 1053q-8 16 16.5 53t64.5 78t88 76.5t89 50.5q90 35 200.5 48t250.5 13q145 0 323.5 -30.5t352.5 -96.5q119 -45 229.5 -103.5t187.5 -137.5q74 -76 121 -179.5t47 -214.5q0 -174 -73.5 -294.5t-196.5 -192.5q-68 -41 -147.5 -68.5t-166.5 -44t-178.5 -23.5 t-183.5 -7q-100 0 -238.5 16t-269.5 53q-61 18 -116.5 39t-98.5 46.5t-67.5 56t-24.5 67.5q0 33 22.5 73t58.5 81t81 77.5t88 63.5q74 47 126 66.5t83 27.5q-2 70 -4 154t4 182q2 43 7 87l10 84l9 73q4 33 7 51q-10 4 -27.5 6t-34.5 2q-98 0 -196.5 -11t-192.5 -58 q-41 -20 -84 -56.5t-72 -75.5q-23 -33 -31 -57t-16 -20q-16 10 -26.5 19.5t-20.5 25.5zM88 262q0 -16 18.5 -32.5t48 -32t66.5 -30.5t76 -28q59 -20 112.5 -35.5t75.5 -13.5q0 35 -2 101.5t-6 139t-7 138.5t-5 100q-57 -16 -112.5 -41.5t-88.5 -48.5q-70 -49 -123 -102.5 t-53 -114.5zM608 946q0 -68 3 -135.5t10 -146.5q29 0 95 -1t158 -24q47 -12 96.5 -30.5t88.5 -41t62.5 -50.5t23.5 -58q0 -20 -17.5 -42t-40 -40.5t-44 -29.5t-33.5 -11q-8 0 -24.5 2t-16.5 18q0 20 7 36t16 26l18 19q8 9 8 22q0 10 -15.5 22.5t-38 24.5t-50 22.5 l-52.5 20.5q-33 12 -68.5 18t-68.5 9.5t-60.5 3.5t-43.5 -2v-135q0 -62 1 -124l2 -124q1 -63 5 -134q51 -8 102 -8t103 4q74 6 153.5 15.5t157.5 25t150.5 38t131.5 57.5q102 59 153.5 153t47.5 227t-40 223.5t-103 153.5q-74 70 -178 119l-215 102q-63 31 -139 51.5 t-145 33t-120 16.5t-63 2q-4 -31 -7.5 -71t-5.5 -85t-3 -89t-1 -83z" />
<glyph unicode="&#x414;" horiz-adv-x="1802" d="M-207 1053q-8 16 16.5 53t64.5 78t88 76.5t89 50.5q90 35 200.5 48t250.5 13q145 0 323.5 -30.5t352.5 -96.5q119 -45 229.5 -103.5t187.5 -137.5q74 -76 121 -179.5t47 -214.5q0 -174 -73.5 -294.5t-196.5 -192.5q-68 -41 -147.5 -68.5t-166.5 -44t-178.5 -23.5 t-183.5 -7q-100 0 -238.5 16t-269.5 53q-61 18 -116.5 39t-98.5 46.5t-67.5 56t-24.5 67.5q0 33 22.5 73t58.5 81t81 77.5t88 63.5q74 47 126 66.5t83 27.5q-2 70 -4 154t4 182q2 43 7 87l10 84l9 73q4 33 7 51q-10 4 -27.5 6t-34.5 2q-98 0 -196.5 -11t-192.5 -58 q-41 -20 -84 -56.5t-72 -75.5q-23 -33 -31 -57t-16 -20q-16 10 -26.5 19.5t-20.5 25.5zM88 262q0 -16 18.5 -32.5t48 -32t66.5 -30.5t76 -28q59 -20 112.5 -35.5t75.5 -13.5q0 35 -2 101.5t-6 139t-7 138.5t-5 100q-57 -16 -112.5 -41.5t-88.5 -48.5q-70 -49 -123 -102.5 t-53 -114.5zM608 946q0 -68 3 -135.5t10 -146.5q29 0 95 -1t158 -24q47 -12 96.5 -30.5t88.5 -41t62.5 -50.5t23.5 -58q0 -20 -17.5 -42t-40 -40.5t-44 -29.5t-33.5 -11q-8 0 -24.5 2t-16.5 18q0 20 7 36t16 26l18 19q8 9 8 22q0 10 -15.5 22.5t-38 24.5t-50 22.5 l-52.5 20.5q-33 12 -68.5 18t-68.5 9.5t-60.5 3.5t-43.5 -2v-135q0 -62 1 -124l2 -124q1 -63 5 -134q51 -8 102 -8t103 4q74 6 153.5 15.5t157.5 25t150.5 38t131.5 57.5q102 59 153.5 153t47.5 227t-40 223.5t-103 153.5q-74 70 -178 119l-215 102q-63 31 -139 51.5 t-145 33t-120 16.5t-63 2q-4 -31 -7.5 -71t-5.5 -85t-3 -89t-1 -83z" />
<glyph unicode="&#xc5;" horiz-adv-x="1409" d="M-66 1315q4 31 22.5 48t51.5 13q45 -4 79 -14t85 -10q2 18 2 48t6 58q6 35 20.5 59.5t37.5 26.5q37 2 53 -18.5t20 -51t2 -64.5t-2 -58q29 0 79 4t110 4q66 2 139.5 -1t146.5 -7q113 -8 211.5 -19.5t165.5 -21.5q59 -8 99.5 -22.5t40.5 -63.5q0 -29 -32 -43.5t-63 -14.5 q-23 0 -74 25t-122 37q-47 8 -107.5 13t-126 8t-130 5t-116.5 2q-76 2 -131 -6l-94 -14q4 -29 8 -70t4 -90v-75q0 -24 9 -52q45 -4 130 -9t169 -3h124q62 0 114.5 -8t85 -28.5t32.5 -57.5q0 -41 -40 -63.5t-83 -22.5q-16 0 -59 19.5t-96 25.5q-61 8 -149 8h-208 q-6 -55 -9 -131t-3 -135q0 -92 2 -159t5 -115t6 -80.5t7 -59.5q47 -14 147.5 -13t254.5 -3q76 -2 160 -4l165 -5q82 -2 157 -6t131 -10t90 -17.5t34 -27.5t-10 -28.5t-24.5 -20.5t-29 -12t-22.5 -4q-12 0 -37 5l-56 11q-32 6 -68 11t-72 5q-41 0 -82 1t-90.5 3t-107.5 3 t-134 1q-66 0 -133.5 1.5t-134.5 1.5h-130q-62 0 -118 -3q-35 -2 -74 -4t-74 -12q-29 -6 -49 -16.5t-37 -7.5q-18 2 -23 16t-5 41q0 16 20.5 32.5t51 30t65.5 24.5t63 19q0 33 1 80l2 96q1 49 1 94v70q0 43 -2 88l-4 86q-2 41 -4 75t-2 54q-27 18 -51.5 31.5t-26.5 46.5 t22.5 49.5t55.5 32.5q0 23 -1 64t-3 85t-3 85t-1 61q-16 4 -56 9t-80 12.5t-70 20t-28 32.5z" />
<glyph unicode="&#x415;" horiz-adv-x="1409" d="M-66 1315q4 31 22.5 48t51.5 13q45 -4 79 -14t85 -10q2 18 2 48t6 58q6 35 20.5 59.5t37.5 26.5q37 2 53 -18.5t20 -51t2 -64.5t-2 -58q29 0 79 4t110 4q66 2 139.5 -1t146.5 -7q113 -8 211.5 -19.5t165.5 -21.5q59 -8 99.5 -22.5t40.5 -63.5q0 -29 -32 -43.5t-63 -14.5 q-23 0 -74 25t-122 37q-47 8 -107.5 13t-126 8t-130 5t-116.5 2q-76 2 -131 -6l-94 -14q4 -29 8 -70t4 -90v-75q0 -24 9 -52q45 -4 130 -9t169 -3h124q62 0 114.5 -8t85 -28.5t32.5 -57.5q0 -41 -40 -63.5t-83 -22.5q-16 0 -59 19.5t-96 25.5q-61 8 -149 8h-208 q-6 -55 -9 -131t-3 -135q0 -92 2 -159t5 -115t6 -80.5t7 -59.5q47 -14 147.5 -13t254.5 -3q76 -2 160 -4l165 -5q82 -2 157 -6t131 -10t90 -17.5t34 -27.5t-10 -28.5t-24.5 -20.5t-29 -12t-22.5 -4q-12 0 -37 5l-56 11q-32 6 -68 11t-72 5q-41 0 -82 1t-90.5 3t-107.5 3 t-134 1q-66 0 -133.5 1.5t-134.5 1.5h-130q-62 0 -118 -3q-35 -2 -74 -4t-74 -12q-29 -6 -49 -16.5t-37 -7.5q-18 2 -23 16t-5 41q0 16 20.5 32.5t51 30t65.5 24.5t63 19q0 33 1 80l2 96q1 49 1 94v70q0 43 -2 88l-4 86q-2 41 -4 75t-2 54q-27 18 -51.5 31.5t-26.5 46.5 t22.5 49.5t55.5 32.5q0 23 -1 64t-3 85t-3 85t-1 61q-16 4 -56 9t-80 12.5t-70 20t-28 32.5z" />
<glyph unicode="&#xc6;" horiz-adv-x="1638" d="M-41 33q0 6 44 44l112 93l146 118l151 115l148 108q69 48 116 89q-33 25 -95 81l-155 140l-99 82l-86 72q-38 33 -60.5 56.5t-22.5 39.5q2 20 24.5 31.5t46.5 13.5q6 2 31 -15l64 -47l85 -68l95 -77l82 -65l70 -54q32 -24 53.5 -38.5t27.5 -16.5q-2 63 -4 172t-6 223 q-2 57 -4 98.5t-2 72t1 57t5 57.5q4 23 21.5 49.5t39.5 26.5q16 0 35 -33t21 -88q0 -29 1 -47t1 -38.5t1 -49.5t5 -76l4 -128q2 -65 5 -123t6 -107t10 -80q12 8 49 31l85 53l103 65l105 64l95 56l94 54l76 41q32 16 40 17q23 0 34 -22.5t11 -32.5q0 -16 -32 -42t-79 -55 l-102 -61l-103 -64l-178 -118q-86 -59 -133 -97q23 -20 62 -49l87 -64l102 -78l110 -85l159 -128q66 -50 104 -83t52 -51.5t6 -32.5q-12 -29 -27.5 -57.5t-37.5 -28.5q-12 0 -33 17l-59 50l-96 81q-58 48 -142 110l-97 72l-93 70l-82 63q-38 29 -62 45q-2 -37 -3 -87t-1 -99 v-86v-50q0 -70 -19.5 -103.5t-72.5 -33.5q-47 0 -55.5 43t-6.5 129q0 33 -1 75t-1 87v87q0 42 2 77q-63 -47 -134 -94.5t-138 -100.5l-116 -91l-144 -112l-127 -95q-55 -40 -66 -40q-18 4 -35.5 26t-17.5 40z" />
<glyph unicode="&#x416;" horiz-adv-x="1638" d="M-41 33q0 6 44 44l112 93l146 118l151 115l148 108q69 48 116 89q-33 25 -95 81l-155 140l-99 82l-86 72q-38 33 -60.5 56.5t-22.5 39.5q2 20 24.5 31.5t46.5 13.5q6 2 31 -15l64 -47l85 -68l95 -77l82 -65l70 -54q32 -24 53.5 -38.5t27.5 -16.5q-2 63 -4 172t-6 223 q-2 57 -4 98.5t-2 72t1 57t5 57.5q4 23 21.5 49.5t39.5 26.5q16 0 35 -33t21 -88q0 -29 1 -47t1 -38.5t1 -49.5t5 -76l4 -128q2 -65 5 -123t6 -107t10 -80q12 8 49 31l85 53l103 65l105 64l95 56l94 54l76 41q32 16 40 17q23 0 34 -22.5t11 -32.5q0 -16 -32 -42t-79 -55 l-102 -61l-103 -64l-178 -118q-86 -59 -133 -97q23 -20 62 -49l87 -64l102 -78l110 -85l159 -128q66 -50 104 -83t52 -51.5t6 -32.5q-12 -29 -27.5 -57.5t-37.5 -28.5q-12 0 -33 17l-59 50l-96 81q-58 48 -142 110l-97 72l-93 70l-82 63q-38 29 -62 45q-2 -37 -3 -87t-1 -99 v-86v-50q0 -70 -19.5 -103.5t-72.5 -33.5q-47 0 -55.5 43t-6.5 129q0 33 -1 75t-1 87v87q0 42 2 77q-63 -47 -134 -94.5t-138 -100.5l-116 -91l-144 -112l-127 -95q-55 -40 -66 -40q-18 4 -35.5 26t-17.5 40z" />
<glyph unicode="&#xc7;" horiz-adv-x="1089" d="M-39 -248q-8 53 12.5 134t71.5 161t133 141.5t197 73.5q14 2 61 -7t96.5 -31.5t87 -60.5t35.5 -93q-4 -49 -28.5 -93.5t-60.5 -78t-81 -54t-88 -22.5q-66 -2 -101.5 23.5t-31.5 60.5q2 16 7 35.5t13.5 37t21.5 29.5t30 12q14 -4 25.5 -10t15.5 -20q4 -16 -9.5 -25.5 t-7.5 -25.5q6 -12 18.5 -19.5t29.5 -1.5q18 2 44.5 16.5t49 35t38 43t11.5 40.5q-6 39 -28.5 60.5t-52.5 31t-60.5 11.5t-53.5 2q-39 2 -97 -31t-109.5 -89t-84 -129t-18.5 -153q10 -59 54 -90t99.5 -45t114 -13t97.5 7t93 25.5t110.5 54.5t111.5 84t96 110l43 74 q20 37 33.5 78t22 88t6.5 104q0 33 2 69t-2 73t-16.5 71.5t-39.5 65.5q-29 33 -64.5 58.5t-64.5 21.5q-18 -2 -43.5 -17.5l-52.5 -33.5l-48 -34q-22 -15 -30 -15q-37 -2 -56 23.5t-24 47.5q-4 18 18.5 36.5t57.5 38.5l74 41q39 22 66 46q29 23 37 52.5t22 58.5 q23 51 43 109.5t12 154.5q-4 51 -33.5 98t-72.5 81t-92.5 52.5t-88.5 16.5q-37 -2 -92 -26t-114 -79q-33 -29 -55.5 -59.5t-40.5 -57.5l-28 -45q-11 -18 -24 -24q-16 -10 -31.5 3t-15.5 21q0 10 9.5 34t27.5 55.5t45 66.5t61 68q78 70 135.5 98.5t118.5 38.5q55 8 120 -7.5 t122 -54.5t101 -98t59 -137q10 -68 0 -137.5t-30.5 -131t-48.5 -110.5t-50 -74q51 -18 88 -41.5t76 -64.5q68 -74 85 -154t17 -164q-2 -139 -51 -256.5t-111 -204.5q-55 -78 -117.5 -129t-125 -83.5t-121 -49t-103.5 -22.5q-84 -10 -163.5 -3t-145.5 34.5t-111 75.5t-57 122 z" />
<glyph unicode="&#x417;" horiz-adv-x="1089" d="M-39 -248q-8 53 12.5 134t71.5 161t133 141.5t197 73.5q14 2 61 -7t96.5 -31.5t87 -60.5t35.5 -93q-4 -49 -28.5 -93.5t-60.5 -78t-81 -54t-88 -22.5q-66 -2 -101.5 23.5t-31.5 60.5q2 16 7 35.5t13.5 37t21.5 29.5t30 12q14 -4 25.5 -10t15.5 -20q4 -16 -9.5 -25.5 t-7.5 -25.5q6 -12 18.5 -19.5t29.5 -1.5q18 2 44.5 16.5t49 35t38 43t11.5 40.5q-6 39 -28.5 60.5t-52.5 31t-60.5 11.5t-53.5 2q-39 2 -97 -31t-109.5 -89t-84 -129t-18.5 -153q10 -59 54 -90t99.5 -45t114 -13t97.5 7t93 25.5t110.5 54.5t111.5 84t96 110l43 74 q20 37 33.5 78t22 88t6.5 104q0 33 2 69t-2 73t-16.5 71.5t-39.5 65.5q-29 33 -64.5 58.5t-64.5 21.5q-18 -2 -43.5 -17.5l-52.5 -33.5l-48 -34q-22 -15 -30 -15q-37 -2 -56 23.5t-24 47.5q-4 18 18.5 36.5t57.5 38.5l74 41q39 22 66 46q29 23 37 52.5t22 58.5 q23 51 43 109.5t12 154.5q-4 51 -33.5 98t-72.5 81t-92.5 52.5t-88.5 16.5q-37 -2 -92 -26t-114 -79q-33 -29 -55.5 -59.5t-40.5 -57.5l-28 -45q-11 -18 -24 -24q-16 -10 -31.5 3t-15.5 21q0 10 9.5 34t27.5 55.5t45 66.5t61 68q78 70 135.5 98.5t118.5 38.5q55 8 120 -7.5 t122 -54.5t101 -98t59 -137q10 -68 0 -137.5t-30.5 -131t-48.5 -110.5t-50 -74q51 -18 88 -41.5t76 -64.5q68 -74 85 -154t17 -164q-2 -139 -51 -256.5t-111 -204.5q-55 -78 -117.5 -129t-125 -83.5t-121 -49t-103.5 -22.5q-84 -10 -163.5 -3t-145.5 34.5t-111 75.5t-57 122 z" />
<glyph unicode="&#xc8;" horiz-adv-x="1081" d="M4 682q0 141 26.5 270t67.5 226l29.5 82t33 81.5t37 60t44.5 21.5q16 -2 25 -15t9 -24q0 -12 -8 -38.5t-20 -59.5l-26 -71q-13 -38 -23 -72q-33 -115 -57.5 -238t-16.5 -223q2 -43 7 -97.5t17.5 -111.5t37 -112.5t67.5 -100.5q66 -72 144.5 -111.5t146.5 -39.5 q39 0 84 14t86 34.5t76.5 44t58.5 42.5q6 37 9 90t4 117.5t1 136.5v143q-2 117 -7 223.5t-11 169.5q-8 90 -20.5 162t-12.5 94q0 20 19.5 46t35.5 26t31.5 -30.5t30 -76t24 -93.5t13.5 -85q4 -39 8 -102.5t8 -134t6 -138t2 -116.5q0 -39 -1 -86l-2 -94q-1 -47 -2 -88t-1 -66 q35 16 58.5 32.5t50.5 14.5q39 -2 45 -39q4 -18 -13.5 -38.5t-44 -40t-55.5 -36t-47 -28.5q2 -33 1 -60.5t-1 -54.5q0 -113 -18.5 -169t-47.5 -56q-16 0 -28.5 10t-21.5 26.5t-15 36t-6 35.5q-2 29 -1 41.5t2 21.5t1 24.5t-6 50.5q-27 -12 -54.5 -32t-64.5 -38t-86 -30.5 t-117 -10.5q-90 2 -181 43t-177 125q-41 41 -71 103.5t-48.5 133t-26.5 142.5t-8 133z" />
<glyph unicode="&#x418;" horiz-adv-x="1081" d="M4 682q0 141 26.5 270t67.5 226l29.5 82t33 81.5t37 60t44.5 21.5q16 -2 25 -15t9 -24q0 -12 -8 -38.5t-20 -59.5l-26 -71q-13 -38 -23 -72q-33 -115 -57.5 -238t-16.5 -223q2 -43 7 -97.5t17.5 -111.5t37 -112.5t67.5 -100.5q66 -72 144.5 -111.5t146.5 -39.5 q39 0 84 14t86 34.5t76.5 44t58.5 42.5q6 37 9 90t4 117.5t1 136.5v143q-2 117 -7 223.5t-11 169.5q-8 90 -20.5 162t-12.5 94q0 20 19.5 46t35.5 26t31.5 -30.5t30 -76t24 -93.5t13.5 -85q4 -39 8 -102.5t8 -134t6 -138t2 -116.5q0 -39 -1 -86l-2 -94q-1 -47 -2 -88t-1 -66 q35 16 58.5 32.5t50.5 14.5q39 -2 45 -39q4 -18 -13.5 -38.5t-44 -40t-55.5 -36t-47 -28.5q2 -33 1 -60.5t-1 -54.5q0 -113 -18.5 -169t-47.5 -56q-16 0 -28.5 10t-21.5 26.5t-15 36t-6 35.5q-2 29 -1 41.5t2 21.5t1 24.5t-6 50.5q-27 -12 -54.5 -32t-64.5 -38t-86 -30.5 t-117 -10.5q-90 2 -181 43t-177 125q-41 41 -71 103.5t-48.5 133t-26.5 142.5t-8 133z" />
<glyph unicode="&#xc9;" horiz-adv-x="1021" d="M4 682q0 141 26.5 270t67.5 226l29.5 82t33 81.5t37 60t44.5 21.5q16 -2 25 -15t9 -24q0 -12 -8 -38.5t-20 -59.5l-26 -71q-13 -38 -23 -72q-33 -115 -57.5 -238t-16.5 -223q2 -43 7 -97.5t17.5 -111.5t37 -112.5t67.5 -100.5q66 -72 144.5 -111.5t146.5 -39.5 q39 0 84 14t86 34.5t76.5 44t58.5 42.5q6 37 9 90t4 117.5t1 136.5v143q-2 117 -7 223.5t-11 169.5q-8 90 -20.5 162t-12.5 94q0 20 19.5 46t35.5 26t31.5 -30.5t30 -76t24 -93.5t13.5 -85q4 -39 8 -102.5t8 -134t6 -138t2 -116.5q0 -39 -1 -86l-2 -94q-1 -47 -2 -88t-1 -66 q35 16 58.5 32.5t50.5 14.5q39 -2 45 -39q4 -18 -13.5 -38.5t-44 -40t-55.5 -36t-47 -28.5q2 -33 1 -60.5t-1 -54.5q0 -113 -18.5 -169t-47.5 -56q-16 0 -28.5 10t-21.5 26.5t-15 36t-6 35.5q-2 29 -1 41.5t2 21.5t1 24.5t-6 50.5q-27 -12 -54.5 -32t-64.5 -38t-86 -30.5 t-117 -10.5q-90 2 -181 43t-177 125q-41 41 -71 103.5t-48.5 133t-26.5 142.5t-8 133zM200.5 2071.5q-14.5 35.5 4.5 68.5q18 31 42.5 47.5t52.5 20.5t54.5 -1t46.5 -20q18 -12 34 -25.5t30 -29.5q10 23 24.5 46.5t28.5 35.5q23 27 52.5 42t54.5 -7q10 -10 12 -32t2 -50.5 t1 -58t7 -54.5q35 0 59.5 4t45 5t39 -2t40.5 -15q37 -18 53.5 -55t-7.5 -78q-29 -47 -67 -70.5t-93 -46.5q23 -4 54.5 -14t68.5 -20.5t74.5 -17.5t72.5 -7q51 2 105.5 14t99.5 35.5t73.5 58.5t28.5 84q0 41 -11 64.5t-30 58.5q-16 29 -40.5 49.5t-28.5 36.5q-2 10 8 16.5 t18 6.5q16 0 41 -23.5t45 -50.5q29 -37 43.5 -71t18.5 -81q4 -53 -25.5 -101t-82 -85t-121 -58.5t-142.5 -23.5q-41 0 -86 6t-88 16.5t-80 21.5t-61 20q4 -23 5 -40.5t1 -33.5q-4 -31 -17.5 -60.5t-42.5 -83.5q-18 -33 -35.5 -45t-33.5 -14q-8 0 -20.5 14.5t-24.5 35 t-22.5 42t-14.5 33.5q-6 20 -10 47t-6 45l-94 -36q-42 -15 -78 3q-35 16 -46.5 59.5t0.5 84.5q8 20 28 36.5t41.5 28t38.5 18.5t21 9q-20 25 -54 57.5t-63.5 68.5t-44 71.5zM276 2107q-6 -12 7.5 -33.5t37 -45t49.5 -46.5l44 -38l32 41q-10 35 -29.5 71.5t-66.5 65.5 q-16 10 -40 5.5t-34 -20.5zM301 1733q-4 -6 12 -21q12 -6 32 2t41.5 22.5t39.5 29t29 20.5q-4 18 -9.5 30.5t-21.5 16.5q-35 -20 -74 -48.5t-49 -51.5zM522 1700q2 -6 5 -23.5l6.5 -37t8.5 -37t11 -23.5q4 -2 7 2t7 8q8 8 12.5 26.5t4.5 38t-4.5 40t-12.5 32.5 q-12 -8 -23.5 -12t-21.5 -14zM526 2058q10 -14 33 -10q4 12 13.5 31.5t-7.5 29.5q-6 4 -13 -1t-12 -14t-9.5 -19.5t-4.5 -16.5zM612 1946q4 -10 3 -26.5t3 -29.5q16 2 44 6.5t55.5 12.5t51.5 17t34 20q4 10 3 22t-11 14q-23 6 -49.5 5.5t-52 -6t-47.5 -14.5t-34 -21z" />
<glyph unicode="&#x419;" horiz-adv-x="1021" d="M4 682q0 141 26.5 270t67.5 226l29.5 82t33 81.5t37 60t44.5 21.5q16 -2 25 -15t9 -24q0 -12 -8 -38.5t-20 -59.5l-26 -71q-13 -38 -23 -72q-33 -115 -57.5 -238t-16.5 -223q2 -43 7 -97.5t17.5 -111.5t37 -112.5t67.5 -100.5q66 -72 144.5 -111.5t146.5 -39.5 q39 0 84 14t86 34.5t76.5 44t58.5 42.5q6 37 9 90t4 117.5t1 136.5v143q-2 117 -7 223.5t-11 169.5q-8 90 -20.5 162t-12.5 94q0 20 19.5 46t35.5 26t31.5 -30.5t30 -76t24 -93.5t13.5 -85q4 -39 8 -102.5t8 -134t6 -138t2 -116.5q0 -39 -1 -86l-2 -94q-1 -47 -2 -88t-1 -66 q35 16 58.5 32.5t50.5 14.5q39 -2 45 -39q4 -18 -13.5 -38.5t-44 -40t-55.5 -36t-47 -28.5q2 -33 1 -60.5t-1 -54.5q0 -113 -18.5 -169t-47.5 -56q-16 0 -28.5 10t-21.5 26.5t-15 36t-6 35.5q-2 29 -1 41.5t2 21.5t1 24.5t-6 50.5q-27 -12 -54.5 -32t-64.5 -38t-86 -30.5 t-117 -10.5q-90 2 -181 43t-177 125q-41 41 -71 103.5t-48.5 133t-26.5 142.5t-8 133zM200.5 2071.5q-14.5 35.5 4.5 68.5q18 31 42.5 47.5t52.5 20.5t54.5 -1t46.5 -20q18 -12 34 -25.5t30 -29.5q10 23 24.5 46.5t28.5 35.5q23 27 52.5 42t54.5 -7q10 -10 12 -32t2 -50.5 t1 -58t7 -54.5q35 0 59.5 4t45 5t39 -2t40.5 -15q37 -18 53.5 -55t-7.5 -78q-29 -47 -67 -70.5t-93 -46.5q23 -4 54.5 -14t68.5 -20.5t74.5 -17.5t72.5 -7q51 2 105.5 14t99.5 35.5t73.5 58.5t28.5 84q0 41 -11 64.5t-30 58.5q-16 29 -40.5 49.5t-28.5 36.5q-2 10 8 16.5 t18 6.5q16 0 41 -23.5t45 -50.5q29 -37 43.5 -71t18.5 -81q4 -53 -25.5 -101t-82 -85t-121 -58.5t-142.5 -23.5q-41 0 -86 6t-88 16.5t-80 21.5t-61 20q4 -23 5 -40.5t1 -33.5q-4 -31 -17.5 -60.5t-42.5 -83.5q-18 -33 -35.5 -45t-33.5 -14q-8 0 -20.5 14.5t-24.5 35 t-22.5 42t-14.5 33.5q-6 20 -10 47t-6 45l-94 -36q-42 -15 -78 3q-35 16 -46.5 59.5t0.5 84.5q8 20 28 36.5t41.5 28t38.5 18.5t21 9q-20 25 -54 57.5t-63.5 68.5t-44 71.5zM276 2107q-6 -12 7.5 -33.5t37 -45t49.5 -46.5l44 -38l32 41q-10 35 -29.5 71.5t-66.5 65.5 q-16 10 -40 5.5t-34 -20.5zM301 1733q-4 -6 12 -21q12 -6 32 2t41.5 22.5t39.5 29t29 20.5q-4 18 -9.5 30.5t-21.5 16.5q-35 -20 -74 -48.5t-49 -51.5zM522 1700q2 -6 5 -23.5l6.5 -37t8.5 -37t11 -23.5q4 -2 7 2t7 8q8 8 12.5 26.5t4.5 38t-4.5 40t-12.5 32.5 q-12 -8 -23.5 -12t-21.5 -14zM526 2058q10 -14 33 -10q4 12 13.5 31.5t-7.5 29.5q-6 4 -13 -1t-12 -14t-9.5 -19.5t-4.5 -16.5zM612 1946q4 -10 3 -26.5t3 -29.5q16 2 44 6.5t55.5 12.5t51.5 17t34 20q4 10 3 22t-11 14q-23 6 -49.5 5.5t-52 -6t-47.5 -14.5t-34 -21z" />
<glyph unicode="&#xca;" horiz-adv-x="1392" d="M-16 700q0 25 18 43.5t43 31.5t51.5 22.5t42.5 13.5q4 12 0 42t4 60q10 33 24.5 63t29.5 52q10 47 9 85t-1 91q0 41 -4 77t0 67q4 18 14 35.5t27 17.5q29 0 47 -20.5t28.5 -53.5t15.5 -74t7 -82q2 -66 -4 -135t-4 -110q16 -12 20 -18.5t21 -14.5l71 46l79 48l101 60 l134 79l95 60l110 67l94 58q41 25 49 24q18 2 32.5 -18.5t12.5 -30.5t-28.5 -30.5t-70.5 -50t-102 -64.5l-119 -72l-104 -63l-103 -66l-98 -63l-84 -54q14 -10 52 -32l89 -57l115 -78l133 -95l174 -136l158 -134l81 -70q38 -33 66.5 -61.5t45 -49t16.5 -32.5 q0 -29 -16.5 -61.5t-44.5 -32.5q-18 0 -36 12t-41 36l-58 58l-86 82q-61 55 -155.5 129t-229.5 166l-163 107l-198 122q-2 -14 -4 -52t-4 -88t-2 -105.5t2 -102.5t3 -81t1 -59v-44v-37q0 -23 -5 -47.5t-17.5 -45t-31 -33.5t-44.5 -13q-25 0 -41.5 21.5t-26.5 56t-14 77.5 t-4 86v246q0 45 -6.5 72.5t-10.5 54.5q-16 6 -41.5 8t-51.5 9.5t-44 24.5t-18 56z" />
<glyph unicode="&#x41a;" horiz-adv-x="1392" d="M-16 700q0 25 18 43.5t43 31.5t51.5 22.5t42.5 13.5q4 12 0 42t4 60q10 33 24.5 63t29.5 52q10 47 9 85t-1 91q0 41 -4 77t0 67q4 18 14 35.5t27 17.5q29 0 47 -20.5t28.5 -53.5t15.5 -74t7 -82q2 -66 -4 -135t-4 -110q16 -12 20 -18.5t21 -14.5l71 46l79 48l101 60 l134 79l95 60l110 67l94 58q41 25 49 24q18 2 32.5 -18.5t12.5 -30.5t-28.5 -30.5t-70.5 -50t-102 -64.5l-119 -72l-104 -63l-103 -66l-98 -63l-84 -54q14 -10 52 -32l89 -57l115 -78l133 -95l174 -136l158 -134l81 -70q38 -33 66.5 -61.5t45 -49t16.5 -32.5 q0 -29 -16.5 -61.5t-44.5 -32.5q-18 0 -36 12t-41 36l-58 58l-86 82q-61 55 -155.5 129t-229.5 166l-163 107l-198 122q-2 -14 -4 -52t-4 -88t-2 -105.5t2 -102.5t3 -81t1 -59v-44v-37q0 -23 -5 -47.5t-17.5 -45t-31 -33.5t-44.5 -13q-25 0 -41.5 21.5t-26.5 56t-14 77.5 t-4 86v246q0 45 -6.5 72.5t-10.5 54.5q-16 6 -41.5 8t-51.5 9.5t-44 24.5t-18 56z" />
<glyph unicode="&#xcb;" horiz-adv-x="1251" d="M-10 29q0 6 14 25.5t35 43.5l43 54q23 29 39 53l82 135t57.5 109.5t46.5 105.5l55 125l74 165l68 162q31 77 51 137t25 89q4 31 1 52.5t7 53.5q16 53 47 74t80 21q20 0 46.5 -59.5t67.5 -162.5l45 -112l50 -120l49 -119l45 -107l83 -206l80 -208t59.5 -172t23.5 -98 q0 -29 -20.5 -46.5t-49.5 -19.5q-12 0 -29.5 22.5t-36.5 61.5l-39 87q-22 48 -42 99q-35 84 -71 159t-65 153l-68 172q-34 82 -66 151l-57 123l-42 86q-18 -29 -36 -67l-43 -96l-60 -133l-86 -183l-120 -243q-67 -132 -147 -265q-14 -23 -33.5 -50.5t-40 -51t-39 -39 t-30.5 -15.5q-23 0 -38 15.5t-15 38.5z" />
<glyph unicode="&#x41b;" horiz-adv-x="1251" d="M-10 29q0 6 14 25.5t35 43.5l43 54q23 29 39 53l82 135t57.5 109.5t46.5 105.5l55 125l74 165l68 162q31 77 51 137t25 89q4 31 1 52.5t7 53.5q16 53 47 74t80 21q20 0 46.5 -59.5t67.5 -162.5l45 -112l50 -120l49 -119l45 -107l83 -206l80 -208t59.5 -172t23.5 -98 q0 -29 -20.5 -46.5t-49.5 -19.5q-12 0 -29.5 22.5t-36.5 61.5l-39 87q-22 48 -42 99q-35 84 -71 159t-65 153l-68 172q-34 82 -66 151l-57 123l-42 86q-18 -29 -36 -67l-43 -96l-60 -133l-86 -183l-120 -243q-67 -132 -147 -265q-14 -23 -33.5 -50.5t-40 -51t-39 -39 t-30.5 -15.5q-23 0 -38 15.5t-15 38.5z" />
<glyph unicode="&#xcc;" horiz-adv-x="1273" d="M37 115v91q0 67 1 156t2 190t1 193v582q0 29 16.5 54.5t44.5 27.5q20 2 36 -9t29 -33l30 -49q16 -28 41 -61q41 -53 91 -106t97 -119l125 -168l84 -114l52 56l70 74l79 86l82 95q53 63 116.5 131t112.5 127q20 25 34.5 45t23.5 34.5t17.5 23t18.5 8.5q16 0 29.5 -11.5 t11.5 -29.5q-2 -14 -7 -40t-13.5 -60t-15.5 -70.5t-13 -71.5q-14 -86 -20.5 -159t-9.5 -141.5t-3 -138.5v-151q-2 -127 7.5 -234.5t9.5 -199.5q0 -37 2 -68.5t-1.5 -54.5t-12.5 -36t-29 -13q-27 -2 -52.5 11t-25.5 38q0 20 5 45t3 78q-4 106 -14.5 206.5t-10.5 227.5 q0 82 2 166t6.5 159.5t11.5 138t17 105.5q-55 -41 -95 -84l-85 -96q-29 -35 -47 -55l-41 -44l-58 -60l-100 -103q-2 -8 3 -33.5t1 -52.5q-4 -20 -29.5 -34.5t-39.5 -14.5q-84 -2 -107 49q-12 25 -8 66q-31 45 -54.5 75.5l-44.5 55.5l-43 50l-51 60l-53 64l-53 65l-57 72 q-2 -35 -4 -85t-3.5 -105.5t-1.5 -111.5v-104q0 -197 2.5 -324.5t6.5 -174.5q2 -18 4 -41t-1 -41.5t-11.5 -32.5t-28.5 -16q-29 -4 -54.5 6t-27.5 39z" />
<glyph unicode="&#x41c;" horiz-adv-x="1273" d="M37 115v91q0 67 1 156t2 190t1 193v582q0 29 16.5 54.5t44.5 27.5q20 2 36 -9t29 -33l30 -49q16 -28 41 -61q41 -53 91 -106t97 -119l125 -168l84 -114l52 56l70 74l79 86l82 95q53 63 116.5 131t112.5 127q20 25 34.5 45t23.5 34.5t17.5 23t18.5 8.5q16 0 29.5 -11.5 t11.5 -29.5q-2 -14 -7 -40t-13.5 -60t-15.5 -70.5t-13 -71.5q-14 -86 -20.5 -159t-9.5 -141.5t-3 -138.5v-151q-2 -127 7.5 -234.5t9.5 -199.5q0 -37 2 -68.5t-1.5 -54.5t-12.5 -36t-29 -13q-27 -2 -52.5 11t-25.5 38q0 20 5 45t3 78q-4 106 -14.5 206.5t-10.5 227.5 q0 82 2 166t6.5 159.5t11.5 138t17 105.5q-55 -41 -95 -84l-85 -96q-29 -35 -47 -55l-41 -44l-58 -60l-100 -103q-2 -8 3 -33.5t1 -52.5q-4 -20 -29.5 -34.5t-39.5 -14.5q-84 -2 -107 49q-12 25 -8 66q-31 45 -54.5 75.5l-44.5 55.5l-43 50l-51 60l-53 64l-53 65l-57 72 q-2 -35 -4 -85t-3.5 -105.5t-1.5 -111.5v-104q0 -197 2.5 -324.5t6.5 -174.5q2 -18 4 -41t-1 -41.5t-11.5 -32.5t-28.5 -16q-29 -4 -54.5 6t-27.5 39z" />
<glyph unicode="&#xcd;" horiz-adv-x="1318" d="M-115 881q0 25 26 42t65.5 29.5t86.5 21.5l89 17q47 10 83.5 10t79.5 3v34q0 23 1 49l2 53q1 26 1 48q0 27 5.5 63.5t14.5 70.5t21.5 57.5t28.5 21.5q20 -2 36.5 -13.5t20.5 -31.5q8 -41 3 -77t-7 -108q-2 -57 4 -104l9 -63q35 -6 97 -3t140 3q59 0 92 -1.5t72 9.5 q4 25 6 77t-2 111q-4 47 -8 87t-4 81q0 23 13 48.5t36 25.5q27 0 45.5 -20.5t29.5 -52.5t17 -73t10 -84q8 -72 9 -132v-76q10 -4 30.5 -5.5t46.5 -2.5l56 -2q29 -1 55 -3q43 -4 83 -25.5t36 -64.5q-4 -33 -24.5 -56.5t-53.5 -21.5q-16 0 -26.5 4t-18.5 10l-16 10q-8 5 -21 9 q-41 10 -78 8t-65 0q-2 -29 -3 -72.5t-1 -98t1 -114t3 -116.5q2 -55 5 -116.5t6 -116t6 -94.5t3 -54q2 -35 -10 -64.5t-59 -29.5q-55 0 -67.5 36.5t-14.5 81.5q0 27 -1 68t-2 91l-2 105q-1 54 -4 109q-4 115 -7 217l-5 172q-31 4 -87 6.5t-119 2.5h-117h-82q0 -23 -1 -60 l-2 -77q-1 -40 -1 -74v-52q2 -66 4 -148.5t3 -159.5t2 -136t3 -76q2 -25 -20.5 -38t-47.5 -13q-27 0 -48 13.5t-23 37.5q-2 20 -2 71.5t1 117t1 139.5v143q-2 90 -3.5 164t-3.5 139q-41 8 -80.5 8.5t-89.5 -4.5q-33 -2 -65.5 -9t-61.5 -14l-53 -13q-25 -6 -43 -7 q-16 0 -27.5 21t-11.5 31z" />
<glyph unicode="&#x41d;" horiz-adv-x="1318" d="M-115 881q0 25 26 42t65.5 29.5t86.5 21.5l89 17q47 10 83.5 10t79.5 3v34q0 23 1 49l2 53q1 26 1 48q0 27 5.5 63.5t14.5 70.5t21.5 57.5t28.5 21.5q20 -2 36.5 -13.5t20.5 -31.5q8 -41 3 -77t-7 -108q-2 -57 4 -104l9 -63q35 -6 97 -3t140 3q59 0 92 -1.5t72 9.5 q4 25 6 77t-2 111q-4 47 -8 87t-4 81q0 23 13 48.5t36 25.5q27 0 45.5 -20.5t29.5 -52.5t17 -73t10 -84q8 -72 9 -132v-76q10 -4 30.5 -5.5t46.5 -2.5l56 -2q29 -1 55 -3q43 -4 83 -25.5t36 -64.5q-4 -33 -24.5 -56.5t-53.5 -21.5q-16 0 -26.5 4t-18.5 10l-16 10q-8 5 -21 9 q-41 10 -78 8t-65 0q-2 -29 -3 -72.5t-1 -98t1 -114t3 -116.5q2 -55 5 -116.5t6 -116t6 -94.5t3 -54q2 -35 -10 -64.5t-59 -29.5q-55 0 -67.5 36.5t-14.5 81.5q0 27 -1 68t-2 91l-2 105q-1 54 -4 109q-4 115 -7 217l-5 172q-31 4 -87 6.5t-119 2.5h-117h-82q0 -23 -1 -60 l-2 -77q-1 -40 -1 -74v-52q2 -66 4 -148.5t3 -159.5t2 -136t3 -76q2 -25 -20.5 -38t-47.5 -13q-27 0 -48 13.5t-23 37.5q-2 20 -2 71.5t1 117t1 139.5v143q-2 90 -3.5 164t-3.5 139q-41 8 -80.5 8.5t-89.5 -4.5q-33 -2 -65.5 -9t-61.5 -14l-53 -13q-25 -6 -43 -7 q-16 0 -27.5 21t-11.5 31z" />
<glyph unicode="&#xce;" horiz-adv-x="1259" d="M0 559q0 104 28.5 200.5t75 178.5t106.5 148.5t122 113.5q49 37 98 58.5t90 35.5q20 18 53 36t66 33t62.5 24.5t48.5 9.5q82 0 169 -45t158.5 -121t117.5 -173t46 -202q0 -80 -16.5 -159t-46 -152.5t-69.5 -140t-85 -121.5q-117 -141 -253 -216t-247 -75q-109 0 -204 47 t-165.5 126t-112.5 181t-42 213zM96 580q0 -25 6.5 -61t19.5 -78t34.5 -85t52.5 -82q53 -66 130 -108.5t173 -42.5q39 0 90 14.5t107.5 45t115 75.5t109.5 107q82 94 138 217t54 282q-2 98 -38.5 176t-92 131.5t-121 82t-124.5 28.5q-66 0 -130.5 -41t-111.5 -106 q-23 -31 -37 -72t-23.5 -86t-13.5 -89t-4 -81q0 -16 5 -36.5t18.5 -39t35 -30t52.5 -9.5q45 2 85 25.5t67.5 54.5t39.5 59.5t4 45.5l-32.5 -35t-32.5 -15q-41 0 -65.5 21.5t-24.5 69.5q0 25 15 45t37.5 35.5t47.5 24.5t43 9q78 0 103.5 -35.5t27.5 -95.5q2 -63 -25.5 -120.5 t-75.5 -101.5t-109.5 -69.5t-127.5 -25.5q-78 0 -130 52t-52 167q0 33 2 75t9 87t20.5 88t33.5 77q-25 -10 -54.5 -35.5t-59 -59.5t-58 -74.5t-53.5 -83.5q-39 -74 -59.5 -154t-20.5 -143z" />
<glyph unicode="&#x41e;" horiz-adv-x="1259" d="M0 559q0 104 28.5 200.5t75 178.5t106.5 148.5t122 113.5q49 37 98 58.5t90 35.5q20 18 53 36t66 33t62.5 24.5t48.5 9.5q82 0 169 -45t158.5 -121t117.5 -173t46 -202q0 -80 -16.5 -159t-46 -152.5t-69.5 -140t-85 -121.5q-117 -141 -253 -216t-247 -75q-109 0 -204 47 t-165.5 126t-112.5 181t-42 213zM96 580q0 -25 6.5 -61t19.5 -78t34.5 -85t52.5 -82q53 -66 130 -108.5t173 -42.5q39 0 90 14.5t107.5 45t115 75.5t109.5 107q82 94 138 217t54 282q-2 98 -38.5 176t-92 131.5t-121 82t-124.5 28.5q-66 0 -130.5 -41t-111.5 -106 q-23 -31 -37 -72t-23.5 -86t-13.5 -89t-4 -81q0 -16 5 -36.5t18.5 -39t35 -30t52.5 -9.5q45 2 85 25.5t67.5 54.5t39.5 59.5t4 45.5l-32.5 -35t-32.5 -15q-41 0 -65.5 21.5t-24.5 69.5q0 25 15 45t37.5 35.5t47.5 24.5t43 9q78 0 103.5 -35.5t27.5 -95.5q2 -63 -25.5 -120.5 t-75.5 -101.5t-109.5 -69.5t-127.5 -25.5q-78 0 -130 52t-52 167q0 33 2 75t9 87t20.5 88t33.5 77q-25 -10 -54.5 -35.5t-59 -59.5t-58 -74.5t-53.5 -83.5q-39 -74 -59.5 -154t-20.5 -143z" />
<glyph unicode="&#xcf;" horiz-adv-x="1318" d="M-78 1237q0 25 23.5 40t60.5 26.5t80 19.5t80 16q27 6 46 9.5t39.5 4.5t44 2t56.5 5q2 41 17.5 71.5t50.5 30.5q23 0 41 -13t24 -30q6 -16 7.5 -26.5t-0.5 -32.5q35 -8 97 -4t140 4q59 0 96 2t72 2q-2 16 -11 31.5t-7 34.5q2 27 12 49t37 24q20 0 38.5 -14t32 -35.5 t24.5 -47.5t21 -46q45 -6 90.5 -7t98.5 -5q43 -4 83 -26t36 -65q-4 -33 -24.5 -56t-53.5 -21q-16 0 -26.5 4t-18.5 9l-17 10q-8 5 -20 9q-41 10 -78 8.5t-65 0.5q-2 -29 -4.5 -110t-3.5 -189.5t-1 -229.5t2 -229q0 -55 3.5 -116.5t7.5 -116.5l7 -94q3 -40 3 -54 q2 -35 -10.5 -64.5t-59.5 -29.5q-55 0 -67.5 36.5t-14.5 81.5q0 27 -2 67t-5 87t-5 100.5t-2 106.5q0 92 2 210t5 230.5t4 205.5t-5 134q-31 4 -88 8.5t-120.5 6.5t-120 3t-82.5 1q0 -23 -1.5 -88.5t-2.5 -151.5t-2 -183.5t-1 -178.5q0 -84 1 -176.5t2 -174.5t2.5 -142 t3.5 -77q2 -25 -20.5 -38t-47.5 -13q-27 0 -48.5 13.5t-23.5 37.5q-2 20 -2 72v117q0 66 1 139.5t1 142.5v203v201v168v106q-41 8 -81 8t-89 -4q-66 -4 -123 -23.5t-92 -19.5q-16 0 -31.5 11.5t-15.5 21.5z" />
<glyph unicode="&#x41f;" horiz-adv-x="1318" d="M-78 1237q0 25 23.5 40t60.5 26.5t80 19.5t80 16q27 6 46 9.5t39.5 4.5t44 2t56.5 5q2 41 17.5 71.5t50.5 30.5q23 0 41 -13t24 -30q6 -16 7.5 -26.5t-0.5 -32.5q35 -8 97 -4t140 4q59 0 96 2t72 2q-2 16 -11 31.5t-7 34.5q2 27 12 49t37 24q20 0 38.5 -14t32 -35.5 t24.5 -47.5t21 -46q45 -6 90.5 -7t98.5 -5q43 -4 83 -26t36 -65q-4 -33 -24.5 -56t-53.5 -21q-16 0 -26.5 4t-18.5 9l-17 10q-8 5 -20 9q-41 10 -78 8.5t-65 0.5q-2 -29 -4.5 -110t-3.5 -189.5t-1 -229.5t2 -229q0 -55 3.5 -116.5t7.5 -116.5l7 -94q3 -40 3 -54 q2 -35 -10.5 -64.5t-59.5 -29.5q-55 0 -67.5 36.5t-14.5 81.5q0 27 -2 67t-5 87t-5 100.5t-2 106.5q0 92 2 210t5 230.5t4 205.5t-5 134q-31 4 -88 8.5t-120.5 6.5t-120 3t-82.5 1q0 -23 -1.5 -88.5t-2.5 -151.5t-2 -183.5t-1 -178.5q0 -84 1 -176.5t2 -174.5t2.5 -142 t3.5 -77q2 -25 -20.5 -38t-47.5 -13q-27 0 -48.5 13.5t-23.5 37.5q-2 20 -2 72v117q0 66 1 139.5t1 142.5v203v201v168v106q-41 8 -81 8t-89 -4q-66 -4 -123 -23.5t-92 -19.5q-16 0 -31.5 11.5t-15.5 21.5z" />
<glyph unicode="&#xd0;" horiz-adv-x="1531" d="M-78 1135q0 29 60.5 72.5t160.5 78.5q57 20 126 37.5t139.5 30t140 18.5t131.5 4q88 -2 202.5 -10t280.5 -51q72 -18 140.5 -47t122 -66t86 -83t32.5 -99q0 -61 -27.5 -118.5t-75.5 -108t-113.5 -93.5t-139.5 -77q-109 -49 -227.5 -78t-227.5 -33q-47 -2 -77.5 -5 t-77.5 1q-2 -16 -4.5 -45t-4.5 -63l-4 -69q-2 -36 -4 -65q-2 -39 -6 -84t-14.5 -85t-27.5 -68.5t-46 -32.5q-23 -4 -44.5 12.5t-25.5 40.5q-4 31 2.5 99.5t6.5 138.5q0 59 1 104t-6 101q-29 2 -74.5 9t-89.5 25.5t-77 52t-33 93.5q0 53 29.5 90t71.5 62.5t85 41t72 27.5 q4 31 9 90t7 119v56q0 28 -2 48q-2 23 -2 45l-116 -12q-57 -6 -134 -43q-29 -14 -56.5 -35.5t-50.5 -42.5l-41 -35q-17 -14 -24 -14q-25 0 -39 19.5t-14 46.5zM213 668q-2 -14 5 -23.5t19.5 -14.5t27 -9.5t26.5 -10.5q29 -10 49 -12t49 0q6 43 3 96.5t-7 91.5 q-68 -4 -118 -38.5t-54 -79.5zM537 922q70 -16 94 -49t28 -62q4 -33 -11 -45t-38 -16q-20 -4 -36 8l-25 20q0 -16 2 -40.5t5 -50t5 -48.5t4 -33q27 -8 56.5 -9t54.5 -3q33 -2 83 3t107.5 17.5t120 32t119.5 45.5q68 31 128 69t106 78t74 76.5t28 63.5q0 45 -28 82t-72 67.5 t-101 53t-115 39.5q-66 18 -131 29.5t-121.5 18.5t-99.5 10t-61 3q-63 0 -98 -6t-70 -14q-2 -31 -2 -64q0 -29 -1 -59.5t-1 -57.5q-2 -23 -2 -50v-52q0 -28 -2 -57z" />
<glyph unicode="&#x420;" horiz-adv-x="1531" d="M-78 1135q0 29 60.5 72.5t160.5 78.5q57 20 126 37.5t139.5 30t140 18.5t131.5 4q88 -2 202.5 -10t280.5 -51q72 -18 140.5 -47t122 -66t86 -83t32.5 -99q0 -61 -27.5 -118.5t-75.5 -108t-113.5 -93.5t-139.5 -77q-109 -49 -227.5 -78t-227.5 -33q-47 -2 -77.5 -5 t-77.5 1q-2 -16 -4.5 -45t-4.5 -63l-4 -69q-2 -36 -4 -65q-2 -39 -6 -84t-14.5 -85t-27.5 -68.5t-46 -32.5q-23 -4 -44.5 12.5t-25.5 40.5q-4 31 2.5 99.5t6.5 138.5q0 59 1 104t-6 101q-29 2 -74.5 9t-89.5 25.5t-77 52t-33 93.5q0 53 29.5 90t71.5 62.5t85 41t72 27.5 q4 31 9 90t7 119v56q0 28 -2 48q-2 23 -2 45l-116 -12q-57 -6 -134 -43q-29 -14 -56.5 -35.5t-50.5 -42.5l-41 -35q-17 -14 -24 -14q-25 0 -39 19.5t-14 46.5zM213 668q-2 -14 5 -23.5t19.5 -14.5t27 -9.5t26.5 -10.5q29 -10 49 -12t49 0q6 43 3 96.5t-7 91.5 q-68 -4 -118 -38.5t-54 -79.5zM537 922q70 -16 94 -49t28 -62q4 -33 -11 -45t-38 -16q-20 -4 -36 8l-25 20q0 -16 2 -40.5t5 -50t5 -48.5t4 -33q27 -8 56.5 -9t54.5 -3q33 -2 83 3t107.5 17.5t120 32t119.5 45.5q68 31 128 69t106 78t74 76.5t28 63.5q0 45 -28 82t-72 67.5 t-101 53t-115 39.5q-66 18 -131 29.5t-121.5 18.5t-99.5 10t-61 3q-63 0 -98 -6t-70 -14q-2 -31 -2 -64q0 -29 -1 -59.5t-1 -57.5q-2 -23 -2 -50v-52q0 -28 -2 -57z" />
<glyph unicode="&#xd1;" horiz-adv-x="1347" d="M-6 614q0 61 21.5 139t64.5 159t107.5 157t152.5 135q96 63 223 111.5t285 48.5q33 0 75 -7t85 -17.5l81 -20.5l62 -16q4 18 2 40.5t2 49.5q2 16 14.5 28.5t30.5 16.5q29 6 46.5 -19.5t21.5 -54.5q2 -23 -1 -68l-6.5 -96t-4.5 -101t6 -87q2 -14 8 -24l11 -16 q5 -7 9 -16.5t4 -21.5t-13 -25.5t-28.5 -25t-31 -18.5t-19.5 -7q-29 0 -46 13.5t-26.5 36t-12.5 52t-3 60.5q-2 63 8.5 104t7.5 72q-18 8 -53 20.5t-81 22.5t-98 18.5t-103 8.5q-37 0 -88.5 -9.5t-108.5 -28t-116.5 -48t-112.5 -70.5q-59 -45 -107.5 -101.5t-84.5 -117 t-55.5 -121.5t-19.5 -119q0 -31 7.5 -82t29 -109.5t61.5 -117.5t104.5 -107.5t157.5 -78t222 -29.5q147 0 242.5 37t156 82t95 83t59.5 40q10 0 24.5 -8.5t26.5 -21.5t21.5 -29.5t9.5 -30.5q0 -16 -49 -64.5t-138.5 -98.5t-211 -90t-269.5 -42q-45 0 -110.5 9t-139 35.5 t-146.5 71.5t-131 116t-94 168t-36 230z" />
<glyph unicode="&#x421;" horiz-adv-x="1347" d="M-6 614q0 61 21.5 139t64.5 159t107.5 157t152.5 135q96 63 223 111.5t285 48.5q33 0 75 -7t85 -17.5l81 -20.5l62 -16q4 18 2 40.5t2 49.5q2 16 14.5 28.5t30.5 16.5q29 6 46.5 -19.5t21.5 -54.5q2 -23 -1 -68l-6.5 -96t-4.5 -101t6 -87q2 -14 8 -24l11 -16 q5 -7 9 -16.5t4 -21.5t-13 -25.5t-28.5 -25t-31 -18.5t-19.5 -7q-29 0 -46 13.5t-26.5 36t-12.5 52t-3 60.5q-2 63 8.5 104t7.5 72q-18 8 -53 20.5t-81 22.5t-98 18.5t-103 8.5q-37 0 -88.5 -9.5t-108.5 -28t-116.5 -48t-112.5 -70.5q-59 -45 -107.5 -101.5t-84.5 -117 t-55.5 -121.5t-19.5 -119q0 -31 7.5 -82t29 -109.5t61.5 -117.5t104.5 -107.5t157.5 -78t222 -29.5q147 0 242.5 37t156 82t95 83t59.5 40q10 0 24.5 -8.5t26.5 -21.5t21.5 -29.5t9.5 -30.5q0 -16 -49 -64.5t-138.5 -98.5t-211 -90t-269.5 -42q-45 0 -110.5 9t-139 35.5 t-146.5 71.5t-131 116t-94 168t-36 230z" />
<glyph unicode="&#xd2;" horiz-adv-x="1331" d="M-66 1241q2 33 59.5 44t158.5 34q25 6 77 13t119.5 14.5t146 12.5t156.5 5q168 4 320.5 4t257.5 12q80 10 126 17.5t70 7.5q23 0 46.5 -13.5t23.5 -45.5q0 -35 -10 -57.5t-25.5 -35t-37 -17.5t-42.5 -7q-39 -4 -61.5 4t-52.5 8q-35 0 -110 -1t-159 -3l-160 -4 q-77 -2 -116 -4q-12 -102 -13 -262t1 -336q0 -78 4 -168t7 -169t6 -134.5t3 -65.5q0 -53 -28.5 -88t-63.5 -35q-29 0 -54.5 28t-25.5 62q0 31 1 96.5t2 151.5t2 183.5t3 187.5q2 160 3 285t1 260h-96q-57 0 -117.5 -2t-117 -5.5t-95.5 -9.5q-61 -10 -100 -19t-78 -5 q-18 2 -25.5 20.5t-5.5 36.5z" />
<glyph unicode="&#x422;" horiz-adv-x="1331" d="M-66 1241q2 33 59.5 44t158.5 34q25 6 77 13t119.5 14.5t146 12.5t156.5 5q168 4 320.5 4t257.5 12q80 10 126 17.5t70 7.5q23 0 46.5 -13.5t23.5 -45.5q0 -35 -10 -57.5t-25.5 -35t-37 -17.5t-42.5 -7q-39 -4 -61.5 4t-52.5 8q-35 0 -110 -1t-159 -3l-160 -4 q-77 -2 -116 -4q-12 -102 -13 -262t1 -336q0 -78 4 -168t7 -169t6 -134.5t3 -65.5q0 -53 -28.5 -88t-63.5 -35q-29 0 -54.5 28t-25.5 62q0 31 1 96.5t2 151.5t2 183.5t3 187.5q2 160 3 285t1 260h-96q-57 0 -117.5 -2t-117 -5.5t-95.5 -9.5q-61 -10 -100 -19t-78 -5 q-18 2 -25.5 20.5t-5.5 36.5z" />
<glyph unicode="&#xd3;" horiz-adv-x="1136" d="M-53 -127q2 51 40 108.5t97 105.5t132 79t140 31q92 0 136.5 -42t44.5 -106q0 -49 -27 -88t-64.5 -65.5t-78.5 -41t-68 -14.5q-41 0 -67.5 39t-26.5 76q0 29 24.5 56.5t57.5 21.5q16 -4 29.5 -8.5t15.5 -20.5q2 -10 -6.5 -16t-6.5 -17q4 -20 25 -24q12 -2 29.5 5t34 21.5 t27.5 32t11 35.5q0 20 -12 34.5t-28.5 21.5t-34 10.5t-27.5 3.5q-37 0 -89 -21.5t-98 -55.5t-79 -75t-33 -82q0 -14 20.5 -38.5t58.5 -49.5t90 -42t114 -17q63 0 128.5 20.5t125 53t109.5 71.5t83 76q43 49 77 109.5t55.5 121t30.5 112.5t5 87q-29 -12 -65.5 -31.5t-85 -38 t-106.5 -31t-128 -10.5q-45 0 -94 15.5t-97.5 40t-91.5 55.5t-73 61q-45 45 -73 94.5t-43 104.5t-21.5 117.5t-6.5 130.5v58q0 24 2 49.5t8.5 60.5t18.5 94q10 49 25.5 101.5t34 95.5t41 69.5t46.5 24.5q14 -2 23.5 -14.5t9.5 -22.5q0 -12 -7 -35.5t-18 -53.5l-23 -63 q-11 -33 -17 -65q-20 -98 -22.5 -179t-6.5 -157q-4 -102 25.5 -181t93.5 -151q66 -76 146.5 -111.5t148.5 -35.5q70 0 127 15t102 36.5t80 44.5l59 39q0 25 2 57.5t3 68.5l3 72q1 36 1 64q-2 78 -6.5 148.5t-14.5 134.5q-16 117 -20 190.5t-4 95.5q0 20 18 45t35 25 q33 0 50 -82t40 -246q12 -86 20.5 -194.5t8.5 -206.5q0 -283 -70 -493t-201 -339q-98 -96 -234 -152t-290 -56q-51 0 -112.5 19t-114 52t-88 75t-33.5 87z" />
<glyph unicode="&#x423;" horiz-adv-x="1136" d="M-53 -127q2 51 40 108.5t97 105.5t132 79t140 31q92 0 136.5 -42t44.5 -106q0 -49 -27 -88t-64.5 -65.5t-78.5 -41t-68 -14.5q-41 0 -67.5 39t-26.5 76q0 29 24.5 56.5t57.5 21.5q16 -4 29.5 -8.5t15.5 -20.5q2 -10 -6.5 -16t-6.5 -17q4 -20 25 -24q12 -2 29.5 5t34 21.5 t27.5 32t11 35.5q0 20 -12 34.5t-28.5 21.5t-34 10.5t-27.5 3.5q-37 0 -89 -21.5t-98 -55.5t-79 -75t-33 -82q0 -14 20.5 -38.5t58.5 -49.5t90 -42t114 -17q63 0 128.5 20.5t125 53t109.5 71.5t83 76q43 49 77 109.5t55.5 121t30.5 112.5t5 87q-29 -12 -65.5 -31.5t-85 -38 t-106.5 -31t-128 -10.5q-45 0 -94 15.5t-97.5 40t-91.5 55.5t-73 61q-45 45 -73 94.5t-43 104.5t-21.5 117.5t-6.5 130.5v58q0 24 2 49.5t8.5 60.5t18.5 94q10 49 25.5 101.5t34 95.5t41 69.5t46.5 24.5q14 -2 23.5 -14.5t9.5 -22.5q0 -12 -7 -35.5t-18 -53.5l-23 -63 q-11 -33 -17 -65q-20 -98 -22.5 -179t-6.5 -157q-4 -102 25.5 -181t93.5 -151q66 -76 146.5 -111.5t148.5 -35.5q70 0 127 15t102 36.5t80 44.5l59 39q0 25 2 57.5t3 68.5l3 72q1 36 1 64q-2 78 -6.5 148.5t-14.5 134.5q-16 117 -20 190.5t-4 95.5q0 20 18 45t35 25 q33 0 50 -82t40 -246q12 -86 20.5 -194.5t8.5 -206.5q0 -283 -70 -493t-201 -339q-98 -96 -234 -152t-290 -56q-51 0 -112.5 19t-114 52t-88 75t-33.5 87z" />
<glyph unicode="&#xd4;" horiz-adv-x="1679" d="M8 788q-2 106 49.5 189.5t122 142t147 91t128.5 42.5q47 8 95 15l92 11q44 5 80 6t60 1q2 25 2 80t4.5 111.5t15.5 99.5t38 43q49 0 58 -19.5t9 -48.5q0 -12 1 -48t2 -79l2 -82q1 -39 4 -53q37 0 117.5 -1t174.5 -11q61 -6 142.5 -37t153 -87t120.5 -138t47 -191 q-2 -74 -34.5 -135t-85 -112.5t-118 -91.5t-132.5 -68q-57 -25 -115 -39t-110 -22.5t-95 -11.5l-74 -5q0 -35 -1 -87t-3 -106.5t-3 -103.5t-1 -80q-2 -41 -23.5 -75.5t-43.5 -34.5q-25 0 -38.5 30.5t-18.5 73.5t-6 90t-1 80q-2 70 -1 114t1 95q-20 0 -58 2t-79 7l-79 10 q-38 5 -56 10q-141 33 -234.5 76.5t-150 96t-80 114.5t-25.5 136zM147 774q-2 -61 28 -111.5t81 -89t118.5 -67.5t145.5 -47q25 -6 58.5 -10.5t69.5 -7.5t69 -4t57 -3q0 94 -1 179t-1 194v105q0 52 1 100.5t2 88.5t3 66q-16 4 -54 4t-85 -3t-95 -8t-83 -9q-53 -6 -107.5 -38 t-99.5 -82t-75 -115.5t-32 -141.5zM908 1020q1 -78 1 -180v-122v-118v-97v-61q29 0 70 1t87 6.5t95 17.5t96 37l107 57q51 29 90 66t62.5 84t23.5 112q0 80 -36 145.5t-88 111.5t-109.5 73t-100.5 31q-31 2 -73.5 3t-85.5 1t-80 -2t-58 -2q-2 -86 -1 -164z" />
<glyph unicode="&#x424;" horiz-adv-x="1679" d="M8 788q-2 106 49.5 189.5t122 142t147 91t128.5 42.5q47 8 95 15l92 11q44 5 80 6t60 1q2 25 2 80t4.5 111.5t15.5 99.5t38 43q49 0 58 -19.5t9 -48.5q0 -12 1 -48t2 -79l2 -82q1 -39 4 -53q37 0 117.5 -1t174.5 -11q61 -6 142.5 -37t153 -87t120.5 -138t47 -191 q-2 -74 -34.5 -135t-85 -112.5t-118 -91.5t-132.5 -68q-57 -25 -115 -39t-110 -22.5t-95 -11.5l-74 -5q0 -35 -1 -87t-3 -106.5t-3 -103.5t-1 -80q-2 -41 -23.5 -75.5t-43.5 -34.5q-25 0 -38.5 30.5t-18.5 73.5t-6 90t-1 80q-2 70 -1 114t1 95q-20 0 -58 2t-79 7l-79 10 q-38 5 -56 10q-141 33 -234.5 76.5t-150 96t-80 114.5t-25.5 136zM147 774q-2 -61 28 -111.5t81 -89t118.5 -67.5t145.5 -47q25 -6 58.5 -10.5t69.5 -7.5t69 -4t57 -3q0 94 -1 179t-1 194v105q0 52 1 100.5t2 88.5t3 66q-16 4 -54 4t-85 -3t-95 -8t-83 -9q-53 -6 -107.5 -38 t-99.5 -82t-75 -115.5t-32 -141.5zM908 1020q1 -78 1 -180v-122v-118v-97v-61q29 0 70 1t87 6.5t95 17.5t96 37l107 57q51 29 90 66t62.5 84t23.5 112q0 80 -36 145.5t-88 111.5t-109.5 73t-100.5 31q-31 2 -73.5 3t-85.5 1t-80 -2t-58 -2q-2 -86 -1 -164z" />
<glyph unicode="&#xd5;" horiz-adv-x="1056" d="M-8 74q0 12 20.5 49t54 88t76.5 110.5t90 116.5l76 99l68 92l53 76q23 33 33 49l-35 51l-50 75l-59 90l-61 95l-43 65l-47 73q-23 36 -38 65.5t-15 42.5q0 12 6 25.5t15 25.5t22.5 20.5t29.5 6.5q10 0 31 -26t47 -65l56 -83l55 -80q51 -72 94 -139.5t78 -106.5l67 100 l64 92l65 90q31 39 65 87l64 90q31 41 56.5 66.5t40.5 23.5q45 -10 45 -58q0 -12 -21.5 -41.5t-53.5 -68.5l-69 -83q-37 -44 -65 -85l-62 -88l-58 -86l-50 -76q-23 -35 -35 -57q10 -23 36 -67l59 -100l73 -119l78 -120l59 -92q29 -45 51.5 -84t37 -69.5t16.5 -49.5 q4 -43 -29 -62.5t-74 -19.5q-12 0 -29.5 29t-40.5 73l-52 99l-58 111q-59 102 -111.5 180l-85.5 131q-12 -18 -42 -54l-66 -81l-75 -92q-38 -47 -66 -89q-45 -63 -79 -121l-59 -105l-41 -73.5t-26 -27.5q-8 0 -22.5 4t-29 13t-24.5 25.5t-10 39.5z" />
<glyph unicode="&#x425;" horiz-adv-x="1056" d="M-8 74q0 12 20.5 49t54 88t76.5 110.5t90 116.5l76 99l68 92l53 76q23 33 33 49l-35 51l-50 75l-59 90l-61 95l-43 65l-47 73q-23 36 -38 65.5t-15 42.5q0 12 6 25.5t15 25.5t22.5 20.5t29.5 6.5q10 0 31 -26t47 -65l56 -83l55 -80q51 -72 94 -139.5t78 -106.5l67 100 l64 92l65 90q31 39 65 87l64 90q31 41 56.5 66.5t40.5 23.5q45 -10 45 -58q0 -12 -21.5 -41.5t-53.5 -68.5l-69 -83q-37 -44 -65 -85l-62 -88l-58 -86l-50 -76q-23 -35 -35 -57q10 -23 36 -67l59 -100l73 -119l78 -120l59 -92q29 -45 51.5 -84t37 -69.5t16.5 -49.5 q4 -43 -29 -62.5t-74 -19.5q-12 0 -29.5 29t-40.5 73l-52 99l-58 111q-59 102 -111.5 180l-85.5 131q-12 -18 -42 -54l-66 -81l-75 -92q-38 -47 -66 -89q-45 -63 -79 -121l-59 -105l-41 -73.5t-26 -27.5q-8 0 -22.5 4t-29 13t-24.5 25.5t-10 39.5z" />
<glyph unicode="&#xd6;" horiz-adv-x="1349" d="M17 597q3 91 13.5 186.5t28 188.5t39.5 177q16 59 36 118.5t41.5 105.5t44 75t44.5 27q29 -4 35 -17.5t8 -38.5q0 -8 -8 -36.5l-21 -71.5l-31 -97q-17 -53 -32 -108q-16 -61 -31.5 -144t-26 -170t-15.5 -171t-1 -146q8 -88 48 -162.5t101.5 -128t138.5 -79t161 -15.5 q47 4 106.5 28.5t121 62.5t120.5 85t104 99q-6 27 -11 72.5t-9 102t-8 120t-10 124.5l-13 138l-11 132q-5 62 -10 110t-7 73q-2 23 10 40t51 21q37 4 52.5 -33.5t21.5 -78.5q12 -78 16 -151.5t12 -166.5q6 -55 11 -110l8 -106q4 -50 8 -92t8 -68l41 49l38 50q17 24 33.5 41 t29.5 19q16 4 29.5 -5t13.5 -25q0 -23 -19.5 -59t-46.5 -76t-55 -77l-47 -63q2 -27 3 -44t2 -32l2 -27q1 -13 3 -34q2 -23 6 -48.5t7 -49t6 -39t3 -17.5q2 -10 1 -21t8 -11q16 0 52 11t77 15q33 6 90 -3t112.5 -33.5t98.5 -66.5t47 -100q4 -66 -28 -118t-79 -84 q-41 -31 -113.5 -62t-160.5 -37q-55 -4 -116.5 -9t-119.5 -7q-41 2 -76.5 9t-63.5 22.5t-45 41t-20 64.5q-2 20 5.5 47t23 49.5t40 39t58.5 18.5q37 6 72 9t76 -1q55 -4 87 -20.5t58 -57.5q18 -23 27.5 -47.5t3.5 -44.5q16 -10 24.5 -10t24.5 2q43 6 81 21.5t67.5 38t45 53 t11.5 67.5q-2 33 -26.5 56.5t-59.5 39t-77 21.5t-79 4q-12 -2 -34.5 -8t-49.5 -15l-51 -16q-25 -8 -43 -10q-27 -4 -51.5 15.5t-22.5 47.5q0 6 -2 23.5t-3 41t-3 50.5l-4 51q-2 16 -3 27l-2 20q-1 10 -3 24.5t-4 39.5q-31 -20 -75 -59.5t-101.5 -80.5t-128 -73.5 t-154.5 -38.5q-150 -10 -257 26.5t-177 101t-105.5 147.5t-42.5 165q-6 76 -3 167zM969 -326q4 -33 32.5 -41t69.5 -12q47 -4 88 -1t58 13q-4 16 -2 34t-11 34q-12 18 -35.5 29.5t-46.5 7.5q-16 -2 -43.5 -3t-53.5 -6t-43 -17.5t-13 -37.5z" />
<glyph unicode="&#x426;" horiz-adv-x="1349" d="M17 597q3 91 13.5 186.5t28 188.5t39.5 177q16 59 36 118.5t41.5 105.5t44 75t44.5 27q29 -4 35 -17.5t8 -38.5q0 -8 -8 -36.5l-21 -71.5l-31 -97q-17 -53 -32 -108q-16 -61 -31.5 -144t-26 -170t-15.5 -171t-1 -146q8 -88 48 -162.5t101.5 -128t138.5 -79t161 -15.5 q47 4 106.5 28.5t121 62.5t120.5 85t104 99q-6 27 -11 72.5t-9 102t-8 120t-10 124.5l-13 138l-11 132q-5 62 -10 110t-7 73q-2 23 10 40t51 21q37 4 52.5 -33.5t21.5 -78.5q12 -78 16 -151.5t12 -166.5q6 -55 11 -110l8 -106q4 -50 8 -92t8 -68l41 49l38 50q17 24 33.5 41 t29.5 19q16 4 29.5 -5t13.5 -25q0 -23 -19.5 -59t-46.5 -76t-55 -77l-47 -63q2 -27 3 -44t2 -32l2 -27q1 -13 3 -34q2 -23 6 -48.5t7 -49t6 -39t3 -17.5q2 -10 1 -21t8 -11q16 0 52 11t77 15q33 6 90 -3t112.5 -33.5t98.5 -66.5t47 -100q4 -66 -28 -118t-79 -84 q-41 -31 -113.5 -62t-160.5 -37q-55 -4 -116.5 -9t-119.5 -7q-41 2 -76.5 9t-63.5 22.5t-45 41t-20 64.5q-2 20 5.5 47t23 49.5t40 39t58.5 18.5q37 6 72 9t76 -1q55 -4 87 -20.5t58 -57.5q18 -23 27.5 -47.5t3.5 -44.5q16 -10 24.5 -10t24.5 2q43 6 81 21.5t67.5 38t45 53 t11.5 67.5q-2 33 -26.5 56.5t-59.5 39t-77 21.5t-79 4q-12 -2 -34.5 -8t-49.5 -15l-51 -16q-25 -8 -43 -10q-27 -4 -51.5 15.5t-22.5 47.5q0 6 -2 23.5t-3 41t-3 50.5l-4 51q-2 16 -3 27l-2 20q-1 10 -3 24.5t-4 39.5q-31 -20 -75 -59.5t-101.5 -80.5t-128 -73.5 t-154.5 -38.5q-150 -10 -257 26.5t-177 101t-105.5 147.5t-42.5 165q-6 76 -3 167zM969 -326q4 -33 32.5 -41t69.5 -12q47 -4 88 -1t58 13q-4 16 -2 34t-11 34q-12 18 -35.5 29.5t-46.5 7.5q-16 -2 -43.5 -3t-53.5 -6t-43 -17.5t-13 -37.5z" />
<glyph unicode="&#xd7;" horiz-adv-x="1042" d="M18 965q0 33 1 64.5t4.5 64t11.5 70.5t22 87l20 66q11 37 25.5 69.5t34 53t43.5 18.5q14 -2 23.5 -14t9.5 -23q0 -12 -7 -35l-17 -50l-19 -58q-10 -31 -16 -61q-14 -68 -22.5 -119t-6.5 -117q0 -37 6 -81t20.5 -91t38 -94t60.5 -86q66 -70 146.5 -109t148.5 -39 q70 0 118 15.5t81.5 37t58 44t49.5 38.5q2 49 6 92.5t2 102.5q-2 78 -6 148.5t-14 134.5q-16 117 -20.5 190.5t-4.5 95.5q0 20 18.5 45t34.5 25q33 0 50.5 -82t39.5 -246q12 -86 20.5 -194.5t8.5 -206.5q0 -76 -3 -166l-6 -179q-3 -89 -5 -168t-2 -134q0 -111 -14.5 -158 t-43.5 -47q-16 0 -28.5 10t-21.5 26.5t-14 35t-5 34.5q-2 31 -4 97.5t0 140.5q0 31 1 72t1 81v73q0 34 -2 50q-29 -12 -56.5 -31.5t-64.5 -38t-85 -30.5t-118 -10q-90 2 -183 44t-173 128q-47 49 -76 100t-44 103.5t-19.5 105t-2.5 105.5z" />
<glyph unicode="&#x427;" horiz-adv-x="1042" d="M18 965q0 33 1 64.5t4.5 64t11.5 70.5t22 87l20 66q11 37 25.5 69.5t34 53t43.5 18.5q14 -2 23.5 -14t9.5 -23q0 -12 -7 -35l-17 -50l-19 -58q-10 -31 -16 -61q-14 -68 -22.5 -119t-6.5 -117q0 -37 6 -81t20.5 -91t38 -94t60.5 -86q66 -70 146.5 -109t148.5 -39 q70 0 118 15.5t81.5 37t58 44t49.5 38.5q2 49 6 92.5t2 102.5q-2 78 -6 148.5t-14 134.5q-16 117 -20.5 190.5t-4.5 95.5q0 20 18.5 45t34.5 25q33 0 50.5 -82t39.5 -246q12 -86 20.5 -194.5t8.5 -206.5q0 -76 -3 -166l-6 -179q-3 -89 -5 -168t-2 -134q0 -111 -14.5 -158 t-43.5 -47q-16 0 -28.5 10t-21.5 26.5t-14 35t-5 34.5q-2 31 -4 97.5t0 140.5q0 31 1 72t1 81v73q0 34 -2 50q-29 -12 -56.5 -31.5t-64.5 -38t-85 -30.5t-118 -10q-90 2 -183 44t-173 128q-47 49 -76 100t-44 103.5t-19.5 105t-2.5 105.5z" />
<glyph unicode="&#xd8;" horiz-adv-x="2009" d="M0 760q0 39 4 99.5t12.5 128t22.5 136t35.5 124t50.5 91t68 37.5q16 2 29.5 -19.5t13.5 -41.5q0 -4 -15.5 -49t-33 -114t-33 -155t-15.5 -172q0 -127 8.5 -263t44 -248.5t107.5 -185.5t201 -73q61 0 131.5 36t136.5 85t119 102.5t80 90.5q-18 86 -26.5 178t-10.5 196 q0 31 2 88.5t7 124t14.5 137t22.5 128t30.5 95.5t40.5 40q29 4 52 -16.5t23 -49.5q0 -16 -7 -78.5t-19 -154.5l-14 -104l-13 -104q-6 -50 -10 -94t-4 -71v-72q0 -41 3 -85t11 -90t27 -87q35 -86 108.5 -141t188.5 -49q51 2 97 18.5t88 42t77 56t63 61.5q-4 18 -7 81.5 t-5 145.5t-2 167v147q0 61 2 104t4 80l4 74q2 37 2 86q0 53 30 90t60 37q20 0 34.5 -12.5t14.5 -53.5q0 -66 -8 -174.5t-8 -230.5q0 -55 1 -117t3 -119t4 -105.5t4 -76.5q12 16 33 30.5t41 24.5l47 25q20 2 29.5 -20.5t7.5 -43.5q-4 -23 -49 -62l-105 -89q2 -31 5 -54l4 -43 l4 -41q2 -20 6 -47q4 -31 9 -61l9 -57q4 -27 6.5 -46.5t2.5 -23.5q-2 -10 -2.5 -22.5t-4.5 -22.5t-13 -16.5t-28 -6.5q-29 0 -51 14.5t-26 43.5q-4 39 -17.5 106.5t-36.5 153.5q-63 -66 -156 -96.5t-204 -38.5q-49 -4 -101.5 12t-99.5 43t-84 58.5t-57 62.5 q-51 -47 -114.5 -97.5t-134.5 -91.5t-146.5 -67.5t-149.5 -26.5q-139 0 -231 62.5t-146.5 170t-76 254t-21.5 312.5z" />
<glyph unicode="&#x428;" horiz-adv-x="2009" d="M0 760q0 39 4 99.5t12.5 128t22.5 136t35.5 124t50.5 91t68 37.5q16 2 29.5 -19.5t13.5 -41.5q0 -4 -15.5 -49t-33 -114t-33 -155t-15.5 -172q0 -127 8.5 -263t44 -248.5t107.5 -185.5t201 -73q61 0 131.5 36t136.5 85t119 102.5t80 90.5q-18 86 -26.5 178t-10.5 196 q0 31 2 88.5t7 124t14.5 137t22.5 128t30.5 95.5t40.5 40q29 4 52 -16.5t23 -49.5q0 -16 -7 -78.5t-19 -154.5l-14 -104l-13 -104q-6 -50 -10 -94t-4 -71v-72q0 -41 3 -85t11 -90t27 -87q35 -86 108.5 -141t188.5 -49q51 2 97 18.5t88 42t77 56t63 61.5q-4 18 -7 81.5 t-5 145.5t-2 167v147q0 61 2 104t4 80l4 74q2 37 2 86q0 53 30 90t60 37q20 0 34.5 -12.5t14.5 -53.5q0 -66 -8 -174.5t-8 -230.5q0 -55 1 -117t3 -119t4 -105.5t4 -76.5q12 16 33 30.5t41 24.5l47 25q20 2 29.5 -20.5t7.5 -43.5q-4 -23 -49 -62l-105 -89q2 -31 5 -54l4 -43 l4 -41q2 -20 6 -47q4 -31 9 -61l9 -57q4 -27 6.5 -46.5t2.5 -23.5q-2 -10 -2.5 -22.5t-4.5 -22.5t-13 -16.5t-28 -6.5q-29 0 -51 14.5t-26 43.5q-4 39 -17.5 106.5t-36.5 153.5q-63 -66 -156 -96.5t-204 -38.5q-49 -4 -101.5 12t-99.5 43t-84 58.5t-57 62.5 q-51 -47 -114.5 -97.5t-134.5 -91.5t-146.5 -67.5t-149.5 -26.5q-139 0 -231 62.5t-146.5 170t-76 254t-21.5 312.5z" />
<glyph unicode="&#xd9;" horiz-adv-x="2039" d="M14 760q0 39 4.5 99.5t12.5 128t22.5 136t36 124t50 91t67.5 37.5q16 2 29.5 -19.5t13.5 -41.5q0 -4 -15.5 -49t-33 -114t-32.5 -155t-15 -172q0 -127 8 -263t44 -248.5t107.5 -185.5t200.5 -73q61 0 132 36t136.5 85t118.5 102.5t80 90.5q-18 86 -26.5 178t-10.5 196 q0 31 2 88.5t7 124t14.5 137t23 128t30.5 95.5t40 40q29 4 52.5 -16.5t23.5 -49.5q0 -16 -7.5 -78.5t-19.5 -154.5l-13 -104l-14 -104q-6 -50 -10 -94t-4 -71v-72q0 -41 3 -85t11.5 -90t26.5 -87q35 -86 108.5 -141t188.5 -49q51 2 96 18.5t85 42t74 57t62 62.5 q-2 29 -3 93.5t-2 142t-1 159.5v144q0 61 2 104t4 80l5 74q2 37 2 86q0 53 29.5 90t60.5 37q20 0 34.5 -12.5t14.5 -53.5q0 -66 -7.5 -165t-7.5 -222v-120v-127q0 -62 1.5 -114.5t3.5 -80.5q12 16 33.5 30.5t41.5 26.5q23 14 52 29q20 2 29 -20.5t7 -43.5q-2 -10 -18 -29.5 t-41 -44l-54 -51.5l-59 -51q4 -49 3 -97t-3 -108q0 -23 -3 -39t1 -39q2 -10 5.5 -19t11.5 -9q16 0 52 11t77 15q33 6 90 -3t112.5 -33.5t98.5 -66.5t47 -99q4 -66 -27.5 -118t-79.5 -85q-41 -31 -113.5 -61.5t-160.5 -36.5q-55 -4 -116.5 -9.5t-119.5 -7.5q-41 2 -76.5 9.5 t-63 22.5t-45 40.5t-19.5 64.5q-2 20 5 47t22.5 49.5t40 39t59.5 18.5q37 6 71.5 9t75.5 -1q55 -4 87 -20.5t59 -57.5q18 -23 27 -47t3 -45q16 -10 24.5 -10t24.5 2q43 6 81 21.5t68 38t45 53t11 67.5q-2 33 -26.5 56.5t-59.5 39t-77 21.5t-78 4q-12 -2 -35 -8t-49 -14 l-52 -17q-25 -8 -43 -10q-27 -4 -51 15.5t-22 47.5q-2 27 -3 45.5t-3 34.5l-2 32q-1 15 -1 38q-2 35 1.5 57.5t-1.5 57.5q-53 -51 -140 -89t-204 -42q-49 -2 -102 14t-100.5 43t-85 58.5t-58.5 62.5q-51 -47 -114.5 -97.5t-134 -91.5t-146.5 -67.5t-150 -26.5 q-139 0 -231 62.5t-146.5 170t-76 254t-21.5 312.5zM1616 -358q4 -33 32.5 -41.5t69.5 -12.5q47 -4 88 -1t58 14q-4 16 -2 33.5t-11 33.5q-12 18 -35.5 29.5t-46.5 7.5q-16 -2 -43.5 -3t-53 -6t-43 -17t-13.5 -37z" />
<glyph unicode="&#x429;" horiz-adv-x="2039" d="M14 760q0 39 4.5 99.5t12.5 128t22.5 136t36 124t50 91t67.5 37.5q16 2 29.5 -19.5t13.5 -41.5q0 -4 -15.5 -49t-33 -114t-32.5 -155t-15 -172q0 -127 8 -263t44 -248.5t107.5 -185.5t200.5 -73q61 0 132 36t136.5 85t118.5 102.5t80 90.5q-18 86 -26.5 178t-10.5 196 q0 31 2 88.5t7 124t14.5 137t23 128t30.5 95.5t40 40q29 4 52.5 -16.5t23.5 -49.5q0 -16 -7.5 -78.5t-19.5 -154.5l-13 -104l-14 -104q-6 -50 -10 -94t-4 -71v-72q0 -41 3 -85t11.5 -90t26.5 -87q35 -86 108.5 -141t188.5 -49q51 2 96 18.5t85 42t74 57t62 62.5 q-2 29 -3 93.5t-2 142t-1 159.5v144q0 61 2 104t4 80l5 74q2 37 2 86q0 53 29.5 90t60.5 37q20 0 34.5 -12.5t14.5 -53.5q0 -66 -7.5 -165t-7.5 -222v-120v-127q0 -62 1.5 -114.5t3.5 -80.5q12 16 33.5 30.5t41.5 26.5q23 14 52 29q20 2 29 -20.5t7 -43.5q-2 -10 -18 -29.5 t-41 -44l-54 -51.5l-59 -51q4 -49 3 -97t-3 -108q0 -23 -3 -39t1 -39q2 -10 5.5 -19t11.5 -9q16 0 52 11t77 15q33 6 90 -3t112.5 -33.5t98.5 -66.5t47 -99q4 -66 -27.5 -118t-79.5 -85q-41 -31 -113.5 -61.5t-160.5 -36.5q-55 -4 -116.5 -9.5t-119.5 -7.5q-41 2 -76.5 9.5 t-63 22.5t-45 40.5t-19.5 64.5q-2 20 5 47t22.5 49.5t40 39t59.5 18.5q37 6 71.5 9t75.5 -1q55 -4 87 -20.5t59 -57.5q18 -23 27 -47t3 -45q16 -10 24.5 -10t24.5 2q43 6 81 21.5t68 38t45 53t11 67.5q-2 33 -26.5 56.5t-59.5 39t-77 21.5t-78 4q-12 -2 -35 -8t-49 -14 l-52 -17q-25 -8 -43 -10q-27 -4 -51 15.5t-22 47.5q-2 27 -3 45.5t-3 34.5l-2 32q-1 15 -1 38q-2 35 1.5 57.5t-1.5 57.5q-53 -51 -140 -89t-204 -42q-49 -2 -102 14t-100.5 43t-85 58.5t-58.5 62.5q-51 -47 -114.5 -97.5t-134 -91.5t-146.5 -67.5t-150 -26.5 q-139 0 -231 62.5t-146.5 170t-76 254t-21.5 312.5zM1616 -358q4 -33 32.5 -41.5t69.5 -12.5q47 -4 88 -1t58 14q-4 16 -2 33.5t-11 33.5q-12 18 -35.5 29.5t-46.5 7.5q-16 -2 -43.5 -3t-53 -6t-43 -17t-13.5 -37z" />
<glyph unicode="&#xda;" horiz-adv-x="1630" d="M18 225q0 27 17.5 36t42.5 9q6 0 20 -11l35 -28q20 -16 46 -34.5t54 -32.5q37 -18 66 -27.5t55.5 -15.5t54 -10.5t60.5 -12.5q0 23 2 49q2 23 2 52v59q-2 59 -6 118.5t-8 90.5q-27 12 -68 27.5t-81 41t-68.5 62.5t-28.5 90q0 59 30.5 93t72.5 52.5t86 24.5t71 10 q6 55 5 100.5t-1 104.5q0 29 2 78t0 78q-14 -4 -30.5 -8t-32.5 -11q-12 -4 -51 -24.5t-84 -41.5l-83 -39q-38 -17 -51 -18q-45 0 -47 62q0 8 16.5 23.5t46.5 34t66.5 39t77.5 38.5q72 35 139.5 57.5t90.5 22.5q27 0 42 -30.5t22 -75t7 -94.5v-89q-2 -59 3 -121.5t10 -93.5 q45 4 78.5 3t78.5 -3q102 -4 221 -39t222 -84q70 -35 132 -78t107 -93t72 -107.5t27 -118.5q0 -53 -31 -99t-82 -83t-115.5 -66t-132.5 -47q-158 -43 -266.5 -51t-192.5 -10q-59 -2 -125.5 4t-133 18t-131 28.5t-120.5 39.5q-96 35 -153.5 78.5t-57.5 72.5zM295 692 q2 -23 17.5 -43t40 -36.5t54 -28t62.5 -13.5q2 39 6 90.5t-2 94.5q-29 2 -53.5 3t-50.5 -9q-12 -6 -25.5 -10.5t-25 -9.5t-18.5 -14.5t-5 -23.5zM602 438q2 -29 2 -57v-52q0 -28 2 -50q0 -27 1 -58t1 -59q0 -33 2 -64q33 -8 67 -14t93 -6q18 0 58 3t94.5 10t117 18.5 t123.5 29.5q55 16 108.5 39t96.5 53.5t68.5 67.5t25.5 82q0 27 -25.5 63.5t-69.5 76.5t-102.5 78t-121.5 69q-55 27 -113.5 45t-114 30.5t-102.5 18.5t-78 4q-25 -2 -60.5 -2t-60.5 -8q-4 -35 -4 -84t4 -90q8 8 23.5 20t34.5 8q23 -4 37 -16t10 -45q-4 -29 -27.5 -62 t-89.5 -49z" />
<glyph unicode="&#x42a;" horiz-adv-x="1630" d="M18 225q0 27 17.5 36t42.5 9q6 0 20 -11l35 -28q20 -16 46 -34.5t54 -32.5q37 -18 66 -27.5t55.5 -15.5t54 -10.5t60.5 -12.5q0 23 2 49q2 23 2 52v59q-2 59 -6 118.5t-8 90.5q-27 12 -68 27.5t-81 41t-68.5 62.5t-28.5 90q0 59 30.5 93t72.5 52.5t86 24.5t71 10 q6 55 5 100.5t-1 104.5q0 29 2 78t0 78q-14 -4 -30.5 -8t-32.5 -11q-12 -4 -51 -24.5t-84 -41.5l-83 -39q-38 -17 -51 -18q-45 0 -47 62q0 8 16.5 23.5t46.5 34t66.5 39t77.5 38.5q72 35 139.5 57.5t90.5 22.5q27 0 42 -30.5t22 -75t7 -94.5v-89q-2 -59 3 -121.5t10 -93.5 q45 4 78.5 3t78.5 -3q102 -4 221 -39t222 -84q70 -35 132 -78t107 -93t72 -107.5t27 -118.5q0 -53 -31 -99t-82 -83t-115.5 -66t-132.5 -47q-158 -43 -266.5 -51t-192.5 -10q-59 -2 -125.5 4t-133 18t-131 28.5t-120.5 39.5q-96 35 -153.5 78.5t-57.5 72.5zM295 692 q2 -23 17.5 -43t40 -36.5t54 -28t62.5 -13.5q2 39 6 90.5t-2 94.5q-29 2 -53.5 3t-50.5 -9q-12 -6 -25.5 -10.5t-25 -9.5t-18.5 -14.5t-5 -23.5zM602 438q2 -29 2 -57v-52q0 -28 2 -50q0 -27 1 -58t1 -59q0 -33 2 -64q33 -8 67 -14t93 -6q18 0 58 3t94.5 10t117 18.5 t123.5 29.5q55 16 108.5 39t96.5 53.5t68.5 67.5t25.5 82q0 27 -25.5 63.5t-69.5 76.5t-102.5 78t-121.5 69q-55 27 -113.5 45t-114 30.5t-102.5 18.5t-78 4q-25 -2 -60.5 -2t-60.5 -8q-4 -35 -4 -84t4 -90q8 8 23.5 20t34.5 8q23 -4 37 -16t10 -45q-4 -29 -27.5 -62 t-89.5 -49z" />
<glyph unicode="&#xdb;" horiz-adv-x="1937" d="M-12 225q0 27 14 46.5t39 19.5q6 0 24 -15l40 -34l51.5 -42t56.5 -36q76 -37 133 -43l117 -12q0 23 2 45q2 20 2 47v57q-2 59 -7 118.5t-9 90.5q-29 12 -72 27.5t-85 41t-71.5 62.5t-29.5 90q0 59 32.5 93t76.5 52.5t90 24.5l75 10q6 55 5 100.5t-1 104.5q0 70 -6 138.5 t-2 99.5q4 25 25.5 41t43.5 12q29 -4 46.5 -32.5t27.5 -68.5t14.5 -85t6.5 -84q2 -29 4 -65l4 -70q2 -34 4 -63.5t4 -43.5q47 4 78 1t78 -5q109 -4 227.5 -33t226.5 -78q74 -35 139.5 -78t113.5 -93t76 -107.5t28 -118.5q0 -53 -33 -99t-86 -83t-122 -66t-140 -47 q-166 -43 -280.5 -51t-203.5 -10q-61 -2 -130.5 4t-140.5 18t-139.5 28.5t-125.5 39.5q-100 35 -160.5 78.5t-60.5 72.5zM279 692q4 -45 54 -79.5t118 -39.5q4 39 7 92.5t-3 96.5q-29 2 -49.5 0t-49.5 -12q-12 -6 -26.5 -10.5t-26.5 -9.5t-19 -14.5t-5 -23.5zM602 438 q2 -29 2 -57v-52q0 -28 2 -50q0 -27 1 -58t1 -59q0 -33 2 -64q35 -8 70 -14t98 -6q18 0 61.5 3t99.5 10t121.5 18.5t131.5 29.5q57 16 114.5 39t101.5 53.5t71.5 67.5t27.5 82q0 27 -27.5 63.5t-73.5 76.5t-106.5 78t-128.5 69q-57 27 -119.5 45t-120 30.5t-107.5 18.5 t-83 4q-25 -2 -54.5 -3t-55.5 -9q-2 -10 -4 -33t-5.5 -48.5t-5.5 -50t-2 -40.5l26 20q15 12 36 8q23 -4 38 -16t11 -45q-4 -29 -28.5 -62t-94.5 -49zM1693 1159.5q-1 59.5 1 95.5q0 23 3 46.5t9 44t18.5 33t32.5 12.5q18 0 29.5 -11.5t16.5 -29t5 -38.5v-44q-2 -59 -1 -124 t1 -151q0 -70 3.5 -138.5t3.5 -154.5q0 -90 -1.5 -170.5t-1.5 -134.5q-2 -86 0.5 -155.5t-0.5 -110.5q-2 -45 -22.5 -87t-54.5 -42q-29 0 -35 26.5t-6 61.5v98v155v185q0 98 2 189v159q0 80 -1 153t-2 132.5z" />
<glyph unicode="&#x42b;" horiz-adv-x="1937" d="M-12 225q0 27 14 46.5t39 19.5q6 0 24 -15l40 -34l51.5 -42t56.5 -36q76 -37 133 -43l117 -12q0 23 2 45q2 20 2 47v57q-2 59 -7 118.5t-9 90.5q-29 12 -72 27.5t-85 41t-71.5 62.5t-29.5 90q0 59 32.5 93t76.5 52.5t90 24.5l75 10q6 55 5 100.5t-1 104.5q0 70 -6 138.5 t-2 99.5q4 25 25.5 41t43.5 12q29 -4 46.5 -32.5t27.5 -68.5t14.5 -85t6.5 -84q2 -29 4 -65l4 -70q2 -34 4 -63.5t4 -43.5q47 4 78 1t78 -5q109 -4 227.5 -33t226.5 -78q74 -35 139.5 -78t113.5 -93t76 -107.5t28 -118.5q0 -53 -33 -99t-86 -83t-122 -66t-140 -47 q-166 -43 -280.5 -51t-203.5 -10q-61 -2 -130.5 4t-140.5 18t-139.5 28.5t-125.5 39.5q-100 35 -160.5 78.5t-60.5 72.5zM279 692q4 -45 54 -79.5t118 -39.5q4 39 7 92.5t-3 96.5q-29 2 -49.5 0t-49.5 -12q-12 -6 -26.5 -10.5t-26.5 -9.5t-19 -14.5t-5 -23.5zM602 438 q2 -29 2 -57v-52q0 -28 2 -50q0 -27 1 -58t1 -59q0 -33 2 -64q35 -8 70 -14t98 -6q18 0 61.5 3t99.5 10t121.5 18.5t131.5 29.5q57 16 114.5 39t101.5 53.5t71.5 67.5t27.5 82q0 27 -27.5 63.5t-73.5 76.5t-106.5 78t-128.5 69q-57 27 -119.5 45t-120 30.5t-107.5 18.5 t-83 4q-25 -2 -54.5 -3t-55.5 -9q-2 -10 -4 -33t-5.5 -48.5t-5.5 -50t-2 -40.5l26 20q15 12 36 8q23 -4 38 -16t11 -45q-4 -29 -28.5 -62t-94.5 -49zM1693 1159.5q-1 59.5 1 95.5q0 23 3 46.5t9 44t18.5 33t32.5 12.5q18 0 29.5 -11.5t16.5 -29t5 -38.5v-44q-2 -59 -1 -124 t1 -151q0 -70 3.5 -138.5t3.5 -154.5q0 -90 -1.5 -170.5t-1.5 -134.5q-2 -86 0.5 -155.5t-0.5 -110.5q-2 -45 -22.5 -87t-54.5 -42q-29 0 -35 26.5t-6 61.5v98v155v185q0 98 2 189v159q0 80 -1 153t-2 132.5z" />
<glyph unicode="&#xdc;" horiz-adv-x="1662" d="M20 225q0 27 13.5 46.5t38.5 19.5q6 0 21 -15l38 -34l49.5 -42t52.5 -36q74 -37 127 -43l111 -12q0 23 2 45q2 20 2 47v57q-2 59 -6 118.5t-8 90.5q-27 12 -69 27.5t-81 41t-67.5 62.5t-28.5 90q0 59 30.5 93t72.5 52.5t86.5 24.5t70.5 10q6 55 5 100.5t-1 104.5 q0 70 -6 138.5t-2 99.5q4 25 24.5 41t43.5 12q27 -4 43 -32.5t25 -68.5t13.5 -85t6.5 -84q2 -29 4 -65l4 -70q2 -34 4 -63.5t4 -43.5q45 4 73.5 1t74.5 -5q102 -4 214.5 -33t217.5 -78q70 -35 132 -78t107 -93t72 -107.5t27 -118.5q0 -53 -31 -99t-82 -83t-116.5 -66 t-133.5 -47q-156 -43 -265.5 -51t-193.5 -10q-59 -2 -124.5 4t-133 18t-132 28.5t-120.5 39.5q-94 35 -151.5 78.5t-57.5 72.5zM297 692q4 -45 51 -79.5t113 -39.5q2 39 5 92.5t-3 96.5q-29 2 -47.5 0t-44.5 -12q-12 -6 -25.5 -10.5t-25 -9.5t-18.5 -14.5t-5 -23.5zM604 438 q2 -29 2 -57v-52q0 -28 2 -50q0 -27 1 -58t1 -59q0 -33 2 -64q31 -8 65 -14t93 -6q18 0 59 3t94.5 10t116 18.5t123.5 29.5q55 16 109.5 39t97.5 53.5t68.5 67.5t25.5 82q0 27 -25.5 63.5t-69.5 76.5t-102.5 78t-121.5 69q-55 27 -113.5 45t-114 30.5t-103.5 18.5t-79 4 q-23 -2 -51.5 -3t-52.5 -9q-2 -10 -4 -33l-4 -48l-5 -50q-2 -25 -2 -41q8 8 23.5 20t34.5 8q23 -4 37 -16t10 -45q-4 -29 -27.5 -62t-89.5 -49z" />
<glyph unicode="&#x42c;" horiz-adv-x="1662" d="M20 225q0 27 13.5 46.5t38.5 19.5q6 0 21 -15l38 -34l49.5 -42t52.5 -36q74 -37 127 -43l111 -12q0 23 2 45q2 20 2 47v57q-2 59 -6 118.5t-8 90.5q-27 12 -69 27.5t-81 41t-67.5 62.5t-28.5 90q0 59 30.5 93t72.5 52.5t86.5 24.5t70.5 10q6 55 5 100.5t-1 104.5 q0 70 -6 138.5t-2 99.5q4 25 24.5 41t43.5 12q27 -4 43 -32.5t25 -68.5t13.5 -85t6.5 -84q2 -29 4 -65l4 -70q2 -34 4 -63.5t4 -43.5q45 4 73.5 1t74.5 -5q102 -4 214.5 -33t217.5 -78q70 -35 132 -78t107 -93t72 -107.5t27 -118.5q0 -53 -31 -99t-82 -83t-116.5 -66 t-133.5 -47q-156 -43 -265.5 -51t-193.5 -10q-59 -2 -124.5 4t-133 18t-132 28.5t-120.5 39.5q-94 35 -151.5 78.5t-57.5 72.5zM297 692q4 -45 51 -79.5t113 -39.5q2 39 5 92.5t-3 96.5q-29 2 -47.5 0t-44.5 -12q-12 -6 -25.5 -10.5t-25 -9.5t-18.5 -14.5t-5 -23.5zM604 438 q2 -29 2 -57v-52q0 -28 2 -50q0 -27 1 -58t1 -59q0 -33 2 -64q31 -8 65 -14t93 -6q18 0 59 3t94.5 10t116 18.5t123.5 29.5q55 16 109.5 39t97.5 53.5t68.5 67.5t25.5 82q0 27 -25.5 63.5t-69.5 76.5t-102.5 78t-121.5 69q-55 27 -113.5 45t-114 30.5t-103.5 18.5t-79 4 q-23 -2 -51.5 -3t-52.5 -9q-2 -10 -4 -33l-4 -48l-5 -50q-2 -25 -2 -41q8 8 23.5 20t34.5 8q23 -4 37 -16t10 -45q-4 -29 -27.5 -62t-89.5 -49z" />
<glyph unicode="&#xdd;" horiz-adv-x="1284" d="M45 317q-2 27 5 45.5t36 18.5q14 0 34.5 -22.5t44.5 -51.5l47 -59q24 -31 46 -45q59 -43 139 -65.5t160 -22.5q55 0 126 48t128 116q31 37 52.5 83t34.5 91t20.5 82.5t9.5 60.5q-27 2 -59.5 4t-63.5 3t-51 1h-23h-126q-42 0 -62.5 -1t-28.5 -1h-22q-66 0 -102 16.5 t-36 43.5q0 43 38 50t81 7q31 0 99.5 -1t143.5 -1h140q66 0 90 2q4 47 -8 102.5t-29 106.5q-53 156 -192 274q-76 66 -160 105t-147 34q-41 -2 -77 -10t-63.5 -17l-48 -15.5t-28.5 -6.5q-12 2 -23.5 10.5t-9.5 22.5q2 16 30.5 35.5t68.5 36t86 27t85 8.5q102 -4 192.5 -47.5 t180.5 -122.5q82 -72 123 -140.5t69 -156.5l39 -113q20 -59 17 -127q63 -4 118.5 -10t85.5 -8q23 -2 36.5 -26t15.5 -50q2 -23 -14.5 -30t-40 -8t-49 3t-42.5 4h-69q-29 0 -60 -4q-4 -29 -9 -73t-17.5 -94t-32 -103.5t-51.5 -98.5q-37 -53 -82 -97t-93.5 -78t-96.5 -52 t-89 -18q-80 0 -143.5 13t-112.5 35.5t-87 51.5t-66 59q-35 35 -55.5 61.5t-32 47t-15.5 37t-4 30.5z" />
<glyph unicode="&#x42d;" horiz-adv-x="1284" d="M45 317q-2 27 5 45.5t36 18.5q14 0 34.5 -22.5t44.5 -51.5l47 -59q24 -31 46 -45q59 -43 139 -65.5t160 -22.5q55 0 126 48t128 116q31 37 52.5 83t34.5 91t20.5 82.5t9.5 60.5q-27 2 -59.5 4t-63.5 3t-51 1h-23h-126q-42 0 -62.5 -1t-28.5 -1h-22q-66 0 -102 16.5 t-36 43.5q0 43 38 50t81 7q31 0 99.5 -1t143.5 -1h140q66 0 90 2q4 47 -8 102.5t-29 106.5q-53 156 -192 274q-76 66 -160 105t-147 34q-41 -2 -77 -10t-63.5 -17l-48 -15.5t-28.5 -6.5q-12 2 -23.5 10.5t-9.5 22.5q2 16 30.5 35.5t68.5 36t86 27t85 8.5q102 -4 192.5 -47.5 t180.5 -122.5q82 -72 123 -140.5t69 -156.5l39 -113q20 -59 17 -127q63 -4 118.5 -10t85.5 -8q23 -2 36.5 -26t15.5 -50q2 -23 -14.5 -30t-40 -8t-49 3t-42.5 4h-69q-29 0 -60 -4q-4 -29 -9 -73t-17.5 -94t-32 -103.5t-51.5 -98.5q-37 -53 -82 -97t-93.5 -78t-96.5 -52 t-89 -18q-80 0 -143.5 13t-112.5 35.5t-87 51.5t-66 59q-35 35 -55.5 61.5t-32 47t-15.5 37t-4 30.5z" />
<glyph unicode="&#xde;" horiz-adv-x="1593" d="M56 1140.5q-1 59.5 1 96.5q0 23 3 46.5t9.5 44t18.5 32.5t33 12q18 0 29.5 -11t16.5 -28.5t5 -39.5v-44q-2 -59 -1 -123.5t1 -150.5q0 -70 2 -139.5t2 -139.5q14 6 39 22l53 34l58 38q29 19 47 37q23 49 55.5 101.5t71.5 103.5t80 94t79 74q49 37 98.5 58.5t90.5 35.5 q20 18 53 36t65.5 33t62.5 24.5t48 9.5q82 0 169 -45t159 -121t118 -173t46 -202q0 -80 -16.5 -159t-46 -152.5t-69.5 -140t-85 -121.5q-117 -141 -253 -216t-247 -75q-109 0 -204 47t-165.5 126t-112.5 181.5t-42 212.5q0 35 6 71t14 70l-47 -32l-49 -31l-44 -26 q-19 -11 -28 -17q2 -53 -1 -108.5t-3 -108.5q-2 -86 0 -155.5t0 -110.5q-2 -45 -18.5 -88t-51.5 -43q-29 0 -39 27.5t-10 62.5v98v155v185q0 98 2 188v160q0 80 -1 152.5t-2 132zM424 580q0 -25 6 -61t19.5 -78t35 -85t52.5 -82q53 -66 132 -112.5t175 -46.5q39 0 90 14 t107.5 45t114.5 76t110 106q82 94 140 219t56 285q-2 98 -40 176t-95 133.5t-123.5 84t-126.5 28.5q-66 0 -130 -41t-111 -106q-23 -31 -37.5 -72t-23.5 -86t-13 -89t-4 -81q0 -16 5 -36.5t18.5 -39t35 -30t51.5 -9.5q45 2 85 25.5t68 54.5t40 59.5t4 45.5l-32.5 -35 t-33.5 -15q-41 0 -65.5 21.5t-24.5 69.5q0 25 15.5 45t38 35.5t47 24.5t43.5 9q78 0 103.5 -35.5t27.5 -95.5q2 -63 -26 -120.5t-76 -101.5t-109.5 -69.5t-126.5 -25.5q-78 0 -130 52t-52 167q0 33 2 75t9 87t20.5 88t33.5 77q-25 -10 -54.5 -35.5t-59 -59.5t-58.5 -74.5 t-53 -83.5q-39 -74 -59.5 -154t-20.5 -143z" />
<glyph unicode="&#x42e;" horiz-adv-x="1593" d="M56 1140.5q-1 59.5 1 96.5q0 23 3 46.5t9.5 44t18.5 32.5t33 12q18 0 29.5 -11t16.5 -28.5t5 -39.5v-44q-2 -59 -1 -123.5t1 -150.5q0 -70 2 -139.5t2 -139.5q14 6 39 22l53 34l58 38q29 19 47 37q23 49 55.5 101.5t71.5 103.5t80 94t79 74q49 37 98.5 58.5t90.5 35.5 q20 18 53 36t65.5 33t62.5 24.5t48 9.5q82 0 169 -45t159 -121t118 -173t46 -202q0 -80 -16.5 -159t-46 -152.5t-69.5 -140t-85 -121.5q-117 -141 -253 -216t-247 -75q-109 0 -204 47t-165.5 126t-112.5 181.5t-42 212.5q0 35 6 71t14 70l-47 -32l-49 -31l-44 -26 q-19 -11 -28 -17q2 -53 -1 -108.5t-3 -108.5q-2 -86 0 -155.5t0 -110.5q-2 -45 -18.5 -88t-51.5 -43q-29 0 -39 27.5t-10 62.5v98v155v185q0 98 2 188v160q0 80 -1 152.5t-2 132zM424 580q0 -25 6 -61t19.5 -78t35 -85t52.5 -82q53 -66 132 -112.5t175 -46.5q39 0 90 14 t107.5 45t114.5 76t110 106q82 94 140 219t56 285q-2 98 -40 176t-95 133.5t-123.5 84t-126.5 28.5q-66 0 -130 -41t-111 -106q-23 -31 -37.5 -72t-23.5 -86t-13 -89t-4 -81q0 -16 5 -36.5t18.5 -39t35 -30t51.5 -9.5q45 2 85 25.5t68 54.5t40 59.5t4 45.5l-32.5 -35 t-33.5 -15q-41 0 -65.5 21.5t-24.5 69.5q0 25 15.5 45t38 35.5t47 24.5t43.5 9q78 0 103.5 -35.5t27.5 -95.5q2 -63 -26 -120.5t-76 -101.5t-109.5 -69.5t-126.5 -25.5q-78 0 -130 52t-52 167q0 33 2 75t9 87t20.5 88t33.5 77q-25 -10 -54.5 -35.5t-59 -59.5t-58.5 -74.5 t-53 -83.5q-39 -74 -59.5 -154t-20.5 -143z" />
<glyph unicode="&#xdf;" horiz-adv-x="1751" d="M8 1012q0 84 37 146.5t98.5 107.5t140 74.5t161.5 49t164 28.5l149 16q33 4 91 7t125.5 4t136.5 1t122 -4q129 -8 236.5 -22.5t181.5 -35.5q70 -18 112.5 -42.5t66 -49t31 -49t7.5 -43.5q0 -49 -29 -51q-8 0 -17.5 9t-19.5 24l-23 31q-13 17 -30 32q-29 25 -65 36l-70 22 q-25 6 -72 12l-98 12q-51 6 -97.5 10t-64.5 6q6 -35 9 -89t-1 -115q-2 -23 -1 -52.5t2 -70.5t2 -99.5t1 -138.5q25 -4 70 -2t94 -2q31 -4 60.5 -11t53 -19.5t37 -29t13.5 -36.5q-2 -43 -52 -64.5t-116 -31.5q-57 -10 -110.5 -15.5t-77.5 -9.5q-6 -27 -6 -70t2 -90t6 -92 t6 -76q2 -25 0 -53.5t-8 -53t-20.5 -40.5t-37.5 -12q-23 2 -36 28.5t-20 63.5t-11 74.5t-6 66.5q-8 72 -7.5 138.5t-5.5 103.5h-40q-26 0 -54.5 -1t-56 -6.5t-45.5 -13.5l-56 -42l-52 -42l-64 -50l-90 -66q-33 -23 -74 -59t-82 -76l-76 -76q-35 -37 -55 -64 q-16 -23 -17.5 -47.5t-23.5 -30.5q-31 -10 -54.5 17.5t-19.5 64.5q2 27 15.5 53.5t45 61.5t86 83l140.5 118l52 43l61 50l60 49q30 24 54 40q-29 2 -49 4t-38.5 3t-38 1t-44.5 2q-113 8 -220 44t-191 94.5t-135.5 137.5t-51.5 175zM131 1016q2 -72 34 -142.5t101 -111.5 q68 -41 151 -65.5t169 -37.5q109 -16 197.5 -18t117.5 -2l57 37q25 16 62 37q35 18 61.5 26.5t61.5 30.5q8 37 8 105.5t8 168.5q2 35 7 79t13 87l13 80q6 37 12 62q-70 0 -168 7t-209 -3q-147 -12 -264 -32.5t-231 -70.5q-43 -18 -80 -44.5t-63.5 -58.5t-42 -66.5 t-15.5 -67.5zM1311 655q29 -4 55.5 -3t30.5 16q4 20 -17 20q-16 2 -34.5 -9.5t-34.5 -23.5z" />
<glyph unicode="&#x42f;" horiz-adv-x="1751" d="M8 1012q0 84 37 146.5t98.5 107.5t140 74.5t161.5 49t164 28.5l149 16q33 4 91 7t125.5 4t136.5 1t122 -4q129 -8 236.5 -22.5t181.5 -35.5q70 -18 112.5 -42.5t66 -49t31 -49t7.5 -43.5q0 -49 -29 -51q-8 0 -17.5 9t-19.5 24l-23 31q-13 17 -30 32q-29 25 -65 36l-70 22 q-25 6 -72 12l-98 12q-51 6 -97.5 10t-64.5 6q6 -35 9 -89t-1 -115q-2 -23 -1 -52.5t2 -70.5t2 -99.5t1 -138.5q25 -4 70 -2t94 -2q31 -4 60.5 -11t53 -19.5t37 -29t13.5 -36.5q-2 -43 -52 -64.5t-116 -31.5q-57 -10 -110.5 -15.5t-77.5 -9.5q-6 -27 -6 -70t2 -90t6 -92 t6 -76q2 -25 0 -53.5t-8 -53t-20.5 -40.5t-37.5 -12q-23 2 -36 28.5t-20 63.5t-11 74.5t-6 66.5q-8 72 -7.5 138.5t-5.5 103.5h-40q-26 0 -54.5 -1t-56 -6.5t-45.5 -13.5l-56 -42l-52 -42l-64 -50l-90 -66q-33 -23 -74 -59t-82 -76l-76 -76q-35 -37 -55 -64 q-16 -23 -17.5 -47.5t-23.5 -30.5q-31 -10 -54.5 17.5t-19.5 64.5q2 27 15.5 53.5t45 61.5t86 83l140.5 118l52 43l61 50l60 49q30 24 54 40q-29 2 -49 4t-38.5 3t-38 1t-44.5 2q-113 8 -220 44t-191 94.5t-135.5 137.5t-51.5 175zM131 1016q2 -72 34 -142.5t101 -111.5 q68 -41 151 -65.5t169 -37.5q109 -16 197.5 -18t117.5 -2l57 37q25 16 62 37q35 18 61.5 26.5t61.5 30.5q8 37 8 105.5t8 168.5q2 35 7 79t13 87l13 80q6 37 12 62q-70 0 -168 7t-209 -3q-147 -12 -264 -32.5t-231 -70.5q-43 -18 -80 -44.5t-63.5 -58.5t-42 -66.5 t-15.5 -67.5zM1311 655q29 -4 55.5 -3t30.5 16q4 20 -17 20q-16 2 -34.5 -9.5t-34.5 -23.5z" />
<glyph unicode="&#xe0;" horiz-adv-x="1091" d="M4 176q0 98 55.5 173t135 125t171 78t162.5 30q72 4 147 -10.5l132 -26.5q-6 31 -18.5 79t-43.5 93q-18 27 -29 51.5t-27.5 42.5t-42 29.5t-68.5 11.5q-59 0 -93 -15.5t-59 -37.5q-14 -12 -25 -31l-19 -36q-9 -17 -17.5 -27.5t-20.5 -8.5q-14 4 -24.5 13.5t-8.5 23.5 q2 23 17.5 59.5t52.5 67.5q41 35 99.5 55.5t99.5 20.5q121 0 182 -51t98 -127q35 -72 57.5 -147.5t36.5 -114.5q6 -10 24 -17l36 -13q18 -7 31.5 -15.5t11.5 -20.5q-2 -25 -25 -41q-16 -10 -24.5 -9t-36.5 5q0 -27 12 -75l27 -100l26.5 -102.5t12.5 -78.5q0 -23 -19.5 -40.5 t-42.5 -17.5q-33 0 -56.5 65.5t-45.5 168.5l-23 114q-12 61 -22 127l-82 16q-39 7 -78 12t-80 8t-88 5q-45 2 -114.5 -17t-136 -55t-113 -87.5t-46.5 -114.5q0 -25 10.5 -52.5t35 -52t67.5 -40t109 -15.5q45 0 96 15.5t94 38t71.5 48t28.5 44.5q0 23 -15 35t-36.5 18t-45 7 t-42.5 3q-4 -10 4 -20.5t4 -24.5q-4 -16 -14 -26.5t-31 -6.5q-63 10 -76.5 26.5t-13.5 39.5q0 29 31 55.5t88 26.5q45 0 89 -8.5t78 -24.5t54.5 -39.5t20.5 -54.5q0 -35 -30 -76t-84 -77t-128 -60.5t-160 -24.5q-109 0 -169 25.5t-90 59.5t-37 70t-7 54z" />
<glyph unicode="&#x430;" horiz-adv-x="1091" d="M4 176q0 98 55.5 173t135 125t171 78t162.5 30q72 4 147 -10.5l132 -26.5q-6 31 -18.5 79t-43.5 93q-18 27 -29 51.5t-27.5 42.5t-42 29.5t-68.5 11.5q-59 0 -93 -15.5t-59 -37.5q-14 -12 -25 -31l-19 -36q-9 -17 -17.5 -27.5t-20.5 -8.5q-14 4 -24.5 13.5t-8.5 23.5 q2 23 17.5 59.5t52.5 67.5q41 35 99.5 55.5t99.5 20.5q121 0 182 -51t98 -127q35 -72 57.5 -147.5t36.5 -114.5q6 -10 24 -17l36 -13q18 -7 31.5 -15.5t11.5 -20.5q-2 -25 -25 -41q-16 -10 -24.5 -9t-36.5 5q0 -27 12 -75l27 -100l26.5 -102.5t12.5 -78.5q0 -23 -19.5 -40.5 t-42.5 -17.5q-33 0 -56.5 65.5t-45.5 168.5l-23 114q-12 61 -22 127l-82 16q-39 7 -78 12t-80 8t-88 5q-45 2 -114.5 -17t-136 -55t-113 -87.5t-46.5 -114.5q0 -25 10.5 -52.5t35 -52t67.5 -40t109 -15.5q45 0 96 15.5t94 38t71.5 48t28.5 44.5q0 23 -15 35t-36.5 18t-45 7 t-42.5 3q-4 -10 4 -20.5t4 -24.5q-4 -16 -14 -26.5t-31 -6.5q-63 10 -76.5 26.5t-13.5 39.5q0 29 31 55.5t88 26.5q45 0 89 -8.5t78 -24.5t54.5 -39.5t20.5 -54.5q0 -35 -30 -76t-84 -77t-128 -60.5t-160 -24.5q-109 0 -169 25.5t-90 59.5t-37 70t-7 54z" />
<glyph unicode="&#xe1;" horiz-adv-x="907" d="M4 449q-2 111 23.5 208t91.5 207q53 86 131 144.5t163 100.5t164.5 73.5t135.5 66.5q41 25 65.5 49.5t36.5 48t17.5 46t5.5 43.5q0 16 -7.5 40.5t-22.5 47t-37.5 38t-49.5 13.5q-16 0 -41 -7t-47.5 -18.5t-40 -25t-17.5 -27.5q0 -10 8.5 -19.5t21.5 -18.5t26.5 -14 t21.5 -5q6 0 16.5 5t20.5 11t19.5 10t13.5 2q16 -4 24.5 -15t8.5 -15q0 -16 -12.5 -31.5t-30 -26t-37 -16.5t-37.5 -4q-16 2 -41 11t-49.5 26.5t-42 43t-17.5 60.5q0 41 30 71t69 48t79 28.5t62 10.5q47 0 81 -18.5t57.5 -47t35.5 -64.5t17 -71q8 -66 -31 -148.5 t-129 -140.5q-55 -35 -132 -72l-154 -78q-77 -40 -141.5 -82t-92.5 -83q-37 -55 -59.5 -106.5t-35 -102.5t-18.5 -103.5t-8 -105.5q-4 -66 15.5 -135.5t53 -127.5t77.5 -97t89 -43q72 -8 138.5 21.5t119 82.5t86 121t39.5 133q10 145 -41 235.5t-182 96.5q-10 0 -32.5 -2 t-50.5 -9t-54.5 -19.5t-40.5 -28.5q-16 -16 -33 -40l-32 -46l-26 -38q-11 -15 -16 -16q-45 2 -45 43q2 35 31 83t70 89q53 53 121.5 77t121.5 20q160 -12 245 -122t69 -337q-6 -88 -47 -171t-107.5 -145.5t-152.5 -97.5t-181 -26q-94 8 -160.5 55t-108.5 118.5t-61.5 160 t-19.5 178.5z" />
<glyph unicode="&#x431;" horiz-adv-x="907" d="M4 449q-2 111 23.5 208t91.5 207q53 86 131 144.5t163 100.5t164.5 73.5t135.5 66.5q41 25 65.5 49.5t36.5 48t17.5 46t5.5 43.5q0 16 -7.5 40.5t-22.5 47t-37.5 38t-49.5 13.5q-16 0 -41 -7t-47.5 -18.5t-40 -25t-17.5 -27.5q0 -10 8.5 -19.5t21.5 -18.5t26.5 -14 t21.5 -5q6 0 16.5 5t20.5 11t19.5 10t13.5 2q16 -4 24.5 -15t8.5 -15q0 -16 -12.5 -31.5t-30 -26t-37 -16.5t-37.5 -4q-16 2 -41 11t-49.5 26.5t-42 43t-17.5 60.5q0 41 30 71t69 48t79 28.5t62 10.5q47 0 81 -18.5t57.5 -47t35.5 -64.5t17 -71q8 -66 -31 -148.5 t-129 -140.5q-55 -35 -132 -72l-154 -78q-77 -40 -141.5 -82t-92.5 -83q-37 -55 -59.5 -106.5t-35 -102.5t-18.5 -103.5t-8 -105.5q-4 -66 15.5 -135.5t53 -127.5t77.5 -97t89 -43q72 -8 138.5 21.5t119 82.5t86 121t39.5 133q10 145 -41 235.5t-182 96.5q-10 0 -32.5 -2 t-50.5 -9t-54.5 -19.5t-40.5 -28.5q-16 -16 -33 -40l-32 -46l-26 -38q-11 -15 -16 -16q-45 2 -45 43q2 35 31 83t70 89q53 53 121.5 77t121.5 20q160 -12 245 -122t69 -337q-6 -88 -47 -171t-107.5 -145.5t-152.5 -97.5t-181 -26q-94 8 -160.5 55t-108.5 118.5t-61.5 160 t-19.5 178.5z" />
<glyph unicode="&#xe2;" horiz-adv-x="1325" d="M2 199q0 43 19.5 80.5t54.5 68.5t82 52.5t100 31.5q41 10 93 16.5t89 4.5q-4 29 -6 54t-2 50q0 10 -2 29.5t2 42.5q2 47 2 86t4 92q4 33 6 58.5t7 52.5q-18 -2 -29.5 -3.5t-21 -3.5t-18.5 -5t-24 -5q-31 -6 -76.5 -18.5t-88.5 -34.5q-12 -6 -22.5 -15.5l-20 -18.5 t-17.5 -15t-16 -4q-18 4 -27.5 21.5t-5.5 35.5q2 18 21.5 37.5t49 37t64.5 32t70 24.5q29 8 71.5 17.5t92 16.5t103.5 12t103 5q152 0 242 -47t90 -156q0 -47 -15 -83.5t-32 -65.5q29 -4 90.5 -16.5t125 -47t112.5 -98t55 -168.5q2 -59 -19.5 -111.5t-60.5 -94.5t-91 -74.5 t-109 -55.5q-117 -41 -251 -54t-251 -13q-8 0 -42 -1t-83 3t-108.5 15t-116.5 36q-35 14 -69 33.5t-61.5 45t-45 55.5t-17.5 63zM92 209q0 -25 14.5 -45.5t39 -37.5t55 -31.5t63.5 -26.5q33 -10 69 -15.5t68.5 -8.5t60.5 -3h46q141 0 261 13.5t222 54.5q94 39 151.5 100 t57.5 143q0 55 -28.5 97.5t-75.5 64.5q-51 27 -109.5 36t-118.5 17q-14 -2 -38.5 -4t-52.5 -5l-57 -6q-30 -3 -56 -7q-39 -10 -65 -19.5t-48 -15.5v-35q0 -23 6 -33l63 -11q40 -7 79.5 -23.5t70.5 -47t33 -81.5q0 -18 -6 -37t-16.5 -34t-23 -24.5t-24.5 -9.5q-20 0 -28.5 4 t-10.5 12.5t0 16.5t2 18q-2 16 5.5 20.5t3.5 20.5q-2 16 -26 34.5t-40 27.5q-20 8 -38.5 10t-39.5 6q-4 -23 -6 -64.5t-2 -82.5q-2 -53 -14.5 -86t-46.5 -33q-16 0 -27.5 15.5t-18 34.5t-9.5 38.5t-3 26.5q0 31 1 74.5t3 80.5q-8 0 -16 1t-21 1q-23 0 -66.5 -4t-74.5 -12 q-96 -20 -132 -59t-36 -66zM555 666q41 4 71.5 8t69.5 10q90 16 133 61.5t48 85.5q2 37 -29 56.5t-70 27.5q-45 8 -104 9q-37 0 -55.5 -1t-27.5 -3t-13.5 -5.5t-12.5 -7.5q-4 -23 -3 -43t-1 -53q-2 -39 -4 -73.5t-2 -71.5z" />
<glyph unicode="&#x432;" horiz-adv-x="1325" d="M2 199q0 43 19.5 80.5t54.5 68.5t82 52.5t100 31.5q41 10 93 16.5t89 4.5q-4 29 -6 54t-2 50q0 10 -2 29.5t2 42.5q2 47 2 86t4 92q4 33 6 58.5t7 52.5q-18 -2 -29.5 -3.5t-21 -3.5t-18.5 -5t-24 -5q-31 -6 -76.5 -18.5t-88.5 -34.5q-12 -6 -22.5 -15.5l-20 -18.5 t-17.5 -15t-16 -4q-18 4 -27.5 21.5t-5.5 35.5q2 18 21.5 37.5t49 37t64.5 32t70 24.5q29 8 71.5 17.5t92 16.5t103.5 12t103 5q152 0 242 -47t90 -156q0 -47 -15 -83.5t-32 -65.5q29 -4 90.5 -16.5t125 -47t112.5 -98t55 -168.5q2 -59 -19.5 -111.5t-60.5 -94.5t-91 -74.5 t-109 -55.5q-117 -41 -251 -54t-251 -13q-8 0 -42 -1t-83 3t-108.5 15t-116.5 36q-35 14 -69 33.5t-61.5 45t-45 55.5t-17.5 63zM92 209q0 -25 14.5 -45.5t39 -37.5t55 -31.5t63.5 -26.5q33 -10 69 -15.5t68.5 -8.5t60.5 -3h46q141 0 261 13.5t222 54.5q94 39 151.5 100 t57.5 143q0 55 -28.5 97.5t-75.5 64.5q-51 27 -109.5 36t-118.5 17q-14 -2 -38.5 -4t-52.5 -5l-57 -6q-30 -3 -56 -7q-39 -10 -65 -19.5t-48 -15.5v-35q0 -23 6 -33l63 -11q40 -7 79.5 -23.5t70.5 -47t33 -81.5q0 -18 -6 -37t-16.5 -34t-23 -24.5t-24.5 -9.5q-20 0 -28.5 4 t-10.5 12.5t0 16.5t2 18q-2 16 5.5 20.5t3.5 20.5q-2 16 -26 34.5t-40 27.5q-20 8 -38.5 10t-39.5 6q-4 -23 -6 -64.5t-2 -82.5q-2 -53 -14.5 -86t-46.5 -33q-16 0 -27.5 15.5t-18 34.5t-9.5 38.5t-3 26.5q0 31 1 74.5t3 80.5q-8 0 -16 1t-21 1q-23 0 -66.5 -4t-74.5 -12 q-96 -20 -132 -59t-36 -66zM555 666q41 4 71.5 8t69.5 10q90 16 133 61.5t48 85.5q2 37 -29 56.5t-70 27.5q-45 8 -104 9q-37 0 -55.5 -1t-27.5 -3t-13.5 -5.5t-12.5 -7.5q-4 -23 -3 -43t-1 -53q-2 -39 -4 -73.5t-2 -71.5z" />
<glyph unicode="&#xe3;" horiz-adv-x="954" d="M-31 553q0 25 17.5 51.5t42 52t52.5 51t48 50.5v151q2 57 15.5 92t58.5 35q27 0 39 -21.5t17 -51t5 -60.5v-51l64 21q45 15 102 32t115.5 29t101.5 12q55 0 114.5 -5t108 -21.5t77 -47t24.5 -81.5q-2 -18 -9.5 -38t-19.5 -35.5t-27.5 -25.5t-29.5 -8t-23.5 6t-17.5 15 q-6 8 -3 16t9 16t12 17.5t6 19.5q2 47 -57 68.5t-164 17.5q-59 -2 -116.5 -16.5t-106.5 -33.5t-88 -39.5t-64 -37.5v-373q0 -115 2 -186.5t2 -103.5q0 -33 -25.5 -61.5t-45.5 -28.5q-35 0 -53.5 28.5t-26.5 77.5t-10 113.5t-2 136.5q2 59 0 124.5t-2 125.5q-16 -4 -29 -17 l-24 -24q-11 -12 -22 -22.5t-26 -10.5q-16 0 -28.5 14.5t-12.5 26.5z" />
<glyph unicode="&#x433;" horiz-adv-x="954" d="M-31 553q0 25 17.5 51.5t42 52t52.5 51t48 50.5v151q2 57 15.5 92t58.5 35q27 0 39 -21.5t17 -51t5 -60.5v-51l64 21q45 15 102 32t115.5 29t101.5 12q55 0 114.5 -5t108 -21.5t77 -47t24.5 -81.5q-2 -18 -9.5 -38t-19.5 -35.5t-27.5 -25.5t-29.5 -8t-23.5 6t-17.5 15 q-6 8 -3 16t9 16t12 17.5t6 19.5q2 47 -57 68.5t-164 17.5q-59 -2 -116.5 -16.5t-106.5 -33.5t-88 -39.5t-64 -37.5v-373q0 -115 2 -186.5t2 -103.5q0 -33 -25.5 -61.5t-45.5 -28.5q-35 0 -53.5 28.5t-26.5 77.5t-10 113.5t-2 136.5q2 59 0 124.5t-2 125.5q-16 -4 -29 -17 l-24 -24q-11 -12 -22 -22.5t-26 -10.5q-16 0 -28.5 14.5t-12.5 26.5z" />
<glyph unicode="&#xe4;" horiz-adv-x="931" d="M0 371q12 109 55 185.5t106.5 125.5t140.5 71.5t155 20.5q49 -2 98 -32.5t96 -71.5q35 -31 56.5 -56.5t17.5 -48.5q-2 -23 -12.5 -31t-26.5 -8q-10 0 -40 30l-68 65q-33 27 -68 46t-64 19q-66 0 -126 -24.5t-107 -69.5t-78 -105.5t-37 -132.5q-2 -27 16.5 -80t56.5 -108 t92 -98t126 -50q61 -6 113.5 19.5t94.5 71t73.5 105.5t54.5 126q25 74 49.5 204t18.5 294q-2 51 -12.5 108.5t-28 113.5t-40 109.5t-46.5 96.5q-68 117 -155 183.5t-159 70.5q-37 2 -72.5 -5.5t-66.5 -26t-51.5 -52t-24.5 -86.5q-6 -72 13.5 -124t51 -88t69.5 -54.5 t67 -20.5q20 -2 50 2t59.5 17.5t51 36t25.5 59.5q4 41 -37 72.5t-102 35.5q-27 2 -37 -22q-4 -14 8.5 -21.5t10.5 -21.5q-2 -27 -35 -31t-53.5 15.5t-22.5 62.5q0 16 11.5 34.5t29.5 33t39.5 23.5t44.5 9q29 0 68.5 -10t76.5 -32.5t62.5 -61.5t25.5 -95q0 -51 -33.5 -86.5 t-76.5 -58.5t-84 -32t-53 -9q-104 6 -168 45t-97.5 94.5t-43 116.5t-5.5 111q12 135 87 201.5t229 58.5q82 -4 184 -73t195 -214q59 -96 100 -223t51 -262q4 -57 -1 -126t-15.5 -137.5t-23.5 -130t-25 -104.5q-8 -29 -22.5 -73t-39 -94t-59.5 -99t-84 -85t-114.5 -55.5 t-149.5 -9.5q-72 8 -140.5 53.5t-121 109t-82 139t-21.5 145.5z" />
<glyph unicode="&#x434;" horiz-adv-x="931" d="M0 371q12 109 55 185.5t106.5 125.5t140.5 71.5t155 20.5q49 -2 98 -32.5t96 -71.5q35 -31 56.5 -56.5t17.5 -48.5q-2 -23 -12.5 -31t-26.5 -8q-10 0 -40 30l-68 65q-33 27 -68 46t-64 19q-66 0 -126 -24.5t-107 -69.5t-78 -105.5t-37 -132.5q-2 -27 16.5 -80t56.5 -108 t92 -98t126 -50q61 -6 113.5 19.5t94.5 71t73.5 105.5t54.5 126q25 74 49.5 204t18.5 294q-2 51 -12.5 108.5t-28 113.5t-40 109.5t-46.5 96.5q-68 117 -155 183.5t-159 70.5q-37 2 -72.5 -5.5t-66.5 -26t-51.5 -52t-24.5 -86.5q-6 -72 13.5 -124t51 -88t69.5 -54.5 t67 -20.5q20 -2 50 2t59.5 17.5t51 36t25.5 59.5q4 41 -37 72.5t-102 35.5q-27 2 -37 -22q-4 -14 8.5 -21.5t10.5 -21.5q-2 -27 -35 -31t-53.5 15.5t-22.5 62.5q0 16 11.5 34.5t29.5 33t39.5 23.5t44.5 9q29 0 68.5 -10t76.5 -32.5t62.5 -61.5t25.5 -95q0 -51 -33.5 -86.5 t-76.5 -58.5t-84 -32t-53 -9q-104 6 -168 45t-97.5 94.5t-43 116.5t-5.5 111q12 135 87 201.5t229 58.5q82 -4 184 -73t195 -214q59 -96 100 -223t51 -262q4 -57 -1 -126t-15.5 -137.5t-23.5 -130t-25 -104.5q-8 -29 -22.5 -73t-39 -94t-59.5 -99t-84 -85t-114.5 -55.5 t-149.5 -9.5q-72 8 -140.5 53.5t-121 109t-82 139t-21.5 145.5z" />
<glyph unicode="&#xe5;" horiz-adv-x="1001" d="M-4 -8q0 20 2 20t-2 17q-2 8 8 23.5t26 34.5l33 41l35 40q-8 12 -22.5 45t-28.5 72t-24.5 76.5t-10.5 60.5q0 61 19.5 120.5t54.5 113t81 97.5t99 78q76 49 157 69t134 22q78 2 129 -6.5t85 -22.5t53.5 -30.5t31.5 -31.5q12 6 24.5 5.5t22.5 1.5q12 2 20.5 -11.5 t10.5 -23.5q2 -14 -36 -52t-94 -87l-120 -103l-115 -98q-102 -90 -168.5 -158.5t-134.5 -124.5q59 -45 153.5 -73.5t256.5 -24.5q59 2 110.5 16.5t92.5 30.5t68.5 29.5t39.5 13.5q14 0 24.5 -9t8.5 -24q-2 -16 -28.5 -41.5t-73 -49t-110 -40t-136.5 -16.5q-123 0 -208 12 t-142.5 29.5t-93 35l-58.5 29.5q-33 -41 -58.5 -77.5t-66.5 -36.5q-16 0 -24.5 4t-24.5 4zM123 430q0 -8 7 -30.5t18.5 -49t25.5 -53.5t27 -43q16 12 47 38l70 59l86 74l92 83l176 162q72 63 119 116l-28.5 19.5t-36 16.5t-53.5 11.5t-79 4.5q-86 0 -156.5 -21.5 t-126.5 -58.5q-94 -61 -141 -152.5t-47 -175.5z" />
<glyph unicode="&#x435;" horiz-adv-x="1001" d="M-4 -8q0 20 2 20t-2 17q-2 8 8 23.5t26 34.5l33 41l35 40q-8 12 -22.5 45t-28.5 72t-24.5 76.5t-10.5 60.5q0 61 19.5 120.5t54.5 113t81 97.5t99 78q76 49 157 69t134 22q78 2 129 -6.5t85 -22.5t53.5 -30.5t31.5 -31.5q12 6 24.5 5.5t22.5 1.5q12 2 20.5 -11.5 t10.5 -23.5q2 -14 -36 -52t-94 -87l-120 -103l-115 -98q-102 -90 -168.5 -158.5t-134.5 -124.5q59 -45 153.5 -73.5t256.5 -24.5q59 2 110.5 16.5t92.5 30.5t68.5 29.5t39.5 13.5q14 0 24.5 -9t8.5 -24q-2 -16 -28.5 -41.5t-73 -49t-110 -40t-136.5 -16.5q-123 0 -208 12 t-142.5 29.5t-93 35l-58.5 29.5q-33 -41 -58.5 -77.5t-66.5 -36.5q-16 0 -24.5 4t-24.5 4zM123 430q0 -8 7 -30.5t18.5 -49t25.5 -53.5t27 -43q16 12 47 38l70 59l86 74l92 83l176 162q72 63 119 116l-28.5 19.5t-36 16.5t-53.5 11.5t-79 4.5q-86 0 -156.5 -21.5 t-126.5 -58.5q-94 -61 -141 -152.5t-47 -175.5z" />
<glyph unicode="&#xe6;" horiz-adv-x="1327" d="M-33 18q0 4 36 36t91 77l121 97l125 96l125 90t96 73q-27 20 -79 68l-130 117q-41 37 -81 68l-71 58q-32 26 -50.5 46t-18.5 33q2 16 20.5 25t36.5 11q4 0 26 -14t52 -39l70 -55l78 -64l70 -56l61 -45l44 -30.5t21 -11.5q-2 51 -3 141t-5 187q-2 47 -5 94t-5 90t-2 79 t4 60q4 18 17.5 40t31.5 22q14 0 28.5 -27t16.5 -72l5 -115q3 -69 7 -147l5 -107l4 -104q2 -49 5 -89t7 -64l40 24l70 44l88 55l89 53l77 45l77 46q36 22 62.5 35t32.5 13q18 0 27.5 -17.5t9.5 -27.5q0 -14 -26.5 -33.5t-65.5 -44t-85 -50.5t-85 -52l-148 -101 q-73 -49 -110 -79q37 -33 122 -94.5t177 -135.5l133 -104l85 -67.5t43.5 -42t4.5 -27.5l-21 -47q-11 -24 -32 -23q-10 0 -27.5 14.5t-48 42t-78 66.5t-116.5 90l-82 61l-78 60l-68 51l-51 37q-2 -29 -3 -71t-1 -83v-73v-44q0 -55 -16.5 -82.5t-57.5 -27.5t-46 36t-3 103 q0 29 -1 65t-1 73v73q0 35 2 64q-53 -41 -112.5 -80t-116.5 -84l-94 -76l-119 -92l-106 -78q-46 -33 -54 -33q-14 2 -27.5 18.5t-13.5 32.5z" />
<glyph unicode="&#x436;" horiz-adv-x="1327" d="M-33 18q0 4 36 36t91 77l121 97l125 96l125 90t96 73q-27 20 -79 68l-130 117q-41 37 -81 68l-71 58q-32 26 -50.5 46t-18.5 33q2 16 20.5 25t36.5 11q4 0 26 -14t52 -39l70 -55l78 -64l70 -56l61 -45l44 -30.5t21 -11.5q-2 51 -3 141t-5 187q-2 47 -5 94t-5 90t-2 79 t4 60q4 18 17.5 40t31.5 22q14 0 28.5 -27t16.5 -72l5 -115q3 -69 7 -147l5 -107l4 -104q2 -49 5 -89t7 -64l40 24l70 44l88 55l89 53l77 45l77 46q36 22 62.5 35t32.5 13q18 0 27.5 -17.5t9.5 -27.5q0 -14 -26.5 -33.5t-65.5 -44t-85 -50.5t-85 -52l-148 -101 q-73 -49 -110 -79q37 -33 122 -94.5t177 -135.5l133 -104l85 -67.5t43.5 -42t4.5 -27.5l-21 -47q-11 -24 -32 -23q-10 0 -27.5 14.5t-48 42t-78 66.5t-116.5 90l-82 61l-78 60l-68 51l-51 37q-2 -29 -3 -71t-1 -83v-73v-44q0 -55 -16.5 -82.5t-57.5 -27.5t-46 36t-3 103 q0 29 -1 65t-1 73v73q0 35 2 64q-53 -41 -112.5 -80t-116.5 -84l-94 -76l-119 -92l-106 -78q-46 -33 -54 -33q-14 2 -27.5 18.5t-13.5 32.5z" />
<glyph unicode="&#xe7;" horiz-adv-x="894" d="M-133 -594q-8 49 10.5 123t64.5 145.5t120.5 127t179.5 67.5q12 2 55 -6t88 -28.5t79 -55.5t32 -86q-4 -45 -25.5 -85t-54.5 -71t-74 -49t-80 -20q-59 -4 -93 21.5t-30 55.5q2 14 6.5 34t12.5 35t20 25.5t29 10.5q31 -6 39 -29q2 -14 -9.5 -22.5t-7.5 -22.5 q14 -25 41 -18q16 2 39 15t43.5 30.5t33.5 37t11 37.5q-6 35 -26.5 53.5t-46 27t-52 10.5t-47.5 2q-35 0 -87 -30t-98 -80t-74.5 -115.5t-16.5 -135.5q6 -41 31.5 -65.5t60.5 -39t76 -19.5t78 -5q23 0 43 1t36 3q35 4 83.5 22.5t99.5 50.5t100 76t86 99q41 66 68.5 135.5 t25.5 171.5q0 20 1 41t1 43q0 43 -9 86t-42 80q-27 29 -57.5 52.5t-57.5 19.5q-16 -2 -39.5 -16.5l-47.5 -30.5l-43 -30q-19 -13 -27 -13q-16 -2 -29.5 4t-23 16t-14.5 22.5t-7 22.5q-4 16 16.5 33.5t52.5 35.5l66 37q35 19 60 42q25 20 33 47.5t20 52.5q23 47 39 97t10 139 q-4 47 -30.5 88t-65.5 70.5t-82 47t-78 15.5q-33 -2 -82 -22.5t-102 -71.5q-31 -27 -51.5 -53.5t-34.5 -50.5l-26 -41q-11 -17 -21 -23q-8 -4 -16.5 -2t-14.5 7t-10.5 10t-4.5 9q-2 8 6.5 30.5t26 51.5t42 60.5t55.5 60.5q70 63 122 89t107 36q51 8 109.5 -6.5t110.5 -50 t92 -90t52 -123.5q4 -16 5 -31v-31q0 -53 -12.5 -106.5t-30 -100.5t-39 -83t-39.5 -56q47 -16 79.5 -36.5t67.5 -57.5q61 -66 76.5 -139.5t15.5 -149.5q-2 -125 -46 -231.5t-99 -184.5q-49 -70 -106.5 -116t-114 -75.5t-108.5 -44t-93 -20.5q-49 -6 -96 -6q-125 0 -220.5 51 t-115.5 162z" />
<glyph unicode="&#x437;" horiz-adv-x="894" d="M-133 -594q-8 49 10.5 123t64.5 145.5t120.5 127t179.5 67.5q12 2 55 -6t88 -28.5t79 -55.5t32 -86q-4 -45 -25.5 -85t-54.5 -71t-74 -49t-80 -20q-59 -4 -93 21.5t-30 55.5q2 14 6.5 34t12.5 35t20 25.5t29 10.5q31 -6 39 -29q2 -14 -9.5 -22.5t-7.5 -22.5 q14 -25 41 -18q16 2 39 15t43.5 30.5t33.5 37t11 37.5q-6 35 -26.5 53.5t-46 27t-52 10.5t-47.5 2q-35 0 -87 -30t-98 -80t-74.5 -115.5t-16.5 -135.5q6 -41 31.5 -65.5t60.5 -39t76 -19.5t78 -5q23 0 43 1t36 3q35 4 83.5 22.5t99.5 50.5t100 76t86 99q41 66 68.5 135.5 t25.5 171.5q0 20 1 41t1 43q0 43 -9 86t-42 80q-27 29 -57.5 52.5t-57.5 19.5q-16 -2 -39.5 -16.5l-47.5 -30.5l-43 -30q-19 -13 -27 -13q-16 -2 -29.5 4t-23 16t-14.5 22.5t-7 22.5q-4 16 16.5 33.5t52.5 35.5l66 37q35 19 60 42q25 20 33 47.5t20 52.5q23 47 39 97t10 139 q-4 47 -30.5 88t-65.5 70.5t-82 47t-78 15.5q-33 -2 -82 -22.5t-102 -71.5q-31 -27 -51.5 -53.5t-34.5 -50.5l-26 -41q-11 -17 -21 -23q-8 -4 -16.5 -2t-14.5 7t-10.5 10t-4.5 9q-2 8 6.5 30.5t26 51.5t42 60.5t55.5 60.5q70 63 122 89t107 36q51 8 109.5 -6.5t110.5 -50 t92 -90t52 -123.5q4 -16 5 -31v-31q0 -53 -12.5 -106.5t-30 -100.5t-39 -83t-39.5 -56q47 -16 79.5 -36.5t67.5 -57.5q61 -66 76.5 -139.5t15.5 -149.5q-2 -125 -46 -231.5t-99 -184.5q-49 -70 -106.5 -116t-114 -75.5t-108.5 -44t-93 -20.5q-49 -6 -96 -6q-125 0 -220.5 51 t-115.5 162z" />
<glyph unicode="&#xe8;" horiz-adv-x="1021" d="M41 287q-10 104 4 213.5t47 226.5q33 115 58.5 186.5t60.5 77.5q29 4 52.5 -13t23.5 -48q0 -20 -25.5 -78.5t-48.5 -134.5l-24 -92q-13 -51 -23 -105.5t-15.5 -107t-0.5 -95.5q4 -49 29.5 -97t66.5 -85t92 -55.5t108 -7.5q31 6 72 22.5t83 39t81 52t70 60.5l-24 97 l-30 124q-14 72 -25 151.5t-16 137.5v25q0 17 5.5 36t14.5 33t28 16q31 4 46 -23.5t27 -56.5q16 -41 20.5 -87t12.5 -107q10 -66 22.5 -135.5t22.5 -106.5q12 12 21.5 28.5t20.5 32t22.5 25.5t25.5 13q14 2 26.5 -7.5t14.5 -25.5q4 -53 -30.5 -106.5t-75.5 -88.5l29 -100 q13 -43 12 -82q-4 -51 -52 -70q-18 -6 -32.5 11.5t-25.5 45t-20.5 58.5t-19.5 49q-18 -10 -45 -31.5t-64.5 -45t-87 -43t-108.5 -25.5q-113 -12 -191.5 11.5t-130 68.5t-76 103.5t-28.5 115.5z" />
<glyph unicode="&#x438;" horiz-adv-x="1021" d="M41 287q-10 104 4 213.5t47 226.5q33 115 58.5 186.5t60.5 77.5q29 4 52.5 -13t23.5 -48q0 -20 -25.5 -78.5t-48.5 -134.5l-24 -92q-13 -51 -23 -105.5t-15.5 -107t-0.5 -95.5q4 -49 29.5 -97t66.5 -85t92 -55.5t108 -7.5q31 6 72 22.5t83 39t81 52t70 60.5l-24 97 l-30 124q-14 72 -25 151.5t-16 137.5v25q0 17 5.5 36t14.5 33t28 16q31 4 46 -23.5t27 -56.5q16 -41 20.5 -87t12.5 -107q10 -66 22.5 -135.5t22.5 -106.5q12 12 21.5 28.5t20.5 32t22.5 25.5t25.5 13q14 2 26.5 -7.5t14.5 -25.5q4 -53 -30.5 -106.5t-75.5 -88.5l29 -100 q13 -43 12 -82q-4 -51 -52 -70q-18 -6 -32.5 11.5t-25.5 45t-20.5 58.5t-19.5 49q-18 -10 -45 -31.5t-64.5 -45t-87 -43t-108.5 -25.5q-113 -12 -191.5 11.5t-130 68.5t-76 103.5t-28.5 115.5z" />
<glyph unicode="&#xe9;" horiz-adv-x="1021" d="M41 287q-10 104 4 213.5t47 226.5q33 115 58.5 186.5t60.5 77.5q29 4 52.5 -13t23.5 -48q0 -20 -25.5 -78.5t-48.5 -134.5l-24 -92q-13 -51 -23 -105.5t-15.5 -107t-0.5 -95.5q4 -49 29.5 -97t66.5 -85t92 -55.5t108 -7.5q31 6 72 22.5t83 39t81 52t70 60.5l-24 97 l-30 124q-14 72 -25 151.5t-16 137.5v25q0 17 5.5 36t14.5 33t28 16q31 4 46 -23.5t27 -56.5q16 -41 20.5 -87t12.5 -107q10 -66 22.5 -135.5t22.5 -106.5q12 12 21.5 28.5t20.5 32t22.5 25.5t25.5 13q14 2 26.5 -7.5t14.5 -25.5q4 -53 -30.5 -106.5t-75.5 -88.5l29 -100 q13 -43 12 -82q-4 -51 -52 -70q-18 -6 -32.5 11.5t-25.5 45t-20.5 58.5t-19.5 49q-18 -10 -45 -31.5t-64.5 -45t-87 -43t-108.5 -25.5q-113 -12 -191.5 11.5t-130 68.5t-76 103.5t-28.5 115.5zM189.5 1517.5q-7.5 28.5 9.5 59.5q14 29 45.5 41t58.5 2q37 -14 81 -52t103 -73 q10 12 21.5 35.5t28.5 46.5q14 25 42.5 40t90.5 -20q29 -16 40 -37.5t12 -46t-5 -52t-10 -56.5q35 6 81 10t76 -14q33 -20 34 -61.5t-15 -65.5q-10 -14 -58.5 -25.5t-97.5 -19.5q-23 -4 -28 -5t-25 -3l71 -26q39 -13 86 -26q59 -16 113.5 -22t81.5 -6t49.5 17.5t36.5 44 t21.5 59t7.5 63.5q0 4 -3 20.5t-9.5 37l-13.5 41t-15 32.5q-16 25 -37 45.5t-23 26.5t2.5 16t14.5 12t37.5 -23.5t48.5 -49.5q27 -35 43 -82t18 -70q2 -31 -7 -74t-29.5 -82.5t-51.5 -68.5t-74 -31q-49 -2 -122.5 6.5t-141.5 30.5q-53 18 -85 28l-72 21q0 -88 -35 -139 q-8 -16 -40 -27.5t-54 0.5q-45 27 -65.5 54.5t-27 55.5t-4.5 53.5t2 47.5l-95 -13q-52 -7 -81 5q-16 10 -20 28.5t2 35.5q2 8 12 21t24 29l26 30q13 15 22 28q-14 18 -36 42t-38 50.5t-23.5 55zM264 1513q-4 -6 8.5 -21l28.5 -33.5t33.5 -35t23.5 -20.5q37 -8 57.5 -3 t43.5 21q-47 31 -89 68t-59 45q-29 10 -47 -21zM348 1286q39 -4 60 14q-2 4 -2 11q-2 4 -2.5 8t-2.5 8q-18 -4 -31.5 -10t-21.5 -31zM467 1214l7 -90q3 -37 24 -47q4 -4 13 -2t13 6q20 33 26.5 64t-13.5 90q-12 -4 -38 -9.5t-32 -11.5zM539 1438q4 -6 24.5 -14.5t36.5 -4.5 q6 6 14.5 20.5t13.5 30t4 28.5t-14 20q-14 8 -26 -1.5t-22.5 -24.5t-18.5 -31.5t-12 -22.5zM655 1294q14 -4 37 -2t45.5 7.5t41 11.5t24.5 10t6 10t-4 10q-8 6 -27.5 6.5t-41 -3t-42 -8.5t-32.5 -9q0 -10 -2.5 -19.5t-4.5 -13.5z" />
</font>
</defs>
</svg>
