<?xml version="1.0" standalone="no"?>
<!DOCTYPE svg PUBLIC "-//W3C//DTD SVG 1.1//EN" "http://www.w3.org/Graphics/SVG/1.1/DTD/svg11.dtd" >
<svg xmlns="http://www.w3.org/2000/svg">
<metadata></metadata>
<defs>
<font id="nokia_pure_headline_extra_bRg" horiz-adv-x="1138" >
<font-face units-per-em="2048" ascent="1536" descent="-512" />
<missing-glyph horiz-adv-x="557" />
<glyph unicode="&#xfb01;" horiz-adv-x="1353" d="M12 733v299h176v64q0 92 14.5 177t58.5 149.5t125 102.5t212 38q86 0 137 -12.5t86 -24.5l-37 -285q-29 6 -53 10t-57 4q-59 0 -89 -38.5t-30 -96.5v-88h698v-1032h-366v733h-332v-733h-367v733h-176zM879 1327q0 90 52 145.5t140 55.5t140.5 -54.5t52.5 -146.5 q0 -94 -52.5 -148.5t-140.5 -54.5t-140 56.5t-52 146.5z" />
<glyph unicode="&#xfb02;" horiz-adv-x="1353" d="M12 733v299h176v64q0 92 14.5 177t59.5 149.5t125 102.5t213 38q76 0 137.5 -9.5t96.5 -19.5l-33 -287q-51 10 -109 10q-137 0 -137 -157v-68h244v-299h-244v-733h-367v733h-176zM885 0v1536h366v-1536h-366z" />
<glyph unicode="&#xfb03;" horiz-adv-x="2050" d="M12 733v299h176v64q0 92 14.5 177t59.5 149.5t125 102.5t213 38q88 0 142.5 -13.5t86.5 -23.5l-28 -281q-27 6 -54.5 11.5t-60.5 5.5q-72 0 -101.5 -39t-29.5 -117v-74h330v64q0 92 17.5 177t64.5 149.5t129 103.5t211 37q80 -2 129 -13.5t82 -23.5l-37 -285 q-29 6 -53.5 10t-57.5 4q-59 0 -89 -38.5t-30 -96.5v-88h699v-1032h-367v733h-332v-733h-366v733h-330v-733h-367v733h-176zM1575 1327q0 90 52 145.5t140 55.5t140.5 -54.5t52.5 -146.5q0 -94 -52.5 -148.5t-140.5 -54.5t-140 56.5t-52 146.5z" />
<glyph unicode="&#xfb04;" horiz-adv-x="2056" d="M12 733v299h176v64q0 92 14.5 177t59.5 149.5t125 102.5t213 38q88 0 142.5 -13.5t86.5 -23.5l-28 -281q-27 6 -54.5 11.5t-60.5 5.5q-72 0 -101.5 -39t-29.5 -117v-74h330v47q0 92 15 179.5t60.5 155t127 108.5t212.5 41q76 0 135.5 -9.5t94.5 -19.5l-33 -287 q-51 10 -108 10q-137 0 -138 -157v-68h244v-299h-244v-733h-366v733h-330v-733h-367v733h-176zM1587 0v1536h367v-1536h-367z" />
<glyph unicode="&#xd;" horiz-adv-x="557" />
<glyph horiz-adv-x="0" />
<glyph horiz-adv-x="0" />
<glyph unicode=" "  horiz-adv-x="557" />
<glyph unicode="&#x09;" horiz-adv-x="557" />
<glyph unicode="&#xa0;" horiz-adv-x="557" />
<glyph unicode="!" horiz-adv-x="634" d="M123 178q0 86 53 141.5t141 55.5t141.5 -52.5t53.5 -144.5t-53 -144t-142 -52q-88 0 -141 55t-53 141zM135 459v981h367v-981h-367z" />
<glyph unicode="&#x22;" horiz-adv-x="843" d="M51 1440h334l-39 -547h-254zM459 1440h334l-39 -547h-254z" />
<glyph unicode="#" horiz-adv-x="1476" d="M41 272l55 299h226l55 279h-242l55 299h248l58 291h309l-60 -291h175l57 291h309l-59 -291h209l-56 -299h-213l-55 -279h231l-55 -299h-235l-56 -272h-309l55 272h-174l-53 -272h-309l55 272h-221zM629 571h176l55 279h-176z" />
<glyph unicode="$" d="M53 113l115 241q18 -10 49 -24.5t73 -28.5t91 -27.5t102 -19.5v336l-65 24q-78 25 -143.5 62t-113.5 88t-75 118.5t-27 153.5q0 174 113 287t311 133v162h193v-162q102 -10 192 -40t152 -70l-105 -244q-31 16 -98 40.5t-141 35.5v-306l43 -16q82 -31 151.5 -66.5 t119.5 -85t79 -119t29 -167.5q0 -86 -29 -159t-84 -129t-133 -94t-176 -52v-207h-193v200q-78 4 -143.5 19.5t-119.5 35t-96 41t-71 40.5zM371 1063q0 -41 24.5 -69.5t87.5 -53.5v238q-55 -8 -83.5 -42t-28.5 -73zM676 258q57 16 81.5 50t24.5 75q0 49 -23.5 80t-82.5 57 v-262z" />
<glyph unicode="%" horiz-adv-x="2007" d="M51 1042q0 195 103.5 307.5t287.5 112.5t288 -112.5t104 -307.5t-102.5 -307t-289.5 -112q-186 0 -288.5 112.5t-102.5 306.5zM346 1042q0 -104 27.5 -144t68.5 -40t69 40t28 144t-28 144.5t-69 40.5t-68.5 -40t-27.5 -145zM451 0l776 1440h334l-781 -1440h-329z M1174 395q0 195 103 307.5t288 112.5q184 0 287.5 -112.5t103.5 -307.5t-102.5 -307.5t-288.5 -112.5t-288.5 113t-102.5 307zM1468 395q0 -104 28 -144t69 -40t68.5 40t27.5 144t-27.5 144.5t-68.5 40.5t-69 -40t-28 -145z" />
<glyph unicode="&#x26;" horiz-adv-x="1464" d="M51 381q0 86 25.5 150.5t68.5 114.5t99.5 89t117.5 70q-70 78 -106.5 147.5t-36.5 155.5q0 168 119 266.5t330 98.5q106 0 188 -28t137.5 -77t84 -115.5t28.5 -142.5q0 -59 -14.5 -109.5t-47 -95.5t-84 -87t-124.5 -85l202 -239q35 41 67 99t56 112l264 -132 q-41 -92 -94 -171.5t-100 -137.5l223 -264h-387l-72 82q-68 -41 -162 -76t-229 -35q-260 0 -406.5 105.5t-146.5 304.5zM414 422q0 -88 61.5 -133t145.5 -45q61 0 105 15t79 36l-258 303q-53 -29 -93 -67.5t-40 -108.5zM535 1108q0 -47 37.5 -95t78.5 -89q25 14 52.5 32.5 t49 42t36 49t14.5 52.5q0 49 -37 83t-98 34q-59 0 -96 -28t-37 -81z" />
<glyph unicode="'" horiz-adv-x="436" d="M51 1440h334l-39 -557h-254z" />
<glyph unicode="(" horiz-adv-x="632" d="M72 670q0 160 21.5 298t54 248.5t70.5 191.5t71 128h323q-37 -61 -72.5 -149.5t-63 -200t-44 -242.5t-16.5 -274q0 -145 16.5 -275.5t44 -242t63 -199.5t72.5 -150h-323q-33 47 -71 128t-70.5 191.5t-54 249t-21.5 298.5z" />
<glyph unicode=")" horiz-adv-x="632" d="M20 -197q37 61 72 149.5t62.5 200t45 241.5t17.5 276q0 143 -17.5 274t-45 242.5t-62.5 200t-72 149.5h324q33 -47 71 -128t70.5 -191.5t54 -249t21.5 -297.5q0 -160 -21.5 -298.5t-54 -249t-70.5 -191.5t-71 -128h-324z" />
<glyph unicode="*" horiz-adv-x="923" d="M31 1155l82 225l231 -92l-16 248h268l-16 -248l231 92l82 -225l-254 -65l166 -203l-209 -146l-133 220l-135 -220l-209 146l166 200z" />
<glyph unicode="+" d="M35 561v311h375v404h319v-404h375v-311h-375v-403h-319v403h-375z" />
<glyph unicode="," horiz-adv-x="544" d="M25 -295q35 55 77.5 132t65.5 159q-55 29 -81 76t-26 108q0 92 52.5 145.5t138.5 53.5t139 -57.5t53 -163.5q0 -78 -31.5 -157t-76.5 -151.5t-94 -132t-82 -98.5z" />
<glyph unicode="-" horiz-adv-x="903" d="M78 406v335h747v-335h-747z" />
<glyph unicode="." horiz-adv-x="561" d="M92 184q0 86 50.5 144.5t138.5 58.5t138 -55.5t50 -147.5t-50 -147t-138 -55t-138.5 58t-50.5 144z" />
<glyph unicode="/" horiz-adv-x="991" d="M6 -96l639 1632h340l-639 -1632h-340z" />
<glyph unicode="0" horiz-adv-x="1269" d="M45 723q0 172 38 310t111.5 234.5t184 148.5t256.5 52q145 0 255.5 -51t184.5 -147t112 -234.5t38 -312.5q0 -356 -146.5 -554t-443.5 -198q-299 0 -444.5 196t-145.5 556zM434 723q0 -233 47 -335.5t154 -102.5q104 0 152.5 104.5t48.5 333.5q0 231 -49.5 331.5 t-151.5 100.5t-151.5 -100.5t-49.5 -331.5z" />
<glyph unicode="1" horiz-adv-x="1054" d="M31 1137l524 303h336v-1440h-379v1044l-338 -176z" />
<glyph unicode="2" horiz-adv-x="1159" d="M51 1178q20 33 60.5 83t107 96t161.5 79.5t224 33.5q123 0 213 -32.5t147.5 -88t85 -128t27.5 -152.5q0 -86 -27.5 -156.5t-72.5 -131t-104.5 -113t-122.5 -101.5q-74 -57 -120 -98t-74 -70.5t-39 -50t-15 -37.5h569v-311h-1016v51q0 215 101.5 378t292.5 308 q70 55 117.5 94t76.5 73t41 65.5t12 72.5q0 55 -38.5 87t-104.5 32q-51 0 -93 -16.5t-77 -41t-62.5 -54t-46.5 -56.5z" />
<glyph unicode="3" horiz-adv-x="1097" d="M37 1253q29 33 73 71t105 70.5t139 53t174 20.5q123 0 212 -30.5t147.5 -84t86 -124t27.5 -150.5q0 -66 -22.5 -120t-55 -96t-72.5 -70.5t-73 -42.5q27 -8 69 -29t82 -57.5t68.5 -95t28.5 -144.5q0 -102 -37 -185t-106.5 -142.5t-172 -92.5t-233.5 -33q-174 0 -277.5 27 t-144.5 45l74 283q57 -25 128 -40.5t169 -15.5q109 0 169 39t60 123q0 70 -50 112t-156 42h-199v307h205q94 0 141 37t47 104q0 66 -43 104t-133 38q-45 0 -83 -11.5t-69.5 -30t-57.5 -40t-46 -41.5z" />
<glyph unicode="4" horiz-adv-x="1206" d="M41 274v281l467 885h385l-449 -850h207v211h355v-219h159v-308h-159v-274h-355v274h-610z" />
<glyph unicode="5" horiz-adv-x="1191" d="M41 59l78 293q45 -16 127 -40.5t217 -24.5q119 2 192.5 53t73.5 168q0 68 -48 116t-138 48q-78 0 -136.5 -25.5t-105.5 -60.5l-201 145l86 709h848v-310h-577l-23 -208q23 10 87.5 22t142.5 12q90 0 170.5 -27.5t142 -84t97.5 -141.5t36 -197q0 -117 -41 -214t-121 -169 t-197.5 -112t-271.5 -40q-176 0 -285.5 30t-152.5 58z" />
<glyph unicode="6" horiz-adv-x="1202" d="M45 621q0 190 44 345.5t128 267.5t209 173t285 61q135 0 237.5 -27.5t184.5 -82.5l-125 -279q-14 8 -41 20.5t-63 25t-80 20.5t-89 8q-115 0 -197.5 -65.5t-111.5 -192.5q53 49 131 68.5t150 19.5q86 0 167.5 -30.5t145 -91t102.5 -150.5t39 -209q0 -127 -41 -225.5 t-114.5 -166t-174 -103.5t-217.5 -36q-145 0 -251.5 46t-177 131t-105.5 205t-35 268zM424 487q0 -98 45 -157.5t129 -59.5q80 0 132 52.5t52 156.5q0 94 -44 153.5t-136 59.5q-70 0 -124 -53.5t-54 -151.5z" />
<glyph unicode="7" horiz-adv-x="1034" d="M20 1122v318h977v-291l-487 -1149h-393l475 1122h-572z" />
<glyph unicode="8" horiz-adv-x="1171" d="M29 397q0 127 52 208t144 140q-72 53 -115.5 132t-43.5 184q0 94 38.5 170t108.5 128t165 79.5t208 27.5t210 -24.5t168.5 -74.5t112.5 -126t41 -178q0 -63 -18.5 -113.5t-47 -89.5t-63.5 -66.5t-67 -48.5q37 -23 76.5 -54.5t72.5 -72t53.5 -94t20.5 -116.5 q0 -104 -40 -185.5t-112.5 -136.5t-176 -84t-230.5 -29q-129 0 -231.5 32t-175.5 89.5t-111.5 135t-38.5 167.5zM399 414q0 -84 55.5 -122t131.5 -38q78 0 131 37t53 115q0 76 -70.5 127t-179.5 90q-59 -37 -90 -94.5t-31 -114.5zM430 1057q0 -66 49 -111t146 -78 q53 35 88 80t35 111t-47 97.5t-115 31.5q-63 0 -109.5 -33t-46.5 -98z" />
<glyph unicode="9" horiz-adv-x="1200" d="M35 942q0 121 38 219.5t107.5 167t170 106.5t224.5 38q297 0 438.5 -176.5t141.5 -520.5q0 -170 -34 -317.5t-111.5 -256t-202.5 -170t-305 -61.5q-113 0 -210 19.5t-186 58.5l70 291q80 -25 152.5 -39t156.5 -14q119 0 187.5 55.5t91.5 153.5q-66 -39 -127.5 -50.5 t-118.5 -11.5q-94 0 -181 30t-154.5 91t-107.5 157.5t-40 229.5zM414 965q0 -113 42 -174.5t128 -61.5q92 0 139 60.5t47 152.5q0 111 -44 171.5t-136 60.5q-72 0 -124 -49.5t-52 -159.5z" />
<glyph unicode=":" horiz-adv-x="552" d="M90 184q0 86 50.5 144.5t138.5 58.5t138 -55.5t50 -147.5t-50 -147t-138 -55t-138.5 58t-50.5 144zM90 846q0 86 50.5 144.5t138.5 58.5t138 -55.5t50 -147.5t-50 -147t-138 -55t-138.5 58t-50.5 144z" />
<glyph unicode=";" horiz-adv-x="544" d="M25 -295q35 55 77.5 132t65.5 159q-55 29 -81 76t-26 108q0 92 52.5 145.5t138.5 53.5t139 -57.5t53 -163.5q0 -78 -31.5 -157t-76.5 -151.5t-94 -132t-82 -98.5zM65 846q0 86 50.5 144.5t138.5 58.5t138 -55.5t50 -147.5t-50 -147t-138 -55t-138.5 58t-50.5 144z" />
<glyph unicode="&#x3c;" d="M106 567v299l818 363l108 -266l-590 -246l590 -262l-108 -269z" />
<glyph unicode="=" d="M76 301v311h987v-311h-987zM76 793v311h987v-311h-987z" />
<glyph unicode="&#x3e;" d="M106 463l590 262l-590 246l109 266l817 -363v-299l-817 -380z" />
<glyph unicode="?" horiz-adv-x="1077" d="M20 1264q39 41 89.5 78.5t113 66.5t139 46.5t168.5 17.5q133 0 225.5 -33t151 -85t84 -120t25.5 -135q0 -66 -15.5 -118t-45 -97t-73 -85t-98.5 -79q-43 -33 -70.5 -63.5t-44 -61.5t-23.5 -64.5t-9 -72.5h-348q0 80 14 140t39 107.5t59.5 85t75.5 74.5t72 61.5t50 46 t28.5 45t9.5 54.5q0 47 -36 75t-103 28q-86 0 -159 -31t-146 -98zM274 178q0 86 53.5 141.5t141.5 55.5t141.5 -52.5t53.5 -144.5t-53.5 -144t-141.5 -52t-141.5 55t-53.5 141z" />
<glyph unicode="@" horiz-adv-x="2168" d="M53 467q0 223 79 416.5t226.5 336t359.5 223.5t478 81q236 0 410 -57.5t288.5 -161t170 -245.5t55.5 -310q0 -156 -46 -288t-129 -228.5t-199 -150.5t-257 -54q-106 0 -162.5 34.5t-79.5 88.5q-68 -66 -149.5 -94.5t-153.5 -28.5t-134 24.5t-108.5 76.5t-73 131 t-26.5 190q0 123 37 225t101.5 176t151.5 115t185 41q82 0 137.5 -34t90.5 -77l24 90h289l-98 -502q-4 -27 -9.5 -51t-5.5 -37q0 -10 8.5 -32.5t40.5 -22.5q55 0 97.5 35t69 92t40 130t13.5 149q0 109 -36 198.5t-109 155t-183.5 102.5t-261.5 37q-176 0 -319.5 -52 t-246 -149.5t-159 -235.5t-56.5 -310q0 -352 192.5 -520.5t571.5 -168.5q90 0 186.5 16.5t186.5 43t167 61.5t130 72l145 -254q-84 -61 -182 -107.5t-205.5 -77t-217 -45t-214.5 -14.5q-539 0 -824.5 246t-285.5 721zM942 455q0 -100 29.5 -134t70.5 -34q29 0 63 12t56 35 l29 162q10 51 13 89t-1 72q-6 41 -28.5 63.5t-57.5 22.5t-65.5 -21.5t-55 -59t-39 -91t-14.5 -116.5z" />
<glyph unicode="A" horiz-adv-x="1345" d="M2 0l475 1440h389l477 -1440h-385l-73 258h-436l-74 -258h-373zM535 557h266l-131 463z" />
<glyph unicode="B" horiz-adv-x="1255" d="M117 0v1440h547q129 0 217 -33t143 -86t78.5 -119.5t23.5 -132.5q0 -68 -18 -120t-50 -90t-73 -62.5t-86 -34.5q55 -6 109.5 -30.5t97.5 -67.5t69.5 -104.5t26.5 -137.5q0 -207 -130 -314.5t-388 -107.5h-567zM485 307h172q94 0 133 40t39 99t-35.5 102.5t-111.5 43.5 h-197v-285zM485 895h140q59 0 96 28.5t37 94.5q0 61 -37 88t-84 27h-152v-238z" />
<glyph unicode="C" horiz-adv-x="1263" d="M72 698q0 166 41 307.5t123.5 246t206.5 163t292 58.5q156 0 271.5 -50.5t201.5 -130.5l-172 -248q-45 37 -112.5 70t-161.5 33q-150 0 -223.5 -117t-73.5 -332q0 -213 80 -311t225 -98q92 0 167 30.5t116 63.5l166 -256q-53 -41 -106.5 -70.5t-114 -49t-130 -30 t-155.5 -10.5q-158 0 -278 51.5t-200.5 146.5t-121.5 230t-41 303z" />
<glyph unicode="D" horiz-adv-x="1456" d="M117 0v1440h534q197 0 336 -51.5t227.5 -146.5t129 -228t40.5 -295q0 -166 -42 -298t-131 -226.5t-228 -144.5t-332 -50h-534zM502 322h162q72 0 132 24.5t103 73.5t67.5 123.5t24.5 177.5q0 213 -89 305t-243 92h-157v-796z" />
<glyph unicode="E" horiz-adv-x="1144" d="M117 0v1440h946v-338h-561v-191h418v-338h-418v-235h581v-338h-966z" />
<glyph unicode="F" horiz-adv-x="1124" d="M117 0v1440h966v-338h-581v-207h422v-338h-422v-557h-385z" />
<glyph unicode="G" horiz-adv-x="1349" d="M72 719q0 172 44 311t130 237.5t213 152t293 53.5q152 0 264 -39t194 -103l-151 -254q-35 25 -100.5 50.5t-161.5 25.5q-170 0 -251 -109.5t-81 -324.5q0 -102 18.5 -183t58.5 -138.5t102.5 -88t150.5 -30.5q61 0 133 14v264h-236v299h559v-797q-29 -10 -73.5 -26.5 t-110.5 -30.5t-152 -24.5t-194 -10.5q-313 0 -481 192.5t-168 559.5z" />
<glyph unicode="H" horiz-adv-x="1413" d="M117 0v1440h385v-525h409v525h385v-1440h-385v559h-409v-559h-385z" />
<glyph unicode="I" horiz-adv-x="622" d="M119 0v1440h385v-1440h-385z" />
<glyph unicode="J" horiz-adv-x="1071" d="M0 90l119 279q18 -10 46 -24.5t62.5 -27t76.5 -21.5t85 -9t80 9t65.5 39t45 85t16.5 145v875h385v-885q0 -141 -27.5 -249.5t-94 -184.5t-175.5 -115t-270 -39q-76 0 -141.5 14.5t-119 34t-93.5 40t-60 34.5z" />
<glyph unicode="K" horiz-adv-x="1488" d="M117 0v1440h385v-666l483 666h418l-500 -670l574 -770h-455l-520 748v-748h-385z" />
<glyph unicode="L" horiz-adv-x="1118" d="M117 0v1440h389v-1102h571v-338h-960z" />
<glyph unicode="M" horiz-adv-x="1650" d="M117 0v1440h397l311 -647l305 647h404v-1440h-334v831l-237 -495h-295l-217 469v-805h-334z" />
<glyph unicode="N" horiz-adv-x="1404" d="M117 0v1440h344l483 -785v785h344v-1440h-344l-483 784v-784h-344z" />
<glyph unicode="O" horiz-adv-x="1499" d="M78 721q0 158 39 295t122 238.5t208.5 160t302.5 58.5q174 0 301 -58.5t209.5 -160t121.5 -238.5t39 -295t-40 -295t-121.5 -239.5t-208.5 -161t-301 -58.5t-301 58.5t-209 161t-122 239.5t-40 295zM471 719q0 -113 17.5 -190.5t52 -127t87 -72t122.5 -22.5t122 22.5 t86.5 72t52 127t17.5 190.5q0 223 -69.5 318.5t-208.5 95.5t-209 -96.5t-70 -317.5z" />
<glyph unicode="P" horiz-adv-x="1259" d="M117 0v1440h549q162 0 270 -41t173 -109.5t92.5 -157t27.5 -180.5q0 -86 -27.5 -173t-96.5 -157.5t-184.5 -114.5t-291.5 -44h-131v-463h-381zM498 780h127q39 0 78.5 5.5t72.5 22.5t53.5 53t20.5 97q0 47 -16.5 79t-43 50.5t-63.5 26.5t-76 8h-153v-342z" />
<glyph unicode="Q" horiz-adv-x="1509" d="M72 721q0 158 39 295t121.5 238.5t208.5 160t302 58.5q174 0 301 -58.5t210 -160t122 -238.5t39 -295q0 -111 -19.5 -211t-58.5 -186t-99 -156t-142 -117q39 -35 78.5 -56.5t86 -36.5t101.5 -25.5t127 -20.5l-64 -287q-227 20 -394 105.5t-302 236.5q-170 2 -294 62.5 t-204.5 162t-119.5 237.5t-39 292zM533.5 407.5q68.5 -100.5 209.5 -100.5t210 100.5t69 311.5q0 414 -279 414q-278 0 -278 -411q0 -214 68.5 -314.5z" />
<glyph unicode="R" horiz-adv-x="1359" d="M117 0v1440h592q176 0 283.5 -43t167 -108.5t80 -143.5t20.5 -146q0 -147 -74 -252.5t-197 -152.5l371 -594h-442l-295 498h-125v-498h-381zM498 813h143q111 0 171 35t60 121q0 88 -53 120.5t-164 32.5h-157v-309z" />
<glyph unicode="S" horiz-adv-x="1157" d="M51 106l139 295q20 -12 58.5 -29.5t87.5 -35t105.5 -29.5t115.5 -12q86 0 135 28.5t49 88.5q0 43 -30.5 71.5t-118.5 55.5l-191 59q-76 25 -138 61.5t-108 88t-72 119t-26 151.5q0 219 140.5 337t384.5 118q135 0 254.5 -33t193.5 -82l-125 -293q-20 10 -52 24.5 t-72 26.5t-87 21.5t-96 9.5q-78 0 -125 -24.5t-47 -78.5q0 -41 29.5 -66.5t109.5 -49.5l187 -58q76 -23 140 -56.5t111.5 -84.5t75 -121.5t27.5 -167.5q0 -227 -145.5 -350t-403.5 -123q-96 0 -174 14.5t-141.5 36t-110.5 46t-80 42.5z" />
<glyph unicode="T" horiz-adv-x="1232" d="M31 1087v353h1171v-353h-387v-1087h-389v1087h-395z" />
<glyph unicode="U" horiz-adv-x="1374" d="M90 608v832h389v-840q0 -90 11.5 -148.5t36 -94t64.5 -50t95 -14.5q57 0 97 14.5t65.5 50t38 94t12.5 148.5v840h385v-828q0 -154 -30.5 -273.5t-101.5 -202.5t-185.5 -126t-280.5 -43t-280.5 44t-184 127t-100.5 202t-31 268z" />
<glyph unicode="V" horiz-adv-x="1320" d="M12 1440h404l250 -975l254 975h389l-455 -1440h-383z" />
<glyph unicode="W" horiz-adv-x="1820" d="M20 1440h386l131 -889l180 856h391l174 -854l129 887h389l-305 -1440h-397l-187 846l-192 -846h-393z" />
<glyph unicode="X" horiz-adv-x="1372" d="M16 0l467 756l-409 684h420l202 -369l209 369h408l-420 -682l463 -758h-422l-248 434l-252 -434h-418z" />
<glyph unicode="Y" horiz-adv-x="1335" d="M20 1440h394l260 -506l256 506h385l-451 -830v-610h-389v610z" />
<glyph unicode="Z" horiz-adv-x="1255" d="M49 0v281l617 825h-580v334h1098v-277l-623 -829h653v-334h-1165z" />
<glyph unicode="[" horiz-adv-x="786" d="M123 -356v1892h614v-307h-276v-1278h276v-307h-614z" />
<glyph unicode="\" horiz-adv-x="991" d="M6 1536h340l639 -1632h-340z" />
<glyph unicode="]" horiz-adv-x="786" d="M49 -49h277v1278h-277v307h615v-1892h-615v307z" />
<glyph unicode="^" d="M43 647l356 766h342l355 -766h-328l-199 475l-198 -475h-328z" />
<glyph unicode="_" horiz-adv-x="999" d="M-41 -139h1081v-318h-1081v318z" />
<glyph unicode="`" horiz-adv-x="956" d="M154 1415l122 248l527 -295l-98 -201z" />
<glyph unicode="a" horiz-adv-x="1081" d="M51 313q0 168 106.5 259.5t329.5 91.5q14 0 38 -1t48.5 -2.5t47 -3.5t34.5 -4v25q0 51 -35.5 84t-127.5 33t-164 -17.5t-133 -52.5l-97 227q76 45 182.5 77t258.5 32q129 0 215 -31t139 -86t75.5 -134t22.5 -173v-637h-297l-10 94q-14 -16 -36.5 -36.5t-57.5 -39t-85 -31 t-120 -12.5q-72 0 -132 19.5t-105.5 61.5t-71 105.5t-25.5 151.5zM387 336q0 -45 23.5 -75t83.5 -30q78 0 119.5 44t41.5 94v67q-37 8 -72.5 9t-68.5 1q-59 0 -93 -29.5t-34 -80.5z" />
<glyph unicode="b" horiz-adv-x="1191" d="M98 0v1536h365v-567q45 43 108.5 67.5t149.5 24.5q106 0 186 -41t131.5 -113.5t77 -172t25.5 -216.5q0 -135 -36 -235.5t-96.5 -167t-139 -99t-164.5 -32.5q-102 0 -170 27.5t-115 72.5l-12 -84h-310zM461 305q29 -14 65.5 -23.5t71.5 -9.5q88 0 130 64.5t42 179.5 q0 109 -27.5 173.5t-115.5 64.5q-86 0 -126 -60.5t-40 -195.5v-193z" />
<glyph unicode="c" horiz-adv-x="980" d="M57 520q0 119 35 218.5t101.5 171t163 111.5t218.5 40q80 0 141.5 -13.5t106.5 -33t77 -42t54 -40.5l-145 -238q-23 18 -72 39t-116 21q-86 0 -141.5 -58.5t-55.5 -175.5q0 -129 54 -187.5t153 -58.5q66 0 116 16.5t87 41.5l129 -250q-55 -41 -143.5 -78t-225.5 -37 q-141 0 -243.5 44t-167 119t-95.5 175t-31 215z" />
<glyph unicode="d" horiz-adv-x="1191" d="M53 514q0 113 25.5 212t78 174t132.5 118t190 43q72 0 137.5 -21.5t112.5 -66.5v563h365v-1536h-289l-12 96q-37 -41 -116 -74.5t-177 -33.5q-86 0 -167 27.5t-143.5 91t-99.5 163t-37 244.5zM424 520q0 -139 40 -191.5t114 -52.5q57 0 98 26t57 48v160q0 41 -5 84 t-21.5 79t-50 59.5t-89.5 23.5q-78 0 -110.5 -59.5t-32.5 -176.5z" />
<glyph unicode="e" horiz-adv-x="1083" d="M55 524q0 117 33 215.5t95.5 170t154.5 111.5t211 40q240 0 363.5 -140.5t123.5 -426.5v-84h-645q10 -72 70.5 -120t187.5 -48q78 0 153 16t120 33l71 -248q-41 -25 -138 -50.5t-239 -25.5q-119 0 -221 34t-178 103.5t-119 174t-43 245.5zM377 629h340q-18 162 -172 162 q-76 0 -118 -44.5t-50 -117.5z" />
<glyph unicode="f" horiz-adv-x="802" d="M12 733v299h176v64q0 92 17.5 177t63.5 149.5t129 102.5t216 38q104 0 160.5 -9.5t95.5 -19.5l-32 -283q-29 6 -52.5 9.5t-64.5 3.5q-166 0 -166 -164v-68h244v-299h-244v-733h-367v733h-176z" />
<glyph unicode="g" horiz-adv-x="1107" d="M20 -190q0 76 34 133t75 92l-2 -8q-29 29 -49.5 74.5t-20.5 115.5t38 134.5t83 105.5q-43 43 -67.5 104.5t-24.5 126.5q0 98 42 169t108.5 115t148.5 65.5t160 21.5q98 0 164.5 -13.5t117.5 -13.5h267v-231h-15q-80 0 -145 26q27 -29 46 -72.5t19 -103.5 q0 -88 -36.5 -151.5t-98 -105.5t-144.5 -61.5t-175 -19.5q-96 0 -176 29q-10 -12 -17.5 -25.5t-7.5 -29.5q0 -35 26.5 -54.5t90.5 -21.5l244 -8q199 -6 289.5 -85t90.5 -220q0 -86 -36.5 -156t-107.5 -121t-174 -78.5t-239 -27.5q-88 0 -178 11t-163.5 44t-120 90t-46.5 150 zM305 -117q0 -59 48 -89t175 -30q131 0 191.5 32t60.5 73q0 29 -32.5 36t-73.5 7h-148q-47 0 -102 5t-109 20l2 2q-6 -12 -9 -24.5t-3 -31.5zM412 686q0 -76 36 -109.5t95 -33.5t95 33.5t36 109.5t-36 109.5t-95 33.5t-95 -33.5t-36 -109.5z" />
<glyph unicode="h" horiz-adv-x="1175" d="M98 0v1536h363v-598q43 53 107.5 88t168.5 35q186 0 267 -109.5t81 -304.5v-647h-366v598q0 80 -30 116t-91 36q-80 0 -106.5 -67t-26.5 -187v-496h-367z" />
<glyph unicode="i" horiz-adv-x="579" d="M96 1327q0 90 52.5 145.5t140.5 55.5t140 -54.5t52 -146.5q0 -94 -52 -148.5t-140 -54.5t-140.5 56.5t-52.5 146.5zM106 0v1032h367v-1032h-367z" />
<glyph unicode="j" horiz-adv-x="589" d="M-195 -440l35 286q8 -4 48 -10t83 -6q49 0 78 18.5t44.5 50t19.5 72.5t4 86v975h366v-979q0 -266 -100 -396t-340 -130q-74 0 -138.5 11t-99.5 22zM109 1327q0 90 52 145.5t140 55.5t140.5 -54.5t52.5 -146.5q0 -94 -52.5 -148.5t-140.5 -54.5t-140 56.5t-52 146.5z" />
<glyph unicode="k" horiz-adv-x="1204" d="M98 0v1536h367v-979l321 475h404l-344 -463l366 -569h-415l-332 539v-539h-367z" />
<glyph unicode="l" horiz-adv-x="571" d="M102 0v1536h367v-1536h-367z" />
<glyph unicode="m" horiz-adv-x="1763" d="M94 0v1032h332l14 -127q33 61 109 107.5t172 46.5t166.5 -41t111.5 -107q47 66 122 107t167 41q197 0 291 -110.5t94 -319.5v-629h-366v598q0 150 -113 150q-70 0 -98.5 -60.5t-28.5 -206.5v-481h-367v598q0 61 -24.5 105.5t-83.5 44.5q-70 0 -100.5 -56.5t-30.5 -206.5 v-485h-367z" />
<glyph unicode="n" horiz-adv-x="1171" d="M94 0v1032h332l14 -117q45 59 111.5 101.5t181.5 42.5q186 0 267 -109.5t81 -304.5v-645h-366v596q0 80 -30 116t-91 36q-80 0 -106.5 -67t-26.5 -187v-494h-367z" />
<glyph unicode="o" horiz-adv-x="1187" d="M55 514q0 127 37 228.5t106.5 172t169 108.5t226.5 38q125 0 225.5 -38t170 -108.5t106.5 -172t37 -228.5t-37 -227.5t-106.5 -170t-170 -107.5t-225.5 -38t-225.5 38t-170 107.5t-106.5 170t-37 227.5zM424 514q0 -256 170 -256t170 256q0 131 -40 195.5t-130 64.5 t-130 -64.5t-40 -195.5z" />
<glyph unicode="p" horiz-adv-x="1196" d="M98 -451v1483h324l12 -127q43 66 116 110t179 44q100 0 177 -38t129 -108.5t79 -170t27 -222.5q0 -135 -36 -236.5t-94.5 -169t-135 -102.5t-158.5 -35q-47 0 -112.5 9.5t-139.5 50.5v-488h-367zM461 299q63 -33 129 -33q90 0 135 66.5t45 193.5q0 113 -35 170.5 t-112 57.5q-92 0 -127 -65.5t-35 -213.5v-176z" />
<glyph unicode="q" horiz-adv-x="1191" d="M53 520q0 113 25.5 211t78 172t132 116t188.5 42q84 0 163 -38t120 -97l10 106h324v-1483h-367v517q-27 -29 -60.5 -45.5t-65.5 -25.5t-58.5 -12t-38.5 -3q-98 0 -181 33.5t-143.5 101t-93.5 169t-33 236.5zM457 333.5q39 -57.5 116 -57.5q53 0 94.5 23t63.5 49v166 q0 33 -4 75t-20.5 79t-49 62.5t-90.5 25.5q-149 0 -149 -223q0 -142 39 -199.5z" />
<glyph unicode="r" horiz-adv-x="837" d="M94 0v1032h324l12 -147q18 31 47 60.5t66 53t81 38t91 14.5q29 0 59.5 -2t54.5 -11l-38 -321q-12 6 -49 13t-83 7q-25 0 -58.5 -10t-65 -46t-53 -105.5t-21.5 -188.5v-387h-367z" />
<glyph unicode="s" horiz-adv-x="960" d="M37 92l115 232q61 -37 150 -69t183 -32q61 0 89 15.5t28 46.5q0 25 -20.5 39t-81.5 28l-146 33q-61 14 -114.5 41t-91 66.5t-60 96t-22.5 132.5q0 70 24.5 132t75.5 108.5t130.5 73t190.5 26.5q139 0 236.5 -31t175.5 -82l-92 -223q-47 27 -122 54.5t-173 27.5 q-66 0 -98.5 -16.5t-32.5 -45.5q0 -25 21.5 -42t97.5 -33l118 -27q166 -39 234 -119t68 -209q0 -74 -23 -137t-75 -110.5t-136 -74t-209 -26.5q-74 0 -141.5 11.5t-123.5 30t-101 40t-74 43.5z" />
<glyph unicode="t" horiz-adv-x="837" d="M16 733v299h162v252l359 80v-332h235v-299h-235v-311q0 -76 36.5 -102.5t98.5 -26.5q37 0 61.5 3t44.5 7l29 -293q-31 -10 -94.5 -21.5t-161.5 -11.5q-104 0 -176 27t-115 73t-62.5 108.5t-19.5 136.5v411h-162z" />
<glyph unicode="u" horiz-adv-x="1163" d="M90 403v629h367v-645q0 -66 26.5 -93.5t75.5 -27.5q74 0 108.5 55.5t34.5 180.5v530h367v-1032h-321l-19 125q-55 -76 -127 -114t-168 -38q-180 0 -262 107.5t-82 322.5z" />
<glyph unicode="v" horiz-adv-x="1093" d="M18 1032h392l141 -680l141 680h383l-346 -1032h-367z" />
<glyph unicode="w" horiz-adv-x="1462" d="M18 1032h338l109 -645l121 612h293l125 -612l108 645h332l-260 -1032h-330l-123 508l-117 -508h-333z" />
<glyph unicode="x" horiz-adv-x="1097" d="M10 0l338 518l-323 514h378l146 -268l145 268h363l-314 -508l344 -524h-385l-165 283l-166 -283h-361z" />
<glyph unicode="y" horiz-adv-x="1067" d="M-2 1032h381l160 -559l163 559h375l-612 -1483h-356l247 562z" />
<glyph unicode="z" horiz-adv-x="1042" d="M53 0v219l467 535h-436v278h897v-217l-477 -536h477v-279h-928z" />
<glyph unicode="{" horiz-adv-x="825" d="M72 434v307q57 8 92 26.5t54.5 44.5t25.5 57.5t6 68.5v180q0 199 131 308.5t414 109.5v-307q-70 2 -111 -18.5t-62.5 -52.5t-27.5 -69.5t-6 -70.5v-195q0 -82 -35 -138t-102 -97q68 -41 102.5 -95.5t34.5 -140.5v-194q0 -33 6 -70t27.5 -67.5t62.5 -51t111 -18.5v-311 q-287 0 -416 108.5t-129 312.5v177q0 37 -6 68.5t-25.5 57t-54.5 44t-92 26.5z" />
<glyph unicode="|" horiz-adv-x="606" d="M139 -455v1991h328v-1991h-328z" />
<glyph unicode="}" horiz-adv-x="825" d="M31 -49q68 0 108.5 18.5t62 48t29 66.5t7.5 74v194q0 86 34.5 140.5t104.5 95.5q-70 41 -104.5 97t-34.5 138v195q0 33 -6.5 70.5t-27 69.5t-62.5 52.5t-111 18.5v307q287 0 415.5 -108.5t128.5 -309.5v-180q0 -37 7.5 -68.5t27 -57.5t54 -44t90.5 -27v-307 q-55 -8 -90 -26.5t-54.5 -44t-27 -57.5t-7.5 -68v-177q0 -203 -128 -312t-416 -109v311z" />
<glyph unicode="~" horiz-adv-x="1198" d="M0 881q35 37 77 71.5t90 62t103.5 44t118.5 16.5q84 0 138.5 -26.5t103.5 -55.5q37 -23 74.5 -47t93.5 -24q106 0 225 114l174 -229q-35 -39 -78 -75t-93 -62.5t-106.5 -43t-117.5 -16.5q-72 0 -129.5 28t-108.5 58q-35 23 -72.5 45.5t-101.5 22.5q-96 0 -217 -113z" />
<glyph unicode="&#xa1;" horiz-adv-x="634" d="M123 854q0 86 53 141.5t141 55.5t141.5 -52.5t53.5 -144.5t-53.5 -144.5t-141.5 -52.5t-141 55.5t-53 141.5zM135 -408v981h367v-981h-367z" />
<glyph unicode="&#xa2;" d="M104 715q0 225 119 368.5t342 165.5v191h170v-191q117 -16 187.5 -53t117.5 -78l-155 -235q-37 35 -76 50t-78 19v-495q66 4 108 19.5t79 37.5l124 -238q-51 -41 -129.5 -75.5t-185.5 -38.5v-189h-162v189q-229 27 -345 169t-116 384zM438 711q0 -98 30 -160t97 -84v481 q-55 -25 -91 -85t-36 -152z" />
<glyph unicode="&#xa3;" d="M61 606v293h162q-6 25 -16 74t-10 127q0 55 21.5 120.5t72.5 122t138 93.5t218 37q78 0 144.5 -14.5t122 -39t99.5 -56.5t77 -65l-175 -219q-8 8 -28.5 24.5t-48 32t-62.5 28t-71 12.5q-80 0 -117 -39t-37 -115q0 -31 6 -62.5t12 -60.5h318v-293h-275q2 -10 2 -20.5 v-20.5q0 -37 -9 -75.5t-23.5 -73.5t-32 -61.5t-33.5 -39.5h537v-315h-944v258q70 59 107.5 154.5t37.5 187.5v6h-193z" />
<glyph unicode="&#xa4;" horiz-adv-x="1343" d="M20 231l185 183q-31 59 -49.5 129.5t-18.5 148.5q0 76 18.5 147.5t49.5 131.5l-185 182l195 203l193 -195q59 29 127.5 41t136.5 12t135 -12t127 -41l194 195l195 -203l-184 -182q31 -59 49 -131t18 -148t-18.5 -147.5t-48.5 -130.5l184 -183l-195 -202l-194 192 q-59 -29 -127 -40t-135 -11q-68 0 -136.5 11.5t-127.5 39.5l-193 -192zM449 692q0 -109 61 -172t162 -63q100 0 161.5 63.5t61.5 171.5q0 109 -61.5 172.5t-161.5 63.5t-161.5 -63.5t-61.5 -172.5z" />
<glyph unicode="&#xa5;" d="M-57 1440h372l260 -547l256 547h365l-383 -705h234v-213h-302v-73h302v-213h-302v-236h-348v236h-293v213h293v73h-293v213h224z" />
<glyph unicode="&#xa6;" horiz-adv-x="606" d="M139 334h328v-785h-328v785zM139 756v780h328v-780h-328z" />
<glyph unicode="&#xa7;" horiz-adv-x="1105" d="M72 670q0 109 43 182.5t96 120.5q-31 41 -49.5 97t-18.5 126q0 59 22.5 123.5t72 119t128 89.5t193.5 35q106 0 213 -21.5t215 -81.5l-121 -254q-94 41 -156.5 58.5t-123.5 17.5q-51 0 -84 -23.5t-33 -66.5q0 -31 14.5 -54.5t63.5 -43.5l155 -64q74 -31 134.5 -65.5 t104.5 -82.5t68.5 -114t24.5 -154q0 -109 -43 -182.5t-96 -120.5q31 -43 49.5 -98t18.5 -125q0 -59 -22.5 -123.5t-72 -119t-129.5 -89.5t-192 -35q-106 0 -213 21.5t-215 81.5l121 254q94 -41 156.5 -58.5t123.5 -17.5q51 0 84 23.5t33 66.5q0 31 -14.5 54.5t-63.5 43.5 l-156 64q-74 31 -134 65.5t-104 83t-68.5 113t-24.5 154.5zM383 702q0 -37 13.5 -61.5t37 -42.5t55 -32.5t66.5 -28.5l139 -58q10 25 19.5 46.5t9.5 56.5q0 37 -13.5 61.5t-37 43t-55 32.5t-66.5 29l-139 57q-10 -23 -19.5 -47.5t-9.5 -55.5z" />
<glyph unicode="&#xa8;" horiz-adv-x="1067" d="M82 1419q0 82 52 142.5t136 60.5t136.5 -56.5t52.5 -146.5t-52.5 -146t-136.5 -56t-136 60t-52 142zM608 1419q0 82 52.5 142.5t136.5 60.5t136 -56.5t52 -146.5t-52 -146t-136 -56t-136.5 60t-52.5 142z" />
<glyph unicode="&#xa9;" horiz-adv-x="1556" d="M31 723q0 168 52 306t148.5 236.5t235.5 153t311 54.5t311.5 -54.5t235.5 -153t148.5 -236.5t52.5 -306t-52.5 -306t-148.5 -236.5t-235.5 -153t-311.5 -54.5t-311 54.5t-235.5 153t-148.5 236.5t-52 306zM279 723q0 -125 34.5 -224.5t100 -168t158 -105.5t206.5 -37 q115 0 207 37t157.5 105.5t100.5 168t35 224.5t-35 223t-100.5 168t-157.5 106.5t-207 36.5t-207 -36.5t-157.5 -106.5t-100 -168t-34.5 -223zM428 721q0 180 96.5 285.5t274.5 105.5q51 0 92 -10t72.5 -24.5t54 -30t37.5 -27.5l-76 -170q-43 27 -79 38t-91 11 q-72 0 -111 -43t-39 -135q0 -90 41 -134t103 -44q70 0 115 17.5t63 25.5l72 -178q-6 -4 -25.5 -17.5t-52.5 -27t-77 -23.5t-99 -10q-180 0 -275.5 101t-95.5 290z" />
<glyph unicode="&#xaa;" horiz-adv-x="753" d="M49 1018q0 45 14.5 85t48 68.5t90 46t140.5 17.5q18 0 41 -1t37 -5v26q0 35 -27.5 48.5t-70.5 13.5t-89.5 -12.5t-93.5 -34.5l-57 151q12 6 36.5 17.5t59.5 21.5t78 17.5t90 7.5q55 0 110.5 -12.5t101.5 -42t75 -80t29 -125.5v-400h-187l-8 70q-35 -41 -84 -61.5 t-94 -20.5q-106 0 -173 54.5t-67 150.5zM53 512v213h609v-213h-609zM293 1032q0 -29 14.5 -38t32.5 -9q23 0 51.5 14.5t28.5 55.5v30q-8 2 -21.5 3.5t-23.5 1.5q-8 0 -22.5 -1.5t-28 -7.5t-22.5 -17t-9 -32z" />
<glyph unicode="&#xab;" horiz-adv-x="1148" d="M57 512l236 395h330l-228 -395l228 -395h-330zM526 512l236 395h330l-228 -395l228 -395h-330z" />
<glyph unicode="&#xac;" d="M80 698v312h979v-668h-320v356h-659z" />
<glyph unicode="&#xad;" horiz-adv-x="903" d="M78 406v335h747v-335h-747z" />
<glyph unicode="&#xae;" horiz-adv-x="1556" d="M33 723q0 168 52 306t148.5 236.5t235.5 153t311 54.5t311.5 -54.5t235.5 -153t148.5 -236.5t52.5 -306t-52.5 -306t-148.5 -236.5t-235.5 -153t-311.5 -54.5t-311 54.5t-235.5 153t-148.5 236.5t-52 306zM281 723q0 -125 34.5 -224.5t100 -168t158 -105.5t206.5 -37 q115 0 207 37t157.5 105.5t100.5 168t35 224.5t-35 223t-100.5 168t-157.5 106.5t-207 36.5t-207 -36.5t-157.5 -106.5t-100 -168t-34.5 -223zM502 346v756h293q147 0 215.5 -73t68.5 -179q0 -86 -37.5 -135t-85.5 -78l158 -291h-240l-116 264h-37v-264h-219zM721 784h55 q41 0 59.5 19.5t18.5 44.5q0 59 -72 59h-61v-123z" />
<glyph unicode="&#xaf;" horiz-adv-x="995" d="M164 1233v276h667v-276h-667z" />
<glyph unicode="&#xb0;" horiz-adv-x="800" d="M82 1139q0 68 23.5 124t66.5 97t100.5 64.5t124.5 23.5q68 0 127.5 -22.5t102.5 -63.5t67.5 -97.5t24.5 -123.5q0 -68 -25.5 -125.5t-68.5 -98t-101.5 -63.5t-124.5 -23q-70 0 -128 23t-100 63.5t-65.5 97t-23.5 124.5zM279 1139q0 -53 33.5 -88t86.5 -35t87 34.5 t34 90.5q0 53 -33.5 87t-89.5 34q-53 0 -85.5 -35t-32.5 -88z" />
<glyph unicode="&#xb1;" d="M35 0v311h1069v-311h-1069zM43 782v312h367v374h319v-374h367v-312h-367v-374h-319v374h-367z" />
<glyph unicode="&#xb2;" horiz-adv-x="757" d="M41 1298q18 25 48 54.5t72 54.5t97 41t127 16q80 0 136.5 -20.5t93 -54t53 -77.5t16.5 -89q0 -90 -51 -149.5t-117 -102.5q-53 -35 -80.5 -56.5t-38.5 -42.5h301v-219h-635v54q0 98 43.5 185t167.5 165q84 51 117 81.5t33 65.5q0 25 -18.5 40.5t-53.5 15.5q-49 0 -96 -27 t-88 -68z" />
<glyph unicode="&#xb3;" horiz-adv-x="757" d="M43 1389q47 29 127 52t188 23q160 0 236 -61.5t76 -153.5q0 -68 -40 -116t-89 -72q61 -20 102 -64.5t41 -113.5q0 -117 -86 -181.5t-262 -64.5q-100 0 -174 14.5t-115 26.5l35 196q53 -14 105.5 -22t111.5 -8q61 0 87 19.5t26 43.5q0 29 -22.5 43.5t-88.5 14.5h-100v170 h69q82 0 104.5 21t22.5 44t-22.5 40t-81.5 17q-51 0 -97 -11t-83 -34z" />
<glyph unicode="&#xb4;" horiz-adv-x="976" d="M164 1368l526 295l123 -248l-551 -248z" />
<glyph unicode="&#xb5;" d="M80 -451v1475h366v-616q0 -59 26 -96.5t79 -37.5q70 0 109.5 63.5t39.5 192.5v494h367v-1024h-317l-19 135q-31 -66 -78 -114t-106 -48q-74 0 -117 54v-478h-350z" />
<glyph unicode="&#xb6;" horiz-adv-x="1378" d="M51 940q0 131 43 225.5t122 155.5t187.5 90t241.5 29h617v-1719h-271v1416h-117v-1416h-270v725q-123 0 -224 34t-175 98.5t-114 155.5t-40 206z" />
<glyph unicode="&#xb7;" horiz-adv-x="528" d="M78 757q0 86 50.5 144.5t138.5 58.5t138 -55.5t50 -147.5t-50 -147t-138 -55t-138.5 58t-50.5 144z" />
<glyph unicode="&#xb8;" horiz-adv-x="968" d="M184 -543l54 176q37 -10 75.5 -19t83.5 -9q74 0 104.5 18.5t30.5 46.5q0 25 -27.5 46.5t-96.5 21.5q-39 0 -70 -5t-47 -12l63 279h203l-16 -98q111 -12 177 -72t66 -158q0 -123 -98 -190.5t-266 -67.5q-47 0 -87 6.5t-71 13.5t-51.5 14t-26.5 9z" />
<glyph unicode="&#xb9;" horiz-adv-x="757" d="M20 1262l338 186h220v-795h-277v512l-174 -94z" />
<glyph unicode="&#xba;" horiz-adv-x="745" d="M45 512v213h655v-213h-655zM45 1147q0 154 85 246t243 92t242.5 -90t84.5 -248t-83.5 -250t-243.5 -92q-162 0 -245 92t-83 250zM303 1147q0 -80 17.5 -115t52.5 -35t52 35t17 115q0 82 -19.5 115.5t-49.5 33.5q-31 0 -50.5 -33.5t-19.5 -115.5z" />
<glyph unicode="&#xbb;" horiz-adv-x="1148" d="M57 117l228 395l-228 395h330l236 -395l-236 -395h-330zM526 117l228 395l-228 395h330l236 -395l-236 -395h-330z" />
<glyph unicode="&#xbc;" horiz-adv-x="1802" d="M12 1262l338 186h220v-795h-277v512l-174 -94zM356 0l777 1440h329l-776 -1440h-330zM1035 123v201l260 473h274l-250 -461h119v105h225v-105h80v-213h-80v-121h-225v121h-403z" />
<glyph unicode="&#xbd;" horiz-adv-x="1802" d="M12 1262l338 186h220v-795h-277v512l-174 -94zM321 0l777 1440h329l-776 -1440h-330zM1085 647q18 25 48 54.5t72 54.5t97 41t127 16q80 0 136.5 -20.5t93 -54t53 -77.5t16.5 -89q0 -90 -51 -149.5t-117 -102.5q-53 -35 -80.5 -56.5t-38.5 -42.5h301v-219h-635v54 q0 98 43.5 185t167.5 165q84 51 117 81.5t33 65.5q0 25 -18.5 40.5t-53.5 15.5q-49 0 -96 -27t-88 -68z" />
<glyph unicode="&#xbe;" horiz-adv-x="1802" d="M39 1389q47 29 127 52t188 23q160 0 236 -61.5t76 -153.5q0 -68 -40 -116t-89 -72q61 -20 102 -64.5t41 -113.5q0 -117 -86 -181.5t-262 -64.5q-100 0 -174 14.5t-115 26.5l35 196q53 -14 105.5 -22t111.5 -8q61 0 87 19.5t26 43.5q0 29 -22.5 43.5t-88.5 14.5h-100v170 h69q82 0 104.5 21t22.5 44t-22.5 40t-81.5 17q-51 0 -97 -11t-83 -34zM374 0l777 1440h329l-776 -1440h-330zM1069 123v201l260 473h274l-250 -461h119v105h225v-105h80v-213h-80v-121h-225v121h-403z" />
<glyph unicode="&#xbf;" horiz-adv-x="933" d="M41 -68q0 66 15.5 118t45 97.5t72.5 84t98 79.5q43 33 71 64t44 61.5t23.5 64.5t9.5 72h348q0 -80 -14.5 -140t-39 -107t-59 -85t-75.5 -75t-72 -61.5t-50.5 -46t-28.5 -45t-9 -54.5q0 -47 36 -74.5t103 -27.5q86 0 159 30.5t146 98.5l172 -217q-39 -41 -89 -79 t-112.5 -67t-139.5 -46t-169 -17q-133 0 -225 32.5t-150.5 85t-84 120t-25.5 134.5zM393 854q0 92 53.5 144.5t141.5 52.5t141 -55.5t53 -141.5t-53 -141.5t-141 -55.5t-141.5 52.5t-53.5 144.5z" />
<glyph unicode="&#xc0;" horiz-adv-x="1345" d="M2 0l475 1440h389l477 -1440h-385l-73 258h-436l-74 -258h-373zM338 1741l104 264l584 -272l-78 -211zM535 557h266l-131 463z" />
<glyph unicode="&#xc1;" horiz-adv-x="1345" d="M2 0l475 1440h389l477 -1440h-385l-73 258h-436l-74 -258h-373zM296 1733l584 272l105 -264l-611 -219zM535 557h266l-131 463z" />
<glyph unicode="&#xc2;" horiz-adv-x="1345" d="M2 0l475 1440h389l477 -1440h-385l-73 258h-436l-74 -258h-373zM207 1702l321 299h287l320 -299l-160 -187l-303 230l-305 -230zM535 557h266l-131 463z" />
<glyph unicode="&#xc3;" horiz-adv-x="1345" d="M2 0l475 1440h389l477 -1440h-385l-73 258h-436l-74 -258h-373zM207 1567q0 193 74.5 292t203.5 99q78 0 127.5 -17.5t88 -39t77 -39t93.5 -17.5q43 0 59 30t16 87h254q0 -193 -78.5 -294t-214.5 -101q-53 0 -102 15t-94 34.5t-84 35t-72 15.5q-41 0 -64.5 -20.5 t-23.5 -79.5h-260zM535 557h266l-131 463z" />
<glyph unicode="&#xc4;" horiz-adv-x="1345" d="M2 0l475 1440h389l477 -1440h-385l-73 258h-436l-74 -258h-373zM211 1803q0 84 52 144.5t138 60.5t138.5 -56.5t52.5 -148.5t-52.5 -148.5t-138.5 -56.5t-138 60.5t-52 144.5zM535 557h266l-131 463zM750 1803q0 84 52 144.5t138 60.5t138 -56.5t52 -148.5t-52 -148.5 t-138 -56.5t-138 60.5t-52 144.5z" />
<glyph unicode="&#xc5;" horiz-adv-x="1345" d="M10 0l459 1382q-53 41 -83 102.5t-30 133.5q0 63 22.5 119.5t64.5 97.5t99.5 65.5t127.5 24.5q72 0 129 -23.5t98 -64.5t63.5 -97.5t22.5 -119.5q0 -72 -28.5 -133.5t-80.5 -102.5l461 -1384h-374l-74 258h-438l-76 -258h-363zM535 557h266l-131 461zM561 1618 q0 -47 30 -79t79 -32t78.5 32t29.5 79q0 51 -29.5 82t-78.5 31t-79 -31t-30 -82z" />
<glyph unicode="&#xc6;" horiz-adv-x="2043" d="M20 0l783 1440h1159v-338h-561v-191h418v-338h-418v-235h581v-338h-966v272h-463l-137 -272h-396zM705 571h311v611z" />
<glyph unicode="&#xc7;" horiz-adv-x="1263" d="M72 698q0 166 41 307.5t125 246t209.5 163t297.5 58.5q147 0 264 -48.5t205 -124.5l-174 -249q-45 37 -117.5 66.5t-168.5 29.5q-143 0 -216 -117t-73 -332q0 -74 14.5 -147.5t48 -132t89 -94t139.5 -35.5q98 0 177 30.5t120 63.5l166 -256q-96 -72 -198.5 -112 t-246.5 -46l-14 -71q43 -4 88 -18.5t82 -42t60.5 -69.5t23.5 -98q0 -141 -104.5 -206.5t-278.5 -65.5q-45 0 -86 5t-74 12t-54.5 14.5t-27.5 9.5l60 199q35 -10 78.5 -21.5t88.5 -11.5q68 0 97.5 17t29.5 40q0 25 -30.5 44.5t-94.5 19.5q-41 0 -74.5 -6.5t-49.5 -12.5 l61 277q-242 47 -362.5 234.5t-120.5 479.5z" />
<glyph unicode="&#xc8;" horiz-adv-x="1144" d="M117 0v1440h946v-338h-561v-191h418v-338h-418v-235h581v-338h-966zM215 1741l104 264l584 -272l-78 -211z" />
<glyph unicode="&#xc9;" horiz-adv-x="1144" d="M117 0v1440h946v-338h-561v-191h418v-338h-418v-235h581v-338h-966zM272 1733l584 272l105 -264l-611 -219z" />
<glyph unicode="&#xca;" horiz-adv-x="1144" d="M117 0v1440h946v-338h-561v-191h418v-338h-418v-235h581v-338h-966zM135 1708l321 299h287l320 -299l-160 -187l-303 230l-305 -230z" />
<glyph unicode="&#xcb;" horiz-adv-x="1144" d="M117 0v1440h946v-338h-561v-191h418v-338h-418v-235h581v-338h-966zM129 1803q0 84 52 144.5t138 60.5t138.5 -56.5t52.5 -148.5t-52.5 -148.5t-138.5 -56.5t-138 60.5t-52 144.5zM668 1803q0 84 52 144.5t138 60.5t138 -56.5t52 -148.5t-52 -148.5t-138 -56.5t-138 60.5 t-52 144.5z" />
<glyph unicode="&#xcc;" horiz-adv-x="622" d="M2 1741l104 264l584 -272l-78 -211zM119 0v1440h385v-1440h-385z" />
<glyph unicode="&#xcd;" horiz-adv-x="622" d="M-54 1733l584 272l105 -264l-611 -219zM119 0v1440h385v-1440h-385z" />
<glyph unicode="&#xce;" horiz-adv-x="622" d="M-149 1708l321 299h287l320 -299l-160 -187l-303 230l-305 -230zM119 0v1440h385v-1440h-385z" />
<glyph unicode="&#xcf;" horiz-adv-x="622" d="M-137 1822q0 82 52 142.5t136 60.5t136.5 -56.5t52.5 -146.5t-52.5 -146t-136.5 -56t-136 60t-52 142zM119 0v1440h385v-1440h-385zM389 1822q0 82 52.5 142.5t136.5 60.5t136 -56.5t52 -146.5t-52 -146t-136 -56t-136.5 60t-52.5 142z" />
<glyph unicode="&#xd0;" horiz-adv-x="1550" d="M10 604v256h201v580h534q197 0 336.5 -51.5t227.5 -146.5t129 -228t41 -295q0 -166 -42 -298t-131 -226.5t-228.5 -144.5t-332.5 -50h-534v604h-201zM596 322h162q72 0 132 24.5t103 73.5t67.5 123.5t24.5 177.5q0 213 -89 305t-242 92h-158v-258h235v-256h-235v-282z " />
<glyph unicode="&#xd1;" horiz-adv-x="1404" d="M117 0v1440h344l483 -785v785h344v-1440h-344l-483 784v-784h-344zM246 1567q0 193 74.5 292t203.5 99q78 0 127.5 -17.5t88 -39t77 -39t93.5 -17.5q43 0 59 30t16 87h254q0 -193 -78.5 -294t-214.5 -101q-53 0 -102 15t-94 34.5t-84 35t-72 15.5q-41 0 -64.5 -20.5 t-23.5 -79.5h-260z" />
<glyph unicode="&#xd2;" horiz-adv-x="1499" d="M78 721q0 158 39 295t122 238.5t208.5 160t302.5 58.5q174 0 301 -58.5t209.5 -160t121.5 -238.5t39 -295t-40 -295t-121.5 -239.5t-208.5 -161t-301 -58.5t-301 58.5t-209 161t-122 239.5t-40 295zM403 1741l104 264l584 -272l-78 -211zM471 719q0 -113 17.5 -190.5 t52 -127t87 -72t122.5 -22.5t122 22.5t86.5 72t52 127t17.5 190.5q0 223 -69.5 318.5t-208.5 95.5t-209 -96.5t-70 -317.5z" />
<glyph unicode="&#xd3;" horiz-adv-x="1499" d="M78 721q0 158 39 295t122 238.5t208.5 160t302.5 58.5q174 0 301 -58.5t209.5 -160t121.5 -238.5t39 -295t-40 -295t-121.5 -239.5t-208.5 -161t-301 -58.5t-301 58.5t-209 161t-122 239.5t-40 295zM362 1733l584 272l105 -264l-611 -219zM471 719q0 -113 17.5 -190.5 t52 -127t87 -72t122.5 -22.5t122 22.5t86.5 72t52 127t17.5 190.5q0 223 -69.5 318.5t-208.5 95.5t-209 -96.5t-70 -317.5z" />
<glyph unicode="&#xd4;" horiz-adv-x="1499" d="M78 721q0 158 39 295t122 238.5t208.5 160t302.5 58.5q174 0 301 -58.5t209.5 -160t121.5 -238.5t39 -295t-40 -295t-121.5 -239.5t-208.5 -161t-301 -58.5t-301 58.5t-209 161t-122 239.5t-40 295zM289 1706l321 299h287l320 -299l-160 -187l-303 230l-305 -230z M471 719q0 -113 17.5 -190.5t52 -127t87 -72t122.5 -22.5t122 22.5t86.5 72t52 127t17.5 190.5q0 223 -69.5 318.5t-208.5 95.5t-209 -96.5t-70 -317.5z" />
<glyph unicode="&#xd5;" horiz-adv-x="1499" d="M78 721q0 158 39 295t122 238.5t208.5 160t302.5 58.5q174 0 301 -58.5t209.5 -160t121.5 -238.5t39 -295t-40 -295t-121.5 -239.5t-208.5 -161t-301 -58.5t-301 58.5t-209 161t-122 239.5t-40 295zM256 1567q0 193 74.5 292t203.5 99q78 0 127.5 -17.5t88 -39t77 -39 t93.5 -17.5q43 0 59 30t16 87h254q0 -193 -78.5 -294t-214.5 -101q-53 0 -102 15t-94 34.5t-84 35t-72 15.5q-41 0 -64.5 -20.5t-23.5 -79.5h-260zM471 719q0 -113 17.5 -190.5t52 -127t87 -72t122.5 -22.5t122 22.5t86.5 72t52 127t17.5 190.5q0 223 -69.5 318.5 t-208.5 95.5t-209 -96.5t-70 -317.5z" />
<glyph unicode="&#xd6;" horiz-adv-x="1499" d="M78 721q0 158 39 295t122 238.5t208.5 160t302.5 58.5q174 0 301 -58.5t209.5 -160t121.5 -238.5t39 -295t-40 -295t-121.5 -239.5t-208.5 -161t-301 -58.5t-301 58.5t-209 161t-122 239.5t-40 295zM293 1805q0 84 52 144.5t138 60.5t138.5 -56.5t52.5 -148.5 t-52.5 -148.5t-138.5 -56.5t-138 60.5t-52 144.5zM471 719q0 -113 17.5 -190.5t52 -127t87 -72t122.5 -22.5t122 22.5t86.5 72t52 127t17.5 190.5q0 223 -69.5 318.5t-208.5 95.5t-209 -96.5t-70 -317.5zM832 1805q0 84 52 144.5t138 60.5t138 -56.5t52 -148.5t-52 -148.5 t-138 -56.5t-138 60.5t-52 144.5z" />
<glyph unicode="&#xd7;" d="M74 395l284 307l-284 310l227 211l270 -291l273 291l223 -211l-283 -310l283 -307l-227 -211l-269 293l-270 -293z" />
<glyph unicode="&#xd8;" horiz-adv-x="1507" d="M82 721q0 158 39 295t122 238.5t209 160t302 58.5q164 0 295 -58l104 166l225 -135l-118 -186q86 -102 125.5 -240.5t39.5 -298.5q0 -158 -39.5 -295t-121.5 -239.5t-209 -161t-301 -58.5q-166 0 -291 53l-109 -174l-225 136l123 194q-88 102 -129 242.5t-41 302.5z M463 719q0 -115 14 -187l385 601q-47 18 -108 18q-147 0 -219 -100.5t-72 -331.5zM645 303q46 -14 109 -14q145 0 217.5 98t72.5 332q0 53 -4 97t-10 83z" />
<glyph unicode="&#xd9;" horiz-adv-x="1374" d="M90 608v832h389v-840q0 -90 11.5 -148.5t36 -94t64.5 -50t95 -14.5q57 0 97 14.5t65.5 50t38 94t12.5 148.5v840h385v-828q0 -154 -30.5 -273.5t-101.5 -202.5t-185.5 -126t-280.5 -43t-280.5 44t-184 127t-100.5 202t-31 268zM326 1741l104 264l584 -272l-78 -211z" />
<glyph unicode="&#xda;" horiz-adv-x="1374" d="M90 608v832h389v-840q0 -90 11.5 -148.5t36 -94t64.5 -50t95 -14.5q57 0 97 14.5t65.5 50t38 94t12.5 148.5v840h385v-828q0 -154 -30.5 -273.5t-101.5 -202.5t-185.5 -126t-280.5 -43t-280.5 44t-184 127t-100.5 202t-31 268zM368 1733l584 272l105 -264l-611 -219z" />
<glyph unicode="&#xdb;" horiz-adv-x="1374" d="M90 608v832h389v-840q0 -90 11.5 -148.5t36 -94t64.5 -50t95 -14.5q57 0 97 14.5t65.5 50t38 94t12.5 148.5v840h385v-828q0 -154 -30.5 -273.5t-101.5 -202.5t-185.5 -126t-280.5 -43t-280.5 44t-184 127t-100.5 202t-31 268zM227 1708l321 299h287l320 -299l-160 -187 l-303 230l-305 -230z" />
<glyph unicode="&#xdc;" horiz-adv-x="1374" d="M90 608v832h389v-840q0 -90 11.5 -148.5t36 -94t64.5 -50t95 -14.5q57 0 97 14.5t65.5 50t38 94t12.5 148.5v840h385v-828q0 -154 -30.5 -273.5t-101.5 -202.5t-185.5 -126t-280.5 -43t-280.5 44t-184 127t-100.5 202t-31 268zM227 1805q0 84 52 144.5t138 60.5 t138.5 -56.5t52.5 -148.5t-52.5 -148.5t-138.5 -56.5t-138 60.5t-52 144.5zM766 1805q0 84 52 144.5t138 60.5t138 -56.5t52 -148.5t-52 -148.5t-138 -56.5t-138 60.5t-52 144.5z" />
<glyph unicode="&#xdd;" horiz-adv-x="1335" d="M20 1440h394l260 -506l256 506h385l-451 -830v-610h-389v610zM329 1733l584 272l105 -264l-611 -219z" />
<glyph unicode="&#xde;" horiz-adv-x="1269" d="M117 0v1440h381v-219h168q162 0 270 -41t173 -110t92.5 -157t27.5 -180q0 -86 -27.5 -173t-96.5 -157.5t-184.5 -114.5t-291.5 -44h-131v-244h-381zM498 561h127q39 0 78.5 5t72.5 22.5t53.5 53.5t20.5 97q0 47 -16.5 79t-43 50.5t-63.5 26.5t-76 8h-153v-342z" />
<glyph unicode="&#xdf;" horiz-adv-x="1333" d="M102 0v1073q0 242 138.5 368t402.5 126q119 0 210 -27t151.5 -74t91 -111.5t30.5 -140.5q0 -82 -28.5 -131t-85.5 -106q-55 -55 -81 -90t-26 -70q0 -20 4 -34.5t20.5 -29t47.5 -34t84 -47.5q63 -35 110.5 -68t79 -71.5t47 -86t15.5 -110.5q0 -172 -114 -267.5t-318 -95.5 q-145 0 -239.5 26t-127.5 48l96 258q53 -27 101.5 -41t97.5 -14q23 0 46.5 4t44 14.5t32.5 29.5t12 48q0 47 -47 79t-160 83q-111 49 -148.5 114.5t-37.5 143.5q0 76 30.5 129t84.5 113q51 57 83.5 95t32.5 97q0 49 -33.5 77t-105.5 28q-84 0 -129 -51.5t-45 -149.5v-1104 h-367z" />
<glyph unicode="&#xe0;" horiz-adv-x="1081" d="M51 313q0 168 106.5 259.5t329.5 91.5q14 0 38 -1t48.5 -2.5t47 -3.5t34.5 -4v25q0 51 -35.5 84t-127.5 33t-164 -17.5t-133 -52.5l-97 227q76 45 182.5 77t258.5 32q129 0 215 -31t139 -86t75.5 -134t22.5 -173v-637h-297l-10 94q-14 -16 -36.5 -36.5t-57.5 -39t-85 -31 t-120 -12.5q-72 0 -132 19.5t-105.5 61.5t-71 105.5t-25.5 151.5zM199 1386l122 248l527 -295l-98 -201zM387 336q0 -45 23.5 -75t83.5 -30q78 0 119.5 44t41.5 94v67q-37 8 -72.5 9t-68.5 1q-59 0 -93 -29.5t-34 -80.5z" />
<glyph unicode="&#xe1;" horiz-adv-x="1081" d="M51 313q0 168 106.5 259.5t329.5 91.5q14 0 38 -1t48.5 -2.5t47 -3.5t34.5 -4v25q0 51 -35.5 84t-127.5 33t-164 -17.5t-133 -52.5l-97 227q76 45 182.5 77t258.5 32q129 0 215 -31t139 -86t75.5 -134t22.5 -173v-637h-297l-10 94q-14 -16 -36.5 -36.5t-57.5 -39t-85 -31 t-120 -12.5q-72 0 -132 19.5t-105.5 61.5t-71 105.5t-25.5 151.5zM246 1339l526 295l123 -248l-551 -248zM387 336q0 -45 23.5 -75t83.5 -30q78 0 119.5 44t41.5 94v67q-37 8 -72.5 9t-68.5 1q-59 0 -93 -29.5t-34 -80.5z" />
<glyph unicode="&#xe2;" horiz-adv-x="1081" d="M51 313q0 168 106.5 259.5t329.5 91.5q14 0 38 -1t48.5 -2.5t47 -3.5t34.5 -4v25q0 51 -35.5 84t-127.5 33t-164 -17.5t-133 -52.5l-97 227q76 45 182.5 77t258.5 32q129 0 215 -31t139 -86t75.5 -134t22.5 -173v-637h-297l-10 94q-14 -16 -36.5 -36.5t-57.5 -39t-85 -31 t-120 -12.5q-72 0 -132 19.5t-105.5 61.5t-71 105.5t-25.5 151.5zM106 1310l342 332h179l342 -332l-177 -172l-253 224l-256 -224zM387 336q0 -45 23.5 -75t83.5 -30q78 0 119.5 44t41.5 94v67q-37 8 -72.5 9t-68.5 1q-59 0 -93 -29.5t-34 -80.5z" />
<glyph unicode="&#xe3;" horiz-adv-x="1081" d="M51 313q0 168 106.5 259.5t329.5 91.5q14 0 38 -1t48.5 -2.5t47 -3.5t34.5 -4v25q0 51 -35.5 84t-127.5 33t-164 -17.5t-133 -52.5l-97 227q76 45 182.5 77t258.5 32q129 0 215 -31t139 -86t75.5 -134t22.5 -173v-637h-297l-10 94q-14 -16 -36.5 -36.5t-57.5 -39t-85 -31 t-120 -12.5q-72 0 -132 19.5t-105.5 61.5t-71 105.5t-25.5 151.5zM71 1182q0 188 77 286.5t206 98.5q59 0 103 -17.5t83 -38t76 -38t84 -17.5t62.5 28.5t15.5 82.5h237q0 -193 -74.5 -289t-199.5 -96q-59 0 -107.5 17t-90.5 38.5t-77.5 39t-66.5 17.5q-90 0 -90 -112h-238z M387 336q0 -45 23.5 -75t83.5 -30q78 0 119.5 44t41.5 94v67q-37 8 -72.5 9t-68.5 1q-59 0 -93 -29.5t-34 -80.5z" />
<glyph unicode="&#xe4;" horiz-adv-x="1081" d="M51 313q0 168 106.5 259.5t329.5 91.5q14 0 38 -1t48.5 -2.5t47 -3.5t34.5 -4v25q0 51 -35.5 84t-127.5 33t-164 -17.5t-133 -52.5l-97 227q76 45 182.5 77t258.5 32q129 0 215 -31t139 -86t75.5 -134t22.5 -173v-637h-297l-10 94q-14 -16 -36.5 -36.5t-57.5 -39t-85 -31 t-120 -12.5q-72 0 -132 19.5t-105.5 61.5t-71 105.5t-25.5 151.5zM80 1366q0 82 52 142.5t136 60.5t136.5 -56.5t52.5 -146.5t-52.5 -146t-136.5 -56t-136 60t-52 142zM387 336q0 -45 23.5 -75t83.5 -30q78 0 119.5 44t41.5 94v67q-37 8 -72.5 9t-68.5 1q-59 0 -93 -29.5 t-34 -80.5zM606 1366q0 82 52.5 142.5t136.5 60.5t136 -56.5t52 -146.5t-52 -146t-136 -56t-136.5 60t-52.5 142z" />
<glyph unicode="&#xe5;" horiz-adv-x="1081" d="M51 313q0 168 106.5 259.5t329.5 91.5q14 0 38 -1t48.5 -2.5t47 -3.5t34.5 -4v25q0 51 -35.5 84t-127.5 33t-164 -17.5t-133 -52.5l-97 227q76 45 182.5 77t258.5 32q129 0 215 -31t139 -86t75.5 -134t22.5 -173v-637h-297l-10 94q-14 -16 -36.5 -36.5t-57.5 -39t-85 -31 t-120 -12.5q-72 0 -132 19.5t-105.5 61.5t-71 105.5t-25.5 151.5zM235 1423q0 66 22.5 119t62.5 91t94.5 58.5t117.5 20.5t118.5 -20.5t94.5 -57.5t61.5 -90t22.5 -121t-22.5 -121t-61.5 -90t-94 -57.5t-119 -20.5q-63 0 -117.5 20.5t-94.5 57.5t-62.5 90t-22.5 121z M387 336q0 -45 23.5 -75t83.5 -30q78 0 119.5 44t41.5 94v67q-37 8 -72.5 9t-68.5 1q-59 0 -93 -29.5t-34 -80.5zM426 1423q0 -53 28.5 -83t77.5 -30t78 30t29 83t-29 82t-78 29t-77.5 -29t-28.5 -82z" />
<glyph unicode="&#xe6;" horiz-adv-x="1642" d="M33 313q0 168 106.5 259.5t329.5 91.5q14 0 37.5 -1t48.5 -2.5t47.5 -3.5t34.5 -4v25q0 51 -36 84t-128 33q-84 0 -164 -18.5t-133 -51.5l-96 227q59 39 165.5 74t270.5 35q113 0 189.5 -31t125.5 -84q55 53 127 84t164 31q240 0 367 -140.5t127 -426.5v-84h-641 q10 -72 68.5 -120t185.5 -48q78 0 152.5 16t119.5 33l72 -248q-41 -25 -138.5 -50.5t-238.5 -25.5q-137 0 -246.5 44t-185.5 136q-59 -74 -155.5 -123t-241.5 -49q-72 0 -132.5 19.5t-105.5 61.5t-70.5 105.5t-25.5 151.5zM369 336q0 -45 23.5 -75t82.5 -30q78 0 120 44 t42 94v65q-37 8 -73 10t-68 2q-59 0 -93 -29.5t-34 -80.5zM965 629h331q-18 162 -174 162q-76 0 -112.5 -44.5t-44.5 -117.5z" />
<glyph unicode="&#xe7;" horiz-adv-x="978" d="M53 520q0 123 35 222.5t102.5 170t166 108.5t223.5 38q80 0 140 -14.5t105 -35t76 -44t53 -41.5l-159 -242q-25 20 -71 45t-106 25q-96 0 -146 -57.5t-50 -174.5q0 -129 46 -187.5t157 -58.5q66 0 113.5 21.5t84.5 46.5l135 -258q-53 -41 -136 -77t-216 -40l-10 -65 q111 -12 177.5 -72t66.5 -158q0 -123 -98.5 -190.5t-266.5 -67.5q-47 0 -87 6.5t-70.5 13.5t-51 14t-26.5 9l53 176q37 -10 76 -19t84 -9q74 0 104.5 18.5t30.5 46.5q0 25 -28 46.5t-97 21.5q-39 0 -70 -5t-47 -12l62 269q-92 25 -160 73t-111 116.5t-63.5 155.5t-20.5 185z " />
<glyph unicode="&#xe8;" horiz-adv-x="1083" d="M55 524q0 117 33 215.5t95.5 170t154.5 111.5t211 40q240 0 363.5 -140.5t123.5 -426.5v-84h-645q10 -72 70.5 -120t187.5 -48q78 0 153 16t120 33l71 -248q-41 -25 -138 -50.5t-239 -25.5q-119 0 -221 34t-178 103.5t-119 174t-43 245.5zM220 1386l122 248l527 -295 l-98 -201zM377 629h340q-18 162 -172 162q-76 0 -118 -44.5t-50 -117.5z" />
<glyph unicode="&#xe9;" horiz-adv-x="1083" d="M55 524q0 117 33 215.5t95.5 170t154.5 111.5t211 40q240 0 363.5 -140.5t123.5 -426.5v-84h-645q10 -72 70.5 -120t187.5 -48q78 0 153 16t120 33l71 -248q-41 -25 -138 -50.5t-239 -25.5q-119 0 -221 34t-178 103.5t-119 174t-43 245.5zM187 1339l526 295l123 -248 l-551 -248zM377 629h340q-18 162 -172 162q-76 0 -118 -44.5t-50 -117.5z" />
<glyph unicode="&#xea;" horiz-adv-x="1083" d="M55 524q0 117 33 215.5t95.5 170t154.5 111.5t211 40q240 0 363.5 -140.5t123.5 -426.5v-84h-645q10 -72 70.5 -120t187.5 -48q78 0 153 16t120 33l71 -248q-41 -25 -138 -50.5t-239 -25.5q-119 0 -221 34t-178 103.5t-119 174t-43 245.5zM120 1310l342 332h179l342 -332 l-177 -172l-253 224l-256 -224zM377 629h340q-18 162 -172 162q-76 0 -118 -44.5t-50 -117.5z" />
<glyph unicode="&#xeb;" horiz-adv-x="1083" d="M55 524q0 117 33 215.5t95.5 170t154.5 111.5t211 40q240 0 363.5 -140.5t123.5 -426.5v-84h-645q10 -72 70.5 -120t187.5 -48q78 0 153 16t120 33l71 -248q-41 -25 -138 -50.5t-239 -25.5q-119 0 -221 34t-178 103.5t-119 174t-43 245.5zM121 1366q0 82 52 142.5 t136 60.5t136.5 -56.5t52.5 -146.5t-52.5 -146t-136.5 -56t-136 60t-52 142zM377 629h340q-18 162 -172 162q-76 0 -118 -44.5t-50 -117.5zM647 1366q0 82 52.5 142.5t136.5 60.5t136 -56.5t52 -146.5t-52 -146t-136 -56t-136.5 60t-52.5 142z" />
<glyph unicode="&#xec;" horiz-adv-x="579" d="M-45 1386l122 248l527 -295l-98 -201zM106 0v1032h367v-1032h-367z" />
<glyph unicode="&#xed;" horiz-adv-x="579" d="M-29 1339l526 295l123 -248l-551 -248zM106 0v1032h367v-1032h-367z" />
<glyph unicode="&#xee;" horiz-adv-x="579" d="M-140 1310l342 332h179l342 -332l-177 -172l-253 224l-256 -224zM106 0v1032h367v-1032h-367z" />
<glyph unicode="&#xef;" horiz-adv-x="579" d="M-160 1366q0 82 52 142.5t136 60.5t136.5 -56.5t52.5 -146.5t-52.5 -146t-136.5 -56t-136 60t-52 142zM106 0v1032h367v-1032h-367zM366 1366q0 82 52.5 142.5t136.5 60.5t136 -56.5t52 -146.5t-52 -146t-136 -56t-136.5 60t-52.5 142z" />
<glyph unicode="&#xf0;" horiz-adv-x="1142" d="M37 467q0 111 34.5 200t96 152.5t145.5 98t183 34.5q80 0 138 -16t99 -41q-18 82 -51 140.5t-78 105.5l-164 -133l-151 168l127 106q-100 49 -219 74l84 235q195 -29 356 -127l172 142l152 -176l-140 -113q127 -131 200 -311.5t73 -397.5q0 -133 -31 -248.5t-96.5 -201.5 t-169 -135.5t-248.5 -49.5q-117 0 -211 33t-161.5 96.5t-103.5 155.5t-36 209zM365 467q0 -92 45.5 -152.5t158.5 -60.5q55 0 94 17.5t63 47t34 68.5t10 82q0 39 -11 75t-36 63.5t-63.5 45t-94.5 17.5q-106 0 -153 -58.5t-47 -144.5z" />
<glyph unicode="&#xf1;" horiz-adv-x="1171" d="M94 0v1032h332l14 -117q45 59 111.5 101.5t181.5 42.5q186 0 267 -109.5t81 -304.5v-645h-366v596q0 80 -30 116t-91 36q-80 0 -106.5 -67t-26.5 -187v-494h-367zM102 1182q0 188 77 286.5t206 98.5q59 0 103 -17.5t83 -38t76 -38t84 -17.5t62.5 28.5t15.5 82.5h237 q0 -193 -74.5 -289t-199.5 -96q-59 0 -107.5 17t-90.5 38.5t-77.5 39t-66.5 17.5q-90 0 -90 -112h-238z" />
<glyph unicode="&#xf2;" horiz-adv-x="1187" d="M55 514q0 127 37 228.5t106.5 172t169 108.5t226.5 38q125 0 225.5 -38t170 -108.5t106.5 -172t37 -228.5t-37 -227.5t-106.5 -170t-170 -107.5t-225.5 -38t-225.5 38t-170 107.5t-106.5 170t-37 227.5zM267 1386l122 248l527 -295l-98 -201zM424 514q0 -256 170 -256 t170 256q0 131 -40 195.5t-130 64.5t-130 -64.5t-40 -195.5z" />
<glyph unicode="&#xf3;" horiz-adv-x="1187" d="M55 514q0 127 37 228.5t106.5 172t169 108.5t226.5 38q125 0 225.5 -38t170 -108.5t106.5 -172t37 -228.5t-37 -227.5t-106.5 -170t-170 -107.5t-225.5 -38t-225.5 38t-170 107.5t-106.5 170t-37 227.5zM254 1339l526 295l123 -248l-551 -248zM424 514q0 -256 170 -256 t170 256q0 131 -40 195.5t-130 64.5t-130 -64.5t-40 -195.5z" />
<glyph unicode="&#xf4;" horiz-adv-x="1187" d="M55 514q0 127 37 228.5t106.5 172t169 108.5t226.5 38q125 0 225.5 -38t170 -108.5t106.5 -172t37 -228.5t-37 -227.5t-106.5 -170t-170 -107.5t-225.5 -38t-225.5 38t-170 107.5t-106.5 170t-37 227.5zM163 1310l342 332h179l342 -332l-177 -172l-253 224l-256 -224z M424 514q0 -256 170 -256t170 256q0 131 -40 195.5t-130 64.5t-130 -64.5t-40 -195.5z" />
<glyph unicode="&#xf5;" horiz-adv-x="1187" d="M55 514q0 127 37 228.5t106.5 172t169 108.5t226.5 38q125 0 225.5 -38t170 -108.5t106.5 -172t37 -228.5t-37 -227.5t-106.5 -170t-170 -107.5t-225.5 -38t-225.5 38t-170 107.5t-106.5 170t-37 227.5zM102 1176q0 188 77 286.5t206 98.5q59 0 103 -17.5t83 -38t76 -38 t84 -17.5t62.5 28.5t15.5 82.5h237q0 -193 -74.5 -289t-199.5 -96q-59 0 -107.5 17t-90.5 38.5t-77.5 39t-66.5 17.5q-90 0 -90 -112h-238zM424 514q0 -256 170 -256t170 256q0 131 -40 195.5t-130 64.5t-130 -64.5t-40 -195.5z" />
<glyph unicode="&#xf6;" horiz-adv-x="1187" d="M55 514q0 127 37 228.5t106.5 172t169 108.5t226.5 38q125 0 225.5 -38t170 -108.5t106.5 -172t37 -228.5t-37 -227.5t-106.5 -170t-170 -107.5t-225.5 -38t-225.5 38t-170 107.5t-106.5 170t-37 227.5zM141 1366q0 82 52 142.5t136 60.5t136.5 -56.5t52.5 -146.5 t-52.5 -146t-136.5 -56t-136 60t-52 142zM424 514q0 -256 170 -256t170 256q0 131 -40 195.5t-130 64.5t-130 -64.5t-40 -195.5zM667 1366q0 82 52.5 142.5t136.5 60.5t136 -56.5t52 -146.5t-52 -146t-136 -56t-136.5 60t-52.5 142z" />
<glyph unicode="&#xf7;" d="M55 561v311h1028v-311h-1028zM385 272q0 86 49 142.5t135 56.5t135.5 -54.5t49.5 -144.5t-49.5 -144t-135.5 -54t-135 56t-49 142zM385 1161q0 90 49 144.5t135 54.5t135.5 -54.5t49.5 -144.5t-49.5 -144t-135.5 -54t-135 54t-49 144z" />
<glyph unicode="&#xf8;" horiz-adv-x="1187" d="M55 514q0 127 37 228.5t106.5 172t169 107.5t226.5 37q119 0 219 -35l72 104l155 -102l-67 -98q78 -72 119 -175.5t41 -238.5q0 -127 -37 -227.5t-106.5 -170t-170 -107.5t-225.5 -38q-72 0 -133.5 11.5t-114.5 33.5l-94 -137l-156 103l97 141q-66 70 -102 169t-36 222z M410 476.5q0 -17.5 2 -34.5l237 344q-25 6 -55 7q-98 0 -141 -69t-43 -210v-37.5zM510 256q37 -18 84 -18q184 0 184 276q0 35 -3 63.5t-7 53.5z" />
<glyph unicode="&#xf9;" horiz-adv-x="1163" d="M90 403v629h367v-645q0 -66 26.5 -93.5t75.5 -27.5q74 0 108.5 55.5t34.5 180.5v530h367v-1032h-321l-19 125q-55 -76 -127 -114t-168 -38q-180 0 -262 107.5t-82 322.5zM220 1386l122 248l527 -295l-98 -201z" />
<glyph unicode="&#xfa;" horiz-adv-x="1163" d="M90 403v629h367v-645q0 -66 26.5 -93.5t75.5 -27.5q74 0 108.5 55.5t34.5 180.5v530h367v-1032h-321l-19 125q-55 -76 -127 -114t-168 -38q-180 0 -262 107.5t-82 322.5zM277 1339l526 295l123 -248l-551 -248z" />
<glyph unicode="&#xfb;" horiz-adv-x="1163" d="M90 403v629h367v-645q0 -66 26.5 -93.5t75.5 -27.5q74 0 108.5 55.5t34.5 180.5v530h367v-1032h-321l-19 125q-55 -76 -127 -114t-168 -38q-180 0 -262 107.5t-82 322.5zM149 1310l342 332h179l342 -332l-177 -172l-253 224l-256 -224z" />
<glyph unicode="&#xfc;" horiz-adv-x="1163" d="M90 403v629h367v-645q0 -66 26.5 -93.5t75.5 -27.5q74 0 108.5 55.5t34.5 180.5v530h367v-1032h-321l-19 125q-55 -76 -127 -114t-168 -38q-180 0 -262 107.5t-82 322.5zM123 1366q0 82 52 142.5t136 60.5t136.5 -56.5t52.5 -146.5t-52.5 -146t-136.5 -56t-136 60 t-52 142zM649 1366q0 82 52.5 142.5t136.5 60.5t136 -56.5t52 -146.5t-52 -146t-136 -56t-136.5 60t-52.5 142z" />
<glyph unicode="&#xfd;" horiz-adv-x="1067" d="M-2 1032h381l160 -559l163 559h375l-612 -1483h-356l247 562zM270 1339l526 295l123 -248l-551 -248z" />
<glyph unicode="&#xfe;" horiz-adv-x="1196" d="M98 -451v1987h367v-592q43 49 108.5 82t155.5 33q100 0 177 -38t129 -108.5t79 -170t27 -222.5q0 -135 -36 -236.5t-94.5 -169t-135 -102.5t-158.5 -35q-47 0 -112.5 9.5t-139.5 50.5v-488h-367zM465 299q63 -33 129 -33q90 0 135 66.5t45 193.5q0 113 -34.5 170.5 t-112.5 57.5q-92 0 -127 -65.5t-35 -213.5v-176z" />
<glyph unicode="&#xff;" horiz-adv-x="1067" d="M-2 1032h381l160 -559l163 559h375l-612 -1483h-356l247 562zM90 1366q0 82 52 142.5t136 60.5t136.5 -56.5t52.5 -146.5t-52.5 -146t-136.5 -56t-136 60t-52 142zM616 1366q0 82 52.5 142.5t136.5 60.5t136 -56.5t52 -146.5t-52 -146t-136 -56t-136.5 60t-52.5 142z" />
<glyph unicode="&#x152;" horiz-adv-x="1998" d="M78 721q0 160 41 293t130 227t230.5 146.5t341.5 52.5h1096v-338h-561v-191h418v-338h-418v-235h581v-338h-1106q-207 0 -351 53t-233 149.5t-129 228.5t-40 290zM471 719q0 -92 26.5 -163t73.5 -120t112 -73.5t140 -24.5h148v764h-140q-86 0 -153.5 -18.5t-113.5 -62.5 t-69.5 -118t-23.5 -184z" />
<glyph unicode="&#x153;" horiz-adv-x="1746" d="M20 514q0 127 37 228.5t106.5 172t169 107.5t226.5 37q213 0 346 -103q59 49 140 76t182 27q240 0 366.5 -140.5t126.5 -426.5v-84h-641q10 -72 68.5 -119t185.5 -47q78 0 153 16t120 33l71 -248q-41 -25 -138.5 -50.5t-238.5 -25.5q-113 0 -209 30t-171 89 q-68 -55 -159 -85t-202 -30q-125 0 -225.5 38t-170 107.5t-106.5 170t-37 227.5zM389 514q0 -256 170 -256t170 256q0 131 -40 194.5t-130 63.5t-130 -63.5t-40 -194.5zM1069 637h324q-10 80 -51.5 113.5t-112.5 33.5q-78 0 -114 -38.5t-46 -108.5z" />
<glyph unicode="&#x178;" horiz-adv-x="1335" d="M20 1440h394l260 -506l256 506h385l-451 -830v-610h-389v610zM215 1805q0 84 52 144.5t138 60.5t138.5 -56.5t52.5 -148.5t-52.5 -148.5t-138.5 -56.5t-138 60.5t-52 144.5zM754 1805q0 84 52 144.5t138 60.5t138 -56.5t52 -148.5t-52 -148.5t-138 -56.5t-138 60.5 t-52 144.5z" />
<glyph unicode="&#x2c6;" horiz-adv-x="1067" d="M102 1339l342 332h179l342 -332l-177 -172l-253 224l-256 -224z" />
<glyph unicode="&#x2dc;" horiz-adv-x="1046" d="M51 1176q0 188 77 286.5t206 98.5q59 0 103 -17.5t83 -38t76 -38t84 -17.5t62.5 28.5t15.5 82.5h237q0 -193 -74.5 -289t-199.5 -96q-59 0 -107.5 17t-90.5 38.5t-77.5 39t-66.5 17.5q-90 0 -90 -112h-238z" />
<glyph unicode="&#x2000;" horiz-adv-x="1012" />
<glyph unicode="&#x2001;" horiz-adv-x="2025" />
<glyph unicode="&#x2002;" horiz-adv-x="1012" />
<glyph unicode="&#x2003;" horiz-adv-x="2025" />
<glyph unicode="&#x2004;" horiz-adv-x="675" />
<glyph unicode="&#x2005;" horiz-adv-x="506" />
<glyph unicode="&#x2006;" horiz-adv-x="337" />
<glyph unicode="&#x2007;" horiz-adv-x="337" />
<glyph unicode="&#x2008;" horiz-adv-x="253" />
<glyph unicode="&#x2009;" horiz-adv-x="405" />
<glyph unicode="&#x200a;" horiz-adv-x="112" />
<glyph unicode="&#x2010;" horiz-adv-x="903" d="M78 406v335h747v-335h-747z" />
<glyph unicode="&#x2011;" horiz-adv-x="903" d="M78 406v335h747v-335h-747z" />
<glyph unicode="&#x2012;" horiz-adv-x="903" d="M78 406v335h747v-335h-747z" />
<glyph unicode="&#x2013;" horiz-adv-x="1105" d="M41 446v304h1024v-304h-1024z" />
<glyph unicode="&#x2014;" horiz-adv-x="2129" d="M41 446v304h2048v-304h-2048z" />
<glyph unicode="&#x2018;" horiz-adv-x="507" d="M61 1044q0 70 29 143t69 138.5t82 120.5t70 90l146 -90q-33 -49 -72 -120t-63 -136q41 -25 69.5 -59.5t28.5 -100.5q0 -82 -49 -130t-129 -48t-130.5 50t-50.5 142z" />
<glyph unicode="&#x2019;" horiz-adv-x="507" d="M51 915q33 49 72 120t63 136q-41 25 -69.5 60t-28.5 100q0 82 49 130t129 48t130 -50t50 -142q0 -72 -28.5 -143.5t-68.5 -137t-83 -121t-69 -90.5z" />
<glyph unicode="&#x201a;" horiz-adv-x="507" d="M41 -274q33 49 72 119.5t63 136.5q-41 25 -69.5 59.5t-28.5 99.5q0 82 49 130t129 48t130 -50t50 -142q0 -72 -28.5 -143.5t-68.5 -137t-83 -121t-70 -90.5z" />
<glyph unicode="&#x201c;" horiz-adv-x="944" d="M61 1012q0 70 29 142.5t69 138t82 120.5t70 90l146 -90q-33 -49 -72 -119.5t-63 -136.5q41 -25 69.5 -59.5t28.5 -100.5q0 -82 -49 -130t-129 -48t-130.5 50.5t-50.5 142.5zM498 1012q0 70 28.5 142.5t68.5 138t82 120.5t71 90l145 -90q-33 -49 -72 -119.5t-63 -136.5 q41 -25 69.5 -59.5t28.5 -100.5q0 -82 -49 -130t-129 -48t-130 50.5t-50 142.5z" />
<glyph unicode="&#x201d;" horiz-adv-x="944" d="M51 915q33 49 72 120t63 136q-41 25 -69.5 60t-28.5 100q0 82 49 130t129 48t130 -50t50 -142q0 -72 -28.5 -143.5t-68.5 -137t-83 -121t-69 -90.5zM487 915q33 49 72 120t63 136q-41 25 -69.5 60t-28.5 100q0 82 49 130t129 48t130 -50t50 -142q0 -72 -28.5 -143.5 t-68.5 -137t-83 -121t-69 -90.5z" />
<glyph unicode="&#x201e;" horiz-adv-x="970" d="M41 -274q33 49 72 119.5t63 136.5q-41 25 -69.5 59.5t-28.5 99.5q0 82 49 130t129 48t130 -50t50 -142q0 -72 -28.5 -143.5t-68.5 -137t-83 -121t-70 -90.5zM483 -274q33 49 72 119.5t63 136.5q-41 25 -69.5 59.5t-28.5 99.5q0 82 49 130t129 48t130 -50t50 -142 q0 -72 -28.5 -143.5t-68.5 -137t-83 -121t-70 -90.5z" />
<glyph unicode="&#x2022;" horiz-adv-x="1140" d="M121 694q0 98 31.5 180t91 141.5t141.5 93.5t184 34t186.5 -34t142.5 -93.5t90 -141t32 -180.5q0 -98 -32 -180t-90 -141.5t-142 -93t-187 -33.5q-102 0 -184 33.5t-141.5 93t-91 141.5t-31.5 180z" />
<glyph unicode="&#x2026;" horiz-adv-x="1837" d="M92 184q0 86 50.5 144.5t138.5 58.5t138 -55.5t50 -147.5t-50 -147t-138 -55t-138.5 58t-50.5 144zM731 184q0 86 50.5 144.5t138.5 58.5t138 -55.5t50 -147.5t-50 -147t-138 -55t-138.5 58t-50.5 144zM1368 184q0 86 50.5 144.5t138.5 58.5t138 -55.5t50 -147.5 t-50 -147t-138 -55t-138.5 58t-50.5 144z" />
<glyph unicode="&#x202f;" horiz-adv-x="405" />
<glyph unicode="&#x2039;" horiz-adv-x="679" d="M57 512l236 395h330l-228 -395l228 -395h-330z" />
<glyph unicode="&#x203a;" horiz-adv-x="679" d="M57 117l228 395l-228 395h330l236 -395l-236 -395h-330z" />
<glyph unicode="&#x205f;" horiz-adv-x="506" />
<glyph unicode="&#x20ac;" horiz-adv-x="1259" d="M20 438v213h162v80h-157v217h186q18 94 68.5 187.5t128 167t180 118.5t225.5 45q150 0 242 -36.5t151 -90.5l-168 -245q-45 33 -95 49t-99 16q-94 0 -156.5 -59.5t-85.5 -151.5h338l-66 -217h-303v-49v-12t2 -19h297l-61 -213h-207q16 -63 74.5 -108t150.5 -45 q47 0 89 12t74 27.5t54.5 31t28.5 21.5l166 -238q-31 -27 -71 -55.5t-90 -52t-113.5 -39t-141.5 -15.5q-127 0 -229 37t-181 99.5t-130.5 146.5t-75.5 178h-187z" />
<glyph unicode="&#x2122;" horiz-adv-x="1748" d="M31 1190v250h696v-250h-199v-535h-299v535h-198zM786 655l33 785h277l131 -301l131 301h276l33 -785h-262l-6 369l-111 -211h-123l-112 211l-4 -369h-263z" />
<glyph unicode="&#xe000;" horiz-adv-x="1034" d="M0 0v1034h1034v-1034h-1034z" />
</font>
</defs>
</svg>
